<svg width="70" height="70" viewBox="0 0 70 70" fill="none" xmlns="http://www.w3.org/2000/svg">
<g clip-path="url(#clip0_14388_7350)">
<path d="M49.9796 48.6354H29.8838C29.3173 48.6354 28.8582 49.0945 28.8582 49.6611C28.8582 50.2276 29.3173 50.6867 29.8838 50.6867H49.9796C53.9383 50.6867 57.159 47.4661 57.159 43.5074V28.1067C57.159 24.148 53.9383 20.9273 49.9796 20.9273H44.1559L30.9215 14.1716C29.6012 13.4979 27.9791 14.024 27.3053 15.3437L24.4551 20.9273H20.6578C19.3382 20.9273 18.2646 22.0008 18.2646 23.3204V48.2935C18.2646 49.6131 19.3382 50.6866 20.6578 50.6866H25.3725C25.9391 50.6866 26.3982 50.2275 26.3982 49.6609C26.3982 49.0944 25.9391 48.6353 25.3725 48.6353H20.6578C20.4692 48.6353 20.3158 48.482 20.3158 48.2933V23.3203C20.3158 23.1318 20.4691 22.9784 20.6578 22.9784H49.9794C52.8072 22.9784 55.1076 25.2788 55.1076 28.1065V31.4414H46.9381C44.3219 31.4414 42.1934 33.5698 42.1934 36.1861V37.5531C42.1934 40.1694 44.3219 42.2978 46.9381 42.2978H55.1076V43.5068C55.1078 46.3349 52.8073 48.6354 49.9796 48.6354ZM29.1324 16.2764C29.2921 15.9636 29.6763 15.8392 29.9891 15.9986L39.6443 20.9273H26.7583L29.1324 16.2764ZM46.9381 40.2469C45.453 40.2469 44.2446 39.0386 44.2446 37.5534V36.1864C44.2446 34.7012 45.453 33.4929 46.9381 33.4929H55.1076V40.2469H46.9381Z" fill="black"/>
<path d="M67.5312 22.5157C65.8929 18.5406 63.5226 14.9748 60.4859 11.9177C59.7403 11.1669 58.9517 10.4449 58.1417 9.77158C57.7064 9.40996 57.0596 9.46902 56.6973 9.90461C56.3353 10.3402 56.3949 10.9869 56.8303 11.349C57.5904 11.9808 58.3306 12.6584 59.0306 13.3632C64.7815 19.1534 67.9486 26.8376 67.9486 35.0003C67.9486 43.2023 64.7546 50.9134 58.9548 56.713C53.1552 62.5127 45.4441 65.7068 37.242 65.7068C30.7627 65.7068 24.5914 63.7239 19.3621 59.9676L20.5737 58.392C25.4524 61.8797 31.205 63.7205 37.242 63.7205C44.9152 63.7205 52.1332 60.7206 57.5667 55.2738C62.9998 49.827 65.9813 42.6013 65.9622 34.9274C65.9228 19.1704 53.0718 6.3193 37.3148 6.27992C37.2898 6.27992 37.2652 6.27979 37.24 6.27979C32.6586 6.27979 28.2768 7.33211 24.2153 9.40777C20.3227 11.397 16.8758 14.3034 14.2468 17.8126C13.9072 18.2659 13.9995 18.9088 14.4527 19.2484C14.9059 19.5877 15.5489 19.4956 15.8885 19.0425C20.9158 12.3316 28.8947 8.33084 37.2443 8.33084C37.2657 8.33084 37.288 8.33098 37.3096 8.33098C51.941 8.36762 63.8744 20.3008 63.9109 34.9322C63.9286 42.0573 61.1598 48.7669 56.1143 53.825C51.0686 58.8833 44.3661 61.6691 37.2418 61.6691C31.4854 61.6691 26.0086 59.8674 21.4032 56.4588C20.7247 55.9565 19.7529 56.0941 19.2368 56.7652L17.4317 59.1126C17.1741 59.4474 17.0643 59.8622 17.1226 60.2805C17.1811 60.7005 17.4012 61.0713 17.742 61.3242C23.4108 65.5331 30.1536 67.7578 37.2418 67.7578C45.9918 67.7578 54.2181 64.3504 60.4053 58.1633C66.5925 51.9764 69.9999 43.7502 69.9999 35.0003C69.9999 30.6909 69.1692 26.4905 67.5312 22.5157Z" fill="black"/>
<path d="M13.4212 30.0431C13.2267 29.7145 12.9156 29.4814 12.5457 29.3868C12.1757 29.2919 11.7911 29.3472 11.4626 29.5418L11.0911 29.7622C11.5613 27.4067 12.3489 25.1323 13.4423 22.9767C13.6985 22.4717 13.4968 21.8544 12.9915 21.5982C12.487 21.3421 11.8693 21.5435 11.613 22.0489C10.0858 25.0592 9.11253 28.2849 8.71961 31.6369C8.67421 32.0242 8.8525 32.4039 9.17953 32.6163C9.50656 32.8288 9.92588 32.8374 10.2612 32.6386L11.9734 31.6236L12.9861 33.3325L7.13066 36.8029L2.30791 32.4275L3.64228 30.9566L5.01863 32.2049C5.30423 32.4639 5.71043 32.5409 6.07082 32.4045C6.43107 32.2681 6.68468 31.9412 6.72707 31.5583C7.49898 24.5919 10.5426 18.2737 15.529 13.2873C21.301 7.5153 28.9742 4.32127 37.1349 4.29365C37.1701 4.29352 37.2051 4.29352 37.2402 4.29352C42.8546 4.29352 48.3287 5.80822 53.0772 8.67672C53.562 8.96944 54.1925 8.81412 54.4854 8.32905C54.7782 7.84424 54.6226 7.21383 54.1377 6.92084C49.0689 3.85875 43.2288 2.24219 37.2401 2.24219C37.2029 2.24219 37.165 2.24219 37.1278 2.24232C32.819 2.25682 28.6215 3.10229 24.6521 4.75453C20.6832 6.40678 17.1256 8.78951 14.0783 11.8367C9.22738 16.6878 6.0998 22.721 4.96189 29.3842L4.55994 29.0195C4.2772 28.7629 3.91271 28.6336 3.5299 28.6501C3.14845 28.6688 2.79709 28.8347 2.54074 29.1176L0.371014 31.5097C0.114393 31.7925 -0.0168574 32.1583 0.00173633 32.5398C0.0203301 32.9212 0.186307 33.2726 0.469178 33.5289L6.01914 38.564C6.31582 38.8331 6.69015 38.9713 7.06832 38.9713C7.34203 38.9713 7.61793 38.8988 7.86716 38.7509L14.5671 34.7799C15.2449 34.3782 15.4697 33.4998 15.068 32.8215L13.4212 30.0431Z" fill="black"/>
<path d="M47.6452 38.5866C48.6008 38.5866 49.3754 37.8119 49.3754 36.8564C49.3754 35.9008 48.6008 35.1262 47.6452 35.1262C46.6897 35.1262 45.915 35.9008 45.915 36.8564C45.915 37.8119 46.6897 38.5866 47.6452 38.5866Z" fill="black"/>
</g>
<defs>
<clipPath id="clip0_14388_7350">
<rect width="70" height="70" fill="white"/>
</clipPath>
</defs>
</svg>
