<svg width="70" height="70" viewBox="0 0 70 70" fill="none" xmlns="http://www.w3.org/2000/svg">
<g clip-path="url(#clip0_14388_1107)">
<path d="M65.5879 6.15234H59.0061C58.4336 6.15234 57.969 6.61697 57.969 7.18948C57.969 7.76253 58.4336 8.22716 59.0061 8.22716H65.5879C66.8765 8.22716 67.9249 9.27551 67.9249 10.5642V26.3969C67.9249 27.6855 66.8765 28.7339 65.5879 28.7339H41.3315C41.0565 28.7339 40.7926 28.8434 40.5977 29.0378L34.6232 35.0123V29.7716C34.6232 29.1985 34.1591 28.7339 33.5861 28.7339H31.6106C30.3219 28.7339 29.2735 27.6855 29.2735 26.3969V10.5642C29.2735 9.27551 30.3219 8.22716 31.6106 8.22716H55.5481C56.1212 8.22716 56.5858 7.76253 56.5858 7.18948C56.5858 6.61697 56.1212 6.15234 55.5481 6.15234H31.6106C29.1779 6.15234 27.1987 8.13156 27.1987 10.5642V26.3969C27.1987 28.8295 29.1779 30.8087 31.6106 30.8087H32.5489V37.5165C32.5489 37.9362 32.8015 38.3144 33.1893 38.4751C33.3174 38.528 33.452 38.5541 33.5861 38.5541C33.8558 38.5541 34.1212 38.4484 34.3199 38.2503L41.7609 30.8087H65.5879C68.0205 30.8087 69.9997 28.8295 69.9997 26.3969V10.5642C69.9997 8.13156 68.0205 6.15234 65.5879 6.15234Z" fill="black"/>
<path d="M37.5 19.4585C38.73 18.6169 40.2611 17.5685 40.2611 15.7762C40.2611 14.926 39.9166 14.2013 39.2656 13.6806C38.6899 13.2197 37.8963 12.9553 37.0883 12.9553C35.5961 12.9553 34.0105 13.8728 34.0105 15.5727C34.0105 16.3226 34.3261 16.6873 34.9755 16.6873C35.7083 16.6873 36.1035 16.2804 36.1035 15.898C36.1035 15.2635 36.4672 14.8993 37.1016 14.8993C37.8488 14.8993 38.1137 15.4082 38.1137 15.8435C38.1137 16.6494 37.1636 17.3469 36.1574 18.0855C35.022 18.9186 33.8481 19.7806 33.8481 20.9085V22.2223C33.8481 22.6298 34.4036 22.8899 34.7859 22.8899H39.6074C39.9556 22.8899 40.2611 22.445 40.2611 21.9376C40.2611 21.4452 39.9556 21.0132 39.6074 21.0132H36.0762V20.9085C36.0762 20.4332 36.7363 19.9819 37.5 19.4585Z" fill="black"/>
<path d="M45.9992 22.8893C46.7368 22.8893 47.0727 22.5438 47.0727 22.2223V20.8038H47.6377C47.9747 20.8038 48.3053 20.3125 48.3053 19.8116C48.3053 19.1296 47.9592 18.8193 47.6377 18.8193H47.0727V17.8884C47.0727 17.5872 46.7918 17.2347 45.9992 17.2347C45.2067 17.2347 44.9258 17.5867 44.9258 17.8884V18.8193H43.8064L46.1909 14.0357C46.2273 13.9519 46.2604 13.8622 46.2604 13.7714C46.2604 13.5503 46.1188 13.3382 45.8614 13.1743C45.6515 13.0413 45.3872 12.9553 45.1869 12.9553C44.7928 12.9553 44.475 13.1508 44.2913 13.5065L41.1628 19.6407C41.0667 19.8169 41.0522 19.976 41.0522 20.0551C41.0522 20.5032 41.3428 20.8038 41.7743 20.8038H44.9258V22.2218C44.9258 22.5438 45.2617 22.8893 45.9992 22.8893Z" fill="black"/>
<path d="M54.0955 12.7484L49.3424 22.512C49.2981 22.6007 49.2725 22.6968 49.2725 22.7769C49.2725 23.1321 49.5844 23.5123 50.0484 23.5123C50.3208 23.5123 50.5777 23.3687 50.6733 23.1641L55.4403 13.3999C55.4868 13.307 55.4964 13.2045 55.4964 13.1351C55.4964 12.695 55.0745 12.3997 54.6798 12.3997C54.4128 12.3997 54.1997 12.5268 54.0955 12.7484Z" fill="black"/>
<path d="M57.7271 16.3893C58.3167 16.3893 58.8144 16.0838 58.8144 15.7217V14.8315H61.2038V15.7575L57.8745 21.5232C57.8077 21.6439 57.7778 21.755 57.7778 21.8837C57.7778 22.524 58.4935 22.9705 59.1359 22.9705C59.4414 22.9705 59.6417 22.8749 59.7469 22.6768L62.916 16.6099C63.018 16.4187 63.3513 15.7591 63.3513 15.3153V13.6224C63.3513 13.3313 62.8962 12.9553 62.4129 12.9553H57.6053C57.1322 12.9553 56.667 13.2859 56.667 13.6224V15.7217C56.667 16.0897 57.1428 16.3893 57.7271 16.3893Z" fill="black"/>
<path d="M42.8983 42.1687C42.3589 41.6293 41.6411 41.3324 40.8779 41.3324C40.1148 41.3324 39.397 41.6293 38.8576 42.1687L32.5168 48.5096C29.9917 47.1899 27.7952 45.9317 25.3406 43.8617C24.9027 43.4927 24.2485 43.5482 23.8789 43.9861C23.5099 44.424 23.5654 45.0783 24.0034 45.4478C26.8381 47.8377 29.3055 49.1868 32.2364 50.7019C32.6374 50.9091 33.1266 50.8333 33.446 50.5139L36.8576 47.1029L48.1043 58.3496C44.4716 61.4679 39.327 62.5537 33.4861 61.4054C26.9172 60.1136 19.9659 56.0691 13.9129 50.0162C7.85991 43.9632 3.81496 37.0113 2.52308 30.4425C1.37486 24.6009 2.4606 19.4564 5.57842 15.8243L16.8267 27.072L13.4141 30.4841C13.0947 30.8035 13.0189 31.2932 13.2266 31.6943C15.2924 35.6885 16.9592 38.6194 21.1344 42.7952C21.5398 43.2 22.1966 43.2 22.6015 42.7952C23.0068 42.3898 23.0068 41.7329 22.6015 41.3281C18.8583 37.5849 17.2897 34.9926 15.4189 31.4139L21.7603 25.072C22.3003 24.5326 22.5972 23.8148 22.5972 23.0517C22.5972 22.2885 22.3003 21.5707 21.7603 21.0313L11.5908 10.8618C11.0514 10.3219 10.3337 10.0244 9.57049 10.0244C8.80732 10.0244 8.08955 10.3219 7.55015 10.8613L4.81632 13.5951C0.65602 17.7554 -0.881529 23.881 0.487258 30.8425C1.85765 37.8114 6.10446 45.1418 12.4458 51.4832C18.7867 57.8241 26.1172 62.0709 33.0861 63.4407C34.7448 63.767 36.3556 63.9283 37.9043 63.9278C42.8545 63.9278 47.1643 62.2808 50.3334 59.1117L53.0667 56.3784C53.6066 55.8384 53.9036 55.1212 53.9036 54.358C53.9036 53.5949 53.6066 52.8771 53.0667 52.3377L42.8983 42.1687ZM9.01721 12.3283C9.16461 12.1809 9.36114 12.0992 9.57049 12.0992C9.77984 12.0992 9.97637 12.1804 10.1238 12.3283L20.2938 22.4984C20.4412 22.6458 20.5229 22.8423 20.5229 23.0517C20.5229 23.261 20.4412 23.4575 20.2938 23.6049L18.2938 25.605L7.01716 14.3284L9.01721 12.3283ZM51.6002 54.9113L49.5996 56.9114L38.3246 45.6358L40.3247 43.6358C40.4721 43.4879 40.6691 43.4067 40.8779 43.4067C41.0868 43.4067 41.2833 43.4879 41.4312 43.6358L51.6002 53.8042C51.9051 54.1097 51.9051 54.6064 51.6002 54.9113Z" fill="black"/>
</g>
<defs>
<clipPath id="clip0_14388_1107">
<rect width="70" height="70" fill="white"/>
</clipPath>
</defs>
</svg>
