<svg width="70" height="70" viewBox="0 0 70 70" fill="none" xmlns="http://www.w3.org/2000/svg">
<path d="M65.0997 31.6315L63.287 24.3806C63.7826 24.2753 64.1544 23.8356 64.1544 23.3089V22.1398C64.1544 19.6015 62.0893 17.5365 59.5511 17.5365H51.2944V15.125C51.2944 13.876 50.2783 12.8599 49.0293 12.8599H6.94148C5.69242 12.8599 4.67633 13.876 4.67633 15.125V34.9998C4.67633 35.6051 5.16701 36.0959 5.7724 36.0959C6.37766 36.0959 6.86848 35.6052 6.86848 34.9998V15.125C6.86848 15.0847 6.90115 15.052 6.94148 15.052H49.0291C49.0695 15.052 49.1021 15.0847 49.1021 15.125V35.0001C49.1021 35.6053 49.5928 36.0962 50.1982 36.0962C50.8035 36.0962 51.2943 35.6055 51.2943 35.0001V33.7576H64.2236C64.2247 33.7576 64.2255 33.7579 64.2265 33.7579C64.2276 33.7579 64.2286 33.7577 64.2295 33.7577C65.8205 33.7588 67.1714 34.8031 67.6354 36.242H64.2273C63.6221 36.242 63.1313 36.7327 63.1313 37.3381V39.6763C63.1313 41.57 64.6718 43.1105 66.5655 43.1105H67.8077V47.933H64.9418C64.0004 45.2146 61.4162 43.2565 58.3818 43.2565C55.3473 43.2565 52.763 45.2146 51.8217 47.933H51.294V39.6761C51.294 39.0709 50.8033 38.5801 50.1979 38.5801C49.5927 38.5801 49.1019 39.0708 49.1019 39.6761V47.9327H26.3617C25.4203 45.2143 22.8361 43.2563 19.8017 43.2563C16.7672 43.2563 14.1829 45.2143 13.2416 47.9327H6.94148C6.90115 47.9327 6.86848 47.9 6.86848 47.8597V45.4484H11.6179C12.2232 45.4484 12.714 44.9577 12.714 44.3523C12.714 43.7469 12.2233 43.2563 11.6179 43.2563H1.09607C0.49082 43.2563 0 43.7469 0 44.3523C0 44.9577 0.490684 45.4484 1.09607 45.4484H4.67647V47.8597C4.67647 49.1088 5.69256 50.1249 6.94162 50.1249H12.8621C12.8618 50.1492 12.8602 50.1734 12.8602 50.1979C12.8602 54.0255 15.9742 57.1394 19.8017 57.1394C23.6291 57.1394 26.7431 54.0255 26.7431 50.1979C26.7431 50.1733 26.7415 50.1492 26.7412 50.1249H51.4422C51.4419 50.1492 51.4403 50.1734 51.4403 50.1979C51.4403 54.0255 54.5543 57.1394 58.3818 57.1394C62.2092 57.1394 65.3233 54.0255 65.3233 50.1979C65.3233 50.1733 65.3216 50.1492 65.3214 50.1249H68.9038C69.509 50.1249 69.9999 49.6342 69.9999 49.0288V37.3378C70 34.4514 67.8703 32.0533 65.0997 31.6315ZM51.2944 19.7285H59.5511C60.8807 19.7285 61.9624 20.8102 61.9624 22.1398V22.2128H51.2944V19.7285ZM51.2944 31.5656V24.4048H61.0336L62.8238 31.5656H51.2944ZM19.8017 54.9476C17.1828 54.9476 15.0522 52.8171 15.0522 50.1982C15.0522 47.5792 17.1828 45.4487 19.8017 45.4487C22.4205 45.4487 24.5511 47.5792 24.5511 50.1982C24.5511 52.8171 22.4205 54.9476 19.8017 54.9476ZM58.3821 54.9476C55.7632 54.9476 53.6326 52.8171 53.6326 50.1982C53.6326 47.5792 55.7632 45.4487 58.3821 45.4487C61.0009 45.4487 63.1315 47.5792 63.1315 50.1982C63.1315 52.8171 61.0009 54.9476 58.3821 54.9476ZM67.808 40.9184H66.5658C65.8808 40.9184 65.3235 40.3611 65.3235 39.6761V38.4339H67.8079V40.9184H67.808Z" fill="black"/>
<path d="M19.8018 47.9331C18.5527 47.9331 17.5366 48.9492 17.5366 50.1983C17.5366 51.4473 18.5527 52.4634 19.8018 52.4634C21.0508 52.4634 22.0669 51.4473 22.0669 50.1983C22.0669 48.9492 21.0508 47.9331 19.8018 47.9331Z" fill="black"/>
<path d="M58.3819 47.9331C57.1328 47.9331 56.1167 48.9492 56.1167 50.1983C56.1167 51.4473 57.1328 52.4634 58.3819 52.4634C59.6309 52.4634 60.647 51.4473 60.647 50.1983C60.647 48.9492 59.6309 47.9331 58.3819 47.9331Z" fill="black"/>
<path d="M45.5221 43.2568H29.1547C28.5494 43.2568 28.0586 43.7475 28.0586 44.3529C28.0586 44.9583 28.5493 45.449 29.1547 45.449H45.5221C46.1273 45.449 46.6182 44.9583 46.6182 44.3529C46.6182 43.7475 46.1275 43.2568 45.5221 43.2568Z" fill="black"/>
<path d="M17.4637 38.5806H3.43445C2.8292 38.5806 2.33838 39.0712 2.33838 39.6766C2.33838 40.282 2.82906 40.7727 3.43445 40.7727H17.4637C18.069 40.7727 18.5598 40.282 18.5598 39.6766C18.5598 39.0712 18.069 38.5806 17.4637 38.5806Z" fill="black"/>
<path d="M38.1135 23.703C37.6855 23.2751 36.9914 23.2751 36.5635 23.7031L26.8165 33.45L21.746 28.3795C21.318 27.9514 20.624 27.9514 20.1961 28.3795C19.768 28.8075 19.768 29.5014 20.1961 29.9295L26.0416 35.775C26.2556 35.9891 26.5361 36.096 26.8165 36.096C27.0969 36.096 27.3776 35.9891 27.5914 35.775L38.1133 25.2531C38.5414 24.8249 38.5414 24.1311 38.1135 23.703Z" fill="black"/>
</svg>
