<svg width="184" height="76" viewBox="0 0 184 76" fill="none" xmlns="http://www.w3.org/2000/svg">
<path d="M86.7193 9.08794C84.6938 7.60776 81.9672 7.06243 79.5522 6.67291C78.072 6.4392 76.5918 6.28339 75.1895 5.81596C74.4884 5.58225 73.4756 5.03692 73.0082 4.41369C71.8396 2.8556 73.3977 1.99866 74.7221 2.8556C75.0337 3.08931 75.3453 2.54399 75.0337 2.31027C74.021 1.60914 72.3071 1.45333 71.9955 3.01141C71.6838 4.6474 73.7872 5.89387 75.0337 6.36129C77.7604 7.29614 80.7207 7.14033 83.4474 8.15309C84.8496 8.69842 86.3298 9.32165 87.3426 10.4902C88.1216 11.3472 88.667 12.3599 88.4332 13.6064C88.1216 15.0866 87.031 15.8656 85.5508 15.4761C85.1613 15.3982 85.0055 15.9435 85.395 16.0214C87.1868 16.5667 88.667 15.554 89.0565 13.7622C89.446 11.8925 88.2774 10.2565 86.7193 9.08794Z" fill="black"/>
<path d="M95.0552 9.08794C97.0807 7.60776 99.8074 7.06243 102.222 6.67291C103.703 6.4392 105.183 6.28339 106.585 5.81596C107.286 5.58225 108.299 5.03692 108.766 4.41369C109.935 2.8556 108.377 1.99866 107.052 2.8556C106.741 3.08931 106.429 2.54399 106.741 2.31027C107.754 1.60914 109.467 1.45333 109.779 3.01141C110.091 4.6474 107.987 5.89387 106.741 6.36129C104.014 7.29614 101.054 7.14033 98.3272 8.15309C96.9249 8.69842 95.4447 9.32165 94.432 10.4902C93.6529 11.3472 93.1076 12.3599 93.3413 13.6064C93.6529 15.0866 94.7436 15.8656 96.2238 15.4761C96.6133 15.3982 96.7691 15.9435 96.3796 16.0214C94.5878 16.5667 93.1076 15.554 92.7181 13.7622C92.3286 11.8925 93.4971 10.2565 95.0552 9.08794Z" fill="black"/>
<path d="M94.8994 7.99721C94.7436 7.99721 93.8087 7.29607 93.1855 6.67283C92.0169 5.27056 90.9263 1.84277 90.8484 1.84277C90.7705 1.84277 89.6798 5.27056 88.5113 6.67283C87.9659 7.29607 86.9532 7.9193 86.7974 7.99721C89.2124 7.45188 90.7705 12.3598 90.8484 12.3598C90.9263 12.3598 92.7181 7.37397 94.8994 7.99721Z" fill="black"/>
<path d="M67.0099 16.4888C65.6855 19.6829 62.5693 21.9421 58.8299 22.0979C52.2081 22.4096 47.3001 16.8005 43.4049 12.282L42.7817 11.5809C39.1202 7.37404 35.4587 4.8811 31.7972 4.17997C31.7193 4.17997 31.6413 4.17997 31.5634 4.10206C30.317 4.02416 28.9147 5.34853 28.2915 6.28338C28.2136 6.36128 28.1357 6.51709 28.1357 6.595C27.824 7.06242 27.5124 7.68565 26.8892 7.84146C26.266 7.99727 25.5648 7.76356 25.1753 7.21823C24.7079 6.43919 25.0195 5.50434 25.5648 4.95901C26.3439 4.17997 27.5124 3.86835 28.2915 3.63463C29.3821 3.32302 30.6286 3.32302 31.953 3.55673C35.6924 4.25787 39.3539 6.75081 43.1712 11.1134L43.7944 11.8146C47.6117 16.2551 52.3639 21.7863 58.752 21.3968C62.6472 21.1631 65.9192 18.6701 66.854 15.0866C66.9319 14.7749 67.0099 14.3854 67.0878 13.9959C67.4773 11.0355 66.4645 7.14033 63.2705 5.42643C62.5693 5.03691 61.8682 4.7253 61.167 4.56949C58.5962 3.86835 55.0126 4.41368 53.3766 7.29614C52.7534 8.4647 52.286 10.1007 52.9871 11.4251C53.3766 12.2041 54.1557 12.8273 54.9347 13.061C55.5579 13.2169 56.1812 13.1389 56.8044 12.8273C56.9602 12.7494 57.116 12.8273 57.1939 12.9052C57.2718 13.061 57.1939 13.2169 57.116 13.2948C56.4149 13.6843 55.6358 13.8401 54.8568 13.6064C53.922 13.3727 53.1429 12.6715 52.5976 11.7367C51.8185 10.2565 52.286 8.30889 52.9871 7.06242C54.7789 3.94625 58.5962 3.32302 61.3229 4.10206C62.1019 4.33578 62.803 4.64739 63.5821 5.03691C66.932 6.90661 68.0226 11.0355 67.6331 14.1517C67.5552 14.5412 67.4773 14.9307 67.3994 15.2424C67.2436 15.7877 67.0878 16.1772 67.0099 16.4888ZM25.5648 5.89386C25.409 6.28338 25.409 6.6729 25.5648 6.98452C25.7985 7.37404 26.266 7.52985 26.6555 7.45194C27.045 7.29613 27.3566 6.90662 27.5903 6.43919C27.6682 6.28338 27.7461 6.20548 27.824 6.04967C28.1357 5.50434 28.9926 4.49158 30.0054 4.02415C29.46 4.02415 28.9147 4.10206 28.3694 4.25787C27.6682 4.41368 26.5776 4.7253 25.8764 5.42643C25.7985 5.50434 25.6427 5.73805 25.5648 5.89386Z" fill="black"/>
<path d="M34.991 13.139C34.9131 13.2948 34.7573 13.2948 34.6794 13.2948C32.6539 12.5158 29.6156 12.0483 27.8238 12.8274C25.8762 13.6843 24.5518 15.4761 24.3181 17.3458C24.1623 18.6702 24.6297 20.0725 25.4867 20.8515C26.1099 21.4748 26.9669 21.7864 27.8238 21.7085C28.2133 21.6306 28.447 21.3189 28.525 21.0073C28.6029 20.6178 28.4471 20.2283 28.0575 19.9167C27.8238 19.7609 27.5901 19.683 27.3564 19.5271C26.8111 19.2934 26.1878 18.9818 25.9541 18.3586C25.7983 17.8912 25.7983 17.4237 25.9541 16.9563C26.1878 16.4889 26.5774 16.1773 27.0448 16.0215C27.7459 15.8656 28.525 16.0215 29.2261 16.5668C30.1609 17.3458 30.7842 18.5923 30.6284 19.683C30.5505 20.6178 30.0051 21.3968 29.1482 21.8643C28.7587 22.098 28.2912 22.1759 27.8238 22.2538C27.8238 22.2538 27.8238 22.2538 27.7459 22.2538C26.8111 22.3317 25.7983 21.9422 25.0193 21.241C24.0065 20.3062 23.5391 18.826 23.6949 17.2679C23.9286 15.1645 25.4088 13.2169 27.5122 12.2821C29.4598 11.4251 32.6539 11.8925 34.7573 12.7495C34.991 12.9053 35.0689 12.9832 34.991 13.139ZM28.8366 21.4747C28.9145 21.4747 28.9145 21.4747 28.8366 21.4747C29.7714 20.9294 30.0051 20.2283 30.083 19.683C30.1609 18.7481 29.6935 17.6574 28.8366 16.9563C28.2912 16.5668 27.668 16.3331 27.1227 16.4889C26.8111 16.5668 26.4994 16.8005 26.3436 17.1121C26.1878 17.4237 26.1878 17.7353 26.3436 18.1249C26.5774 18.5923 27.0448 18.826 27.5122 19.0597C27.7459 19.2155 28.0575 19.2934 28.2912 19.5271C28.8366 19.9167 29.0703 20.5399 28.9924 21.1631C28.9924 21.241 28.9145 21.3968 28.8366 21.4747Z" fill="black"/>
<path d="M41.3791 9.5554C41.3012 9.63331 41.3012 9.63331 41.3791 9.5554C41.2233 9.71121 41.0675 9.71121 40.9896 9.63331C39.1978 7.99732 37.9514 5.97181 37.7176 4.33582C37.5618 3.24516 37.7955 2.1545 38.4188 1.37546C38.8862 0.752228 39.5873 0.362705 40.4443 0.284801C41.3791 0.206897 42.3919 0.674322 43.0151 1.45336C43.4047 2.0766 43.5605 2.69983 43.2488 3.40097C42.9372 4.18001 42.0024 4.49163 41.3791 4.33582C40.7559 4.18001 40.3664 3.71259 40.3664 3.01145C40.3664 2.85564 40.4443 2.77773 40.6001 2.77773C40.7559 2.77773 40.8338 2.85564 40.8338 3.01145C40.8338 3.63468 41.2233 3.79049 41.457 3.79049C41.9245 3.86839 42.5477 3.63468 42.7814 3.08935C43.0151 2.46612 42.8593 1.99869 42.6256 1.68707C42.1582 1.06384 41.3012 0.674322 40.5222 0.674322C39.8211 0.752227 39.2757 1.06384 38.8862 1.60917C38.3409 2.2324 38.1851 3.24516 38.263 4.18001C38.4967 5.7381 39.6652 7.6078 41.3791 9.16588C41.3791 9.3996 41.3791 9.4775 41.3791 9.5554Z" fill="black"/>
<path d="M76.2804 16.0213C76.2025 16.3329 76.0467 16.5667 75.813 16.8004C74.8782 18.0468 73.1643 18.5143 71.8399 17.9689C71.2946 17.7352 70.8271 17.3457 70.6713 16.8783C70.4376 16.3329 70.5934 15.6318 70.9829 15.2423C71.2167 15.0086 71.6062 14.9307 71.9178 15.0086C72.2294 15.0865 72.4631 15.2423 72.6189 15.476C72.6968 15.6318 72.6189 15.7876 72.541 15.7876C72.3852 15.8655 72.2294 15.7876 72.2294 15.7097C72.1515 15.5539 71.9957 15.476 71.8399 15.476C71.6841 15.476 71.4504 15.476 71.2946 15.6318C71.0609 15.8655 70.9829 16.3329 71.1388 16.7225C71.2946 17.0341 71.6062 17.3457 72.0736 17.5794C73.2422 18.0468 74.7223 17.6573 75.4235 16.5667C76.1246 15.5539 76.2025 14.0737 75.5793 12.9052C75.2677 12.3598 74.0212 10.568 70.8271 10.4901C70.6713 10.4901 70.5934 10.3343 70.5934 10.2564C70.5934 10.1006 70.7492 10.0227 70.8271 10.0227C73.1643 10.1006 75.1119 11.0355 76.0467 12.6714C76.67 13.6842 76.67 14.9307 76.2804 16.0213Z" fill="black"/>
<path d="M59.2194 10.6461C58.6741 11.8926 57.8951 12.9054 56.8823 13.4507C56.8044 13.5286 56.6486 13.4507 56.5707 13.3728C56.4928 13.2949 56.4928 13.1391 56.6486 13.0612C57.4277 12.4379 57.116 11.6589 56.6486 10.6461C56.2591 9.86709 55.7917 8.69854 56.1033 7.68578C56.337 7.06255 56.8044 6.67303 57.5056 6.51722C58.2067 6.43931 58.9078 6.75093 59.2973 7.29626C59.9985 8.38692 59.609 9.8671 59.4532 10.4124C59.2973 10.4903 59.2194 10.5682 59.2194 10.6461ZM57.5835 12.2821C58.1288 11.7368 58.5183 11.0357 58.8299 10.2566C58.9857 9.86709 59.3753 8.54273 58.752 7.60788C58.5183 7.21836 57.973 6.98464 57.5056 7.06254C57.0381 7.14045 56.6486 7.37416 56.5707 7.84159C56.337 8.69853 56.7265 9.71129 57.0381 10.4124C57.2718 10.9578 57.6614 11.581 57.5835 12.2821Z" fill="black"/>
<path d="M81.1882 17.6572C81.0323 18.0467 80.7986 18.2805 80.487 18.3584C80.0975 18.4363 79.708 18.4363 79.4743 18.2026C79.0847 17.8909 78.851 17.3456 78.851 16.8003C78.851 16.4108 79.0068 15.9433 79.0847 15.5538C79.1627 15.3201 79.2406 15.0864 79.2406 14.8527C79.3185 14.1515 79.2405 13.5283 78.9289 12.9051C76.8255 10.8796 73.6314 10.1784 70.9827 10.4121C67.3991 10.8017 64.0492 12.5155 60.8552 14.1515L60.4656 14.3852C56.882 16.2549 53.3763 17.8909 49.559 17.9688C45.8975 17.9688 42.3919 16.4887 39.042 15.0085C38.3408 14.6969 37.6397 14.3852 36.8607 14.0736C36.0816 13.762 35.3805 13.5283 34.7572 13.2946C34.134 13.0609 33.5108 12.9051 32.8875 12.7493C32.7317 12.7493 32.6538 12.5935 32.7317 12.4376C32.7317 12.2818 32.8875 12.2039 33.0434 12.2818C33.7445 12.4376 34.3677 12.6714 34.991 12.8272C35.6921 13.0609 36.3932 13.2946 37.1723 13.6062C37.8734 13.9178 38.5745 14.2294 39.3536 14.5411C42.6256 16.0212 46.0534 17.5014 49.637 17.4235C53.3764 17.4235 56.8041 15.7875 60.3098 13.9178L60.6993 13.6841C63.9713 11.9702 67.3212 10.2563 70.9827 9.8668C74.5663 9.55518 79.1626 10.8796 80.8765 14.6969C81.1882 15.3201 81.4998 16.0991 81.4219 16.8782C81.2661 17.1898 81.2661 17.4235 81.1882 17.6572ZM79.708 13.9178C79.708 14.2294 79.708 14.5411 79.708 14.9306C79.6301 15.1643 79.6301 15.4759 79.5522 15.7096C79.4743 16.0991 79.3964 16.4887 79.3185 16.8003C79.3185 17.1898 79.4743 17.5793 79.708 17.7351C79.8638 17.8909 80.0975 17.8909 80.2533 17.813C80.6428 17.6572 80.7986 17.1119 80.7986 16.8003C80.8765 16.0991 80.5649 15.4759 80.2533 14.8527C80.0975 14.619 79.9417 14.2294 79.708 13.9178Z" fill="black"/>
<path d="M116.401 16.1774C116.323 15.7879 116.245 15.3984 116.167 15.0868C115.778 11.9706 116.869 7.84167 120.218 5.97196C120.92 5.58244 121.699 5.27083 122.478 5.03712C125.282 4.25807 129.1 4.88131 130.813 7.99748C131.515 9.24395 131.982 11.1136 131.203 12.6717C130.736 13.6066 129.879 14.3077 128.944 14.5414C128.165 14.7751 127.386 14.6193 126.685 14.2298C126.529 14.1519 126.529 13.9961 126.607 13.8403C126.685 13.6845 126.84 13.6845 126.996 13.7624C127.541 14.074 128.165 14.2298 128.866 13.9961C129.645 13.7624 130.346 13.1392 130.813 12.3601C131.515 11.0357 131.047 9.32185 130.424 8.23119C128.788 5.34873 125.204 4.8034 122.634 5.50454C121.932 5.73825 121.231 5.97196 120.53 6.36149C117.336 8.07538 116.323 12.0485 116.713 14.9309C116.791 15.3205 116.791 15.6321 116.947 16.0216C117.881 19.6052 121.153 22.176 125.049 22.3318C131.437 22.6435 136.189 17.1123 140.006 12.7496L140.629 12.0485C144.447 7.68586 148.108 5.19293 151.848 4.49179C153.172 4.25808 154.341 4.25808 155.509 4.56969C156.288 4.7255 157.457 5.11502 158.236 5.89406C158.781 6.43939 159.093 7.37424 158.625 8.15329C158.314 8.69861 157.613 9.01023 156.911 8.77652C156.288 8.62071 155.977 7.99747 155.665 7.53005C155.587 7.45214 155.509 7.29634 155.509 7.21844C154.964 6.28359 153.484 4.88131 152.237 5.03712C152.159 5.03712 152.081 5.03712 152.003 5.11502C148.42 5.81616 144.758 8.30909 141.019 12.5159L140.396 13.2171C136.5 17.7355 131.67 23.3446 124.971 23.033C121.231 22.8772 118.037 20.618 116.791 17.4239C116.635 16.9565 116.479 16.5669 116.401 16.1774ZM157.846 6.20568C157.145 5.50454 156.132 5.19292 155.353 5.03712C154.808 4.88131 154.341 4.88131 153.717 4.8034C154.73 5.34873 155.509 6.28359 155.899 6.82892C155.977 6.90682 156.054 7.06263 156.132 7.21844C156.366 7.68586 156.6 8.07538 157.067 8.23119C157.457 8.30909 157.924 8.15329 158.158 7.76376C158.392 7.45215 158.314 6.98472 158.236 6.6731C158.08 6.5173 157.924 6.28358 157.846 6.20568Z" fill="black"/>
<path d="M148.731 13.9182C148.653 13.7624 148.731 13.6066 148.887 13.6066C151.068 12.7496 154.262 12.3601 156.132 13.1392C158.236 14.074 159.716 16.0216 159.949 18.125C160.105 19.6052 159.638 21.1633 158.625 22.0981C157.846 22.7993 156.833 23.1888 155.898 23.1109C155.898 23.1109 155.898 23.1109 155.821 23.1109C155.353 23.1109 154.886 22.9551 154.496 22.7214C153.639 22.254 153.094 21.4749 153.016 20.5401C152.938 19.3715 153.483 18.2029 154.418 17.4239C155.041 16.8786 155.898 16.7228 156.6 16.8786C157.067 17.0344 157.534 17.346 157.69 17.8134C157.924 18.2808 157.924 18.7483 157.69 19.2157C157.457 19.8389 156.833 20.1505 156.288 20.3842C156.054 20.5401 155.821 20.618 155.587 20.7738C155.197 21.0854 155.041 21.4749 155.119 21.8644C155.197 22.254 155.431 22.4877 155.821 22.5656C156.677 22.6435 157.534 22.3319 158.158 21.7086C159.015 20.8517 159.482 19.5273 159.326 18.2029C159.093 16.2553 157.69 14.4635 155.821 13.6845C154.029 12.9054 150.99 13.295 148.965 14.1519C148.887 14.1519 148.809 14.074 148.731 13.9182ZM154.73 21.9423C154.652 21.3191 154.886 20.7738 155.431 20.3063C155.665 20.1505 155.976 19.9947 156.21 19.8389C156.677 19.6052 157.145 19.3715 157.379 18.9041C157.534 18.5925 157.534 18.2029 157.379 17.8913C157.223 17.5797 156.911 17.346 156.6 17.2681C156.054 17.1123 155.431 17.2681 154.886 17.7355C154.029 18.4366 153.561 19.4494 153.639 20.4622C153.717 21.0075 153.951 21.7086 154.808 22.254C154.808 22.176 154.73 22.0202 154.73 21.9423Z" fill="black"/>
<path d="M142.343 10.3345C142.343 10.4124 142.421 10.4124 142.343 10.3345C142.499 10.4903 142.655 10.4903 142.733 10.4124C144.524 8.77637 145.771 6.75086 146.005 5.11487C146.16 4.02421 145.927 2.93356 145.303 2.15451C144.836 1.53128 144.135 1.14176 143.278 1.06385C142.343 0.98595 141.33 1.45338 140.707 2.23242C140.318 2.85565 140.162 3.47888 140.473 4.18002C140.785 4.95906 141.72 5.27068 142.343 5.11487C142.966 4.95906 143.356 4.49164 143.356 3.7905C143.356 3.63469 143.278 3.55679 143.122 3.55679C142.966 3.55679 142.888 3.63469 142.888 3.7905C142.888 4.41374 142.499 4.56954 142.265 4.56954C141.798 4.64745 141.175 4.41373 140.941 3.8684C140.707 3.24517 140.863 2.77774 141.097 2.46613C141.564 1.84289 142.421 1.45338 143.2 1.45338C143.901 1.53128 144.447 1.84289 144.836 2.38822C145.381 3.01146 145.537 4.02421 145.459 4.95906C145.226 6.51715 144.057 8.38685 142.343 9.94494C142.343 10.1786 142.343 10.2566 142.343 10.3345Z" fill="black"/>
<path d="M107.442 16.8006C107.52 17.1122 107.676 17.346 107.91 17.5797C108.844 18.8261 110.558 19.2936 111.883 18.7482C112.428 18.5145 112.895 18.125 113.051 17.6576C113.285 17.1122 113.129 16.4111 112.74 16.0216C112.506 15.7879 112.116 15.71 111.805 15.7879C111.493 15.8658 111.259 16.0216 111.104 16.2553C111.026 16.4111 111.104 16.5669 111.181 16.5669C111.337 16.6448 111.493 16.5669 111.493 16.489C111.571 16.3332 111.727 16.2553 111.883 16.2553C112.038 16.2553 112.272 16.2553 112.428 16.4111C112.662 16.6448 112.74 17.1122 112.584 17.5018C112.428 17.8134 112.116 18.125 111.649 18.3587C110.48 18.8261 109 18.4366 108.299 17.346C107.598 16.3332 107.52 14.853 108.143 13.6845C108.455 13.1391 109.701 11.3473 112.895 11.2694C113.051 11.2694 113.129 11.1136 113.129 11.0357C113.129 10.8799 112.973 10.802 112.895 10.802C110.558 10.8799 108.611 11.8148 107.676 13.4507C107.053 14.4635 106.975 15.71 107.442 16.8006Z" fill="black"/>
<path d="M124.425 11.1915C124.192 10.6462 123.802 9.16597 124.581 8.07531C124.971 7.52998 125.672 7.21837 126.373 7.29627C127.074 7.37417 127.542 7.8416 127.775 8.46483C128.087 9.47759 127.619 10.6461 127.23 11.4252C126.762 12.4379 126.451 13.217 127.23 13.8402C127.308 13.9181 127.308 14.0739 127.308 14.1518C127.23 14.2297 127.074 14.3077 126.996 14.2297C126.061 13.6844 125.204 12.6717 124.659 11.4252C124.425 11.3473 124.425 11.2694 124.425 11.1915ZM126.685 11.1136C126.996 10.4124 127.464 9.39968 127.152 8.54274C126.996 8.07531 126.685 7.8416 126.217 7.76369C125.75 7.68579 125.204 7.9195 124.971 8.30902C124.347 9.24387 124.737 10.5682 124.893 10.9578C125.204 11.7368 125.594 12.4379 126.139 12.9833C126.061 12.36 126.373 11.7368 126.685 11.1136Z" fill="black"/>
<path d="M102.378 17.7354C102.3 16.9563 102.612 16.2552 102.924 15.554C104.638 11.7367 109.312 10.4124 112.817 10.724C116.479 11.1135 119.907 12.8274 123.101 14.5413L123.49 14.775C126.996 16.5668 130.424 18.2807 134.163 18.2807C137.747 18.2807 141.175 16.8005 144.447 15.3982C145.148 15.0866 145.927 14.775 146.628 14.4634C147.407 14.1518 148.108 13.918 148.809 13.6843C149.432 13.4506 150.056 13.2948 150.757 13.139C150.913 13.139 151.068 13.2169 151.068 13.2948C151.068 13.4506 150.991 13.6064 150.913 13.6064C150.289 13.7622 149.666 13.918 149.043 14.1518C148.342 14.3855 147.641 14.6192 146.94 14.9308C146.238 15.2424 145.537 15.554 144.758 15.8657C141.408 17.3458 137.981 18.826 134.241 18.826C130.424 18.826 126.918 17.1121 123.335 15.2424L122.945 15.0087C119.751 13.2948 116.401 11.5809 112.817 11.2693C110.169 11.0356 106.897 11.7367 104.871 13.7622C104.56 14.3855 104.482 15.0087 104.56 15.7098C104.638 15.9436 104.638 16.1773 104.715 16.411C104.793 16.8005 104.871 17.19 104.949 17.6574C104.949 18.2028 104.715 18.7481 104.326 19.0597C104.014 19.2934 103.625 19.3713 103.313 19.2155C103.002 19.1376 102.768 18.826 102.612 18.5144C102.456 18.2028 102.378 17.9691 102.378 17.7354ZM103.391 15.7878C103.079 16.411 102.846 17.0342 102.846 17.7354C102.846 17.9691 102.924 18.5923 103.391 18.7481C103.625 18.826 103.781 18.7481 103.936 18.6702C104.17 18.4365 104.326 18.047 104.326 17.7354C104.326 17.3458 104.248 16.9563 104.092 16.6447C104.014 16.411 103.936 16.1773 103.936 15.8657C103.858 15.554 103.858 15.1645 103.936 14.8529C103.781 15.0087 103.625 15.3982 103.391 15.7878Z" fill="black"/>
<path d="M90.8481 16.5667C90.8481 16.5667 86.7192 23.578 63.1142 24.0454C39.5092 24.435 25.0191 24.435 20.8901 35.2637C20.8901 35.2637 22.9936 29.0313 32.4979 27.7849C42.0022 26.5384 73.6313 27.3174 82.2008 22.799C89.9912 18.6701 90.8481 16.5667 90.8481 16.5667Z" fill="black"/>
<path d="M91.6274 16.9563C91.6274 16.9563 95.7564 23.9677 119.361 24.4351C142.966 24.8246 157.457 24.8246 161.585 35.6533C161.585 35.6533 159.482 29.421 149.978 28.1745C140.473 26.928 108.844 27.7071 100.275 23.1886C92.4844 19.0597 91.6274 16.9563 91.6274 16.9563Z" fill="black"/>
<path d="M29.1491 53.8048C27.7468 53.8048 26.3445 53.3374 25.1759 52.5584C22.9167 51.1561 21.3586 48.9748 20.1122 47.1051L19.7226 46.5597C17.0739 42.5087 14.2694 38.3019 9.5172 36.3543C7.95911 35.7311 5.62198 35.3415 3.83019 36.0427C2.81743 36.5101 2.03839 37.2891 1.64887 38.4577C1.57096 38.6135 1.41515 38.6914 1.33725 38.6135C1.18144 38.5356 1.10354 38.3798 1.18144 38.3019C1.64887 37.0554 2.50581 36.1206 3.67438 35.6532C6.08941 34.5625 8.97186 35.5752 9.7509 35.9648C14.6589 37.9903 17.5413 42.1971 20.268 46.326L20.6575 46.8714C21.904 48.7411 23.462 50.8445 25.5655 52.1688C28.37 53.9606 31.1746 53.4153 32.3431 52.013C33.1222 51.0782 33.278 49.6759 32.6547 48.6632C32.3431 48.1957 31.7978 47.8062 31.1746 47.6504C30.6292 47.5725 30.0839 47.6504 29.6944 47.962C29.5386 48.0399 29.3828 48.0399 29.3049 47.8841C29.227 47.7283 29.227 47.5725 29.3828 47.4946C29.9281 47.1051 30.6292 46.9493 31.3304 47.1051C32.1094 47.2609 32.8106 47.7283 33.2001 48.3515C33.9012 49.5201 33.7454 51.1561 32.8106 52.3247C31.7199 53.3374 30.4734 53.8048 29.1491 53.8048Z" fill="black"/>
<path d="M28.3692 54.2731C26.7332 54.2731 25.253 53.7278 24.7077 53.4941C19.7997 51.4686 16.9172 47.2617 14.1906 43.1328L13.8011 42.5875C12.5546 40.7178 10.9965 38.6144 8.8931 37.29C6.08855 35.4982 3.28399 36.0435 2.11543 37.4458C1.33639 38.3807 1.18058 39.7829 1.80382 40.7178C2.11543 41.1852 2.66076 41.5747 3.28399 41.7306C3.82932 41.8085 4.37465 41.7305 4.76418 41.4189C4.91998 41.341 5.07579 41.341 5.1537 41.4968C5.2316 41.6526 5.2316 41.8085 5.07579 41.8864C4.53046 42.2759 3.82932 42.4317 3.12819 42.2759C2.34914 42.1201 1.64801 41.6526 1.25849 41.0294C0.557348 39.8608 0.713156 38.2249 1.64801 37.0563C3.4398 34.9529 6.78969 35.3424 9.12681 36.7447C11.386 38.147 12.9441 40.3283 14.1906 42.198L14.5801 42.7433C17.2289 46.7943 20.0334 51.0012 24.7856 52.9488C26.3436 53.572 28.6808 53.9615 30.4726 53.2604C31.4853 52.7929 32.2644 52.0139 32.6539 50.8453C32.7318 50.6895 32.8876 50.6116 32.9655 50.6895C33.1213 50.7674 33.1992 50.9232 33.1213 51.0012C32.6539 52.2476 31.7969 53.1825 30.6284 53.6499C30.0051 54.1952 29.1482 54.2731 28.3692 54.2731Z" fill="black"/>
<path d="M154.963 53.8049C153.639 53.8049 152.392 53.3375 151.458 52.3247C150.523 51.1562 150.367 49.5202 151.068 48.3516C151.458 47.7284 152.159 47.261 152.938 47.1052C153.639 46.9493 154.34 47.1052 154.885 47.4947C155.041 47.5726 155.041 47.7284 154.963 47.8842C154.885 48.04 154.73 48.04 154.574 47.9621C154.184 47.6505 153.639 47.5726 153.094 47.6505C152.47 47.8063 151.925 48.1179 151.613 48.6632C150.99 49.5981 151.146 51.0004 151.925 52.0131C153.094 53.4154 155.898 53.9607 158.703 52.1689C160.884 50.7667 162.364 48.7411 163.611 46.8714L164 46.3261C166.727 42.1972 169.531 37.9125 174.517 35.9648C175.296 35.6532 178.179 34.6405 180.594 35.6532C181.762 36.1986 182.619 37.0555 183.087 38.302C183.165 38.4578 183.087 38.6136 182.931 38.6136C182.775 38.6915 182.619 38.6136 182.619 38.4578C182.152 37.2892 181.451 36.5102 180.438 36.0428C178.646 35.2637 176.387 35.6532 174.751 36.3544C169.999 38.302 167.194 42.5088 164.545 46.5598L164.156 47.1052C162.909 49.0528 161.273 51.1562 159.092 52.5584C157.768 53.3375 156.288 53.8049 154.963 53.8049Z" fill="black"/>
<path d="M155.743 54.2741C154.964 54.2741 154.107 54.1183 153.328 53.8067C152.16 53.2614 151.303 52.4044 150.835 51.158C150.757 51.0022 150.835 50.8463 150.991 50.8463C151.147 50.7684 151.303 50.8463 151.303 51.0022C151.77 52.1707 152.471 52.9498 153.484 53.4172C155.276 54.1962 157.535 53.8067 159.171 53.1056C163.923 51.158 166.728 46.9511 169.376 42.9001L169.766 42.3548C171.012 40.4072 172.648 38.3038 174.83 36.9015C177.089 35.4213 180.517 35.0318 182.309 37.2131C183.243 38.3817 183.399 40.0177 182.698 41.1862C182.309 41.8095 181.607 42.2769 180.828 42.4327C180.127 42.5885 179.426 42.4327 178.881 42.0432C178.725 41.9653 178.725 41.8095 178.803 41.6536C178.881 41.4978 179.037 41.4978 179.192 41.5757C179.582 41.8874 180.127 41.9653 180.673 41.8874C181.296 41.7316 181.841 41.4199 182.153 40.8746C182.776 39.9398 182.62 38.5375 181.841 37.6026C180.673 36.2004 177.868 35.655 175.063 37.4468C172.882 38.8491 171.402 40.8746 170.155 42.7443L169.766 43.2896C167.039 47.4186 164.235 51.7033 159.249 53.6509C158.859 53.7288 157.379 54.2741 155.743 54.2741Z" fill="black"/>
<path d="M86.9531 65.0234C86.8752 65.0234 86.7973 65.0234 86.7194 64.9455C85.9403 64.0885 84.0706 62.2188 81.6556 60.5049C78.7732 62.5304 76.2023 63.5432 74.021 63.5432H73.9431C71.7618 63.5432 70.749 61.8293 70.749 60.2712C70.749 58.7131 71.6839 56.9992 73.8652 56.9213C76.1244 56.8434 78.6953 57.7783 81.6556 59.8038C84.0706 58.012 86.0183 55.9865 86.7194 55.2074C86.7973 55.0516 87.031 55.0516 87.1089 55.2074C87.81 55.9865 89.7577 58.012 92.1727 59.8038C95.133 57.8562 97.7039 56.8434 99.9631 56.9213C102.144 56.9992 103.079 58.7131 103.079 60.2712C103.079 61.8293 102.067 63.5432 99.8852 63.5432H99.8073C97.5481 63.5432 94.9772 62.5304 92.1727 60.5049C89.7577 62.1409 87.888 64.0885 87.1089 64.9455C87.1089 64.9455 87.031 65.0234 86.9531 65.0234ZM86.7194 64.5559L86.9531 64.7897L86.7194 64.5559ZM82.123 60.1154C84.3044 61.6735 86.0962 63.3874 86.9531 64.3222C87.81 63.4653 89.5239 61.6735 91.7832 60.1154C89.6018 58.4794 87.81 56.6876 86.9531 55.7528C86.0962 56.6876 84.3044 58.4794 82.123 60.1154ZM92.718 60.1154C95.3668 61.9851 97.7818 62.92 99.8852 62.92H99.9631C101.755 62.92 102.612 61.5177 102.612 60.1933C102.612 58.8689 101.833 57.4667 100.041 57.3888C97.9376 57.4667 95.4447 58.3236 92.718 60.1154ZM74.0989 57.5446C74.021 57.5446 73.9431 57.5446 73.8652 57.5446C72.0734 57.6225 71.2944 59.0247 71.2944 60.3491C71.2944 61.6735 72.1513 62.9979 73.9431 63.0758H74.021C76.0465 63.0758 78.4615 62.1409 81.1882 60.2712C78.4615 58.4015 76.1244 57.5446 74.0989 57.5446Z" fill="black"/>
<path d="M149.198 59.7258H102.845C102.69 59.7258 102.534 59.8816 102.534 60.0375C102.534 60.1933 102.69 60.3491 102.845 60.3491H149.276C149.276 60.1154 149.198 59.9595 149.198 59.7258Z" fill="black"/>
<path d="M70.9827 59.7258H24.396C24.396 59.8816 24.396 60.1153 24.396 60.2712H70.9827C71.1385 60.2712 71.2943 60.1154 71.2943 59.9595C71.2943 59.8816 71.1385 59.7258 70.9827 59.7258Z" fill="black"/>
<path d="M91.7052 65.101C91.6273 65.101 91.5494 65.101 91.4715 65.0231L89.0565 62.6081C88.9786 62.5302 88.9786 62.2965 89.0565 62.2186C89.1344 62.1407 89.3681 62.1407 89.446 62.2186L91.861 64.6336C91.9389 64.7115 91.9389 64.9452 91.861 65.0231C91.861 65.101 91.7831 65.101 91.7052 65.101Z" fill="black"/>
<path d="M84.5381 58.0121C84.4602 58.0121 84.3823 58.0121 84.3044 57.9342L82.201 55.8308C82.1231 55.7529 82.1231 55.5191 82.201 55.4412C82.2789 55.3633 82.5126 55.3633 82.5905 55.4412L84.6939 57.5447C84.7718 57.6226 84.7718 57.8563 84.6939 57.9342C84.6939 57.9342 84.616 58.0121 84.5381 58.0121Z" fill="black"/>
<path d="M82.1232 65.101C82.0453 65.101 81.9674 65.101 81.8895 65.0231C81.8116 64.9452 81.8116 64.7115 81.8895 64.6336L84.3045 62.2186C84.3824 62.1407 84.6161 62.1407 84.694 62.2186C84.7719 62.2965 84.7719 62.5302 84.694 62.6081L82.279 65.0231C82.279 65.101 82.2011 65.101 82.1232 65.101Z" fill="black"/>
<path d="M89.2121 58.0121C89.1342 58.0121 89.0563 58.0121 88.9784 57.9342C88.9004 57.8563 88.9004 57.6226 88.9784 57.5447L91.0818 55.4412C91.1597 55.3633 91.3934 55.3633 91.4713 55.4412C91.5492 55.5191 91.5492 55.7529 91.4713 55.8308L89.3679 57.9342C89.3679 57.9342 89.29 58.0121 89.2121 58.0121Z" fill="black"/>
<path d="M16.917 69.8536L16.9949 69.6199H19.0983V69.8536L18.3972 70.0094L19.7215 72.5023L21.0459 70.0094L20.189 69.8536V69.6199H22.0587V69.8536L21.5133 70.0094L19.9553 72.8919V74.7616L20.7343 74.9174L20.6564 75.229H18.4751V74.9953L19.1762 74.8395V73.0477L17.6181 70.0873L16.917 69.8536Z" fill="black"/>
<path d="M25.3308 75.3065C24.8634 75.3065 24.396 75.1506 24.0065 74.9169C23.6169 74.6832 23.3053 74.2937 23.1495 73.8263C22.9158 73.3589 22.8379 72.8914 22.8379 72.3461C22.8379 71.8008 22.9158 71.2554 23.1495 70.788C23.3832 70.3206 23.6948 70.009 24.0844 69.7753C24.4739 69.5416 25.0192 69.3857 25.5645 69.3857C26.1099 69.3857 26.4994 69.5416 26.8889 69.7753C27.2784 70.009 27.5121 70.3985 27.7459 70.8659C27.9796 71.3333 28.0575 71.8008 28.0575 72.3461C28.0575 72.8135 27.9796 73.3589 27.7459 73.7484C27.5121 74.2158 27.2005 74.5274 26.811 74.839C26.4215 75.1507 25.8762 75.3065 25.3308 75.3065ZM25.4087 69.7753C25.0192 69.7753 24.6297 69.8532 24.396 70.0869C24.1623 70.3206 23.9285 70.5543 23.7727 70.9438C23.6169 71.3333 23.6169 71.645 23.6169 72.1124C23.6169 72.6577 23.6948 73.1251 23.8506 73.5147C24.0065 73.9042 24.2402 74.2937 24.4739 74.5274C24.7855 74.7611 25.0971 74.9169 25.5645 74.9169C25.9541 74.9169 26.3436 74.839 26.5773 74.6053C26.8889 74.3716 27.0447 74.06 27.2005 73.7484C27.3563 73.3589 27.3563 73.0472 27.3563 72.6577C27.3563 72.1124 27.2784 71.645 27.1226 71.2554C26.9668 70.8659 26.7331 70.4764 26.4994 70.2427C26.1878 69.9311 25.7982 69.7753 25.4087 69.7753Z" fill="black"/>
<path d="M29.771 70.0089L28.9141 69.8531L28.992 69.6194H31.2512V69.8531L30.4721 70.0089V72.9693C30.4721 73.6704 30.628 74.1378 30.9396 74.4495C31.2512 74.7611 31.6407 74.9169 32.1081 74.9169C32.5756 74.9169 32.9651 74.7611 33.2767 74.4495C33.5104 74.1378 33.6662 73.7483 33.6662 73.1251V70.0089L32.8093 69.8531V69.6194H34.8348L34.7569 69.8531L33.9778 70.0089V72.9693C33.9778 73.7483 33.822 74.3715 33.4325 74.7611C33.1209 75.1506 32.5756 75.3843 31.7965 75.3843C30.3942 75.3843 29.6931 74.6832 29.6931 73.203V70.0089H29.771Z" fill="black"/>
<path d="M38.0292 75.1506H35.77L35.8479 74.9169L36.5491 74.7611V70.0869L35.77 69.9311L35.8479 69.6973C36.2374 69.6194 36.627 69.6194 36.9386 69.5415C37.2502 69.5415 37.5618 69.4636 37.8734 69.4636C38.4967 69.4636 38.9641 69.5415 39.3536 69.7752C39.7431 70.009 39.8989 70.3206 39.8989 70.788C39.8989 71.0996 39.821 71.4112 39.5873 71.6449C39.3536 71.8787 39.042 72.1124 38.6525 72.3461L39.5094 73.5146C39.7431 73.8263 39.8989 74.06 39.9768 74.2158C40.1327 74.3716 40.2106 74.4495 40.3664 74.6053C40.4443 74.6832 40.6001 74.7611 40.7559 74.7611L40.9117 74.839L40.8338 75.0727C40.7559 75.0727 40.678 75.1506 40.6001 75.1506C40.5222 75.1506 40.4443 75.1506 40.3664 75.1506C40.0548 75.1506 39.821 75.0727 39.5873 74.839C39.3536 74.6053 39.1199 74.3716 38.8862 73.9821L38.1071 72.5798H37.2502V74.6053L38.185 74.7611L38.0292 75.1506ZM37.1723 69.8531V72.3461H38.1071C38.4188 72.2682 38.6525 72.1124 38.8083 71.8787C38.9641 71.6449 39.1199 71.4112 39.1199 71.0996C39.1199 70.8659 39.042 70.6322 38.9641 70.3985C38.8862 70.2427 38.7304 70.0869 38.4967 69.9311C38.263 69.8531 38.0292 69.7752 37.7176 69.7752C37.5618 69.7752 37.4839 69.7752 37.406 69.7752C37.2502 69.8532 37.1723 69.8531 37.1723 69.8531Z" fill="black"/>
<path d="M43.5601 69.5415H48.3902L48.2344 71.0217L47.9227 70.9438L47.7669 69.7752H46.2088V74.6053L46.9879 74.7611L46.91 75.0727H44.6508V74.839L45.4298 74.6832V69.8531H43.9496L43.7159 71.0217L43.4043 70.9438L43.5601 69.5415Z" fill="black"/>
<path d="M49.2471 69.8531L49.325 69.6194H53.6097L53.4539 71.0217L53.1423 70.9438L52.9865 69.8531H50.7272V72.1123H52.1295L52.2853 71.567L52.5969 71.4891L52.4411 73.203L52.1295 73.2809L52.0516 72.4239H50.6493V74.7611H53.0644L53.4539 73.6704L53.7655 73.7483L53.6097 75.1506H49.2471V74.9169L50.0261 74.7611V70.0089L49.2471 69.8531Z" fill="black"/>
<path d="M54.7007 75.1506L54.7786 74.9169L55.3239 74.7611L57.1157 72.346L55.4797 69.931L54.8565 69.7752V69.5415H56.9599V69.7752L56.2588 69.931L57.5831 71.8786L58.9854 69.931L58.2064 69.7752L58.2843 69.5415H60.0761V69.7752L59.5307 69.931L57.8948 72.1902L59.6087 74.7611L60.2319 74.9169L60.154 75.1506H58.0506L58.1285 74.9169L58.8296 74.7611L57.4273 72.6577L55.9471 74.7611L56.7262 74.9169L56.6483 75.2285H54.7007V75.1506Z" fill="black"/>
<path d="M60.9327 69.5415H65.7627L65.6069 71.0217L65.2953 70.9438L65.1395 69.7752H63.5814V74.6053L64.3604 74.7611L64.2825 75.0727H62.0233V74.839L62.8024 74.6832V69.8531H61.3222L61.0885 71.0217L60.7769 70.9438L60.9327 69.5415Z" fill="black"/>
<path d="M71.0605 75.3064C70.5931 75.3064 70.2036 75.2285 69.8141 74.9948C69.4245 74.7611 69.1129 74.4495 68.9571 73.9821C68.7234 73.5925 68.6455 73.0472 68.6455 72.5019C68.6455 72.0345 68.7234 71.567 68.9571 71.0996C69.1908 70.6322 69.4246 70.2427 69.892 69.9311C70.2815 69.6194 70.8268 69.4636 71.3722 69.4636C72.0733 69.4636 72.5407 69.6194 72.9302 69.9311L72.7744 71.4112L72.4628 71.3333L72.307 70.2427C72.0733 69.931 71.6838 69.7752 71.1384 69.7752C70.8268 69.7752 70.5152 69.8531 70.2815 70.0869C70.0478 70.3206 69.8141 70.5543 69.6583 70.9438C69.5025 71.3333 69.4245 71.7228 69.4245 72.1903C69.4245 72.7356 69.5025 73.203 69.6583 73.5925C69.8141 73.9821 70.0478 74.2937 70.3594 74.4495C70.671 74.6832 71.0605 74.7611 71.4501 74.7611C71.7617 74.7611 72.0733 74.6832 72.307 74.5274C72.6186 74.3716 72.8523 74.2158 73.0081 73.9821L73.164 74.2158C73.0081 74.3716 72.8523 74.5274 72.6965 74.6832C72.4628 74.839 72.2291 74.9948 71.9954 75.0727C71.6059 75.2285 71.3722 75.3064 71.0605 75.3064Z" fill="black"/>
<path d="M73.9429 75.1506V74.9169L74.5661 74.7611L76.5137 69.6194L76.9811 69.5415L78.7729 74.839L79.3962 74.9948V75.3064H77.2928L77.3707 75.0727L78.1497 74.9169L77.6044 73.3588H75.6568L75.0335 74.9948L75.8905 75.1506L75.8126 75.4622H73.9429V75.1506ZM75.8126 72.7356H77.5265L76.7474 70.3984L75.8126 72.7356Z" fill="black"/>
<path d="M80.4087 69.8531L80.4866 69.6194H81.9668L85.005 74.2157V70.0089L84.1481 69.8531L84.226 69.6194H86.2515L86.1736 69.8531L85.3946 70.0089V75.2285L84.9271 75.3064L81.7331 70.4763V74.7611L82.59 74.9169L82.5121 75.2285H80.4866V74.9948L81.2656 74.839V70.0868L80.4087 69.8531Z" fill="black"/>
<path d="M91.0038 75.1506H88.9004L88.9783 74.9169L89.7573 74.7611V70.0869L88.9783 69.9311L89.0562 69.6973H89.2899C89.6794 69.6194 89.9911 69.6194 90.3027 69.5415C90.6143 69.5415 90.848 69.4636 91.1596 69.4636C91.5491 69.4636 91.9387 69.5415 92.1724 69.6194C92.484 69.7752 92.6398 69.9311 92.7956 70.0869C92.9514 70.3206 93.0293 70.4764 93.0293 70.7101C93.0293 71.0217 92.9514 71.2554 92.7956 71.4891C92.6398 71.7228 92.4061 71.8787 92.0945 72.0345C92.4061 72.0345 92.6398 72.1124 92.8735 72.2682C93.1072 72.424 93.263 72.5798 93.3409 72.7356C93.4188 72.9693 93.4967 73.1251 93.4967 73.3588C93.4967 73.6705 93.4188 73.9821 93.263 74.2158C93.1072 74.4495 92.8735 74.6832 92.484 74.839C92.0166 75.0727 91.5491 75.1506 91.0038 75.1506ZM90.3027 69.8531V72.1124H91.5491C91.7829 72.0345 91.9387 71.8787 92.0166 71.7229C92.1724 71.567 92.1724 71.3333 92.1724 71.0996C92.1724 70.7101 92.0166 70.3985 91.7828 70.2427C91.5491 70.009 91.1596 69.9311 90.6922 69.9311C90.6143 69.7752 90.4585 69.7752 90.3027 69.8531ZM90.3027 72.3461V74.7611H91.3154C91.627 74.7611 91.8608 74.6832 92.0945 74.6053C92.3282 74.5274 92.4061 74.3716 92.5619 74.1379C92.6398 73.9821 92.7177 73.7484 92.7177 73.5146C92.7177 73.2809 92.6398 73.1251 92.5619 72.9693C92.484 72.8135 92.3282 72.6577 92.0945 72.5019C91.8608 72.3461 91.627 72.3461 91.3154 72.3461H90.3027Z" fill="black"/>
<path d="M94.2759 69.8531L94.3538 69.6194H98.6385L98.4827 71.0217L98.1711 70.9438L98.0153 69.8531H95.7561V72.1123H97.1583L97.3141 71.567L97.6258 71.4891L97.4699 73.203L97.1583 73.2809L97.0804 72.4239H95.7561V74.7611H98.1711L98.5606 73.6704L98.8722 73.7483L98.7164 75.1506H94.3538V74.9169L95.1328 74.7611V70.0089L94.2759 69.8531Z" fill="black"/>
<path d="M104.014 75.1506H101.521V74.9169L102.222 74.7611V70.0869L101.443 69.9311V69.6973H101.599C101.988 69.6194 102.3 69.6194 102.534 69.5415C102.845 69.5415 103.079 69.4636 103.39 69.4636C104.014 69.4636 104.559 69.6194 105.026 69.8531C105.416 70.0869 105.65 70.5543 105.65 71.0996C105.65 71.4891 105.572 71.8008 105.338 72.0345C105.104 72.3461 104.871 72.5019 104.559 72.6577C104.247 72.8135 103.858 72.8914 103.546 72.8914C103.39 72.8914 103.313 72.8914 103.235 72.8914L103.157 72.5798H103.39C103.936 72.5798 104.325 72.424 104.559 72.1903C104.793 71.9566 104.949 71.6449 104.949 71.1775C104.949 70.9438 104.871 70.6322 104.793 70.4764C104.715 70.2427 104.481 70.0869 104.247 69.9311C104.014 69.7752 103.702 69.6973 103.39 69.6973C103.313 69.6973 103.235 69.6973 103.157 69.6973C103.079 69.6973 103.001 69.6973 102.923 69.6973V74.6053L104.014 74.7611V75.1506Z" fill="black"/>
<path d="M106.741 75.1506V74.9169L107.52 74.7611V70.0089L106.741 69.8531L106.819 69.6194H109.078V69.8531L108.299 70.0089V74.839H110.48L110.948 73.6704L111.259 73.7483L111.103 75.2285H106.741V75.1506Z" fill="black"/>
<path d="M112.038 75.1506V74.9169L112.661 74.7611L114.609 69.6194L115.076 69.5415L116.868 74.839L117.491 74.9948V75.3064H115.388L115.466 75.0727L116.245 74.9169L115.7 73.3588H113.752L113.129 74.9948L113.986 75.1506L113.908 75.4622H112.038V75.1506ZM113.908 72.7356H115.622L114.843 70.3984L113.908 72.7356Z" fill="black"/>
<path d="M120.919 75.3064C120.452 75.3064 120.062 75.2285 119.672 74.9948C119.283 74.7611 118.971 74.4495 118.816 73.9821C118.582 73.5925 118.504 73.0472 118.504 72.5019C118.504 72.0345 118.582 71.567 118.816 71.0996C119.049 70.6322 119.283 70.2427 119.75 69.9311C120.14 69.6194 120.685 69.4636 121.231 69.4636C121.932 69.4636 122.399 69.6194 122.789 69.9311L122.633 71.4112L122.321 71.3333L122.165 70.2427C121.932 69.931 121.542 69.7752 120.997 69.7752C120.685 69.7752 120.374 69.8531 120.14 70.0869C119.906 70.3206 119.672 70.5543 119.517 70.9438C119.361 71.3333 119.283 71.7228 119.283 72.1903C119.283 72.7356 119.361 73.203 119.517 73.5925C119.672 73.9821 119.906 74.2937 120.218 74.4495C120.529 74.6832 120.919 74.7611 121.308 74.7611C121.62 74.7611 121.932 74.6832 122.165 74.5274C122.477 74.3716 122.711 74.2158 122.867 73.9821L123.022 74.2158C122.867 74.3716 122.711 74.5274 122.555 74.6832C122.321 74.839 122.088 74.9948 121.854 75.0727C121.542 75.2285 121.231 75.3064 120.919 75.3064Z" fill="black"/>
<path d="M123.802 69.8531L123.88 69.6194H128.164L128.009 71.0217L127.697 70.9438L127.541 69.8531H125.282V72.1123H126.684L126.84 71.567L127.152 71.4891L126.996 73.203L126.684 73.2809L126.606 72.4239H125.204V74.7611H127.619L128.009 73.6704L128.32 73.7483L128.164 75.1506H123.802V74.9169L124.581 74.7611V70.0089L123.802 69.8531Z" fill="black"/>
<path d="M131.28 75.1506H129.255L129.333 74.9169L130.112 74.7611V70.0869L129.333 69.9311L129.411 69.6973C129.878 69.6194 130.268 69.5415 130.657 69.5415C130.969 69.5415 131.358 69.4636 131.67 69.4636C132.449 69.4636 133.072 69.6194 133.54 69.8531C134.007 70.0869 134.319 70.3985 134.552 70.8659C134.786 71.2554 134.864 71.7228 134.864 72.1903C134.864 72.7356 134.708 73.203 134.474 73.6705C134.241 74.1379 133.851 74.4495 133.384 74.7611C132.683 74.9948 132.059 75.1506 131.28 75.1506ZM130.735 69.8531V74.7611H131.436C131.982 74.7611 132.371 74.6832 132.761 74.4495C133.15 74.2158 133.462 73.9821 133.618 73.5925C133.851 73.203 133.929 72.8135 133.929 72.3461C133.929 71.8007 133.851 71.4112 133.618 71.0217C133.462 70.6322 133.15 70.3206 132.761 70.0869C132.371 69.8531 131.904 69.7752 131.358 69.7752C131.047 69.8532 130.813 69.8531 130.735 69.8531Z" fill="black"/>
<path d="M137.435 69.8531V69.6194H139.694V69.8531L138.915 70.0089V72.1902H141.953V70.0089L141.096 69.8531L141.174 69.6194H143.433L143.355 69.8531L142.576 70.0089V74.839L143.433 74.9948V75.3064H141.174L141.252 75.0727L142.031 74.9169V72.6577H138.993V74.9169L139.85 75.0727L139.772 75.3843H137.512V75.1506L138.292 74.9948V70.2426L137.435 69.8531Z" fill="black"/>
<path d="M144.368 69.8531L144.446 69.6194H148.731L148.575 71.0217L148.263 70.9438L148.108 69.8531H145.848V72.1123H147.251L147.406 71.567L147.718 71.4891L147.562 73.203L147.251 73.2809L147.173 72.4239H145.77V74.7611H148.185L148.575 73.6704L148.887 73.7483L148.731 75.1506H144.368V74.9169L145.147 74.7611V70.0089L144.368 69.8531Z" fill="black"/>
<path d="M152.081 75.1506H149.822L149.9 74.9169L150.601 74.7611V70.0869L149.822 69.9311L149.9 69.6973C150.289 69.6194 150.679 69.6194 150.99 69.5415C151.302 69.5415 151.614 69.4636 151.925 69.4636C152.548 69.4636 153.016 69.5415 153.405 69.7752C153.795 70.009 153.951 70.3206 153.951 70.788C153.951 71.0996 153.873 71.4112 153.639 71.6449C153.405 71.8787 153.094 72.1124 152.704 72.3461L153.561 73.5146C153.795 73.8263 153.951 74.06 154.029 74.2158C154.184 74.3716 154.262 74.4495 154.418 74.6053C154.496 74.6832 154.652 74.7611 154.808 74.7611L154.963 74.839L154.886 75.0727C154.808 75.0727 154.73 75.1506 154.652 75.1506C154.574 75.1506 154.496 75.1506 154.418 75.1506C154.107 75.1506 153.873 75.0727 153.639 74.839C153.405 74.6053 153.172 74.3716 152.938 73.9821L152.159 72.5798H151.302V74.6053L152.237 74.7611L152.081 75.1506ZM151.224 69.8531V72.3461H152.159C152.471 72.2682 152.704 72.1124 152.86 71.8787C153.016 71.6449 153.172 71.4112 153.172 71.0996C153.172 70.8659 153.094 70.6322 153.016 70.3985C152.938 70.2427 152.782 70.0869 152.548 69.9311C152.315 69.8531 152.081 69.7752 151.769 69.7752C151.614 69.7752 151.536 69.7752 151.458 69.7752C151.302 69.8532 151.224 69.8531 151.224 69.8531Z" fill="black"/>
<path d="M155.742 69.8531L155.82 69.6194H160.105L159.949 71.0217L159.637 70.9438L159.482 69.8531H157.222V72.1123H158.625L158.78 71.567L159.092 71.4891L158.936 73.203L158.625 73.2809L158.547 72.4239H157.144V74.7611H159.559L159.949 73.6704L160.261 73.7483L160.105 75.1506H155.742V74.9169L156.521 74.7611V70.0089L155.742 69.8531Z" fill="black"/>
<path d="M44.1835 48.1188C43.3266 48.1188 42.5475 47.963 41.8464 47.5735C41.1453 47.1839 40.522 46.6386 40.1325 45.9375C39.6651 45.2363 39.5093 44.3015 39.5093 43.2887C39.5093 42.4318 39.6651 41.5748 40.0546 40.7958C40.4441 40.0167 40.9895 39.3156 41.7685 38.7703C42.5475 38.225 43.4824 37.9133 44.651 37.9133C45.1963 37.9133 45.7416 37.9912 46.209 38.0691C46.6765 38.2249 47.1439 38.3808 47.4555 38.6924L47.2218 41.3411L46.5207 41.2632L46.209 39.5493C45.9753 39.3156 45.7416 39.0819 45.43 38.9261C45.1184 38.7703 44.651 38.6924 44.1835 38.6924C43.6382 38.6924 43.0929 38.8482 42.7033 39.1598C42.2359 39.4714 41.9243 39.9388 41.6127 40.5621C41.379 41.1853 41.2232 41.8864 41.2232 42.7434C41.2232 43.6782 41.379 44.4573 41.6906 45.0805C42.0022 45.7037 42.4696 46.2491 43.015 46.5607C43.5603 46.8723 44.1835 47.0281 44.8068 47.0281C45.2742 47.0281 45.8195 46.9502 46.2869 46.7165C46.7544 46.4828 47.2218 46.1712 47.6113 45.8596L47.9229 46.4828C47.6892 46.7944 47.3776 47.0281 46.9881 47.2618C46.5986 47.4955 46.209 47.7293 45.7416 47.8851C45.1963 48.0409 44.7289 48.1188 44.1835 48.1188Z" fill="black"/>
<path d="M48.4683 47.962L48.5462 47.3388L49.7147 46.8714L53.0646 38.0682L54.2332 37.8345L57.3493 46.8714L58.44 47.183L58.3621 47.8062H54.3111L54.389 47.183L55.7133 46.7155L54.8564 44.3005H51.5065L50.7275 46.7155L52.2077 47.0272L52.1298 47.6504H48.4683V47.962ZM51.896 43.6773H54.7006L53.3762 39.7042L51.896 43.6773Z" fill="black"/>
<path d="M64.3607 47.962H59.998L60.0759 47.3387L61.4003 46.9492V39.1588L60.0759 38.9251L60.1539 38.3018C60.855 38.2239 61.5561 38.0681 62.1015 38.0681C62.6468 37.9902 63.1921 37.9902 63.7374 37.9902C64.9839 37.9902 65.9967 38.146 66.6978 38.5356C67.3989 38.9251 67.7106 39.5483 67.7106 40.4053C67.7106 40.7169 67.6327 41.1064 67.4768 41.4959C67.321 41.8854 67.0094 42.1971 66.6978 42.5087C66.3862 42.8203 65.9188 43.054 65.4513 43.2098L66.8536 45.1574C67.2431 45.7027 67.5547 46.0923 67.7106 46.326C67.9443 46.5597 68.1001 46.7934 68.3338 46.9492C68.5675 47.105 68.8012 47.2608 69.1128 47.3387L69.3466 47.4166L69.1907 47.962C68.8791 48.0399 68.5675 48.1178 68.2559 48.1178C67.6327 48.1178 67.1652 47.962 66.6978 47.5725C66.2304 47.1829 65.8409 46.6376 65.4513 45.9365L64.2049 43.6772H62.8026V46.9492L64.2828 47.2608L64.3607 47.962ZM62.9584 38.6914V42.9761H64.5165C64.9839 42.8203 65.3734 42.5866 65.6071 42.1971C65.9188 41.8854 66.0746 41.418 66.0746 40.8727C66.0746 40.4053 65.9967 40.0157 65.8409 39.7041C65.6851 39.3925 65.4513 39.0809 65.0618 38.9251C64.7502 38.7693 64.3607 38.6135 63.8933 38.6135C63.6595 38.6135 63.4258 38.6135 63.27 38.6135C63.1142 38.6914 63.0363 38.6914 62.9584 38.6914Z" fill="black"/>
<path d="M69.814 47.962L69.8919 47.3388L71.0604 46.8714L74.4103 38.0682L75.5789 37.8345L78.6951 46.8714L79.7857 47.183L79.7078 47.8062H75.6568L75.7347 47.183L77.0591 46.7155L76.2021 44.3005H72.8522L72.0732 46.7155L73.5534 47.0272L73.4755 47.6504H69.814V47.962ZM73.2418 43.6773H76.0463L74.7219 39.7042L73.2418 43.6773Z" fill="black"/>
<path d="M94.0425 47.4167L93.8866 47.962C93.575 48.0399 93.2634 48.1178 92.9518 48.1178C92.5623 48.1178 92.1728 47.962 91.7053 47.7283C91.2379 47.4167 90.8484 47.1051 90.5368 46.7934C90.0693 47.2609 89.6019 47.5725 89.0566 47.8062C88.5112 48.0399 87.888 48.1178 87.1869 48.1178C86.6416 48.1178 86.0962 48.0399 85.7067 47.8062C85.3172 47.5725 84.9277 47.3388 84.6939 46.9492C84.4602 46.5597 84.3823 46.0923 84.3823 45.6249C84.3823 45.0016 84.5381 44.4563 84.9277 43.911C85.3172 43.3656 85.8625 42.9761 86.6416 42.5866C86.4078 42.275 86.252 42.0413 86.0962 41.8855C85.9404 41.6518 85.8625 41.418 85.7846 41.1843C85.7067 40.9506 85.6288 40.639 85.6288 40.3274C85.6288 39.9379 85.7846 39.5483 86.0183 39.1588C86.252 38.7693 86.5636 38.4577 86.9532 38.224C87.3427 37.9903 87.7322 37.9124 88.1217 37.9124C88.5892 37.9124 88.9787 37.9903 89.3682 38.1461C89.6798 38.3019 89.9914 38.5356 90.1472 38.8472C90.3031 39.1588 90.4589 39.4704 90.4589 39.86C90.4589 40.4053 90.303 40.8727 89.9135 41.3401C89.6019 41.7297 89.1345 42.1192 88.5892 42.4308V42.5087C89.4461 43.5215 90.2251 44.3784 90.9263 45.0795C91.2379 44.3784 91.4716 43.5994 91.6274 42.5866L90.4589 42.3529L90.5368 41.7297H94.0425L93.9645 42.3529L92.5623 42.6645C92.3286 43.8331 92.0169 44.7679 91.5495 45.6249C92.5623 46.6376 93.3413 47.183 93.8087 47.3388L94.0425 47.4167ZM86.252 46.0144C86.4078 46.326 86.6415 46.5597 86.9532 46.7155C87.2648 46.8713 87.5764 46.9492 87.9659 46.9492C88.8229 46.9492 89.524 46.6376 90.0693 46.0923L87.1869 42.9761H87.0311C86.6416 43.2877 86.3299 43.5215 86.1741 43.8331C86.0183 44.1447 85.9404 44.5342 85.9404 45.0016C86.0183 45.3912 86.0962 45.7807 86.252 46.0144ZM87.2648 38.9251C87.109 39.1588 87.0311 39.4704 87.0311 39.86C87.0311 40.2495 87.109 40.5611 87.3427 40.9506C87.5764 41.3401 87.8101 41.6518 88.1217 41.8855C88.3554 41.7297 88.5892 41.5739 88.745 41.418C88.9008 41.2622 88.9787 41.1064 89.1345 40.8727C89.2124 40.639 89.2903 40.4053 89.2903 40.0937C89.2903 39.6262 89.2124 39.2367 88.9787 38.9251C88.8229 38.6135 88.5113 38.4577 88.0438 38.4577C87.6543 38.5356 87.4206 38.6135 87.2648 38.9251Z" fill="black"/>
<path d="M98.8724 50.533L98.4829 49.8319C99.1061 49.2087 99.5736 48.6633 99.8852 48.118C100.197 47.5727 100.353 47.0274 100.353 46.4041V39.0032L98.9503 38.6916L99.0282 38.0684H103.313L103.235 38.6916L101.911 39.0032V44.9239C101.911 46.0146 101.833 46.8715 101.599 47.4948C101.443 48.118 101.132 48.6633 100.742 49.1308C100.275 49.5203 99.6515 49.9877 98.8724 50.533Z" fill="black"/>
<path d="M103.78 47.962L103.858 47.3388L105.027 46.8714L108.377 38.0682L109.545 37.8345L112.661 46.8714L113.752 47.183L113.674 47.8062H109.623L109.701 47.183L111.025 46.7155L110.168 44.3005H106.819L106.039 46.7155L107.52 47.0272L107.442 47.6504H103.78V47.962ZM107.208 43.6773H110.013L108.688 39.7042L107.208 43.6773Z" fill="black"/>
<path d="M115.076 47.9622L115.154 47.339L116.478 46.9494L117.024 39.0032L115.544 38.6916L115.621 38.0684H118.816L119.439 39.6264L121.542 45.4693L123.957 39.3927L124.503 38.1463H127.619L127.541 38.7695L126.216 39.0811L126.606 47.1053L128.086 47.339L128.008 47.9622H123.724L123.801 47.339L125.126 46.9494L124.658 39.9381L121.62 47.4948L120.607 47.6506L117.881 40.2497L117.413 47.0273L118.893 47.2611L118.816 47.8843H115.076V47.9622Z" fill="black"/>
<path d="M129.333 38.6916L129.411 38.0684H137.279L137.046 40.6392L136.344 40.5613L136.033 38.8474H132.293V42.5868H134.63L134.942 41.652L135.721 41.574L135.487 44.6902L134.786 44.7681L134.553 43.3658H132.371V47.2611H136.266L137.046 45.4693L137.669 45.5472L137.435 48.0401H129.411L129.489 47.4169L130.813 47.0273V39.0811L129.333 38.6916Z" fill="black"/>
<path d="M141.408 48.1178C140.863 48.1178 140.317 48.0399 139.85 47.8841C139.383 47.7283 138.993 47.4946 138.759 47.2609L138.837 45.0016L139.616 45.0795L139.928 46.5597C140.084 46.7934 140.317 46.9492 140.629 47.1051C140.941 47.2609 141.252 47.3388 141.564 47.3388C141.875 47.3388 142.187 47.2609 142.421 47.183C142.732 47.0272 142.966 46.8713 143.122 46.6376C143.278 46.4039 143.434 46.0923 143.434 45.7028C143.434 45.3912 143.356 45.1574 143.2 44.9237C143.044 44.69 142.81 44.4563 142.577 44.3005C142.343 44.1447 141.953 43.911 141.486 43.6773C140.941 43.3657 140.473 43.1319 140.162 42.8982C139.85 42.6645 139.538 42.3529 139.305 41.9634C139.071 41.5738 138.915 41.1843 138.915 40.639C138.915 40.0937 139.071 39.5483 139.383 39.1588C139.694 38.7693 140.084 38.3798 140.551 38.224C141.019 37.9903 141.486 37.9124 142.031 37.9124C142.888 37.9124 143.667 38.1461 144.29 38.6914C144.29 38.9251 144.213 39.3146 144.213 39.86C144.135 40.4053 144.135 40.7169 144.135 40.9506L143.356 40.8727L143.122 39.3925C143.044 39.3146 142.966 39.1588 142.81 39.0809C142.654 38.9251 142.499 38.8472 142.343 38.7693C142.187 38.6914 141.953 38.6135 141.798 38.6135C141.408 38.6135 141.019 38.7693 140.785 39.003C140.551 39.2367 140.395 39.6262 140.395 40.0937C140.395 40.4832 140.473 40.7948 140.707 41.1064C140.941 41.418 141.174 41.6518 141.486 41.8076C141.798 42.0413 142.187 42.275 142.654 42.5087C143.2 42.8203 143.589 43.054 143.901 43.2878C144.213 43.5215 144.446 43.7552 144.68 44.0668C144.914 44.3784 144.992 44.7679 144.992 45.1574C144.992 45.7807 144.836 46.2481 144.524 46.7155C144.213 47.183 143.745 47.4946 143.2 47.8062C142.654 48.0399 142.031 48.1178 141.408 48.1178Z" fill="black"/>
</svg>
