<svg width="161" height="82" viewBox="0 0 161 82" fill="none" xmlns="http://www.w3.org/2000/svg">
<path d="M79.613 45.2713C79.0677 43.2458 77.5096 41.1425 74.9387 41.2204C72.2121 41.2983 69.875 43.09 70.654 45.6609C71.3551 47.998 73.8481 49.4782 76.341 48.2317C76.4968 48.1538 76.5747 48.0759 76.5747 47.9201C76.6526 47.8422 76.6526 47.7643 76.6526 47.7643C77.1979 46.8294 76.341 45.5051 75.1724 45.0376C74.3155 44.6481 73.069 44.4923 72.2121 44.8818C72.0563 44.1807 72.1342 43.3237 72.6016 42.9342C72.7574 42.7784 72.8353 42.7005 72.8353 42.5447C72.9911 42.4668 73.1469 42.3889 73.3027 42.3889C74.3155 42.0773 75.562 41.9215 76.5747 42.4668C78.8339 43.7133 79.3014 46.6736 78.9897 48.855C78.6002 51.5816 76.6526 54.0745 73.4585 54.542C73.3027 54.542 73.1469 54.6198 72.9911 54.6198C72.9911 54.6198 72.9132 54.6198 72.8353 54.6198C71.1214 54.464 69.2517 53.9187 68.0832 52.6722C67.1483 51.6595 65.9798 50.1014 66.7588 48.855C67.4599 47.6864 66.4472 48.1538 66.0576 48.3875C65.2786 49.0107 65.0449 49.8677 64.967 50.7246C64.0321 49.2445 62.9415 47.6085 61.0718 47.1411C59.28 46.6736 57.0207 46.6737 55.5406 47.8422C55.3069 47.998 55.229 48.2317 55.3848 48.3875C55.3848 48.5433 55.6185 48.6991 55.8522 48.6991C58.1114 48.777 60.1369 49.7119 61.9287 50.8026C63.8763 51.9711 65.746 53.2176 67.7715 54.2303C69.4854 55.0873 71.5109 55.7105 73.5364 55.3989C75.4841 55.0873 77.5096 53.9187 78.6002 52.3607C80.0025 50.1793 80.2362 47.5306 79.613 45.2713ZM75.4841 46.4399C75.4841 46.5178 75.4841 46.5178 75.4841 46.4399C75.4841 46.5178 75.562 46.5178 75.4841 46.4399C75.4841 46.5178 75.4841 46.5178 75.4841 46.4399Z" fill="black"/>
<path d="M81.4047 52.0486C82.4954 53.5288 84.5988 54.6195 86.5464 54.8532C88.5719 55.0869 90.5195 54.3857 92.2334 53.4509C94.2589 52.3602 96.0507 51.0359 97.9204 49.7894C99.7122 48.6208 101.738 47.5302 103.919 47.4523C104.153 47.4523 104.386 47.2965 104.386 47.1406C104.464 46.9848 104.386 46.7511 104.153 46.5953C102.595 45.5825 100.413 45.5826 98.6216 46.1279C96.7519 46.6732 95.7391 48.3871 94.8822 49.8673C94.8043 49.0103 94.4926 48.1534 93.7136 47.608C93.402 47.3743 92.2334 46.9069 93.0125 48.0755C93.8694 49.2441 92.7788 50.8801 91.8439 51.9707C90.7532 53.2172 88.8835 53.8404 87.1696 54.0741C87.0917 54.0741 87.0918 54.0741 87.0139 54.0741C86.858 54.0741 86.7022 54.0741 86.5464 54.0741C83.3524 53.7625 81.2489 51.3475 80.7815 48.6208C80.392 46.5174 80.7036 43.4791 82.9628 42.1548C83.9756 41.5315 85.2221 41.6873 86.2348 41.9211C86.3906 41.999 86.5464 41.999 86.7022 42.0769C86.7022 42.2327 86.7801 42.3106 86.9359 42.4664C87.4034 42.8559 87.5592 43.7129 87.4034 44.414C86.5464 44.1024 85.2999 44.3361 84.443 44.7256C83.2744 45.271 82.4954 46.5953 83.0407 47.5302C83.0407 47.6081 83.1186 47.686 83.1186 47.686C83.1186 47.8418 83.2744 47.9197 83.3523 47.9976C85.8453 49.1661 88.3382 47.608 88.8835 45.2709C89.5068 42.6222 87.1696 40.9083 84.443 40.9862C81.8722 41.0641 80.4699 43.2454 80.0025 45.2709C79.613 47.5301 80.0025 50.1789 81.4047 52.0486ZM84.3651 46.3616C84.3651 46.2837 84.3651 46.2837 84.3651 46.3616C84.3651 46.2837 84.3651 46.2837 84.3651 46.3616Z" fill="black"/>
<path d="M80.3141 76.355L82.4954 78.8479C81.6385 79.5491 80.5478 81.2629 80.5478 81.2629L80.4699 81.4188L80.392 81.2629C80.392 81.2629 79.2234 79.549 78.2886 78.9258L80.3141 76.355Z" fill="black"/>
<path d="M72.0566 79.1595C72.0566 79.2374 72.1345 79.3153 72.3683 79.3932C72.5241 79.4711 72.7578 79.4711 73.0694 79.4711C73.6926 79.4711 74.5496 79.3932 75.4844 79.0816C75.9518 78.9258 76.653 78.5362 77.3541 77.9909C78.0553 77.4456 78.7564 76.6665 79.2238 75.8096C79.6913 74.9526 79.925 74.1736 80.0808 73.5504C80.1587 72.9272 80.2366 72.5376 80.1587 72.5376C80.1587 72.5376 79.925 72.9271 79.6912 73.4725C79.3796 74.0178 79.068 74.7189 78.5227 75.4201C77.9774 76.1212 77.2762 76.6666 76.653 77.0561C75.9518 77.4456 75.3286 77.6793 74.9391 77.8351C74.1601 78.1467 73.381 78.3804 72.9136 78.5362C72.6799 78.6141 72.4462 78.77 72.2903 78.8479C72.1345 78.9258 72.0566 79.0036 72.0566 79.1595Z" fill="black"/>
<path d="M88.8836 78.7701C88.8836 78.6922 88.8057 78.6143 88.6499 78.4585C88.4941 78.3806 88.2604 78.3027 88.0267 78.1469C87.4813 77.9911 86.7023 77.7574 85.9232 77.5236C85.5337 77.3678 84.9105 77.1341 84.2094 76.8225C83.5082 76.433 82.8071 75.8876 82.2618 75.2644C81.7164 74.6412 81.3269 73.8622 81.0153 73.3947C80.7816 72.8494 80.5479 72.4599 80.5479 72.5378C80.5479 72.5378 80.5479 72.9273 80.7037 73.5506C80.8595 74.1738 81.1711 74.9528 81.6385 75.8097C82.1059 76.5888 82.8071 77.3678 83.5861 77.9132C84.2872 78.4585 85.0663 78.7701 85.5337 78.9259C86.4686 79.2375 87.3255 79.3155 87.9488 79.2375C88.2604 79.2375 88.4941 79.1596 88.6499 79.0817C88.7278 78.9259 88.8836 78.848 88.8836 78.7701Z" fill="black"/>
<path d="M51.7234 75.3422C51.7234 75.3422 51.8013 75.3422 51.9571 75.2643C52.1129 75.1864 52.2687 75.1864 52.5804 75.1085C52.892 75.1085 53.2036 75.1085 53.5931 75.2643C53.7489 75.3422 53.9826 75.498 54.1384 75.6538C54.2943 75.8096 54.4501 76.0434 54.528 76.2771C54.7617 76.7445 54.7617 77.4456 54.4501 77.991C54.1384 78.6142 53.5931 79.0816 52.9699 79.3153C52.3467 79.627 51.5676 79.7049 50.8665 79.7049C50.4769 79.7049 50.0874 79.7049 49.6979 79.627C49.3084 79.5491 48.9189 79.3932 48.5293 79.1595C48.0619 78.8479 47.5945 78.4584 47.3608 77.9131C47.1271 77.4457 46.9713 76.9003 46.8934 76.355C46.8155 75.3422 47.1271 74.4074 47.5166 73.6283C47.984 72.9272 48.5293 72.304 49.0747 71.9144C49.62 71.5249 50.1653 71.2912 50.6328 71.1354C51.0223 70.9796 51.5676 70.7459 52.2688 70.668C52.9699 70.5901 53.7489 70.668 54.528 70.9796C55.307 71.3691 56.0082 71.9923 56.6314 72.6935C57.2546 73.3946 57.8779 74.1737 58.5011 74.9527C59.4359 76.0434 60.4487 76.9782 61.5393 77.5236C62.63 78.1468 63.7207 78.4584 64.6555 78.6142C64.8113 78.6142 64.8892 78.6921 64.9671 78.6921C65.045 78.6921 65.2008 78.6921 65.2787 78.6921C65.5125 78.6921 65.6683 78.77 65.902 78.77C66.2915 78.77 66.6031 78.8479 66.9147 78.8479C67.4601 78.8479 67.7717 78.8479 67.7717 78.8479C67.7717 78.8479 67.4601 78.9259 66.9147 79.0038C66.681 79.0817 66.2915 79.0816 65.902 79.0816C65.7462 79.0816 65.5125 79.0816 65.2787 79.0816C65.2008 79.0816 65.045 79.0816 64.9671 79.0816C64.8113 79.0816 64.7334 79.0816 64.5776 79.0816C63.5649 79.0037 62.3963 78.8479 61.1498 78.2247C60.5266 77.9131 59.9813 77.5236 59.358 77.134C58.8127 76.6666 58.2674 76.1213 57.8 75.576C57.0988 74.7969 56.5535 74.0178 56.0081 73.3167C55.6965 72.9272 55.4628 72.6156 55.1512 72.3819C54.8396 72.0703 54.528 71.8365 54.2164 71.6807C53.5931 71.2912 52.892 71.1354 52.2688 71.2133C51.6455 71.2133 51.1002 71.3691 50.6328 71.5249C50.2432 71.6807 49.7758 71.9924 49.3084 72.3819C48.841 72.7714 48.3735 73.3167 48.0619 74.0179C47.7503 74.719 47.5945 75.498 47.6724 76.355C47.7503 77.134 48.2177 77.991 48.9189 78.3805C49.2305 78.5363 49.4642 78.6142 49.7758 78.6921C50.0874 78.77 50.3991 78.77 50.7107 78.77C51.3339 78.77 52.035 78.6921 52.5025 78.5363C53.0478 78.3026 53.5152 77.991 53.7489 77.6014C53.9826 77.2119 54.0605 76.6666 53.9826 76.2771C53.9047 76.0434 53.8268 75.8876 53.7489 75.7318C53.5931 75.576 53.5152 75.4202 53.3594 75.3422C53.0478 75.1864 52.7362 75.1085 52.5025 75.0306C52.2687 75.0306 52.035 75.0306 51.8792 75.1085C51.8013 75.2644 51.7234 75.3422 51.7234 75.3422Z" fill="black"/>
<path d="M51.1782 75.8875C51.1782 76.4329 51.6456 76.9003 52.191 76.9003C52.7363 76.9003 53.2037 76.4329 53.2037 75.8875C53.2037 75.3422 52.7363 74.8748 52.191 74.8748C51.5677 74.8748 51.1782 75.3422 51.1782 75.8875Z" fill="black"/>
<path d="M106.724 75.3423C106.724 75.8877 107.191 76.3551 107.737 76.3551C108.282 76.3551 108.749 75.8877 108.749 75.3423C108.749 74.797 108.282 74.3296 107.737 74.3296C107.113 74.3296 106.646 74.797 106.724 75.3423Z" fill="black"/>
<path d="M108.126 74.5631C108.126 74.5631 108.048 74.5631 107.892 74.5631C107.736 74.5631 107.581 74.4851 107.269 74.5631C107.035 74.5631 106.724 74.6409 106.412 74.8746C106.256 74.9525 106.1 75.1084 106.022 75.2642C105.945 75.42 105.867 75.6537 105.789 75.8095C105.711 76.199 105.789 76.7444 106.022 77.1339C106.256 77.5234 106.724 77.835 107.269 78.0687C107.814 78.2246 108.437 78.3025 109.139 78.2246C109.45 78.2246 109.762 78.1466 110.073 78.0687C110.385 77.9908 110.697 77.835 110.93 77.6792C111.632 77.2118 112.021 76.4327 112.099 75.5758C112.177 74.7189 111.943 73.9398 111.632 73.3166C111.242 72.6154 110.775 72.148 110.307 71.7585C109.84 71.369 109.294 71.1353 108.905 70.9015C108.438 70.8236 107.892 70.6678 107.269 70.6678C106.646 70.6678 105.945 70.8237 105.321 71.2132C105.01 71.4469 104.698 71.6806 104.464 71.9922C104.153 72.3038 103.919 72.6154 103.607 73.005C103.062 73.7061 102.517 74.5631 101.894 75.3421C101.426 75.9653 100.881 76.5106 100.335 76.9781C99.7901 77.4455 99.2448 77.835 98.6216 78.1466C97.453 78.7699 96.2065 79.0036 95.2717 79.0815C95.1159 79.0815 95.038 79.0815 94.8822 79.0815C94.7264 79.0815 94.6485 79.0815 94.5706 79.0815C94.3368 79.0815 94.1031 79.0815 93.9473 79.0815C93.5578 79.0815 93.2462 79.0815 92.9346 79.0036C92.3892 78.9257 92.0776 78.9257 92.0776 78.9257C92.0776 78.9257 92.3892 78.9257 92.9346 78.9257C93.1683 78.9257 93.5578 78.8478 93.9473 78.8478C94.1031 78.8478 94.3368 78.7699 94.5706 78.7699C94.6485 78.7699 94.8043 78.7699 94.8822 78.692C94.9601 78.692 95.1159 78.6141 95.1938 78.6141C96.1287 78.3804 97.2193 78.0688 98.2321 77.4455C99.2448 76.8223 100.258 75.8874 101.115 74.7189C101.738 73.9398 102.283 73.1608 102.906 72.3817C103.53 71.6806 104.153 70.9794 104.932 70.5899C105.711 70.2004 106.568 70.0446 107.191 70.1225C107.892 70.2004 108.438 70.3562 108.827 70.5899C109.294 70.6678 109.84 70.9015 110.385 71.2911C110.93 71.6806 111.554 72.148 112.021 72.927C112.489 73.6282 112.8 74.563 112.8 75.5758C112.8 76.1211 112.644 76.5886 112.411 77.1339C112.177 77.6013 111.787 78.0687 111.32 78.3803C110.93 78.614 110.541 78.7699 110.151 78.8478C109.762 78.9257 109.372 79.0036 108.983 79.0036C108.282 79.0036 107.503 78.9257 106.879 78.692C106.256 78.4583 105.633 77.9908 105.321 77.3676C105.01 76.8223 105.01 76.1211 105.166 75.6537C105.243 75.42 105.399 75.1863 105.555 74.9526C105.711 74.7968 105.867 74.641 106.1 74.5631C106.49 74.4072 106.802 74.3294 107.113 74.3294C107.425 74.3294 107.581 74.4072 107.736 74.4851C108.126 74.563 108.126 74.5631 108.126 74.5631Z" fill="black"/>
<path d="M6.69435 33.5854C5.60369 33.5854 4.59092 33.2738 3.73397 32.6506C2.87703 32.0273 2.17591 31.2483 1.70848 30.2355C1.24106 29.2228 1.00732 28.0542 1.00732 26.8078C1.00732 25.4834 1.24104 24.3148 1.78637 23.2241C2.3317 22.2114 3.03285 21.3545 4.04561 20.8091C5.05836 20.2638 6.14902 19.9521 7.47339 19.9521C8.64195 19.9521 9.73261 20.2638 10.5896 20.887C11.4465 21.5102 12.1476 22.2893 12.5372 23.3021C13.0046 24.3148 13.2383 25.4834 13.2383 26.7298C13.2383 27.8984 13.0046 28.989 12.4593 30.0797C11.9918 31.0925 11.2128 31.9494 10.2779 32.5726C9.18728 33.2738 8.01872 33.5854 6.69435 33.5854ZM6.92805 20.8091C5.91529 20.8091 5.13625 21.0428 4.51301 21.5882C3.88978 22.0556 3.42236 22.7567 3.11075 23.5358C2.79913 24.3148 2.72123 25.2497 2.72123 26.2624C2.72123 27.431 2.87704 28.5217 3.18866 29.5344C3.50027 30.5472 4.0456 31.3262 4.66883 31.8715C5.36997 32.4169 6.14902 32.7285 7.16178 32.7285C8.17453 32.7285 8.95355 32.4947 9.57679 31.9494C10.2 31.4041 10.6675 30.7809 10.9791 29.9239C11.2907 29.067 11.4465 28.21 11.4465 27.353C11.4465 26.1845 11.2907 25.0939 10.9012 24.0811C10.5896 23.0684 10.0442 22.2893 9.34308 21.744C8.64195 21.1207 7.8629 20.8091 6.92805 20.8091Z" fill="black"/>
<path d="M15.2639 33.3516L15.3419 32.7283L17.0557 32.3388V21.3543L15.186 20.9648L15.2639 20.3416H20.4835L20.4056 20.9648L18.5359 21.3543V32.6505H23.5997L24.6904 29.8459L25.3915 29.9238L25.002 33.3516H15.2639Z" fill="black"/>
<path d="M27.5728 20.8871L27.6507 20.2639H32.8703L32.7923 20.8871L31.0005 21.1988V32.3391L32.9481 32.6507L32.8703 33.2739H27.6507L27.7286 32.6507L29.4425 32.2612V21.1988L27.5728 20.8871Z" fill="black"/>
<path d="M35.0513 20.8871L35.1292 20.2639H40.193L40.115 20.8871L38.3233 21.1988L41.751 31.1705L45.4125 21.2767L43.4649 20.8871L43.5428 20.2639H47.9834L47.9055 20.8871L46.5811 21.1988L42.0626 33.3518L40.972 33.5855L36.6094 21.2767L35.0513 20.8871Z" fill="black"/>
<path d="M50.0093 20.8871L50.0872 20.2639H55.3068L55.2288 20.8871L53.4371 21.1988V32.3391L55.3847 32.6507L55.3068 33.2739H50.0872L50.1651 32.6507L51.879 32.2612V21.1988L50.0093 20.8871Z" fill="black"/>
<path d="M57.4878 33.3516L57.5657 32.7284L59.0459 32.261L63.6422 20.2637L64.7329 20.03L68.9397 32.3389L70.342 32.6505L70.2641 33.3516H65.434L65.5119 32.7284L67.3037 32.261L65.9794 28.5216H61.5388L60.1366 32.261L62.0842 32.5726L62.0063 33.1958H57.4878V33.3516ZM61.8504 27.7425H65.7456L63.8759 22.2113L61.8504 27.7425Z" fill="black"/>
<path d="M80.1582 33.5074C79.535 33.5074 78.9117 33.3516 78.4443 33.1179C77.9769 32.8842 77.5874 32.4947 77.2758 32.0272C77.042 31.5598 76.8862 31.0145 76.8862 30.3913C76.8862 29.5343 77.1199 28.7553 77.6653 28.132C78.2106 27.4309 78.9896 26.8077 79.9245 26.1844C79.535 25.717 79.1455 25.2496 78.8338 24.7822C78.5222 24.2368 78.3664 23.7694 78.3664 23.2241C78.3664 22.6788 78.5222 22.2113 78.7559 21.666C79.0675 21.1986 79.4571 20.8091 79.9245 20.4974C80.3919 20.1858 80.9372 20.03 81.4826 20.03C82.3395 20.03 83.0406 20.2637 83.586 20.7311C84.0534 21.1986 84.365 21.8218 84.365 22.7567C84.365 23.3799 84.1313 23.9252 83.7418 24.4706C83.2744 25.0159 82.6511 25.5612 81.8721 26.1065V26.1844L84.4429 29.0669L86.3905 25.8728L84.7545 25.4833L84.8324 24.938H89.273L89.1951 25.4833L87.4033 25.8728L85.1441 29.6901C85.9231 30.5471 86.5463 31.2482 87.1696 31.7935C87.7928 32.261 88.3381 32.6505 88.7277 32.7284L89.1172 32.8842L89.0393 33.4296C88.8056 33.5075 88.6498 33.5853 88.494 33.5853C88.3381 33.5853 88.1823 33.6633 87.9486 33.6633C87.4812 33.6633 87.0138 33.5074 86.5463 33.1958C86.0789 32.8842 85.6894 32.5726 85.2999 32.1831L84.2871 31.0924C83.8976 31.6378 83.586 32.0272 83.1965 32.4168C82.8069 32.8063 82.4174 33.1179 81.8721 33.3516C81.3268 33.4295 80.7814 33.5074 80.1582 33.5074ZM80.3919 26.7298C79.7687 27.1972 79.3012 27.6646 78.9117 28.132C78.5222 28.5995 78.3664 29.1448 78.3664 29.7681C78.3664 30.2355 78.4443 30.7029 78.678 31.0924C78.8338 31.482 79.1454 31.7935 79.4571 32.0272C79.7687 32.261 80.2361 32.4168 80.7035 32.4168C81.3268 32.4168 81.8721 32.1831 82.3395 31.7935C82.807 31.404 83.2744 30.9366 83.586 30.3134L80.4698 26.7298H80.3919ZM81.3268 20.7311C81.0151 20.7311 80.7035 20.8091 80.4698 20.9649C80.2361 21.1207 80.0024 21.3544 79.9245 21.666C79.7687 21.9776 79.7687 22.2113 79.7687 22.6009C79.7687 23.0683 79.9245 23.5357 80.2361 24.0031C80.5477 24.4706 80.9372 24.938 81.4047 25.4054C81.95 25.0159 82.4174 24.6263 82.6511 24.2368C82.9628 23.8473 83.0407 23.3799 83.0407 22.9125C83.0407 22.523 82.9627 22.1334 82.8069 21.8218C82.6511 21.5102 82.4953 21.1986 82.1837 21.0428C81.95 20.887 81.6384 20.7311 81.3268 20.7311Z" fill="black"/>
<path d="M95.8949 36.7017L95.5054 36.0006C96.3623 35.2215 96.9856 34.4425 97.453 33.6634C97.8425 32.8844 98.0762 32.0275 98.0762 31.0926V21.1988L96.2065 20.8871L96.2844 20.2639H101.582L101.504 20.8871L99.7122 21.1988V29.3787C99.7122 30.781 99.5564 31.8716 99.4006 32.7286C99.1669 33.5855 98.7774 34.2088 98.3099 34.832C97.6867 35.4552 96.9076 36.0785 95.8949 36.7017Z" fill="black"/>
<path d="M103.529 33.3516L103.607 32.7284L105.087 32.261L109.684 20.2637L110.774 20.03L114.981 32.3389L116.384 32.6505L116.306 33.3516H111.476L111.553 32.7284L113.345 32.261L112.021 28.5216H107.58L106.178 32.261L108.126 32.5726L108.048 33.1958H103.529V33.3516ZM107.892 27.7425H111.787L109.917 22.2113L107.892 27.7425Z" fill="black"/>
<path d="M118.487 33.3516L118.565 32.8062L120.357 32.4167L121.136 21.3543L119.188 20.9648L119.266 20.3416H123.005L123.784 22.3671L126.823 30.547L130.328 21.8996L131.029 20.3416H134.769L134.691 20.9648L132.899 21.3543L133.444 32.4946L135.314 32.7283L135.236 33.3516H130.017L130.095 32.8062L131.886 32.4167L131.263 21.9776L126.823 32.8062L125.888 32.962L121.993 22.2892L121.213 32.4946L123.161 32.7283L123.083 33.3516H118.487Z" fill="black"/>
<path d="M137.496 20.8871L137.573 20.2639H147.545L147.234 23.6138L146.532 23.5359L146.221 21.043H140.923V26.3404H144.195L144.585 25.0161L145.364 24.9382L145.052 28.9892L144.351 29.0671L144.117 27.1195H140.923V32.5728H146.455L147.389 30.0019L148.013 30.0798L147.701 33.3518H137.573L137.651 32.7286L139.443 32.3391V21.2767L137.496 20.8871Z" fill="black"/>
<path d="M153.544 33.5854C152.843 33.5854 152.142 33.4296 151.518 33.118C150.895 32.8064 150.428 32.4947 150.038 32.0273L150.272 29.1449L151.051 29.2228L151.362 31.3262C151.596 31.7157 151.908 32.0273 152.375 32.2611C152.843 32.4948 153.31 32.6506 153.855 32.6506C154.245 32.6506 154.712 32.5726 155.024 32.4168C155.413 32.261 155.725 32.0273 155.959 31.6378C156.193 31.3262 156.348 30.8588 156.348 30.3913C156.348 30.0018 156.193 29.6123 155.959 29.2228C155.725 28.9112 155.413 28.5995 155.024 28.2879C154.634 28.0542 154.167 27.7426 153.544 27.353C152.843 26.8856 152.219 26.574 151.83 26.1845C151.362 25.8729 151.051 25.4833 150.739 25.0159C150.428 24.5485 150.272 24.0032 150.272 23.38C150.272 22.6788 150.428 22.0556 150.817 21.5102C151.207 20.9649 151.674 20.5754 152.219 20.3417C152.765 20.0301 153.388 19.9521 154.089 19.9521C154.634 19.9521 155.18 20.0301 155.725 20.2638C156.27 20.4196 156.66 20.7312 157.049 21.0428L156.738 24.159L155.959 24.0811L155.725 21.8219C155.569 21.5103 155.336 21.2765 154.946 21.0428C154.557 20.8091 154.167 20.7312 153.778 20.7312C153.388 20.7312 153.076 20.8091 152.765 20.9649C152.453 21.1207 152.219 21.3544 152.064 21.6661C151.908 21.9777 151.83 22.3672 151.83 22.8346C151.83 23.302 151.986 23.7695 152.219 24.0811C152.453 24.4706 152.765 24.7822 153.154 25.0159C153.544 25.2496 154.089 25.6392 154.712 26.0287C155.413 26.4182 155.959 26.8077 156.426 27.1193C156.816 27.431 157.205 27.8205 157.517 28.2879C157.829 28.7553 157.984 29.2228 157.984 29.846C157.984 30.5471 157.751 31.1704 157.361 31.7936C156.972 32.3389 156.426 32.8064 155.725 33.118C155.102 33.4296 154.323 33.5854 153.544 33.5854Z" fill="black"/>
<path d="M151.363 41.1421C149.181 43.7129 147 46.2059 144.507 48.4651C143.339 49.6337 142.014 50.7243 140.768 51.815C140.144 52.3603 139.443 52.8277 138.82 53.3731C138.119 53.9184 137.496 54.4637 136.795 54.9311C131.341 58.9043 125.498 62.2541 119.266 64.9029L116.929 65.9156L114.592 66.7726L113.423 67.24L112.255 67.6295L109.84 68.4086L107.425 69.1097L106.178 69.4213L104.932 69.7329L102.517 70.3562L100.024 70.9015C93.4019 72.2259 86.7022 72.927 80.0024 72.927C73.3027 72.927 66.525 72.3038 59.9031 70.9794C53.2813 69.655 46.8152 67.7074 40.6608 65.0587C39.1027 64.4355 37.6225 63.6564 36.0644 62.9553C34.5063 62.2541 33.1041 61.3972 31.6239 60.6181C28.6635 58.9822 25.859 57.1904 23.1323 55.1648C20.4057 53.2172 17.8348 51.0359 15.3419 48.7767C12.9269 46.5175 10.5897 44.0246 8.48633 41.4537C12.9269 46.4396 17.9127 50.958 23.4439 54.6974C26.1706 56.5671 29.053 58.3589 31.9355 59.917C33.4157 60.6961 34.8959 61.4751 36.3761 62.1762C37.8562 62.8774 39.4143 63.5785 40.9724 64.2018C41.7514 64.5134 42.5305 64.825 43.3095 65.1366L45.6466 65.9936L46.8152 66.3831L47.9838 66.7726L50.3988 67.5516C51.1779 67.7853 52.0348 68.019 52.8138 68.2527C53.5929 68.4865 54.4498 68.7202 55.2289 68.876C56.8648 69.2655 58.5009 69.655 60.1368 69.9666C66.6808 71.2131 73.3027 71.8363 80.0024 71.7584C86.6243 71.7584 93.324 71.1352 99.868 69.8108L102.283 69.3434L104.698 68.7202L105.945 68.4086L107.113 68.097L109.528 67.3958L111.943 66.6168L113.112 66.2273L114.28 65.8377L116.617 64.9808L118.955 64.0459C131.341 58.9822 142.559 51.1917 151.363 41.1421Z" fill="black"/>
<path d="M126.589 40.7524C124.953 41.9989 123.239 43.1675 121.447 44.2581C120.59 44.8035 119.655 45.3488 118.799 45.8941C117.864 46.3616 117.007 46.9069 116.072 47.3743C114.202 48.3871 112.332 49.1661 110.463 50.0231C108.515 50.8021 106.568 51.5811 104.62 52.2044C96.7516 54.8531 88.4159 56.0996 80.0801 56.1775C75.9512 56.1775 71.7444 55.8659 67.6155 55.2427C63.4865 54.6194 59.4355 53.6845 55.4624 52.4381C51.4893 51.1916 47.672 49.5556 43.9326 47.6859C40.2711 45.7383 36.6875 43.6349 33.4155 41.142C36.8433 43.4012 40.4269 45.5046 44.2442 47.2185C47.9836 49.0103 51.8009 50.4905 55.774 51.659C59.7472 52.8276 63.7203 53.7625 67.8492 54.3078C71.9002 54.8531 76.0291 55.1647 80.1581 55.1647C84.287 55.1647 88.4159 54.8531 92.4669 54.2299C96.5179 53.6066 100.569 52.6718 104.464 51.5032C106.412 50.88 108.359 50.1789 110.307 49.4777C112.255 48.6987 114.124 47.9196 115.994 46.9848C119.578 45.193 123.161 43.0896 126.589 40.7524Z" fill="black"/>
<path d="M114.981 6.31877C114.903 5.92925 114.748 5.53973 114.514 5.15021C114.358 4.83859 114.124 4.527 113.891 4.29328C113.657 4.05957 113.423 3.82587 113.189 3.67006C113.112 3.59216 113.034 3.59215 112.956 3.51424L112.878 3.43636L112.8 3.35842C112.722 3.28052 112.644 3.28051 112.566 3.20261L112.488 3.12472L112.41 3.04684C112.099 2.89103 111.787 2.8131 111.476 2.7352C111.164 2.6573 110.852 2.57938 110.541 2.57938C109.917 2.50148 109.372 2.57941 108.749 2.65731C108.437 2.73522 108.204 2.73521 107.892 2.89102C107.736 2.89102 107.658 2.96893 107.502 3.04684C107.425 3.04684 107.347 3.12472 107.269 3.12472C107.191 3.12472 107.113 3.20261 107.113 3.20261C107.035 3.20261 106.957 3.28054 106.957 3.28054C106.879 3.28054 106.801 3.35842 106.801 3.35842L106.723 3.43636L106.645 3.51424C106.568 3.51424 106.49 3.59213 106.49 3.59213C106.412 3.59213 106.412 3.67006 106.334 3.67006L106.256 3.74795L106.178 3.82588C106.1 3.90378 106.1 3.90374 106.022 3.98165C105.944 4.05955 105.944 4.05956 105.866 4.13747C105.789 4.21537 105.789 4.21538 105.711 4.29328C105.633 4.37119 105.633 4.3712 105.555 4.4491C105.477 4.52701 105.399 4.60488 105.321 4.76069C105.165 4.9944 105.01 5.15025 104.854 5.38396C104.854 5.46187 104.776 5.46183 104.776 5.53973L104.698 5.61767V5.69555C104.698 5.77345 104.62 5.77346 104.62 5.85137C104.62 5.92927 104.542 6.00719 104.542 6.00719V6.08507V6.163C104.542 6.24091 104.542 6.31877 104.464 6.31877C104.464 6.39668 104.464 6.47459 104.464 6.47459V6.55253V6.63041C104.464 6.70831 104.464 6.78623 104.464 6.78623C104.464 6.86413 104.464 6.94205 104.464 6.94205V7.01993V7.09782C104.464 7.17572 104.464 7.17573 104.464 7.25363C104.464 7.33154 104.464 7.33155 104.464 7.40945V7.48734V7.56527C104.464 7.64318 104.464 7.64318 104.542 7.72109C104.542 7.79899 104.542 7.79895 104.62 7.87686V7.95479V8.03268C104.62 8.11058 104.698 8.11059 104.698 8.1885C104.698 8.2664 104.776 8.26641 104.776 8.34431V8.4222C104.776 8.4222 104.776 8.50013 104.854 8.50013C104.854 8.57803 104.932 8.578 104.932 8.6559C104.932 8.73381 105.009 8.73381 105.009 8.81172C105.087 8.88962 105.165 8.96752 105.165 9.04542C105.399 9.35704 105.711 9.59077 106.022 9.74658C106.334 9.90239 106.645 9.98031 106.957 10.0582C107.269 10.0582 107.502 10.0582 107.736 10.0582H107.814H107.892C107.97 10.0582 107.97 10.0582 108.048 9.98028C108.126 9.98028 108.204 9.9024 108.281 9.9024C108.359 9.9024 108.437 9.82446 108.515 9.82446C108.515 9.82446 108.593 9.82448 108.593 9.74658C109.138 9.66867 109.45 9.20123 109.45 8.6559C109.45 8.03267 108.983 7.56527 108.359 7.56527C107.736 7.56527 107.269 8.03267 107.269 8.6559C107.269 9.12333 107.58 9.51289 107.97 9.66869H107.892C107.814 9.66869 107.814 9.66869 107.736 9.66869H107.658H107.58C107.347 9.66869 107.113 9.66867 106.879 9.59076C106.646 9.51286 106.412 9.43498 106.1 9.27917C105.866 9.12336 105.633 8.96752 105.399 8.6559C105.321 8.578 105.321 8.5001 105.243 8.4222L105.165 8.34431L105.087 8.26638C105.087 8.26638 105.087 8.2664 105.087 8.1885V8.11061C105.087 8.03271 105.087 8.0327 105.009 7.95479C105.009 7.87689 105.01 7.87688 104.932 7.79897V7.72109V7.64316C104.932 7.56525 104.932 7.56524 104.932 7.48734C104.932 7.40943 104.932 7.40947 104.932 7.33157V7.25363V7.17575C104.932 7.09785 104.932 7.09784 104.932 7.01993C104.932 6.94203 104.932 6.94202 104.932 6.86411V6.78623V6.7083C104.932 6.63039 104.932 6.63043 104.932 6.55253C104.932 6.47462 104.932 6.47461 104.932 6.39671V6.31877V6.24089C104.932 6.16299 104.932 6.16298 104.932 6.08507C104.932 6.00717 104.932 6.00716 105.009 5.92925V5.85137V5.77348C105.009 5.69558 105.01 5.69557 105.087 5.61767C105.087 5.53976 105.165 5.53975 105.165 5.46185V5.38396L105.243 5.30603C105.243 5.22813 105.321 5.22812 105.321 5.15021C105.789 4.44907 106.49 3.82588 107.425 3.43636C107.502 3.43636 107.502 3.35842 107.58 3.35842C107.658 3.35842 107.658 3.28054 107.736 3.28054C107.892 3.28054 107.97 3.20261 108.126 3.20261C108.359 3.1247 108.593 3.04684 108.905 3.04684C109.45 2.96893 109.917 2.9689 110.463 2.9689C110.697 2.9689 111.008 3.04682 111.242 3.12472C111.476 3.20263 111.787 3.28052 112.021 3.35842L112.099 3.43636L112.177 3.51424C112.255 3.51424 112.333 3.59213 112.333 3.59213L112.41 3.67006C112.41 3.67006 112.488 3.67004 112.488 3.74795C112.566 3.82585 112.566 3.82586 112.644 3.90376C112.878 4.05957 113.034 4.21539 113.267 4.4491C113.423 4.68282 113.657 4.9165 113.813 5.15021C113.968 5.38392 114.124 5.69555 114.202 6.08507C114.28 6.39669 114.358 6.78623 114.28 7.17575C114.28 7.25365 114.28 7.40943 114.28 7.48734C114.28 7.56524 114.28 7.72107 114.202 7.79897C114.124 8.03269 114.124 8.18849 114.046 8.4222C113.969 8.65591 113.891 8.81171 113.813 9.04542C113.735 9.27913 113.579 9.43498 113.501 9.66869C113.345 9.8245 113.267 10.0582 113.112 10.214C113.034 10.2919 112.956 10.3698 112.878 10.4477C112.8 10.5256 112.8 10.5256 112.722 10.6035C112.644 10.6814 112.644 10.6814 112.566 10.7593C112.488 10.8372 112.488 10.8372 112.41 10.9151C112.332 10.993 112.332 10.9931 112.255 11.071C112.177 11.1489 112.021 11.2268 111.943 11.3047C111.865 11.3826 111.865 11.3826 111.787 11.4605C111.709 11.4605 111.709 11.5384 111.631 11.5384C111.553 11.5384 111.553 11.6163 111.476 11.6163C111.398 11.6163 111.398 11.6942 111.32 11.6942C111.242 11.7721 111.086 11.85 111.008 11.9279C110.93 12.0058 110.774 12.0837 110.696 12.1616C110.619 12.2395 110.463 12.3174 110.307 12.3174C110.229 12.3174 110.151 12.3953 110.151 12.3953C110.073 12.3953 109.995 12.4732 109.995 12.4732C109.917 12.4732 109.84 12.5511 109.84 12.5511C109.762 12.5511 109.684 12.629 109.684 12.629C109.528 12.7069 109.45 12.707 109.294 12.7849C109.138 12.7849 109.061 12.8627 108.905 12.8627C108.827 12.8627 108.749 12.8627 108.671 12.9406C108.593 12.9406 108.515 12.9407 108.437 13.0186C107.892 13.1744 107.347 13.2523 106.723 13.2523C106.568 13.2523 106.412 13.2523 106.256 13.2523H106.022H105.789C105.633 13.2523 105.477 13.2523 105.321 13.2523C105.165 13.2523 105.01 13.2523 104.854 13.2523C104.698 13.2523 104.542 13.2523 104.386 13.2523C104.23 13.2523 104.075 13.2523 103.919 13.2523C103.763 13.2523 103.607 13.2523 103.451 13.2523H103.218C103.14 13.2523 103.062 13.2523 102.984 13.2523C102.828 13.2523 102.672 13.2523 102.517 13.2523C102.361 13.2523 102.205 13.2523 102.049 13.1744C101.738 13.1744 101.426 13.0965 101.114 13.0965C100.958 13.0965 100.803 13.0186 100.647 13.0186C100.491 13.0186 100.335 12.9406 100.179 12.9406C99.8678 12.8627 99.5562 12.8628 99.3225 12.7849C98.933 12.707 98.4655 12.5511 98.076 12.4732C98.1539 12.4732 98.1539 12.4732 98.2318 12.4732C98.3097 12.4732 98.3097 12.4732 98.3876 12.4732C98.4655 12.4732 98.5435 12.4732 98.6214 12.3953C98.7772 12.3174 98.933 12.3174 99.0888 12.2395C99.2446 12.1616 99.4004 12.0837 99.5562 12.0058C99.712 11.9279 99.7899 11.85 99.9457 11.7721C100.413 11.3825 100.803 10.9152 101.036 10.4477C101.114 10.214 101.192 9.98029 101.192 9.74658C101.192 9.51287 101.192 9.27916 101.192 9.12335C101.192 8.88964 101.114 8.73384 101.036 8.50013C101.036 8.42223 101.036 8.42222 100.958 8.34431V8.26638V8.1885C100.958 8.11059 100.881 8.11058 100.881 8.03268V7.95479V7.87686C100.803 7.72105 100.647 7.56526 100.569 7.40945C100.413 7.25364 100.335 7.09784 100.179 7.01993C99.8678 6.78622 99.5562 6.55252 99.2446 6.39671C99.0888 6.3188 98.933 6.24091 98.7772 6.163C98.6993 6.163 98.6214 6.08507 98.5435 6.08507C98.4656 6.08507 98.4655 6.08507 98.3876 6.08507C98.3097 6.08507 98.3097 6.08507 98.2318 6.08507C98.1539 6.08507 98.1539 6.08507 98.076 6.08507C97.9981 6.08507 97.9981 6.08507 97.9202 6.08507H97.8423H97.7644C97.6865 6.08507 97.6865 6.08507 97.6086 6.08507C97.5307 6.08507 97.5307 6.08507 97.4528 6.08507H97.3749H97.297C97.2191 6.08507 97.2191 6.08507 97.1412 6.08507C97.0633 6.08507 97.0633 6.08507 96.9854 6.08507C96.9075 6.08507 96.9075 6.08507 96.8296 6.08507C96.7516 6.08507 96.7517 6.08507 96.6738 6.08507C96.5959 6.08507 96.5179 6.0851 96.44 6.163C96.2842 6.163 96.1284 6.24087 95.9726 6.31877C95.9726 6.31877 95.8947 6.3188 95.8947 6.39671H95.8168H95.7389L95.661 6.47459L95.5831 6.55253H95.5052C95.5052 6.55253 95.5052 6.55253 95.4273 6.55253L95.3494 6.63041L95.2715 6.7083L95.1936 6.78623C95.1936 6.78623 95.1936 6.78621 95.1936 6.86411L95.1157 6.94205L95.0378 7.01993V7.09782V7.17575C95.0378 7.17575 95.0378 7.25363 94.9599 7.25363C94.9599 7.25363 94.9599 7.33157 94.8819 7.33157C94.8819 7.33157 94.8819 7.33155 94.8819 7.40945V7.48734V7.56527V7.64316C94.8819 7.64316 94.8819 7.64318 94.8819 7.72109V7.79897V7.87686V7.95479V8.03268C94.8819 8.03268 94.8819 8.03271 94.8819 8.11061V8.1885V8.26638C94.8819 8.34428 94.8819 8.4222 94.8819 8.4222C94.8819 8.65591 94.9599 8.88961 95.1157 9.04542C95.1936 9.20123 95.3494 9.35707 95.5052 9.51288C95.661 9.66868 95.7389 9.74658 95.8947 9.74658C95.8947 9.74658 95.8947 9.74658 95.9726 9.74658C95.9726 9.74658 95.9726 9.74658 96.0505 9.74658H96.1284C96.2063 9.74658 96.2842 9.74656 96.2842 9.82446C96.3621 9.82446 96.3621 9.82446 96.44 9.82446C96.44 9.82446 96.44 9.82446 96.5179 9.82446C96.8296 9.98027 97.1412 9.90238 97.3749 9.59076C97.6086 9.27914 97.5307 8.88961 97.2191 8.6559C96.9075 8.42219 96.518 8.5001 96.2842 8.81172C96.1284 9.04543 96.1284 9.35705 96.2842 9.59076C96.2842 9.59076 96.2842 9.59076 96.2063 9.59076C96.2063 9.59076 96.1284 9.59078 96.1284 9.51288C96.1284 9.51288 96.1284 9.51288 96.0505 9.51288C96.0505 9.51288 96.0505 9.51288 95.9726 9.51288C95.8947 9.43497 95.7389 9.35708 95.661 9.27917C95.5831 9.20127 95.4273 9.04546 95.4273 8.88965C95.3494 8.73384 95.2715 8.57803 95.2715 8.34431C95.2715 8.26641 95.2715 8.2664 95.2715 8.1885V8.11061V8.03268C95.2715 8.03268 95.2715 8.0327 95.2715 7.95479V7.87686V7.79897V7.72109V7.64316V7.56527C95.2715 7.56527 95.2715 7.48734 95.3494 7.48734C95.3494 7.48734 95.3494 7.40945 95.4273 7.40945C95.4273 7.40945 95.4273 7.33157 95.5052 7.33157L95.5831 7.25363L95.661 7.17575C95.661 7.17575 95.7389 7.17572 95.7389 7.09782C95.7389 7.09782 95.8168 7.09784 95.8168 7.01993C95.8168 7.01993 95.8947 7.01995 95.8947 6.94205H95.9726H96.0505C96.0505 6.94205 96.1284 6.94202 96.1284 6.86411C96.5958 6.6304 97.2191 6.63042 97.7644 6.78623H97.8423H97.9202C97.9981 6.78623 98.076 6.86411 98.1539 6.86411C98.3097 6.94202 98.4656 6.94203 98.6214 7.01993C98.933 7.17574 99.1667 7.33156 99.4004 7.56527C99.5562 7.64318 99.6341 7.79895 99.712 7.87686C99.7899 8.03267 99.9457 8.11057 100.024 8.26638V8.34431V8.4222C100.024 8.4222 100.024 8.50013 100.102 8.50013V8.57802C100.102 8.57802 100.102 8.578 100.102 8.6559C100.102 8.73381 100.102 8.73381 100.179 8.81172C100.257 8.96753 100.257 9.12336 100.257 9.27917C100.257 9.43498 100.257 9.59075 100.257 9.82446C100.257 9.98027 100.179 10.214 100.102 10.4477C100.024 10.6814 99.9457 10.8372 99.7899 11.071C99.7899 11.1489 99.712 11.1489 99.712 11.2268C99.6341 11.3047 99.6341 11.3046 99.5562 11.3825C99.4783 11.4605 99.4004 11.5384 99.2446 11.6163C99.1667 11.6942 99.0109 11.7721 98.933 11.85C98.7772 11.9279 98.6993 12.0058 98.5435 12.0058C98.3876 12.0837 98.3097 12.0837 98.1539 12.1616C98.076 12.1616 97.9981 12.1616 97.9202 12.2395H97.8423H97.7644H97.6865H97.6086C97.5307 12.2395 97.4528 12.2395 97.3749 12.2395C97.297 12.2395 97.297 12.2395 97.2191 12.2395C97.1412 12.2395 97.1412 12.2395 97.0633 12.2395C96.9854 12.2395 96.9854 12.2395 96.9075 12.2395C96.8296 12.2395 96.8296 12.2395 96.7517 12.2395C96.6738 12.2395 96.5958 12.2395 96.5179 12.2395C96.44 12.2395 96.3621 12.2395 96.2842 12.2395C96.2063 12.2395 96.1284 12.2395 96.0505 12.2395C95.9726 12.2395 95.9726 12.2395 95.8947 12.2395H95.8168C95.7389 12.2395 95.5831 12.1616 95.5052 12.1616C94.9599 12.0058 94.3366 11.85 93.7913 11.6163C93.246 11.4605 92.7006 11.3047 92.1553 11.1488C91.0646 10.8372 89.974 10.4477 88.9612 10.214C88.4159 10.0582 87.9485 9.98027 87.4032 9.82446C86.9357 9.74656 86.3904 9.66867 85.923 9.59076C84.9881 9.51286 84.0533 9.51289 83.1963 9.66869C82.8068 9.7466 82.4173 9.82447 82.0278 9.98028C81.6382 10.1361 81.3266 10.2919 81.0929 10.5256C80.9371 10.6814 80.8592 10.7593 80.7813 10.9151C80.7034 11.071 80.6255 11.2267 80.6255 11.3825V11.4605V11.5384C80.6255 11.6163 80.6255 11.6942 80.6255 11.7721C80.6255 11.9279 80.6255 12.0058 80.7034 12.1616C80.7813 12.3953 80.8592 12.5511 81.015 12.7069C81.1708 12.8627 81.3266 12.9406 81.4045 12.9406C81.5603 12.9406 81.6382 12.9406 81.7161 12.9406H81.7941C81.7941 12.9406 81.794 12.9406 81.7161 12.9406C81.6382 12.9406 81.5603 12.9406 81.4045 12.9406C81.3266 12.9406 81.1708 12.8627 81.015 12.7069C80.8592 12.5511 80.7813 12.3953 80.7034 12.1616C80.7034 12.0837 80.6255 11.9279 80.6255 11.7721C80.6255 11.6942 80.6255 11.6163 80.6255 11.6163V11.5384V11.4605C80.6255 11.3047 80.7034 11.2268 80.7813 11.071C80.8592 10.9152 80.9371 10.8372 81.0929 10.7593C81.3266 10.5256 81.6383 10.3698 81.9499 10.2919C82.2615 10.1361 82.651 10.0582 83.0405 9.98028C83.8196 9.82447 84.7544 9.82447 85.6893 9.98028C86.1567 10.0582 86.6241 10.1361 87.1694 10.214C87.6369 10.2919 88.1822 10.4477 88.6496 10.6035C88.8054 10.6814 89.0391 10.6814 89.195 10.7593C89.3508 10.8372 89.4287 10.9151 89.5845 10.9151C89.6624 10.9151 89.6624 10.9151 89.7403 10.993H89.8182H89.8961H89.974C89.974 10.993 90.0519 10.9931 90.0519 11.071C90.1298 11.071 90.2077 11.1488 90.2077 11.1488C90.2856 11.1488 90.2856 11.2268 90.3635 11.2268C90.4414 11.2268 90.4414 11.3047 90.5193 11.3047C90.5193 11.3047 90.5972 11.3046 90.5972 11.3825C90.5972 11.3825 90.6751 11.3826 90.6751 11.4605C90.6751 11.4605 90.753 11.4605 90.753 11.5384C90.753 11.5384 90.8309 11.5384 90.8309 11.6163C90.9088 11.6163 90.9088 11.6942 90.9867 11.6942C90.9867 11.6942 91.0646 11.6942 91.0646 11.7721C91.0646 11.7721 91.1426 11.7721 91.1426 11.85L91.2205 11.9279L91.2984 12.0058C91.3763 12.0837 91.3763 12.0837 91.4542 12.1616C91.5321 12.2395 91.61 12.3174 91.6879 12.4732C91.7658 12.5511 91.7658 12.6291 91.8437 12.7849C91.9216 12.8628 91.9216 13.0185 91.9995 13.0965C91.9995 13.1744 92.0774 13.3302 92.0774 13.4081C92.0774 13.486 92.0774 13.486 92.0774 13.5639C92.0774 13.6418 92.0774 13.6418 92.0774 13.7197C92.0774 13.8755 92.0774 14.1092 91.9995 14.265C91.9995 14.4208 91.9216 14.5767 91.8437 14.7325C91.7658 14.8883 91.6879 14.9662 91.61 15.0441C91.5321 15.122 91.4542 15.1999 91.2984 15.2778L91.2205 15.3557C91.2205 15.3557 91.2205 15.3557 91.1426 15.3557H91.0646C91.0646 15.3557 90.9867 15.3557 90.9867 15.4336H90.9089H90.8309C90.6751 15.5115 90.5972 15.5115 90.4414 15.5894C90.2856 15.5894 90.2077 15.6673 90.0519 15.6673C89.8182 15.6673 89.5066 15.6673 89.2729 15.6673C89.1171 15.6673 89.0391 15.5894 88.8833 15.5894C88.8054 15.5894 88.7275 15.5894 88.7275 15.5115H88.6496H88.5717C88.1043 15.3557 87.7927 15.0441 87.559 14.6545V14.5766V14.4987V14.4208V14.3429V14.265V14.1871V14.1092V14.0313V13.9534V13.8755V13.7976V13.7197C87.559 13.7197 87.559 13.7197 87.559 13.6418C87.559 13.6418 87.559 13.6418 87.559 13.5639C87.559 13.5639 87.559 13.5639 87.559 13.486L87.6369 13.4081C87.7148 13.2523 87.8706 13.1744 87.9485 13.0965C88.1043 13.0185 88.1822 12.9406 88.338 12.9406C88.4938 12.9406 88.5717 12.9406 88.6496 12.9406H88.7275C88.4938 13.0185 88.4159 13.1744 88.4159 13.4081C88.4159 13.7197 88.6496 13.9534 88.9612 13.9534C89.2729 13.9534 89.5066 13.7197 89.5066 13.4081C89.5066 13.1744 89.3507 12.9407 89.0391 12.8627C89.0391 12.8627 88.9612 12.8628 88.9612 12.7849C88.8833 12.7849 88.8833 12.7848 88.8054 12.7069H88.7275C88.7275 12.7069 88.7275 12.7069 88.6496 12.7069C88.6496 12.7069 88.6496 12.7069 88.5717 12.7069C88.4938 12.7069 88.338 12.7069 88.1822 12.7069C88.0264 12.7069 87.8706 12.7848 87.7148 12.8627C87.559 12.9407 87.4032 13.0186 87.3253 13.1744L87.2473 13.2523C87.2473 13.2523 87.2473 13.3302 87.1694 13.3302V13.4081V13.486V13.5639V13.6418V13.7197V13.7976C87.1694 13.7976 87.1694 13.7976 87.1694 13.8755V13.9534V14.0313V14.1092V14.1871V14.265V14.3429C87.1694 14.3429 87.1694 14.3429 87.1694 14.4208V14.4987V14.5766V14.6545C87.1694 14.6545 87.1694 14.6546 87.1694 14.7325V14.8104V14.8882V14.9662V15.0441V15.122C87.1694 15.122 87.1694 15.1999 87.2473 15.1999C87.3253 15.2778 87.4031 15.4336 87.481 15.5115C87.559 15.5894 87.559 15.5894 87.6369 15.6673L87.7148 15.7452L87.7927 15.8231L87.8706 15.901C87.8706 15.901 87.9485 15.901 87.9485 15.9789H88.0264H88.1043C88.1043 15.9789 88.1822 15.9789 88.1822 16.0568C88.1822 16.0568 88.2601 16.0568 88.2601 16.1347H88.338H88.4159C88.4159 16.1347 88.4938 16.1347 88.4938 16.2126C88.4938 16.2126 88.5717 16.2126 88.5717 16.2906C88.5717 16.2906 88.6496 16.2905 88.6496 16.3684H88.7275C88.8054 16.3684 88.8833 16.4463 88.9612 16.4463C89.1171 16.5242 89.195 16.5243 89.3508 16.5243C89.6624 16.6022 89.8961 16.6022 90.2077 16.5243C90.3635 16.5243 90.5193 16.5242 90.6751 16.4463C90.8309 16.4463 90.9867 16.3685 91.1426 16.2906H91.2205H91.2984C91.2984 16.2906 91.3763 16.2905 91.3763 16.2126H91.4542C91.4542 16.2126 91.4542 16.2126 91.5321 16.2126L91.61 16.1347C91.7658 16.0568 91.8437 15.901 91.9995 15.8231C92.0774 15.6673 92.2332 15.5894 92.3111 15.4336C92.389 15.2778 92.4669 15.044 92.5448 14.8882C92.6227 14.4987 92.6227 14.0313 92.4669 13.5639C92.4669 13.486 92.389 13.3302 92.3111 13.2523C92.2332 13.1744 92.1553 13.0185 92.1553 12.9406C92.0774 12.8627 91.9995 12.7069 91.9216 12.629C91.8437 12.5511 91.8437 12.5511 91.7658 12.4732L91.6879 12.3953L91.61 12.3174L91.5321 12.2395L91.4542 12.1616C91.3763 12.0837 91.3763 12.0837 91.2984 12.0058C91.5321 12.0837 91.7658 12.1616 91.9995 12.2395C92.5448 12.3953 93.0902 12.6291 93.6355 12.7849C94.1808 12.9407 94.7261 13.1743 95.3494 13.3302C95.8947 13.486 96.518 13.7197 97.0633 13.8755C97.6865 14.0313 98.2318 14.1871 98.8551 14.3429C99.1667 14.4209 99.4783 14.4987 99.7899 14.5766C99.9457 14.5766 100.102 14.6545 100.257 14.6545C100.413 14.6545 100.569 14.7325 100.725 14.7325C101.036 14.8104 101.348 14.8103 101.66 14.8882C101.815 14.8882 101.971 14.9662 102.127 14.9662C102.283 14.9662 102.439 14.9662 102.594 14.9662C102.672 14.9662 102.75 14.9662 102.828 14.9662H103.062C103.218 14.9662 103.374 14.9662 103.529 14.9662C103.685 14.9662 103.841 14.9662 103.997 14.9662C104.153 14.9662 104.308 14.9662 104.464 14.9662C104.62 14.9662 104.776 14.9662 104.932 14.9662C105.087 14.9662 105.243 14.9662 105.399 14.9662H105.633H105.866C106.022 14.9662 106.178 14.9662 106.334 14.9662C106.957 14.8883 107.502 14.8104 108.126 14.7325C108.204 14.7325 108.281 14.7324 108.359 14.6545C108.437 14.6545 108.515 14.6546 108.593 14.5766C108.749 14.4987 108.905 14.4987 109.061 14.4208C109.216 14.3429 109.372 14.3429 109.45 14.265C109.528 14.265 109.606 14.1871 109.684 14.1871C109.762 14.1871 109.84 14.1092 109.917 14.1092C109.995 14.1092 110.073 14.0313 110.151 14.0313C110.229 14.0313 110.307 13.9534 110.385 13.9534C110.541 13.8755 110.619 13.7976 110.774 13.7976C110.93 13.7197 111.008 13.6418 111.164 13.5639C111.32 13.486 111.398 13.4081 111.553 13.3302C111.631 13.3302 111.709 13.2523 111.709 13.2523C111.787 13.1744 111.787 13.1744 111.865 13.0965C111.943 13.0185 111.943 13.0185 112.021 12.9406C112.099 12.8627 112.099 12.8628 112.177 12.7849C112.255 12.707 112.41 12.629 112.488 12.5511C112.566 12.4732 112.566 12.4732 112.644 12.3953C112.722 12.3174 112.722 12.3174 112.8 12.2395C112.878 12.1616 112.878 12.1616 112.956 12.0837C113.034 12.0058 113.034 12.0058 113.112 11.9279C113.189 11.85 113.267 11.6942 113.423 11.6163C113.579 11.3826 113.735 11.2267 113.891 10.993C114.046 10.7593 114.124 10.5256 114.28 10.2919C114.358 10.0582 114.514 9.82447 114.592 9.59076C115.137 8.11058 115.137 7.17572 114.981 6.31877Z" fill="black"/>
<path d="M84.7545 8.81181C84.8324 8.81181 84.9103 8.73389 84.9882 8.65599C85.0661 8.57808 85.144 8.4223 85.0661 8.18858C85.0661 7.95487 84.9882 7.72117 84.7545 7.56536C84.5987 7.33165 84.2871 7.17581 84.0533 7.0979C83.8975 7.02 83.7417 7.02002 83.508 7.02002C83.2743 7.02002 83.0406 7.09793 82.8069 7.17584C82.5732 7.25374 82.3395 7.40955 82.1836 7.56536C81.9499 7.72117 81.7941 7.87698 81.6383 8.1107C81.4825 8.26651 81.4046 8.50018 81.3267 8.65599C81.2488 8.73389 81.2488 8.81184 81.2488 8.88974C81.2488 8.96764 81.1709 9.04554 81.1709 9.12344C81.1709 9.20135 81.1709 9.27924 81.1709 9.35715C81.1709 9.43505 81.1709 9.43506 81.1709 9.51296C81.1709 9.59087 81.1709 9.66878 81.1709 9.66878C81.1709 9.66878 81.2488 9.66875 81.2488 9.59085C81.3267 9.51294 81.4046 9.43505 81.4825 9.35715C81.5604 9.27924 81.5604 9.27923 81.6383 9.20133C81.7162 9.12342 81.7162 9.12341 81.7941 9.04551C81.9499 8.96761 82.0278 8.81183 82.1836 8.73392C82.3395 8.65602 82.4953 8.57812 82.6511 8.50022C82.8069 8.42231 82.9627 8.42229 83.1185 8.42229C83.2743 8.42229 83.3522 8.42229 83.4301 8.42229H83.508H83.5859C83.5859 8.42229 83.5859 8.42229 83.6638 8.42229C83.7417 8.42229 83.8196 8.50022 83.8975 8.50022C83.9754 8.50022 84.0533 8.5781 84.1312 8.5781C84.365 8.65601 84.5208 8.81181 84.7545 8.81181Z" fill="black"/>
<path d="M75.2501 8.81181C75.1722 8.81181 75.0943 8.73389 75.0164 8.65599C74.9385 8.57808 74.8606 8.4223 74.9385 8.18858C74.9385 7.95487 75.0164 7.72117 75.2501 7.56536C75.4059 7.33165 75.7176 7.17581 75.9513 7.0979C76.1071 7.02 76.2629 7.02002 76.4966 7.02002C76.7303 7.02002 76.964 7.09793 77.1977 7.17584C77.4315 7.25374 77.6652 7.40955 77.821 7.56536C78.0547 7.72117 78.2105 7.87698 78.3663 8.1107C78.5221 8.26651 78.6 8.50018 78.6779 8.65599C78.7558 8.73389 78.7558 8.81184 78.7558 8.88974C78.7558 8.96764 78.8337 9.04554 78.8337 9.12344C78.8337 9.20135 78.8337 9.27924 78.8337 9.35715C78.8337 9.43505 78.8337 9.43506 78.8337 9.51296C78.8337 9.59087 78.8337 9.66878 78.8337 9.66878C78.8337 9.66878 78.7558 9.66875 78.7558 9.59085C78.6779 9.51294 78.6 9.43505 78.5221 9.35715C78.4442 9.27924 78.4442 9.27923 78.3663 9.20133C78.2884 9.12342 78.2884 9.12341 78.2105 9.04551C78.0547 8.96761 77.9768 8.81183 77.821 8.73392C77.6652 8.65602 77.5093 8.57812 77.3535 8.50022C77.1977 8.42231 77.0419 8.42229 76.8861 8.42229C76.7303 8.42229 76.6524 8.42229 76.5745 8.42229H76.4966H76.4187C76.4187 8.42229 76.4187 8.42229 76.3408 8.42229C76.3408 8.42229 76.3408 8.42229 76.2629 8.42229C76.185 8.42229 76.1071 8.50022 76.0292 8.50022C75.9513 8.50022 75.8734 8.5781 75.7955 8.5781C75.5617 8.65601 75.4059 8.81181 75.2501 8.81181Z" fill="black"/>
<path d="M80.937 6.78635C82.6509 4.44923 80.158 0.709834 79.9243 0.320312C79.6905 0.709834 77.1976 4.44923 78.9115 6.78635C77.8987 5.61779 75.25 5.69566 76.029 5.92938C79.5347 6.94213 79.1452 9.59089 79.1452 9.59089V9.66882C79.1452 9.82463 79.301 9.98041 79.4568 9.98041H79.5347C79.6126 9.98041 79.6126 10.0583 79.6126 10.0583V10.6036C79.6126 10.6036 79.6126 10.6037 79.6126 10.6816L78.9115 12.1617C79.301 12.6291 79.8464 14.1093 79.9243 14.421C79.9243 14.421 79.9243 14.421 80.0022 14.421C80.0801 14.1093 80.6254 12.707 81.0149 12.1617L80.3138 10.6816C80.3138 10.6816 80.3138 10.6815 80.3138 10.6036V10.0583C80.3138 9.98043 80.3917 9.98041 80.3917 9.98041C80.5475 9.98041 80.7033 9.82463 80.7033 9.66882C80.7033 9.66882 80.2359 7.02007 83.8195 6.00731C84.5985 5.7736 82.0277 5.61779 80.937 6.78635Z" fill="black"/>
<path d="M44.9456 6.31877C45.0235 5.92925 45.1793 5.53973 45.413 5.15021C45.5688 4.83859 45.8025 4.527 46.0363 4.29328C46.27 4.05957 46.5037 3.82587 46.7374 3.67006C46.8153 3.59216 46.8932 3.59215 46.9711 3.51424L47.049 3.43636L47.1269 3.35842C47.2048 3.28052 47.2827 3.28051 47.3606 3.20261L47.4385 3.12472L47.5164 3.04684C47.828 2.89103 48.1397 2.8131 48.4513 2.7352C48.7629 2.6573 49.0745 2.57938 49.3861 2.57938C50.0094 2.50148 50.5547 2.57941 51.1779 2.65731C51.4896 2.73522 51.7232 2.73521 52.0349 2.89102C52.1907 2.89102 52.2686 2.96893 52.4244 3.04684C52.5023 3.04684 52.5802 3.12472 52.6581 3.12472C52.736 3.12472 52.8139 3.20261 52.8139 3.20261C52.8918 3.20261 52.9697 3.28054 52.9697 3.28054C53.0476 3.28054 53.1255 3.35842 53.1255 3.35842L53.2034 3.43636L53.2813 3.51424C53.3592 3.51424 53.4372 3.59213 53.4372 3.59213C53.5151 3.59213 53.515 3.67006 53.5929 3.67006L53.6709 3.74795L53.7488 3.82588C53.8267 3.90378 53.8267 3.90374 53.9046 3.98165C53.9825 4.05955 53.9825 4.05956 54.0604 4.13747C54.1383 4.21537 54.1383 4.21538 54.2162 4.29328C54.2941 4.37119 54.2941 4.3712 54.372 4.4491C54.4499 4.52701 54.5278 4.60488 54.6057 4.76069C54.7615 4.9944 54.9173 5.15025 55.0731 5.38396C55.0731 5.46187 55.151 5.46183 55.151 5.53973L55.2289 5.61767V5.69555C55.2289 5.77345 55.3068 5.77346 55.3068 5.85137C55.3068 5.92927 55.3848 6.00719 55.3848 6.00719V6.08507V6.163C55.3848 6.24091 55.3848 6.31877 55.4627 6.31877C55.4627 6.39668 55.4627 6.47459 55.4627 6.47459V6.55253V6.63041C55.4627 6.70831 55.4627 6.78623 55.4627 6.78623C55.4627 6.86413 55.4627 6.94205 55.4627 6.94205V7.01993V7.09782C55.4627 7.17572 55.4627 7.17573 55.4627 7.25363C55.4627 7.33154 55.4627 7.33155 55.4627 7.40945V7.48734V7.56527C55.4627 7.64318 55.4627 7.64318 55.3848 7.72109C55.3848 7.79899 55.3848 7.79895 55.3068 7.87686V7.95479V8.03268C55.3068 8.11058 55.2289 8.11059 55.2289 8.1885C55.2289 8.2664 55.151 8.26641 55.151 8.34431V8.4222C55.151 8.4222 55.151 8.50013 55.0731 8.50013C55.0731 8.57803 54.9952 8.578 54.9952 8.6559C54.9952 8.73381 54.9173 8.73381 54.9173 8.81172C54.8394 8.88962 54.7615 8.96752 54.7615 9.04542C54.5278 9.35704 54.2162 9.59077 53.9046 9.74658C53.593 9.90239 53.2813 9.98031 52.9697 10.0582C52.6581 10.0582 52.4244 10.0582 52.1907 10.0582H52.1128H52.0349C51.957 10.0582 51.957 10.0582 51.8791 9.98028C51.8012 9.98028 51.7232 9.9024 51.6453 9.9024C51.5674 9.9024 51.4895 9.82446 51.4116 9.82446C51.4116 9.82446 51.3337 9.82448 51.3337 9.74658C50.7884 9.66867 50.4768 9.20123 50.4768 8.6559C50.4768 8.03267 50.9442 7.56527 51.5675 7.56527C52.1907 7.56527 52.6581 8.03267 52.6581 8.6559C52.6581 9.12333 52.3465 9.51289 51.957 9.66869H52.0349C52.1128 9.66869 52.1128 9.66869 52.1907 9.66869H52.2686H52.3465C52.5802 9.66869 52.8139 9.66867 53.0476 9.59076C53.2813 9.51286 53.5151 9.43498 53.8267 9.27917C54.0604 9.12336 54.2941 8.96752 54.5278 8.6559C54.6057 8.578 54.6057 8.5001 54.6836 8.4222L54.7615 8.34431L54.8394 8.26638C54.8394 8.26638 54.8394 8.2664 54.8394 8.1885V8.11061C54.8394 8.03271 54.8394 8.0327 54.9173 7.95479C54.9173 7.87689 54.9173 7.87688 54.9952 7.79897V7.72109V7.64316C54.9952 7.56525 54.9952 7.56524 54.9952 7.48734C54.9952 7.40943 54.9952 7.40947 54.9952 7.33157V7.25363V7.17575C54.9952 7.09785 54.9952 7.09784 54.9952 7.01993C54.9952 6.94203 54.9952 6.94202 54.9952 6.86411V6.78623V6.7083C54.9952 6.63039 54.9952 6.63043 54.9952 6.55253C54.9952 6.47462 54.9952 6.47461 54.9952 6.39671V6.31877V6.24089C54.9952 6.16299 54.9952 6.16298 54.9952 6.08507C54.9952 6.00717 54.9952 6.00716 54.9173 5.92925V5.85137V5.77348C54.9173 5.69558 54.9173 5.69557 54.8394 5.61767C54.8394 5.53976 54.7615 5.53975 54.7615 5.46185V5.38396L54.6836 5.30603C54.6836 5.22813 54.6057 5.22812 54.6057 5.15021C54.1383 4.44907 53.4371 3.82588 52.5023 3.43636C52.4244 3.43636 52.4244 3.35842 52.3465 3.35842C52.2686 3.35842 52.2686 3.28054 52.1907 3.28054C52.0349 3.28054 51.957 3.20261 51.8012 3.20261C51.5674 3.1247 51.3337 3.04684 51.0221 3.04684C50.4768 2.96893 50.0094 2.9689 49.464 2.9689C49.2303 2.9689 48.9187 3.04682 48.685 3.12472C48.4513 3.20263 48.1397 3.28052 47.9059 3.35842L47.828 3.43636L47.7501 3.51424C47.6722 3.51424 47.5943 3.59213 47.5943 3.59213L47.5164 3.67006C47.5164 3.67006 47.4385 3.67004 47.4385 3.74795C47.3606 3.82585 47.3606 3.82586 47.2827 3.90376C47.049 4.05957 46.8932 4.21539 46.6595 4.4491C46.5037 4.68282 46.27 4.9165 46.1142 5.15021C45.9584 5.38392 45.8025 5.69555 45.7246 6.08507C45.6467 6.39669 45.5688 6.78623 45.6467 7.17575C45.6467 7.25365 45.6467 7.40943 45.6467 7.48734C45.6467 7.56524 45.6467 7.72107 45.7246 7.79897C45.8025 8.03269 45.8025 8.18849 45.8804 8.4222C45.9583 8.65591 46.0363 8.81171 46.1142 9.04542C46.1921 9.27913 46.3479 9.43498 46.4258 9.66869C46.5816 9.8245 46.6595 10.0582 46.8153 10.214C46.8932 10.2919 46.9711 10.3698 47.049 10.4477C47.1269 10.5256 47.1269 10.5256 47.2048 10.6035C47.2827 10.6814 47.2827 10.6814 47.3606 10.7593C47.4385 10.8372 47.4385 10.8372 47.5164 10.9151C47.5943 10.993 47.5943 10.9931 47.6722 11.071C47.7501 11.1489 47.906 11.2268 47.9839 11.3047C48.0618 11.3826 48.0617 11.3826 48.1397 11.4605C48.2176 11.4605 48.2176 11.5384 48.2955 11.5384C48.3734 11.5384 48.3734 11.6163 48.4513 11.6163C48.5292 11.6163 48.5292 11.6942 48.6071 11.6942C48.685 11.7721 48.8408 11.85 48.9187 11.9279C48.9966 12.0058 49.1524 12.0837 49.2303 12.1616C49.3082 12.2395 49.464 12.3174 49.6199 12.3174C49.6978 12.3174 49.7756 12.3953 49.7756 12.3953C49.8535 12.3953 49.9315 12.4732 49.9315 12.4732C50.0094 12.4732 50.0873 12.5511 50.0873 12.5511C50.1652 12.5511 50.2431 12.629 50.2431 12.629C50.3989 12.7069 50.4768 12.707 50.6326 12.7849C50.7884 12.7849 50.8663 12.8627 51.0221 12.8627C51.1 12.8627 51.1779 12.8627 51.2558 12.9406C51.3337 12.9406 51.4116 12.9407 51.4895 13.0186C52.0349 13.1744 52.5802 13.2523 53.2034 13.2523C53.3592 13.2523 53.515 13.2523 53.6709 13.2523H53.9046H54.1383C54.2941 13.2523 54.4499 13.2523 54.6057 13.2523C54.7615 13.2523 54.9173 13.2523 55.0731 13.2523C55.229 13.2523 55.3847 13.2523 55.5406 13.2523C55.6964 13.2523 55.8522 13.2523 56.008 13.2523C56.1638 13.2523 56.3196 13.2523 56.4754 13.2523H56.7091C56.787 13.2523 56.8649 13.2523 56.9428 13.2523C57.0986 13.2523 57.2545 13.2523 57.4103 13.2523C57.5661 13.2523 57.7219 13.2523 57.8777 13.1744C58.1893 13.1744 58.5009 13.0965 58.8125 13.0965C58.9683 13.0965 59.1242 13.0186 59.28 13.0186C59.4358 13.0186 59.5916 12.9406 59.7474 12.9406C60.059 12.8627 60.3706 12.8628 60.6043 12.7849C60.9938 12.707 61.4613 12.5511 61.8508 12.4732C61.7729 12.4732 61.7729 12.4732 61.695 12.4732C61.6171 12.4732 61.6171 12.4732 61.5392 12.4732C61.4613 12.4732 61.3834 12.4732 61.3055 12.3953C61.1497 12.3174 60.9939 12.3174 60.8381 12.2395C60.6822 12.1616 60.5264 12.0837 60.3706 12.0058C60.2148 11.9279 60.1369 11.85 59.9811 11.7721C59.5137 11.3825 59.1242 10.9152 58.8904 10.4477C58.8125 10.214 58.7346 9.98029 58.7346 9.74658C58.7346 9.51287 58.7346 9.27916 58.7346 9.12335C58.7346 8.88964 58.8125 8.73384 58.8904 8.50013C58.8904 8.42223 58.8905 8.42222 58.9684 8.34431V8.26638V8.1885C58.9684 8.11059 59.0462 8.11058 59.0462 8.03268V7.95479V7.87686C59.1241 7.72105 59.28 7.56526 59.3579 7.40945C59.5137 7.25364 59.5916 7.09784 59.7474 7.01993C60.059 6.78622 60.3706 6.55252 60.6822 6.39671C60.838 6.3188 60.9939 6.24091 61.1497 6.163C61.2276 6.163 61.3055 6.08507 61.3834 6.08507C61.4613 6.08507 61.4613 6.08507 61.5392 6.08507C61.6171 6.08507 61.6171 6.08507 61.695 6.08507C61.7729 6.08507 61.7729 6.08507 61.8508 6.08507C61.9287 6.08507 61.9287 6.08507 62.0066 6.08507H62.0845H62.1624C62.2403 6.08507 62.2403 6.08507 62.3182 6.08507C62.3961 6.08507 62.3961 6.08507 62.474 6.08507H62.5519H62.6298C62.7077 6.08507 62.7078 6.08507 62.7857 6.08507C62.8636 6.08507 62.8635 6.08507 62.9415 6.08507C63.0194 6.08507 63.0194 6.08507 63.0973 6.08507C63.1752 6.08507 63.1752 6.08507 63.2531 6.08507C63.331 6.08507 63.4089 6.0851 63.4868 6.163C63.6426 6.163 63.7984 6.24087 63.9542 6.31877C63.9542 6.31877 64.0321 6.3188 64.0321 6.39671H64.11H64.1879L64.2658 6.47459L64.3437 6.55253H64.4216C64.4216 6.55253 64.4216 6.55253 64.4995 6.55253L64.5774 6.63041L64.6554 6.7083L64.7333 6.78623C64.7333 6.78623 64.7333 6.78621 64.7333 6.86411L64.8112 6.94205L64.8891 7.01993V7.09782V7.17575C64.8891 7.17575 64.8891 7.25363 64.967 7.25363C64.967 7.25363 64.967 7.33157 65.0449 7.33157C65.0449 7.33157 65.0449 7.33155 65.0449 7.40945V7.48734V7.56527V7.64316C65.0449 7.64316 65.0449 7.64318 65.0449 7.72109V7.79897V7.87686V7.95479V8.03268C65.0449 8.03268 65.0449 8.03271 65.0449 8.11061V8.1885V8.26638C65.0449 8.34428 65.0449 8.4222 65.0449 8.4222C65.0449 8.65591 64.967 8.88961 64.8112 9.04542C64.7333 9.20123 64.5775 9.35707 64.4216 9.51288C64.2658 9.66868 64.1879 9.74658 64.0321 9.74658C64.0321 9.74658 64.0321 9.74658 63.9542 9.74658C63.9542 9.74658 63.9542 9.74658 63.8763 9.74658H63.7984C63.7205 9.74658 63.6426 9.74656 63.6426 9.82446C63.5647 9.82446 63.5647 9.82446 63.4868 9.82446C63.4868 9.82446 63.4868 9.82446 63.4089 9.82446C63.0973 9.98027 62.7856 9.90238 62.5519 9.59076C62.3182 9.27914 62.3961 8.88961 62.7077 8.6559C63.0194 8.42219 63.4089 8.5001 63.6426 8.81172C63.7984 9.04543 63.7984 9.35705 63.6426 9.59076C63.6426 9.59076 63.6426 9.59076 63.7205 9.59076C63.7205 9.59076 63.7984 9.59078 63.7984 9.51288C63.7984 9.51288 63.7984 9.51288 63.8763 9.51288C63.8763 9.51288 63.8763 9.51288 63.9542 9.51288C64.0321 9.43497 64.1879 9.35708 64.2658 9.27917C64.3437 9.20127 64.4995 9.04546 64.4995 8.88965C64.5774 8.73384 64.6554 8.57803 64.6554 8.34431C64.6554 8.26641 64.6554 8.2664 64.6554 8.1885V8.11061V8.03268C64.6554 8.03268 64.6554 8.0327 64.6554 7.95479V7.87686V7.79897V7.72109V7.64316V7.56527C64.6554 7.56527 64.6553 7.48734 64.5774 7.48734C64.5774 7.48734 64.5774 7.40945 64.4995 7.40945C64.4995 7.40945 64.4996 7.33157 64.4216 7.33157L64.3437 7.25363L64.2658 7.17575C64.2658 7.17575 64.1879 7.17572 64.1879 7.09782C64.1879 7.09782 64.11 7.09784 64.11 7.01993C64.11 7.01993 64.0321 7.01995 64.0321 6.94205H63.9542H63.8763C63.8763 6.94205 63.7984 6.94202 63.7984 6.86411C63.331 6.6304 62.7077 6.63042 62.1624 6.78623H62.0845H62.0066C61.9287 6.78623 61.8508 6.86411 61.7729 6.86411C61.6171 6.94202 61.4613 6.94203 61.3055 7.01993C60.9939 7.17574 60.7602 7.33156 60.5264 7.56527C60.3706 7.64318 60.2927 7.79895 60.2148 7.87686C60.1369 8.03267 59.9811 8.11057 59.9032 8.26638V8.34431V8.4222C59.9032 8.4222 59.9032 8.50013 59.8253 8.50013V8.57802C59.8253 8.57802 59.8253 8.578 59.8253 8.6559C59.8253 8.73381 59.8253 8.73381 59.7474 8.81172C59.6695 8.96753 59.6695 9.12336 59.6695 9.27917C59.6695 9.43498 59.6695 9.59075 59.6695 9.82446C59.6695 9.98027 59.7474 10.214 59.8253 10.4477C59.9032 10.6814 59.9811 10.8372 60.1369 11.071C60.1369 11.1489 60.2148 11.1489 60.2148 11.2268C60.2927 11.3047 60.2927 11.3046 60.3706 11.3825C60.4485 11.4605 60.5264 11.5384 60.6822 11.6163C60.7601 11.6942 60.9159 11.7721 60.9938 11.85C61.1497 11.9279 61.2276 12.0058 61.3834 12.0058C61.5392 12.0837 61.6171 12.0837 61.7729 12.1616C61.8508 12.1616 61.9287 12.1616 62.0066 12.2395H62.0845H62.1624H62.2403H62.3182C62.3961 12.2395 62.474 12.2395 62.5519 12.2395C62.6298 12.2395 62.6298 12.2395 62.7077 12.2395C62.7857 12.2395 62.7857 12.2395 62.8636 12.2395C62.9415 12.2395 62.9415 12.2395 63.0194 12.2395C63.0973 12.2395 63.0973 12.2395 63.1752 12.2395C63.2531 12.2395 63.331 12.2395 63.4089 12.2395C63.4868 12.2395 63.5647 12.2395 63.6426 12.2395C63.7205 12.2395 63.7984 12.2395 63.8763 12.2395C63.9542 12.2395 63.9542 12.2395 64.0321 12.2395H64.11C64.1879 12.2395 64.3437 12.1616 64.4216 12.1616C64.967 12.0058 65.5902 11.85 66.1355 11.6163C66.6809 11.4605 67.2262 11.3047 67.7715 11.1488C68.8622 10.8372 69.9528 10.4477 70.9656 10.214C71.5109 10.0582 71.9784 9.98027 72.5237 9.82446C72.9911 9.74656 73.5364 9.66867 74.0039 9.59076C74.9387 9.51286 75.8736 9.51289 76.7305 9.66869C77.12 9.7466 77.5095 9.82447 77.8991 9.98028C78.2886 10.1361 78.6002 10.2919 78.8339 10.5256C78.9897 10.6814 79.0676 10.7593 79.1455 10.9151C79.2234 11.071 79.3013 11.2267 79.3013 11.3825V11.4605V11.5384C79.3013 11.6163 79.3013 11.6942 79.3013 11.7721C79.3013 11.9279 79.3014 12.0058 79.2234 12.1616C79.1455 12.3953 79.0676 12.5511 78.9118 12.7069C78.756 12.8627 78.6002 12.9406 78.5223 12.9406C78.3665 12.9406 78.2886 12.9406 78.2107 12.9406H78.1328C78.1328 12.9406 78.1328 12.9406 78.2107 12.9406C78.2886 12.9406 78.3665 12.9406 78.5223 12.9406C78.6002 12.9406 78.756 12.8627 78.9118 12.7069C79.0676 12.5511 79.1455 12.3953 79.2234 12.1616C79.2234 12.0837 79.3013 11.9279 79.3013 11.7721C79.3013 11.6942 79.3013 11.6163 79.3013 11.6163V11.5384V11.4605C79.3013 11.3047 79.2234 11.2268 79.1455 11.071C79.0676 10.9152 78.9897 10.8372 78.8339 10.7593C78.6002 10.5256 78.2886 10.3698 77.977 10.2919C77.6654 10.1361 77.2758 10.0582 76.8863 9.98028C76.1073 9.82447 75.1724 9.82447 74.2376 9.98028C73.7701 10.0582 73.3027 10.1361 72.7574 10.214C72.29 10.2919 71.7446 10.4477 71.2772 10.6035C71.1214 10.6814 70.8877 10.6814 70.7319 10.7593C70.5761 10.8372 70.4982 10.9151 70.3424 10.9151C70.2644 10.9151 70.2645 10.9151 70.1866 10.993H70.1086H70.0307H69.9528C69.9528 10.993 69.8749 10.9931 69.8749 11.071C69.797 11.071 69.7191 11.1488 69.7191 11.1488C69.6412 11.1488 69.6412 11.2268 69.5633 11.2268C69.4854 11.2268 69.4854 11.3047 69.4075 11.3047C69.4075 11.3047 69.3296 11.3046 69.3296 11.3825C69.3296 11.3825 69.2517 11.3826 69.2517 11.4605C69.2517 11.4605 69.1738 11.4605 69.1738 11.5384C69.1738 11.5384 69.0959 11.5384 69.0959 11.6163C69.018 11.6163 69.018 11.6942 68.9401 11.6942C68.9401 11.6942 68.8622 11.6942 68.8622 11.7721C68.8622 11.7721 68.7843 11.7721 68.7843 11.85L68.7064 11.9279L68.6285 12.0058C68.5506 12.0837 68.5506 12.0837 68.4727 12.1616C68.3948 12.2395 68.3169 12.3174 68.239 12.4732C68.161 12.5511 68.161 12.6291 68.0831 12.7849C68.0052 12.8628 68.0052 13.0185 67.9273 13.0965C67.9273 13.1744 67.8494 13.3302 67.8494 13.4081C67.8494 13.486 67.8494 13.486 67.8494 13.5639C67.8494 13.6418 67.8494 13.6418 67.8494 13.7197C67.8494 13.8755 67.8494 14.1092 67.9273 14.265C67.9273 14.4208 68.0052 14.5767 68.0831 14.7325C68.161 14.8883 68.239 14.9662 68.3169 15.0441C68.3948 15.122 68.4727 15.1999 68.6285 15.2778L68.7064 15.3557C68.7064 15.3557 68.7064 15.3557 68.7843 15.3557H68.8622C68.8622 15.3557 68.9401 15.3557 68.9401 15.4336H69.018H69.0959C69.2517 15.5115 69.3296 15.5115 69.4854 15.5894C69.6412 15.5894 69.7191 15.6673 69.8749 15.6673C70.1087 15.6673 70.4203 15.6673 70.654 15.6673C70.8098 15.6673 70.8877 15.5894 71.0435 15.5894C71.1214 15.5894 71.1993 15.5894 71.1993 15.5115H71.2772H71.3551C71.8225 15.3557 72.1342 15.0441 72.3679 14.6545V14.5766V14.4987V14.4208V14.3429V14.265V14.1871V14.1092V14.0313V13.9534V13.8755V13.7976V13.7197C72.3679 13.7197 72.3679 13.7197 72.3679 13.6418C72.3679 13.6418 72.3679 13.6418 72.3679 13.5639C72.3679 13.5639 72.3679 13.5639 72.3679 13.486L72.29 13.4081C72.2121 13.2523 72.0562 13.1744 71.9783 13.0965C71.8225 13.0185 71.7446 12.9406 71.5888 12.9406C71.433 12.9406 71.3551 12.9406 71.2772 12.9406H71.1993C71.433 13.0185 71.5109 13.1744 71.5109 13.4081C71.5109 13.7197 71.2772 13.9534 70.9656 13.9534C70.654 13.9534 70.4203 13.7197 70.4203 13.4081C70.4203 13.1744 70.5761 12.9407 70.8877 12.8627C70.8877 12.8627 70.9656 12.8628 70.9656 12.7849C71.0435 12.7849 71.0435 12.7848 71.1214 12.7069H71.1993C71.1993 12.7069 71.1993 12.7069 71.2772 12.7069C71.2772 12.7069 71.2772 12.7069 71.3551 12.7069C71.433 12.7069 71.5888 12.7069 71.7446 12.7069C71.9004 12.7069 72.0563 12.7848 72.2121 12.8627C72.3679 12.9407 72.5237 13.0186 72.6016 13.1744L72.6795 13.2523C72.6795 13.2523 72.6795 13.3302 72.7574 13.3302V13.4081V13.486V13.5639V13.6418V13.7197V13.7976C72.7574 13.7976 72.7574 13.7976 72.7574 13.8755V13.9534V14.0313V14.1092V14.1871V14.265V14.3429C72.7574 14.3429 72.7574 14.3429 72.7574 14.4208V14.4987V14.5766V14.6545C72.7574 14.6545 72.7574 14.6546 72.7574 14.7325V14.8104V14.8882V14.9662V15.0441V15.122C72.7574 15.122 72.7574 15.1999 72.6795 15.1999C72.6016 15.2778 72.5237 15.4336 72.4458 15.5115C72.3679 15.5894 72.3679 15.5894 72.29 15.6673L72.2121 15.7452L72.1342 15.8231L72.0563 15.901C72.0563 15.901 71.9783 15.901 71.9783 15.9789H71.9004H71.8225C71.8225 15.9789 71.7446 15.9789 71.7446 16.0568C71.7446 16.0568 71.6667 16.0568 71.6667 16.1347H71.5888H71.5109C71.5109 16.1347 71.433 16.1347 71.433 16.2126C71.433 16.2126 71.3551 16.2126 71.3551 16.2906C71.3551 16.2906 71.2772 16.2905 71.2772 16.3684H71.1993C71.1214 16.3684 71.0435 16.4463 70.9656 16.4463C70.8098 16.5242 70.7319 16.5243 70.5761 16.5243C70.2645 16.6022 70.0307 16.6022 69.7191 16.5243C69.5633 16.5243 69.4075 16.5242 69.2517 16.4463C69.0959 16.4463 68.9401 16.3685 68.7843 16.2906H68.7064H68.6285C68.6285 16.2906 68.5506 16.2905 68.5506 16.2126H68.4727C68.4727 16.2126 68.4727 16.2126 68.3947 16.2126L68.3169 16.1347C68.1611 16.0568 68.0831 15.901 67.9273 15.8231C67.8494 15.6673 67.6936 15.5894 67.6157 15.4336C67.5378 15.2778 67.4599 15.044 67.382 14.8882C67.3041 14.4987 67.3041 14.0313 67.4599 13.5639C67.4599 13.486 67.5378 13.3302 67.6157 13.2523C67.6936 13.1744 67.7715 13.0185 67.7715 12.9406C67.8494 12.8627 67.9273 12.7069 68.0052 12.629C68.0831 12.5511 68.0831 12.5511 68.161 12.4732L68.239 12.3953L68.3169 12.3174L68.3947 12.2395L68.4727 12.1616C68.5506 12.0837 68.5506 12.0837 68.6285 12.0058C68.3948 12.0837 68.1611 12.1616 67.9273 12.2395C67.382 12.3953 66.8367 12.6291 66.2913 12.7849C65.746 12.9407 65.2007 13.1743 64.5774 13.3302C64.0321 13.486 63.4089 13.7197 62.8636 13.8755C62.2403 14.0313 61.695 14.1871 61.0718 14.3429C60.7601 14.4209 60.4485 14.4987 60.1369 14.5766C59.9811 14.5766 59.8253 14.6545 59.6695 14.6545C59.5137 14.6545 59.3579 14.7325 59.2021 14.7325C58.8904 14.8104 58.5788 14.8103 58.2672 14.8882C58.1114 14.8882 57.9556 14.9662 57.7998 14.9662C57.644 14.9662 57.4882 14.9662 57.3324 14.9662C57.2545 14.9662 57.1765 14.9662 57.0986 14.9662H56.8649C56.7091 14.9662 56.5533 14.9662 56.3975 14.9662C56.2417 14.9662 56.0859 14.9662 55.9301 14.9662C55.7743 14.9662 55.6185 14.9662 55.4627 14.9662C55.3069 14.9662 55.151 14.9662 54.9952 14.9662C54.8394 14.9662 54.6836 14.9662 54.5278 14.9662H54.2941H54.0604C53.9046 14.9662 53.7488 14.9662 53.5929 14.9662C52.9697 14.8883 52.4244 14.8104 51.8012 14.7325C51.7233 14.7325 51.6454 14.7324 51.5675 14.6545C51.4896 14.6545 51.4116 14.6546 51.3337 14.5766C51.1779 14.4987 51.0221 14.4987 50.8663 14.4208C50.7105 14.3429 50.5547 14.3429 50.4768 14.265C50.3989 14.265 50.321 14.1871 50.2431 14.1871C50.1652 14.1871 50.0873 14.1092 50.0094 14.1092C49.9315 14.1092 49.8535 14.0313 49.7756 14.0313C49.6977 14.0313 49.6198 13.9534 49.5419 13.9534C49.3861 13.8755 49.3082 13.7976 49.1524 13.7976C48.9966 13.7197 48.9187 13.6418 48.7629 13.5639C48.6071 13.486 48.5292 13.4081 48.3734 13.3302C48.2955 13.3302 48.2176 13.2523 48.2176 13.2523C48.1397 13.1744 48.1397 13.1744 48.0618 13.0965C47.9839 13.0185 47.9839 13.0185 47.9059 12.9406C47.828 12.8627 47.828 12.8628 47.7501 12.7849C47.6722 12.707 47.5164 12.629 47.4385 12.5511C47.3606 12.4732 47.3606 12.4732 47.2827 12.3953C47.2048 12.3174 47.2048 12.3174 47.1269 12.2395C47.049 12.1616 47.049 12.1616 46.9711 12.0837C46.8932 12.0058 46.8932 12.0058 46.8153 11.9279C46.7374 11.85 46.6595 11.6942 46.5037 11.6163C46.3479 11.3826 46.1921 11.2267 46.0363 10.993C45.8804 10.7593 45.8025 10.5256 45.6467 10.2919C45.5688 10.0582 45.413 9.82447 45.3351 9.59076C44.7898 8.11058 44.7898 7.17572 44.9456 6.31877Z" fill="black"/>
<path d="M42.5305 52.2825C42.7643 52.3604 42.92 52.4383 43.0759 52.5162L42.998 52.672C42.9201 52.672 42.7643 52.672 42.6084 52.7499C42.4526 52.8278 42.2968 52.9057 42.0631 53.0615L39.8818 54.7754L39.2586 56.0998C39.1806 56.2556 39.1028 56.4114 39.1028 56.4893C39.1028 56.5672 39.1027 56.6451 39.1806 56.723C39.2585 56.8009 39.3365 56.8788 39.4923 56.9567L39.4144 57.1125C39.1807 56.9567 38.869 56.8788 38.5574 56.6451C38.1679 56.4893 37.8563 56.3335 37.6226 56.2556L37.7005 56.0998C37.8563 56.1777 38.0121 56.1777 38.09 56.2556C38.1679 56.2556 38.2458 56.2556 38.3237 56.1777C38.4016 56.0998 38.4795 56.0219 38.5574 55.7881L39.1028 54.6975L38.9469 51.3476C38.9469 51.1139 38.9469 51.036 38.869 50.9581C38.869 50.8802 38.7911 50.8023 38.7132 50.8023L38.7911 50.6465C38.9469 50.7244 39.1807 50.8802 39.4144 50.9581C39.8818 51.1918 40.1934 51.3476 40.4271 51.4255L40.3492 51.5813C40.0376 51.4255 39.8039 51.4255 39.726 51.5813C39.726 51.6592 39.6481 51.7371 39.6481 51.8929L39.726 54.6975L41.5178 53.2952C41.7515 53.0615 41.9073 52.9057 41.9852 52.7499C42.0631 52.5941 42.0631 52.5162 41.9852 52.3604C41.9073 52.2825 41.7515 52.1267 41.5178 52.0488L41.5957 51.8929C41.9852 52.0487 42.2968 52.2045 42.5305 52.2825Z" fill="black"/>
<path d="M47.049 54.3857C47.2827 54.6974 47.4386 55.1648 47.5165 55.6322C47.5165 56.0997 47.4386 56.645 47.2049 57.1903C46.9711 57.7357 46.7374 58.203 46.3479 58.5147C45.9584 58.8263 45.5689 59.06 45.1793 59.1379C44.7119 59.2158 44.3224 59.2158 43.855 58.9821C43.3875 58.8263 42.998 58.5147 42.7643 58.2031C42.5306 57.8915 42.3748 57.424 42.2969 56.9566C42.2969 56.4892 42.3748 55.9438 42.6085 55.3985C42.8422 54.8532 43.0759 54.3858 43.4654 54.0742C43.855 53.7625 44.2445 53.5288 44.634 53.4509C45.1014 53.373 45.491 53.373 45.9584 53.6067C46.4258 53.7625 46.7374 53.9962 47.049 54.3857ZM44.8677 53.6846C44.5561 53.8404 44.2445 54.0741 43.9329 54.3857C43.6213 54.6974 43.3875 55.1648 43.2317 55.6322C42.998 56.1776 42.9201 56.645 42.9201 57.0345C42.9201 57.5019 42.998 57.8135 43.1538 58.1251C43.3096 58.4368 43.5433 58.6705 43.855 58.7484C44.1666 58.9042 44.4782 58.9042 44.7898 58.7484C45.1014 58.5926 45.4131 58.3589 45.7247 58.0473C46.0363 57.7356 46.27 57.2682 46.4258 56.8008C46.6595 56.2555 46.7374 55.788 46.7374 55.3985C46.7374 54.9311 46.6595 54.6195 46.5037 54.3079C46.3479 53.9962 46.1142 53.7625 45.8026 53.6846C45.5689 53.5288 45.1793 53.5288 44.8677 53.6846Z" fill="black"/>
<path d="M53.2034 56.4114C53.1255 56.4114 53.0476 56.4892 52.9697 56.5671C52.8918 56.645 52.8138 56.8008 52.8138 56.9566L52.1127 59.2159C52.0348 59.6054 51.879 59.8391 51.7232 60.1507C51.5674 60.4624 51.4116 60.6182 51.2558 60.774C51.022 60.9298 50.7883 61.0856 50.5546 61.0856C50.243 61.1635 50.0093 61.0856 49.6977 61.0077C49.1523 60.8519 48.7628 60.5402 48.5291 60.2286C48.4512 60.0728 48.3733 59.8391 48.2954 59.6833C48.2954 59.5275 48.2954 59.2938 48.2954 59.0601C48.2954 58.8264 48.3733 58.5148 48.5291 58.2031L49.3082 55.866C49.3861 55.7102 49.3861 55.5544 49.3861 55.4765C49.3861 55.3986 49.3082 55.3207 49.3082 55.2428C49.2303 55.1649 49.0744 55.087 48.9186 55.087L48.9965 54.9312C49.2303 55.0091 49.5419 55.087 49.9314 55.2428C50.3209 55.3986 50.6325 55.4765 50.8662 55.5544L50.7884 55.7102C50.6325 55.6323 50.4767 55.6323 50.3988 55.6323C50.3209 55.6323 50.243 55.7102 50.1651 55.7881C50.0872 55.866 50.0872 56.0218 50.0093 56.1776L49.2303 58.6705C49.0745 59.0601 48.9965 59.4496 48.9965 59.6833C48.9965 59.9949 48.9966 60.2286 49.1524 60.4623C49.3082 60.696 49.464 60.8519 49.8535 60.9298C50.3988 61.0856 50.7883 61.0077 51.1 60.774C51.4116 60.5403 51.6453 60.0728 51.879 59.4496L52.6581 57.1125C52.736 56.9567 52.736 56.8009 52.736 56.6451C52.736 56.5672 52.658 56.4113 52.5801 56.3334C52.5022 56.2555 52.3464 56.1776 52.1906 56.0997L52.2685 55.9439C52.4243 56.0218 52.736 56.0997 53.0476 56.1776C53.3592 56.2555 53.5929 56.3334 53.7487 56.4114L53.6708 56.5671C53.4371 56.4113 53.3592 56.4114 53.2034 56.4114Z" fill="black"/>
<path d="M57.4883 63.0332C57.3325 63.1111 57.1767 63.1111 57.0209 63.0332C56.7872 62.9553 56.6314 62.8773 56.5535 62.7215C56.4756 62.5657 56.3977 62.332 56.3977 62.0204V61.2413C56.3977 60.9297 56.3977 60.7739 56.3977 60.6181C56.3977 60.4623 56.3198 60.3065 56.2419 60.2286C56.164 60.1507 56.0082 60.0728 55.8524 59.9949L55.1512 59.8391L54.6838 61.6309C54.6059 61.7867 54.6059 61.9425 54.6059 62.0983C54.6059 62.1762 54.6838 62.2541 54.7617 62.332C54.8396 62.4099 54.9954 62.4099 55.1512 62.4878V62.6436C54.9175 62.5657 54.6059 62.4878 54.2164 62.4099C53.749 62.332 53.4373 62.2541 53.2036 62.1762V62.0204C53.3594 62.0204 53.5152 62.0983 53.5931 62.0983C53.671 62.0983 53.749 62.0204 53.8269 61.9425C53.9048 61.8646 53.9048 61.7088 53.9827 61.553L54.9175 57.7356C54.9954 57.5798 54.9954 57.424 54.9954 57.2682C54.9954 57.1903 54.9175 57.1124 54.8396 57.0345C54.7617 56.9566 54.6059 56.9566 54.4501 56.8787V56.7229C54.6838 56.8008 54.9954 56.8787 55.3849 56.9566C55.6187 57.0345 55.7745 57.0345 56.0082 57.1124C56.2419 57.1903 56.3977 57.1904 56.4756 57.1904C56.8651 57.2683 57.1767 57.4241 57.4105 57.5799C57.6442 57.7357 57.8 57.9694 57.8779 58.2031C57.9558 58.4368 57.9558 58.6705 57.8779 58.9042C57.8 59.1379 57.7221 59.2937 57.5663 59.4495C57.4104 59.6054 57.2546 59.7612 56.943 59.8391C56.7093 59.917 56.3977 59.9949 56.0082 59.917H56.0861C56.3198 59.9949 56.4756 60.1507 56.5535 60.2286C56.7093 60.3065 56.7872 60.4623 56.7872 60.6181C56.8651 60.7739 56.8651 60.9297 56.8651 61.1635V62.0204C56.8651 62.1762 56.8651 62.332 56.8651 62.4099C56.8651 62.4878 56.8651 62.5657 56.943 62.6436C56.943 62.7216 57.0209 62.7215 57.0988 62.7215C57.1767 62.7215 57.2546 62.7215 57.3326 62.7215C57.4105 62.7215 57.4883 62.6436 57.5663 62.5657L57.6442 62.6436C57.8 62.8774 57.6442 63.0332 57.4883 63.0332ZM56.4756 59.7612C56.7093 59.6833 56.8651 59.6054 57.0209 59.4495C57.1767 59.2937 57.2546 59.06 57.3326 58.8263C57.4105 58.4368 57.4104 58.0473 57.2546 57.8136C57.0988 57.5799 56.7872 57.3461 56.3977 57.2682C56.2419 57.1903 56.0861 57.1903 56.0082 57.2682C55.9303 57.2682 55.8524 57.3462 55.7745 57.4241C55.6966 57.502 55.6966 57.6578 55.6186 57.8136L55.1512 59.6833L55.6966 59.8391C56.0082 59.7612 56.2419 59.8391 56.4756 59.7612Z" fill="black"/>
<path d="M70.6541 60.5403C70.6541 60.2287 70.6541 59.9171 70.6541 59.5276C71.1215 59.6055 71.8226 59.6055 72.8354 59.6834C73.8481 59.7613 74.6272 59.8392 75.0167 59.8392C74.9388 60.2287 74.9388 60.5403 74.8609 60.8519C74.8609 61.0856 74.8609 61.3194 74.8609 61.4752H74.7051C74.7051 61.0857 74.7051 60.774 74.6272 60.5403C74.5493 60.3066 74.4714 60.1508 74.3156 60.0729C74.1598 59.995 73.926 59.9171 73.6144 59.9171H73.2249L72.9133 64.3576C72.9133 64.5913 72.9133 64.7472 72.9133 64.8251C72.9133 64.903 72.9912 64.9809 73.147 65.0588C73.2249 65.1367 73.3807 65.1367 73.6144 65.1367V65.2925C73.3028 65.2925 72.9912 65.2146 72.4459 65.2146C71.9005 65.1367 71.511 65.1367 71.2773 65.1367V64.9809C71.511 64.9809 71.6668 64.9809 71.8226 64.9809C71.9005 64.9809 71.9784 64.903 72.0563 64.8251C72.1343 64.7472 72.1343 64.5913 72.1343 64.3576L72.4459 59.9171H72.0563C71.7447 59.9171 71.511 59.9171 71.3552 59.995C71.1994 60.0729 71.0436 60.2287 70.9657 60.3845C70.8878 60.5403 70.8099 60.8519 70.732 61.2414H70.5762C70.6541 61.0077 70.6541 60.852 70.6541 60.5403Z" fill="black"/>
<path d="M79.8464 64.5913C79.8464 64.9029 79.8464 65.2145 79.8464 65.604C79.4569 65.604 78.9116 65.5261 78.0547 65.5261C77.0419 65.5261 76.2628 65.4482 75.7954 65.4482V65.2924C75.9512 65.2924 76.107 65.2924 76.1849 65.2145C76.2628 65.2145 76.3407 65.1366 76.3407 65.0587C76.3407 64.9808 76.4187 64.825 76.4187 64.5913L76.4966 60.6961C76.4966 60.4624 76.4966 60.3844 76.4966 60.2286C76.4966 60.1507 76.4187 60.0728 76.3407 60.0728C76.2628 60.0728 76.107 59.9949 75.9512 59.9949V59.8391C76.4966 59.8391 77.1977 59.917 78.2104 59.917C78.9895 59.917 79.5348 59.917 79.8464 59.917C79.7685 60.2287 79.7685 60.5402 79.7685 60.8519C79.7685 61.0856 79.7685 61.2414 79.7685 61.3193H79.6127C79.6127 61.0077 79.5348 60.6961 79.4569 60.5403C79.379 60.3845 79.3011 60.2287 79.1453 60.1507C78.9895 60.0728 78.8337 59.9949 78.5221 59.9949H77.8988C77.743 59.9949 77.5872 59.9949 77.5093 59.9949C77.4314 59.9949 77.3535 60.0728 77.3535 60.1507C77.3535 60.2287 77.2756 60.3845 77.2756 60.5403L77.1977 62.4099H77.743C77.9767 62.4099 78.2105 62.332 78.2884 62.1762C78.3663 62.0204 78.4442 61.8646 78.4442 61.7088C78.4442 61.553 78.5221 61.4751 78.5221 61.3972H78.6779C78.6779 61.6309 78.6 61.8646 78.6 62.1762V62.5658C78.6 62.7995 78.6 63.189 78.6 63.6564H78.4442C78.4442 63.6564 78.4442 63.5006 78.4442 63.2669C78.4442 63.0332 78.3663 62.8774 78.2104 62.7995C78.1325 62.7216 77.8988 62.6437 77.743 62.6437H77.1977L77.1198 64.5134C77.1198 64.7471 77.1198 64.825 77.1198 64.9808C77.1198 65.0587 77.1977 65.1366 77.2756 65.1366C77.3535 65.1366 77.5093 65.2145 77.6651 65.2145H78.2104C78.5221 65.2145 78.7558 65.2145 78.9895 65.1366C79.1453 65.0587 79.3011 64.9029 79.379 64.7471C79.4569 64.5913 79.5348 64.2797 79.6127 63.8901H79.7685C79.9243 64.2018 79.8464 64.3576 79.8464 64.5913Z" fill="black"/>
<path d="M85.3778 65.2145C85.4557 65.2924 85.4557 65.2923 85.5336 65.2923C85.6115 65.2923 85.6895 65.2923 85.7674 65.2923V65.4482C85.3778 65.4482 85.1441 65.4482 85.0662 65.4482C84.9104 65.4482 84.5209 65.4481 83.9755 65.5261V65.3703C84.2093 65.3703 84.2872 65.3703 84.443 65.3703C84.5209 65.3703 84.5988 65.2923 84.5988 65.2923C84.5988 65.2923 84.5988 65.2144 84.5209 65.1365L83.1186 63.111L82.2617 64.4354C82.1059 64.747 81.9501 64.9807 81.9501 65.1365C81.9501 65.2923 82.0279 65.3703 82.1058 65.4482C82.1838 65.5261 82.4175 65.5261 82.6512 65.5261V65.6819C82.3396 65.6819 82.028 65.6819 81.5605 65.6819C81.2489 65.6819 81.0152 65.6819 80.8594 65.6819V65.5261C81.0152 65.5261 81.171 65.4482 81.3268 65.2923C81.4826 65.1365 81.6384 64.9807 81.7942 64.747L82.9628 62.9552L81.4047 60.6181C81.3268 60.5402 81.2489 60.4623 81.2489 60.3844C81.171 60.3065 81.171 60.3065 81.0931 60.3065C81.0152 60.3065 80.9373 60.3065 80.8594 60.3065V60.1507C81.2489 60.1507 81.4826 60.1507 81.5605 60.1507C81.9501 60.1507 82.2617 60.1507 82.6512 60.0728V60.2286C82.2617 60.2286 82.1058 60.3065 82.1058 60.3844C82.1058 60.4623 82.1059 60.4623 82.1838 60.5402L83.4302 62.4099L84.2093 61.2413C84.443 60.9297 84.5209 60.6181 84.5209 60.4623C84.5209 60.3844 84.443 60.3065 84.3651 60.2286C84.2872 60.1507 84.1314 60.1507 83.8977 60.1507V59.9949C84.2093 59.9949 84.5209 59.9949 84.8325 59.9949C85.1441 59.9949 85.3778 59.9949 85.5336 59.9949V60.1507C85.3778 60.1507 85.222 60.2286 85.0662 60.3844C84.9104 60.5402 84.7546 60.696 84.6767 60.9297L83.586 62.5657L85.2999 65.0586C85.2999 65.0586 85.2999 65.1366 85.3778 65.2145Z" fill="black"/>
<path d="M86.3125 60.9298C86.3125 60.6182 86.2346 60.3066 86.1567 59.9171C86.6242 59.9171 87.3253 59.8392 88.338 59.7613C89.3508 59.6834 90.1299 59.6055 90.5194 59.6055C90.5194 59.995 90.5194 60.3066 90.5194 60.6182C90.5194 60.8519 90.5973 61.0856 90.5973 61.2414H90.4415C90.3636 60.8519 90.2856 60.5403 90.2077 60.3845C90.1298 60.2287 89.974 60.0729 89.8182 59.995C89.6624 59.9171 89.4287 59.9171 89.1171 59.9171H88.7276L89.0392 64.3576C89.0392 64.5913 89.1171 64.7472 89.1171 64.8251C89.195 64.903 89.2729 64.9809 89.3508 64.9809C89.4287 64.9809 89.6624 65.0588 89.8961 64.9809V65.1366C89.5845 65.1366 89.195 65.1367 88.7276 65.2146C88.1822 65.2146 87.7927 65.2925 87.559 65.2925V65.1366C87.7927 65.1366 87.9485 65.0588 88.0264 65.0588C88.1043 64.9809 88.1822 64.903 88.2601 64.8251C88.2601 64.7472 88.338 64.5913 88.2601 64.3576L87.9485 59.9171H87.559C87.2474 59.9171 87.0137 59.995 86.8579 60.0729C86.7021 60.1508 86.6242 60.3066 86.5463 60.5403C86.4684 60.774 86.4684 61.0078 86.4684 61.4752H86.3125C86.3904 61.3973 86.3125 61.1636 86.3125 60.9298Z" fill="black"/>
<path d="M109.606 56.1776C109.528 56.2555 109.528 56.3334 109.45 56.4113C109.45 56.4892 109.45 56.645 109.528 56.8008L110.541 60.5402C110.619 60.696 110.619 60.8518 110.697 60.9297C110.775 61.0076 110.853 61.0856 110.931 61.0856C111.008 61.0856 111.164 61.0855 111.32 61.0076L111.398 61.1634C111.164 61.2413 110.853 61.3192 110.385 61.3971C109.996 61.4751 109.684 61.6309 109.45 61.7088L109.372 61.553C109.528 61.4751 109.684 61.4751 109.762 61.3971C109.84 61.3192 109.84 61.2413 109.918 61.1634C109.918 61.0855 109.918 60.9297 109.84 60.7739L109.372 58.9821L106.88 59.6832L107.347 61.4751C107.425 61.6309 107.425 61.7867 107.503 61.8646C107.581 61.9425 107.659 62.0204 107.736 62.0204C107.814 62.0204 107.97 62.0204 108.126 61.9425L108.204 62.0983C107.97 62.1762 107.659 62.2541 107.269 62.332C106.802 62.4878 106.49 62.5657 106.334 62.6436L106.256 62.4878C106.412 62.4099 106.568 62.4099 106.646 62.332C106.724 62.2541 106.724 62.1762 106.802 62.0983C106.802 62.0204 106.802 61.8646 106.724 61.7088L105.711 57.9694C105.633 57.8136 105.633 57.6578 105.555 57.5799C105.477 57.502 105.399 57.4241 105.321 57.4241C105.244 57.4241 105.088 57.424 104.932 57.5019L104.854 57.3461C105.088 57.2682 105.399 57.1903 105.867 57.1124C106.256 57.0345 106.568 56.8787 106.802 56.8008L106.88 56.9566C106.724 57.0345 106.568 57.0345 106.49 57.1124C106.412 57.1903 106.412 57.2682 106.334 57.3461C106.334 57.424 106.334 57.5798 106.412 57.7356L106.88 59.5275L109.372 58.8263L108.905 57.0345C108.827 56.8787 108.827 56.7229 108.749 56.645C108.671 56.5671 108.593 56.4892 108.515 56.4892C108.438 56.4892 108.282 56.4892 108.126 56.5671L108.048 56.4113C108.282 56.3334 108.593 56.2555 108.983 56.1776C109.45 56.0217 109.762 55.9439 109.918 55.866L109.996 56.0218C109.84 56.0218 109.684 56.0997 109.606 56.1776Z" fill="black"/>
<path d="M116.15 58.5147C116.228 58.8263 116.384 59.1379 116.54 59.4495C116.228 59.5274 115.605 59.7611 114.826 59.9949C113.891 60.3065 113.19 60.6181 112.644 60.7739L112.566 60.6181C112.722 60.5402 112.878 60.4623 112.956 60.4623C113.034 60.3844 113.034 60.3065 113.034 60.2286C113.034 60.1507 113.034 59.9948 112.956 59.839L111.71 56.1775C111.632 56.0217 111.554 55.8659 111.554 55.788C111.476 55.7101 111.398 55.7101 111.32 55.7101C111.242 55.7101 111.086 55.7101 110.93 55.788L110.853 55.6322C111.32 55.4764 112.099 55.2427 113.034 54.9311C113.735 54.6974 114.28 54.4636 114.592 54.3857C114.67 54.6974 114.748 55.009 114.826 55.3206C114.904 55.4764 114.981 55.6322 114.981 55.788L114.826 55.8659C114.67 55.5543 114.514 55.3206 114.436 55.1648C114.358 55.009 114.202 54.9311 114.047 54.9311C113.891 54.9311 113.657 54.9311 113.423 55.009L112.8 55.2427C112.644 55.3206 112.489 55.3985 112.411 55.3985C112.333 55.4764 112.333 55.5543 112.333 55.6322C112.333 55.7101 112.333 55.866 112.411 56.0218L113.034 57.8135L113.501 57.6577C113.735 57.5798 113.891 57.424 113.891 57.2682C113.891 57.1124 113.891 56.9566 113.891 56.7229C113.891 56.5671 113.813 56.4892 113.813 56.4113L113.969 56.3333C114.047 56.5671 114.125 56.8008 114.202 57.0345L114.358 57.424C114.436 57.6577 114.592 58.0472 114.748 58.4368L114.592 58.5147C114.592 58.5147 114.514 58.3589 114.436 58.2031C114.358 57.9694 114.202 57.8915 114.047 57.8135C113.891 57.7356 113.735 57.7356 113.501 57.8135L113.034 57.9694L113.657 59.7612C113.735 59.917 113.813 60.0728 113.813 60.1507C113.891 60.2286 113.969 60.2286 114.047 60.2286C114.125 60.2286 114.28 60.2286 114.436 60.1507L114.981 59.9949C115.293 59.917 115.527 59.7611 115.683 59.6053C115.838 59.4495 115.916 59.2937 115.916 59.06C115.916 58.8263 115.916 58.5926 115.838 58.2031L115.994 58.1251C115.994 58.1251 116.072 58.2809 116.15 58.5147Z" fill="black"/>
<path d="M121.915 57.2682C121.837 57.424 121.681 57.5019 121.525 57.5798C121.291 57.6577 121.136 57.6577 120.98 57.5798C120.824 57.5019 120.59 57.3461 120.435 57.1124L119.967 56.4891C119.811 56.2554 119.655 56.0996 119.578 55.9438C119.5 55.8659 119.344 55.788 119.188 55.7101C119.032 55.7101 118.876 55.7101 118.721 55.788L118.02 56.0996L118.721 57.7356C118.799 57.8914 118.876 58.0472 118.954 58.1251C119.032 58.203 119.11 58.203 119.188 58.203C119.266 58.203 119.422 58.203 119.578 58.1251L119.655 58.2809C119.422 58.3588 119.11 58.5146 118.721 58.6705C118.331 58.8263 118.02 58.9821 117.786 59.06L117.708 58.9042C117.864 58.8263 118.019 58.7484 118.097 58.6705C118.175 58.5925 118.175 58.5147 118.175 58.4367C118.175 58.3588 118.097 58.203 118.02 58.0472L116.539 54.4637C116.461 54.3078 116.384 54.152 116.306 54.0741C116.228 53.9962 116.15 53.9962 116.072 53.9962C115.994 53.9962 115.838 53.9962 115.682 54.0741L115.604 53.9183C115.838 53.8404 116.15 53.7625 116.461 53.5288C116.617 53.4509 116.851 53.373 117.085 53.2951C117.318 53.2172 117.474 53.1392 117.552 53.0613C117.942 52.9055 118.253 52.8276 118.565 52.8276C118.876 52.8276 119.11 52.9055 119.344 53.0613C119.578 53.2171 119.733 53.373 119.811 53.6067C119.889 53.7625 119.889 53.9962 119.889 54.2299C119.889 54.4636 119.811 54.6973 119.655 54.9311C119.5 55.1648 119.266 55.3985 118.954 55.5543H119.032C119.266 55.4764 119.5 55.4764 119.655 55.4764C119.811 55.4764 119.967 55.5543 120.123 55.6322C120.279 55.7101 120.357 55.8659 120.512 56.0217L120.98 56.7228C121.058 56.8787 121.136 56.9566 121.214 57.0345C121.291 57.1124 121.369 57.1124 121.369 57.1903C121.447 57.1903 121.525 57.1903 121.525 57.1903C121.603 57.1903 121.681 57.1124 121.681 57.0345C121.681 56.9566 121.759 56.8787 121.759 56.7228H121.915C122.071 56.9566 121.993 57.1124 121.915 57.2682ZM119.11 55.2427C119.266 55.0869 119.344 54.8532 119.344 54.6974C119.344 54.4636 119.266 54.2299 119.188 53.9962C119.032 53.6067 118.799 53.373 118.565 53.2172C118.253 53.0613 117.942 53.1393 117.552 53.2951C117.396 53.373 117.318 53.4509 117.24 53.4509C117.163 53.5288 117.163 53.6067 117.163 53.6846C117.163 53.7625 117.24 53.9183 117.318 54.0741L118.097 55.8659L118.565 55.6322C118.799 55.5543 119.032 55.3985 119.11 55.2427Z" fill="black"/>
<path d="M126.2 54.0743C126.355 54.308 126.511 54.6196 126.667 54.9312C126.355 55.087 125.81 55.3207 125.031 55.7102C124.096 56.1777 123.473 56.4893 123.005 56.723L122.928 56.5672C123.083 56.4893 123.239 56.4114 123.239 56.3335C123.317 56.2556 123.317 56.1777 123.317 56.0998C123.317 56.0219 123.239 55.8661 123.161 55.7102L121.369 52.2046C121.292 52.0487 121.214 51.8929 121.136 51.815C121.058 51.7371 120.98 51.7371 120.902 51.7371C120.824 51.7371 120.668 51.815 120.513 51.8929L120.435 51.7371C120.902 51.5034 121.603 51.1918 122.46 50.7244C123.161 50.4127 123.629 50.1011 123.94 49.9453C124.096 50.2569 124.174 50.5686 124.33 50.8023C124.408 50.9581 124.486 51.1139 124.564 51.1918L124.408 51.2697C124.252 50.9581 124.096 50.8023 123.94 50.6465C123.784 50.4907 123.707 50.4907 123.551 50.4907C123.395 50.4907 123.161 50.5686 122.928 50.6465L122.382 50.9581C122.226 51.036 122.071 51.1139 122.071 51.1918C121.993 51.2697 121.993 51.3476 121.993 51.4255C121.993 51.5034 122.071 51.6592 122.148 51.815L123.005 53.451L123.473 53.2173C123.707 53.0615 123.862 52.9836 123.862 52.7499C123.862 52.5941 123.862 52.4382 123.784 52.2824C123.707 52.1266 123.707 52.0488 123.707 51.9709L123.862 51.8929C123.94 52.1266 124.096 52.3604 124.174 52.5941L124.33 52.9057C124.486 53.1394 124.641 53.451 124.875 53.9185L124.719 53.9963C124.719 53.9963 124.641 53.8406 124.486 53.6848C124.33 53.5289 124.252 53.3731 124.096 53.3731C123.94 53.2952 123.784 53.3731 123.551 53.451L123.083 53.6848L123.94 55.3986C124.018 55.5544 124.096 55.7102 124.174 55.7881C124.252 55.866 124.33 55.8661 124.408 55.8661C124.486 55.8661 124.641 55.7881 124.797 55.7102L125.343 55.4765C125.654 55.3207 125.81 55.1649 125.966 55.0091C126.044 54.8533 126.122 54.6975 126.122 54.4638C126.122 54.2301 126.044 53.9963 125.888 53.6068L126.044 53.5289C125.966 53.6847 126.044 53.8406 126.2 54.0743Z" fill="black"/>
<path d="M64.9669 61.0857C63.8763 61.0857 63.8763 62.7995 64.9669 62.7995C65.9797 62.7995 66.0576 61.0857 64.9669 61.0857Z" fill="black"/>
<path d="M98.1539 60.5403C97.0633 60.5403 97.0633 62.2542 98.1539 62.2542C99.1667 62.2542 99.1667 60.5403 98.1539 60.5403Z" fill="black"/>
<path d="M0.228516 40.9084C6.92828 40.8305 13.5501 40.7526 20.2499 40.6747L40.2713 40.5189C53.5929 40.441 66.9145 40.4409 80.2361 40.363L120.201 40.5189L140.222 40.6747C146.922 40.7526 153.544 40.8305 160.244 40.9084C153.544 40.9863 146.922 41.0642 140.222 41.1421L120.201 41.2979L80.2361 41.4537C66.9145 41.3758 53.5929 41.4537 40.2713 41.2979L20.2499 41.1421C13.5501 41.0642 6.92828 41.0642 0.228516 40.9084Z" fill="black"/>
<path d="M0.228516 38.883C6.92828 38.8051 13.5501 38.7271 20.2499 38.6492L40.2713 38.4935C53.5929 38.4156 66.9145 38.4156 80.2361 38.3376L120.201 38.4935L140.222 38.6492C146.922 38.7271 153.544 38.8051 160.244 38.883C153.544 38.9609 146.922 39.0388 140.222 39.1167L120.201 39.2725L80.2361 39.4283C66.9145 39.3504 53.5929 39.4283 40.2713 39.2725L20.2499 39.1167C13.5501 39.0388 6.92828 38.9609 0.228516 38.883Z" fill="black"/>
</svg>
