<svg width="188" height="106" viewBox="0 0 188 106" fill="none" xmlns="http://www.w3.org/2000/svg">
<path d="M94.9287 4.16797C93.9938 4.16797 93.9938 5.64817 94.9287 5.64817C95.8635 5.64817 95.8635 4.16797 94.9287 4.16797Z" fill="black"/>
<path d="M100.382 4.71338C99.447 4.71338 99.447 6.19358 100.382 6.19358C101.395 6.19358 101.395 4.71338 100.382 4.71338Z" fill="black"/>
<path d="M105.056 6.42749C104.121 6.42749 104.121 7.90769 105.056 7.90769C105.991 7.90769 105.991 6.42749 105.056 6.42749Z" fill="black"/>
<path d="M108.718 8.60864C107.783 8.60864 107.783 10.0888 108.718 10.0888C109.653 10.0888 109.653 8.60864 108.718 8.60864Z" fill="black"/>
<path d="M112.535 11.9585C111.6 11.9585 111.6 13.4387 112.535 13.4387C113.548 13.3608 113.548 11.9585 112.535 11.9585Z" fill="black"/>
<path d="M115.106 15.3862C114.171 15.3862 114.171 16.8664 115.106 16.8664C116.119 16.8664 116.119 15.3862 115.106 15.3862Z" fill="black"/>
<path d="M117.131 19.1257C116.196 19.1257 116.196 20.6059 117.131 20.6059C118.144 20.6059 118.144 19.1257 117.131 19.1257Z" fill="black"/>
<path d="M118.845 23.3328C117.91 23.3328 117.91 24.8129 118.845 24.8129C119.78 24.8129 119.78 23.3328 118.845 23.3328Z" fill="black"/>
<path d="M119.157 27.2278C118.222 27.2278 118.222 28.7079 119.157 28.7079C120.169 28.7079 120.169 27.2278 119.157 27.2278Z" fill="black"/>
<path d="M118.611 31.5906C117.676 31.5906 117.676 33.0708 118.611 33.0708C119.624 33.0708 119.624 31.5906 118.611 31.5906Z" fill="black"/>
<path d="M117.911 35.4856C116.976 35.4856 116.976 36.9658 117.911 36.9658C118.845 36.9658 118.845 35.4856 117.911 35.4856Z" fill="black"/>
<path d="M91.1894 3.85669C90.2546 3.85669 90.2546 5.33684 91.1894 5.33684C92.1243 5.25894 92.1243 3.85669 91.1894 3.85669Z" fill="black"/>
<path d="M87.372 5.10303C86.4372 5.10303 86.4372 6.58323 87.372 6.58323C88.3069 6.58323 88.3069 5.10303 87.372 5.10303Z" fill="black"/>
<path d="M83.4765 6.97266C82.5417 6.97266 82.5417 8.45281 83.4765 8.45281C84.4114 8.45281 84.4114 6.97266 83.4765 6.97266Z" fill="black"/>
<path d="M79.5815 9.15405C78.6467 9.15405 78.6467 10.6343 79.5815 10.6343C80.5943 10.6343 80.5943 9.15405 79.5815 9.15405Z" fill="black"/>
<path d="M76.6992 11.9585C75.7643 11.9585 75.7643 13.4387 76.6992 13.4387C77.634 13.3608 77.634 11.9585 76.6992 11.9585Z" fill="black"/>
<path d="M74.4399 15.3862C73.5051 15.3862 73.5051 16.8664 74.4399 16.8664C75.3748 16.8664 75.3748 15.3862 74.4399 15.3862Z" fill="black"/>
<path d="M72.8037 18.8921C71.8688 18.8921 71.8688 20.3723 72.8037 20.3723C73.7385 20.3723 73.7385 18.8921 72.8037 18.8921Z" fill="black"/>
<path d="M71.3237 22.9431C70.3888 22.9431 70.3888 24.4233 71.3237 24.4233C72.2585 24.4233 72.2585 22.9431 71.3237 22.9431Z" fill="black"/>
<path d="M70.6225 26.449C69.6877 26.449 69.6877 27.9291 70.6225 27.9291C71.5574 27.9291 71.5574 26.449 70.6225 26.449Z" fill="black"/>
<path d="M70.934 31.2788C69.9992 31.2788 69.9992 32.759 70.934 32.759C71.9468 32.759 71.9468 31.2788 70.934 31.2788Z" fill="black"/>
<path d="M71.7133 35.3298C70.7785 35.3298 70.7785 36.81 71.7133 36.81C72.6482 36.81 72.6482 35.3298 71.7133 35.3298Z" fill="black"/>
<path d="M73.1933 38.446C72.2585 38.446 72.2585 39.9262 73.1933 39.9262C74.1282 39.9262 74.1282 38.446 73.1933 38.446Z" fill="black"/>
<path d="M74.8296 41.5623C73.8947 41.5623 73.8947 43.0425 74.8296 43.0425C75.7644 43.0425 75.7644 41.5623 74.8296 41.5623Z" fill="black"/>
<path d="M77.0107 44.5225C76.0759 44.5225 76.0759 46.0026 77.0107 46.0026C78.0235 46.0026 78.0235 44.5225 77.0107 44.5225Z" fill="black"/>
<path d="M79.9712 47.2493C79.0363 47.2493 79.0363 48.7294 79.9712 48.7294C80.906 48.7294 80.906 47.2493 79.9712 47.2493Z" fill="black"/>
<path d="M83.4765 49.2749C82.5417 49.2749 82.5417 50.7551 83.4765 50.7551C84.4114 50.7551 84.4114 49.2749 83.4765 49.2749Z" fill="black"/>
<path d="M86.9824 50.9106C86.0475 50.9106 86.0475 52.3908 86.9824 52.3908C87.9172 52.3908 87.9172 50.9106 86.9824 50.9106Z" fill="black"/>
<path d="M91.5786 51.8457C90.6437 51.8457 90.6437 53.3259 91.5786 53.3259C92.5134 53.3259 92.5134 51.8457 91.5786 51.8457Z" fill="black"/>
<path d="M96.1753 51.8457C95.2404 51.8457 95.2404 53.3259 96.1753 53.3259C97.1101 53.3259 97.1101 51.8457 96.1753 51.8457Z" fill="black"/>
<path d="M100.226 51.3003C99.2912 51.3003 99.2912 52.7805 100.226 52.7805C101.161 52.7805 101.161 51.3003 100.226 51.3003Z" fill="black"/>
<path d="M105.056 49.8201C104.121 49.8201 104.121 51.3002 105.056 51.3002C105.991 51.3002 105.991 49.8201 105.056 49.8201Z" fill="black"/>
<path d="M108.172 47.6387C107.237 47.6387 107.237 49.1188 108.172 49.1188C109.107 49.1188 109.107 47.6387 108.172 47.6387Z" fill="black"/>
<path d="M111.99 44.6785C111.055 44.6785 111.055 46.1587 111.99 46.1587C112.925 46.1587 113.002 44.6785 111.99 44.6785Z" fill="black"/>
<path d="M115.495 40.4714C114.56 40.4714 114.56 41.9516 115.495 41.9516C116.43 41.9516 116.43 40.4714 115.495 40.4714Z" fill="black"/>
<path d="M187.089 92.122C184.285 89.0058 178.987 88.4605 175.17 87.6814C172.755 87.214 170.262 87.0582 168.003 86.1233C166.211 85.4222 164.497 84.6432 162.55 84.3315C162.627 83.6304 162.627 82.9293 162.627 82.5397C162.627 81.3712 162.939 80.0468 163.251 78.7224C163.407 78.1771 163.562 77.6318 163.64 77.0865V77.0085C164.03 75.1388 164.653 71.9448 153.435 67.4263C141.983 62.7521 103.576 56.0523 71.09 59.7917C40.162 63.3753 28.4764 69.3739 26.373 72.3343C25.9835 72.8796 25.8277 73.4249 25.9835 73.8924C26.2172 74.9051 26.8404 75.84 27.3857 76.619C28.3985 78.0992 29.3334 79.5794 28.4764 81.9165C28.3985 82.0723 28.3206 82.306 28.3206 82.5397C27.3858 82.6956 26.5288 83.0851 25.516 83.163C24.1917 83.3188 22.9452 83.3967 21.6987 83.6304C19.1279 84.1757 16.4013 85.2664 14.0641 86.5128C9.46779 88.9279 4.01447 90.3302 0.352969 94.3033C0.0413521 94.6149 0.352997 95.316 0.820423 95.1602C3.31336 94.3812 6.89693 94.7707 9.46777 94.9265C10.7142 95.0044 12.0386 95.0044 13.2851 95.0044C14.142 95.0044 16.5571 94.8486 15.4664 96.173C14.2978 97.5753 11.9607 97.9648 10.5584 99.2112C8.76665 100.769 7.83177 102.873 6.19579 104.587C5.88417 104.898 6.19581 105.599 6.66324 105.444C14.999 102.172 24.0359 100.068 32.9949 99.6787C34.8646 99.6008 36.8122 99.7565 38.6819 99.6007C39.6167 99.5228 40.7073 99.2892 41.0969 98.2764C41.1748 98.1206 41.1748 97.9648 41.1748 97.809C41.4085 97.4973 41.4085 96.8741 41.2527 96.3288C41.2527 96.0951 41.3306 95.9393 41.2527 95.6276C41.0969 94.2254 40.3178 92.8231 39.8504 91.4987C39.5388 90.4081 38.9935 88.0709 39.5388 86.7465C53.0162 80.9816 76.3875 79.5015 93.6043 78.9561C118.144 78.0992 136.374 83.0851 146.969 87.214C146.969 87.2919 146.969 87.2919 147.047 87.3698C147.358 88.7721 147.981 89.9406 147.981 91.4987C147.981 93.2905 147.514 94.6928 146.813 96.3288C146.423 97.2637 146.579 97.7311 147.125 97.8869C148.059 99.1334 150.007 99.0554 151.409 98.9775C154.448 98.8996 157.486 98.7438 160.524 98.8217C164.03 98.8217 166.912 100.302 170.106 101.548C171.664 102.094 173.222 102.561 174.781 103.106C176.417 103.652 179.065 103.963 180.468 105.054C180.857 105.366 181.558 104.976 181.247 104.431C180.156 102.717 179.688 100.614 178.598 98.8996C178.13 98.1985 177.429 97.4974 176.806 96.952C176.105 96.3288 174.079 95.1602 174.001 94.1474C173.924 93.6021 173.924 94.1474 174.469 94.1474C175.014 94.1474 175.482 94.1474 176.027 94.1474C177.04 94.1474 178.052 94.2254 178.987 94.0696C181.558 93.7579 184.051 93.3684 186.622 93.1347C187.167 92.9789 187.401 92.5115 187.089 92.122ZM38.7597 98.4322C38.4481 98.588 36.9679 98.4322 36.5784 98.5101C33.5402 98.6659 30.424 98.7438 27.3857 99.0555C20.8418 99.7566 14.3757 101.393 8.14339 103.73C8.61082 103.029 9.07826 102.327 9.62359 101.626C10.7922 100.068 12.1944 99.2113 13.9083 98.2764C14.8432 97.809 18.0373 96.5625 17.1803 95.0044C16.3234 93.3684 12.4281 94.1475 11.1817 94.0696C8.45503 93.9917 5.18306 93.4463 2.37851 93.8359C5.72839 91.0313 10.1689 89.7069 14.0641 87.7593C16.3234 86.5908 18.7384 85.578 21.2313 84.8769C22.7115 84.4874 24.1138 84.3316 25.594 84.2537C26.5288 84.1757 27.3858 83.7862 28.3206 83.6304C28.1648 87.0582 30.1124 92.3557 30.3461 92.8231C30.3461 92.901 30.424 92.9789 30.5019 92.9789C30.5019 93.0568 30.5019 93.2126 30.5798 93.2126C30.8135 93.8359 31.281 94.1475 31.8263 94.3033C32.1379 94.4591 32.5274 94.6149 32.9949 94.6928C33.5402 94.7707 34.0855 94.8486 34.7088 94.9265C34.7867 94.9265 34.7866 94.9265 34.8645 95.0044C36.0331 95.4718 37.2017 95.8614 38.3702 96.4067C38.8376 96.6404 39.5388 96.7183 39.8504 97.1857C39.9283 97.2636 40.0062 97.4974 40.0841 97.7311C39.6946 97.8869 39.3051 98.1206 38.7597 98.4322ZM40.0841 94.8486C40.0841 95.0823 40.3178 95.6276 40.0841 95.8614C39.9283 95.7834 39.8504 95.7055 39.6946 95.7055C39.383 95.4718 38.9935 95.2381 38.9156 95.1602C38.3702 94.8486 37.8249 94.3812 37.2017 94.2254C36.4226 93.9917 30.8914 93.9916 31.9042 92.3557C31.9042 92.2778 31.9821 92.2777 31.9821 92.1998C32.06 92.1219 32.1379 91.9662 32.2937 91.8883C32.9948 91.0313 34.0076 89.7848 35.1762 89.0058C36.1889 88.3826 37.3575 87.7593 38.526 87.214C38.4481 88.0709 38.5261 89.0058 38.604 89.629C38.7598 91.4208 39.8504 92.9789 40.0841 94.8486ZM93.6822 77.7876C76.5433 78.3329 53.3279 79.8131 39.6167 85.5001C39.383 85.4222 39.1493 85.4222 38.9935 85.6559C38.9935 85.7338 38.9156 85.7338 38.9156 85.8117C37.3575 86.5129 35.8773 87.214 34.6308 88.0709C33.3065 88.9279 32.2937 90.1744 31.5147 91.1092C31.3588 91.3429 31.1251 91.6545 30.8914 91.8103C30.2682 90.1743 28.4764 84.4873 29.3333 82.2281C30.3461 79.4236 29.1775 77.6318 28.1648 76.0737C27.6195 75.2947 27.152 74.5156 26.9183 73.5808C26.8404 73.3471 26.9962 73.0354 27.152 72.8017C27.6195 72.1785 29.8008 69.7634 38.9935 66.881C47.1734 64.3101 58.2358 62.1288 71.09 60.6486C77.7118 59.8696 84.4895 59.558 91.3451 59.558C117.833 59.558 143.853 64.5439 152.967 68.2054C163.407 72.4901 162.861 75.1388 162.55 76.6969V76.7748C162.472 77.3201 162.316 77.7876 162.16 78.4108C161.848 79.7352 161.459 81.1374 161.459 82.4618C161.459 82.9292 161.459 83.6304 161.381 84.4094C161.381 84.4873 161.303 84.5653 161.381 84.7211C161.225 86.5129 160.68 88.6163 159.278 89.7069C158.888 90.0186 158.265 90.486 157.875 90.7976C157.797 90.7976 157.719 90.7976 157.642 90.7976C154.37 88.9279 131.466 76.5411 93.6822 77.7876ZM147.67 96.5625C147.592 96.3288 148.527 94.6928 148.605 94.4591C148.838 93.7579 148.994 93.1347 148.994 92.3557C149.072 91.3429 149.072 90.4081 148.838 89.3953C148.683 88.6942 148.449 88.0709 148.215 87.4477C153.513 89.5511 156.629 91.3429 157.486 91.8103V91.8883C157.408 92.0441 157.408 92.2778 157.486 92.4336C157.33 94.4591 154.525 94.6928 152.812 95.316C152.344 95.4718 147.904 97.2636 147.67 96.5625ZM180.623 92.5894C178.053 93.0568 175.715 92.6673 173.222 92.8231C172.989 92.8231 172.677 93.0568 172.755 93.2905C172.911 95.1602 175.248 96.4846 176.494 97.6531C178.13 99.2112 178.754 101.237 179.611 103.184C177.975 102.483 175.871 102.172 174.313 101.626C171.197 100.614 168.237 99.2112 165.12 98.1985C162.627 97.3415 159.979 97.4974 157.33 97.7311C155.616 97.8869 153.902 97.7311 152.266 97.7311C151.331 97.7311 149.851 97.9648 148.838 97.5753C151.409 97.1078 154.214 96.0951 156.629 95.0823C157.096 94.8486 157.486 94.6149 157.797 94.3033C157.875 94.3033 158.031 94.2254 158.109 94.1474C158.343 93.8358 158.499 93.6021 158.732 93.2905C158.966 92.9789 159.278 92.8231 159.433 92.5115C159.511 92.4336 159.511 92.2778 159.589 92.122C159.745 91.8882 159.901 91.6545 159.979 91.4208C160.057 91.1871 160.212 91.0313 160.29 90.7976C160.368 90.7197 160.368 90.7197 160.446 90.6418C160.602 90.486 160.602 90.408 160.602 90.2522C160.68 90.0964 160.758 89.9406 160.836 89.8627C161.926 88.6162 162.394 86.9024 162.55 85.3443C164.653 85.7338 166.523 86.6687 168.47 87.3698C170.262 87.9931 172.21 88.0709 174.079 88.4605C177.585 89.1616 182.727 89.629 185.687 92.122C183.895 92.1999 182.259 92.3557 180.623 92.5894Z" fill="black"/>
<path d="M34.3193 82.3059C33.4623 82.4618 32.6054 82.8513 31.8263 83.1629C30.8915 83.3966 29.9566 83.4745 29.5671 83.0071C29.4892 82.9291 29.4892 82.9291 29.4892 82.8512C29.645 82.3059 29.7229 81.8385 29.8008 81.3711C29.8787 81.2153 29.9566 81.0595 30.0345 80.9816C30.1903 80.8258 30.4241 80.6699 30.6578 80.5141C30.8136 80.4362 31.0473 80.2804 31.281 80.1246C32.06 80.0467 32.917 79.813 33.4623 79.5793C33.6181 79.5014 33.3844 79.1898 33.3065 79.1898C33.0728 79.1119 32.8391 79.1118 32.6054 79.1118H32.5274C32.4495 79.1118 32.4496 79.1118 32.3717 79.1118C32.2938 79.1118 32.2158 79.1118 32.1379 79.1118C31.5926 79.1897 31.1252 79.1898 30.5798 79.1898C30.2682 79.1119 30.0345 78.956 29.8008 78.7223C29.8008 78.6444 29.8008 78.5665 29.8008 78.4886C30.0345 78.0991 30.3462 77.8654 30.8136 77.6317C31.9042 77.4759 33.0728 76.9305 33.6181 76.6189C33.7739 76.541 33.4623 76.2294 33.3844 76.2294C32.6054 75.9957 31.5147 76.6968 30.8136 77.0864C30.1124 77.2422 29.0997 77.2421 29.0217 76.7747C29.4113 76.1515 29.7229 75.6841 30.2682 75.2166C31.0473 74.6713 32.06 74.2039 32.8391 73.6585C32.8391 73.6585 32.8391 73.6586 32.8391 73.5807C32.917 73.5807 32.9949 73.5027 33.0728 73.5027C33.2286 73.4248 32.917 73.1132 32.7612 73.1132C32.5275 73.1132 32.2938 73.1912 31.9821 73.347C31.3589 73.5028 30.8136 73.8923 30.3461 74.126C30.1903 74.2039 30.0345 74.2039 29.8787 74.2039C29.2555 74.2818 28.6322 74.2039 28.009 74.2039C28.5543 73.8144 29.1776 73.5807 29.8008 73.4248C29.9566 73.3469 29.7229 72.9574 29.5671 73.0353C28.5543 73.269 27.3858 73.1912 26.6067 72.5679C26.5288 72.49 26.373 72.5679 26.4509 72.6458C26.6067 73.1911 26.7625 73.7365 26.9963 74.2039C26.9963 74.2039 26.9963 74.2039 26.9184 74.2039C26.8405 74.2039 26.8404 74.2818 26.8404 74.2818V74.3597C26.8404 74.4376 26.9962 74.5934 27.0741 74.6713L27.1521 74.7492C27.4637 75.3725 27.7753 75.9957 28.009 76.6189C28.2427 77.32 28.5543 77.9433 28.9439 78.5665C29.2555 79.1897 29.4113 79.7351 29.4113 80.2804C29.1776 80.592 28.9439 80.9036 28.788 81.2932C28.788 81.3711 28.9438 81.6048 29.0217 81.6827C28.9438 82.0722 28.9438 82.3838 29.0217 82.6955C28.9438 83.1629 28.8659 83.6303 28.788 84.0977V84.1756C28.7101 84.7988 28.7101 85.5 28.788 86.2012C28.9439 87.2918 29.2555 88.772 29.8787 89.7068C29.9566 89.7847 30.1124 89.9405 30.1903 89.8626C30.1903 89.8626 30.1903 89.8626 30.1903 89.7847C30.2682 89.8626 30.2682 89.8626 30.3461 89.8626C30.3461 90.33 30.1903 90.8754 30.1903 91.187C30.1903 91.3428 30.5798 91.6544 30.5798 91.4207C30.5798 91.3428 30.5798 91.2649 30.5798 91.1091C30.5798 90.9533 30.6578 90.7975 30.6578 90.6417C30.8915 89.7847 31.3589 89.0836 31.9821 88.4603C32.6833 88.2266 33.3065 87.8371 33.6181 87.4476C33.696 87.3697 33.6181 87.2918 33.5402 87.2139C33.6181 87.136 33.696 87.136 33.7739 87.0581C33.8518 87.0581 33.8518 86.9802 33.9298 86.9802C34.0856 86.9023 33.8518 86.5128 33.696 86.5907C33.5402 86.6686 33.3065 86.7465 33.1507 86.8244H33.0728C33.0728 86.8244 32.9949 86.8244 32.9949 86.9023C32.917 86.9802 32.7612 86.9802 32.6833 87.0581C32.2158 87.0581 31.7484 87.2918 31.281 87.4476C30.7357 87.6034 30.1124 87.6813 29.645 87.8371C29.5671 87.5255 29.7229 87.2139 29.9566 86.9023C30.2682 86.5906 30.7357 86.279 31.1252 85.9674C31.9821 85.8116 32.917 85.3442 33.3844 85.0326C33.5402 84.9547 33.2286 84.6431 33.0728 84.6431C32.1379 84.721 31.0473 85.0326 30.1903 85.6558C29.8008 85.7337 29.4892 85.6558 29.2555 85.1105C29.7229 84.1756 30.7357 83.9419 31.6705 83.5524C31.9042 83.3966 32.2158 83.3187 32.4496 83.1629C33.1507 83.0071 33.8518 82.6954 34.475 82.4617C34.7867 82.6175 34.4751 82.228 34.3193 82.3059ZM28.6322 77.3201C28.7101 77.4759 28.7881 77.5538 28.9439 77.6317C28.866 77.7096 28.788 77.7875 28.788 77.9433C28.7101 77.7096 28.5544 77.4759 28.4765 77.2422C28.5544 77.2422 28.6322 77.3201 28.6322 77.3201ZM27.0741 73.5807C27.152 73.5807 27.1521 73.5806 27.23 73.6585H27.1521C27.1521 73.5806 27.152 73.5807 27.0741 73.5807C27.0741 73.6586 26.9963 73.6585 26.9963 73.6585C26.8404 73.6585 26.9184 73.8143 26.9963 73.8923C26.9963 73.9702 26.9963 73.9702 26.9963 73.9702C27.0742 74.0481 27.0741 74.126 27.0741 74.2039C27.0741 74.2039 27.0742 74.126 26.9963 74.126C26.9184 73.9702 26.9183 73.8923 26.8404 73.7365C26.6846 73.347 26.7625 73.269 27.0741 73.5807ZM30.0345 88.8499C29.9566 88.8499 30.0345 88.8499 30.0345 88.8499C29.8787 88.8499 29.8787 89.0057 29.9566 89.1615C29.9566 89.2394 29.9566 89.3952 29.9566 89.4731C29.8008 89.1615 29.645 88.772 29.4892 88.3825C29.645 88.6162 29.8008 88.772 30.0345 88.8499ZM29.4113 85.8895C29.3334 85.8895 29.3334 85.8895 29.3334 85.9674C29.2555 86.1232 29.1776 86.279 29.1776 86.5127C29.1776 86.2011 29.1776 85.8895 29.0997 85.5779C29.0997 85.6558 29.1776 85.6558 29.1776 85.7337C29.2555 85.8116 29.3334 85.8895 29.4113 85.8895Z" fill="black"/>
<path d="M46.7839 66.881C46.4723 67.0368 46.1606 67.1926 45.849 67.2705C44.8363 67.66 43.7456 67.8937 42.6549 68.1274C42.0317 68.2833 41.4864 68.4391 40.8631 68.6728C40.3178 68.8286 39.9283 69.1402 39.383 69.3739C39.3051 69.3739 39.383 69.4518 39.4609 69.5297C39.383 69.6076 39.2271 69.6076 39.1492 69.6855C38.9934 69.7634 39.383 70.075 39.4609 69.9971C40.6294 69.3739 41.8759 69.0623 43.2003 68.7507C44.2909 68.4391 45.2258 68.0495 46.1606 67.66C46.4722 67.5042 46.7838 67.4263 47.0955 67.2705C47.2513 67.1147 46.8618 66.803 46.7839 66.881Z" fill="black"/>
<path d="M142.139 66.8811C141.126 66.3358 140.191 65.9463 139.022 65.7126C137.153 65.323 134.971 65.2452 133.102 65.5568C133.024 65.5568 132.946 65.5568 132.946 65.5568C132.868 65.5568 132.79 65.5568 132.634 65.6347C132.634 65.6347 132.79 66.0242 132.946 66.0242C133.024 66.0242 133.18 66.0242 133.258 65.9463C134.348 66.2579 135.75 66.0242 136.841 66.1021C137.075 66.1021 137.386 66.18 137.62 66.18C138.01 66.3358 138.477 66.5695 138.867 66.6474C139.957 66.8811 140.97 66.8812 141.983 67.1928C142.216 67.2707 142.528 67.3486 142.84 67.3486C143.385 67.6602 143.93 68.0497 144.476 68.4392C145.021 67.816 143.229 67.1927 142.139 66.8811ZM137.542 65.7905C137.932 65.7905 138.243 65.8684 138.633 65.9463C138.633 66.0242 138.711 66.0242 138.711 66.1021C138.321 66.0242 137.932 65.8684 137.542 65.7905Z" fill="black"/>
<path d="M156.629 87.0583C156.473 86.6688 155.928 86.435 155.46 86.3571C154.837 86.2013 154.37 85.656 153.747 85.656C153.591 85.656 153.513 85.7339 153.591 85.8118C153.591 85.8897 153.513 85.8897 153.591 85.9676C154.058 86.435 154.604 86.5129 155.227 86.6688C155.694 86.8246 155.928 87.3699 156.473 87.2141C156.629 87.2141 156.707 87.1362 156.629 87.0583Z" fill="black"/>
<path d="M163.251 76.3074C163.017 76.1516 162.706 76.1516 162.472 75.9958C161.927 75.762 161.615 75.4504 161.147 75.1388C160.914 74.983 160.524 75.2167 160.836 75.4504C161.615 76.0737 162.706 77.0085 162.394 77.9434C161.926 77.8655 161.381 77.7876 160.992 77.5538C160.836 77.4759 160.758 77.3981 160.602 77.2423C160.602 77.2423 160.602 77.2423 160.524 77.2423C160.291 77.0864 160.057 77.398 160.213 77.5538C160.368 77.6317 160.446 77.7876 160.602 77.8655C160.836 78.0992 161.07 78.3329 161.303 78.5666C161.615 78.9561 161.693 79.1899 161.771 79.5794C161.771 79.6573 161.771 79.7352 161.771 79.8131C160.836 79.7352 159.901 79.4236 159.044 79.1899C158.265 78.9561 157.408 78.4887 156.551 78.4887C156.317 78.4887 156.239 78.7224 156.473 78.8782C157.33 79.4236 158.421 79.5794 159.278 80.0468C160.213 80.4363 160.914 81.0596 161.537 81.7607C161.537 81.7607 161.537 81.7607 161.537 81.8386C161.07 82.306 160.524 82.4618 159.901 82.4618C159.823 82.3839 159.667 82.3839 159.589 82.306C158.732 81.9944 157.564 81.3712 156.551 81.527C156.317 81.6049 156.395 81.8386 156.551 81.9165C157.564 82.306 158.343 82.6955 159.434 82.7734C159.511 82.7734 159.589 82.7734 159.667 82.7734C160.057 82.9292 160.524 83.1629 160.836 83.3967C160.992 83.5525 161.07 83.7083 161.225 83.7862C161.225 83.942 161.303 84.1757 161.303 84.3315C161.381 85.3443 161.303 86.5128 159.745 86.2791C159.278 86.2012 158.732 85.9675 158.265 85.7338C157.798 85.4222 157.252 85.1106 156.629 84.8769C156.395 84.799 156.084 85.1106 156.395 85.2664C156.863 85.5001 157.33 85.8117 157.798 86.0454C158.732 86.6687 159.434 87.4477 160.057 88.3825C160.057 88.4605 160.057 88.4605 160.057 88.5384C159.667 89.0837 159.2 89.3953 158.81 89.4732C158.655 89.3953 158.499 89.3174 158.343 89.1616C158.265 89.0837 158.031 89.0837 157.953 89.1616C157.798 89.0837 157.642 88.9279 157.486 88.85C157.33 88.6941 156.941 88.8499 157.096 89.0837C157.564 89.7069 158.031 90.3301 158.343 90.9534C158.421 91.1092 158.81 91.1092 158.81 90.8755C158.81 90.6418 158.732 90.486 158.655 90.3302C158.732 90.3302 158.732 90.3302 158.81 90.3302C158.888 90.3302 158.966 90.2522 158.966 90.1743C158.966 90.408 159.979 90.0185 160.135 89.8627C160.291 89.7848 160.29 89.7069 160.213 89.5511C160.368 89.3174 160.446 89.0837 160.446 88.7721C160.524 88.7721 160.602 88.6163 160.602 88.5384C160.602 88.3826 160.524 88.2267 160.446 88.0709C160.524 88.1488 160.758 88.1488 160.836 88.0709C160.992 87.8372 160.992 87.6035 160.992 87.3698C161.07 87.214 161.07 87.0582 161.147 86.8245C161.147 86.7466 161.147 86.6686 161.07 86.6686C161.771 86.2012 161.849 85.1106 161.771 84.0978C161.849 84.0199 161.849 83.942 161.771 83.8641C161.771 83.8641 161.771 83.8641 161.693 83.7862C161.693 83.7083 161.693 83.7083 161.693 83.6304C161.771 83.6304 161.771 83.5525 161.771 83.4746C161.693 83.163 161.693 82.9293 161.381 82.6955C161.615 82.6176 161.771 82.4618 161.926 82.3839C162.55 81.7607 162.55 80.5142 162.706 79.6573C162.861 78.6445 163.017 78.0213 162.861 77.0864C163.017 77.0085 163.173 76.9306 163.173 76.6969C163.407 76.4632 163.329 76.3853 163.251 76.3074ZM162.004 81.2154C162.004 81.1374 162.004 81.0596 162.004 80.9816C162.082 80.9816 162.082 80.9037 162.082 80.8258C162.082 80.67 162.082 80.5142 162.16 80.3584C162.238 80.3584 162.316 80.2805 162.394 80.2805C162.238 80.5921 162.16 80.9037 162.004 81.2154ZM162.472 79.8131C162.394 79.8131 162.394 79.8131 162.316 79.8131C162.394 79.5794 162.394 79.3456 162.238 79.1119C162.238 79.034 162.238 78.9561 162.16 78.8782C162.238 78.8782 162.316 78.8782 162.394 78.8003C162.472 78.7224 162.55 78.5666 162.706 78.4887C162.628 78.9561 162.55 79.3457 162.472 79.8131Z" fill="black"/>
<path d="M159.044 89.7071C158.577 89.6292 158.343 89.3954 157.953 89.1617C157.486 88.928 157.174 88.5385 156.863 88.149C156.629 87.9153 156.629 88.2269 156.785 88.3827C157.096 88.7722 157.408 89.2396 157.876 89.5512C158.343 89.785 158.732 90.1745 159.278 90.2524C159.356 90.0965 159.2 89.7071 159.044 89.7071Z" fill="black"/>
<path d="M159.433 89.2394C158.966 89.0835 158.499 88.8498 158.031 88.6161C157.564 88.4603 157.33 88.2266 156.94 87.9929C156.707 87.8371 156.629 88.1487 156.785 88.3045C157.33 88.9277 157.953 89.3952 158.499 89.9405C158.732 90.1742 158.888 89.8626 158.732 89.6289C158.499 89.3952 158.343 89.2394 158.109 89.0057C158.654 89.1615 159.044 89.4731 159.589 89.6289C159.745 89.7847 159.589 89.3173 159.433 89.2394Z" fill="black"/>
<path d="M159.278 90.408C159.511 90.2522 159.122 89.9406 158.888 90.0964C158.732 90.1743 158.576 90.3301 158.421 90.4859C158.343 90.4859 158.343 90.4859 158.265 90.5638C158.109 90.6417 157.953 90.6417 157.72 90.6417C157.33 90.6417 156.94 90.6417 156.551 90.6417C156.395 90.6417 156.395 90.7976 156.473 90.8755C157.018 91.4987 158.499 91.4208 159.122 90.8755C159.2 90.7976 159.2 90.6417 159.044 90.5638C159.044 90.5638 159.044 90.4859 158.966 90.4859C159.2 90.4859 159.278 90.408 159.278 90.408Z" fill="black"/>
<path d="M154.37 90.1745C154.292 90.0966 154.214 90.0187 154.136 89.9408C154.37 89.8629 153.902 89.6292 153.824 89.6292C153.824 89.5513 153.668 89.4734 153.513 89.4734C152.889 89.4734 152.266 89.785 151.721 89.9408C151.331 90.0187 150.864 90.0187 150.474 90.0187C150.241 90.0187 150.085 90.0188 149.929 90.0967C149.773 90.1746 149.929 90.3304 150.007 90.3304C150.552 90.5641 151.409 90.4862 152.032 90.4082C152.422 90.3303 152.811 90.2524 153.123 90.1745C153.201 90.1745 153.279 90.1746 153.357 90.0967C153.435 90.0967 153.902 90.0188 153.98 90.0967C153.98 90.3304 154.525 90.3304 154.37 90.1745Z" fill="black"/>
<path d="M156.94 91.1093C156.862 91.1093 156.785 91.0314 156.707 91.0314C156.707 90.9535 156.629 90.9535 156.551 90.9535C156.473 90.9535 156.395 90.9535 156.317 90.9535C156.239 90.9535 156.161 90.9535 156.083 90.9535H156.006C156.006 90.9535 156.006 90.9535 156.083 90.9535C156.239 90.8756 156.161 90.7198 156.083 90.6419C156.161 90.4861 156.006 90.3303 155.772 90.4082C154.993 90.7977 154.292 91.2651 153.513 91.4989C152.811 91.7326 151.955 92.1221 151.253 92.2C151.02 92.2 150.864 92.5895 151.175 92.5895C152.266 92.5895 153.357 92.2779 154.447 92.0442C155.226 91.8884 156.083 91.8105 156.785 91.4989C156.862 91.4989 156.94 91.4209 156.94 91.343C156.94 91.2651 156.94 91.2651 156.94 91.1872C157.018 91.1872 156.94 91.1872 156.94 91.1093Z" fill="black"/>
<path d="M157.875 92.1221C157.875 92.1221 157.642 91.8884 157.486 91.8884C157.564 91.8104 157.564 91.8104 157.642 91.7325C157.642 91.7325 157.252 91.4209 157.174 91.4988C156.239 92.5895 155.071 92.9011 153.746 93.3685C153.201 93.5243 152.734 93.6801 152.188 93.836C152.032 93.836 151.877 93.9139 151.721 93.9918C151.643 93.9918 151.253 94.1476 151.02 94.2255C150.786 94.3034 150.63 94.3034 150.396 94.3813C150.396 94.3813 150.708 94.615 150.786 94.615C151.02 94.5371 151.253 94.5371 151.487 94.4592H151.565C152.11 94.3813 152.734 94.2255 153.279 93.9918C153.746 93.836 154.214 93.7581 154.681 93.6023C155.694 93.3685 156.863 93.1348 157.797 92.5895C157.797 92.5895 157.719 92.5116 157.642 92.4337C157.642 92.3558 157.797 92.2779 157.875 92.1221Z" fill="black"/>
<path d="M152.11 88.928C152.032 88.928 152.11 88.928 152.11 88.928C151.955 88.8501 151.877 88.85 151.799 88.85C151.799 88.85 151.799 88.85 151.721 88.85C151.799 88.7721 151.799 88.7721 151.721 88.6942C151.331 88.4605 151.098 88.6942 150.786 88.7721C150.474 88.928 149.929 88.85 149.695 89.1617C149.617 89.2396 149.695 89.3954 149.773 89.3954C150.474 89.707 151.643 89.707 152.266 89.2396C152.266 89.0837 152.188 89.0059 152.11 88.928Z" fill="black"/>
<path d="M155.071 90.2523C154.837 90.2523 154.681 90.3302 154.447 90.3302C154.525 90.2523 154.603 90.1744 154.681 90.1744C154.837 90.0965 154.447 89.7848 154.292 89.8627C153.746 90.1744 153.435 90.5639 152.811 90.7976C152.032 91.1092 151.175 91.265 150.396 91.4988C150.163 91.5767 150.63 91.8103 150.708 91.8103C151.487 91.8103 152.188 91.6546 152.889 91.3429C153.59 91.1092 154.214 90.6418 154.915 90.5639C154.993 90.6418 155.304 90.7976 155.304 90.6418C155.304 90.5639 155.304 90.486 155.304 90.486C155.46 90.3302 155.149 90.2523 155.071 90.2523Z" fill="black"/>
<path d="M39.6169 94.6149C39.3053 94.6149 38.1367 94.8486 37.903 94.537C37.7472 94.3032 37.9809 93.9137 38.2146 93.7579C38.3704 93.7579 38.4483 93.6801 38.6042 93.6021C38.6042 93.6021 38.6041 93.6021 38.682 93.6021C38.7599 93.5242 38.7599 93.5242 38.7599 93.4463C38.9157 93.3684 38.5262 93.2126 38.4483 93.2126C38.3704 93.2126 38.2925 93.2905 38.2146 93.2905C37.8251 93.4463 37.3577 93.4463 36.9681 93.6021C36.1112 93.8359 35.3321 94.0695 34.4752 94.1474C34.2415 94.1474 34.0857 94.0695 34.0078 93.9137C34.0857 93.8358 34.1636 93.8358 34.2415 93.7579C34.7089 93.2905 35.2543 92.9789 35.8775 92.7452C36.1891 92.6673 36.5786 92.5115 36.8123 92.3557C37.2018 92.1998 37.6693 92.122 37.9809 91.8882C38.2146 91.7324 37.7472 91.6545 37.5914 91.6545C37.2018 91.8103 36.7344 92.044 36.1891 92.1998C35.9554 92.2777 35.7996 92.2777 35.6438 92.3557C35.5659 92.3557 35.488 92.4336 35.4101 92.5115C34.1636 92.901 32.9171 93.1347 31.9823 92.5894C31.9044 92.5114 31.5928 92.5115 31.5928 92.6673C31.5928 92.7452 31.5928 92.7452 31.5928 92.8231C31.5928 92.9789 31.9044 93.0568 32.0602 92.9789C32.1381 93.0568 32.2939 93.0568 32.4497 93.1347H32.3718C32.2939 93.1347 32.2939 93.1347 32.216 93.1347C32.0602 93.1347 31.8265 93.2126 31.9823 93.3684C32.0602 93.4463 32.0602 93.4463 32.1381 93.4463C32.216 93.5242 32.2939 93.5242 32.5276 93.6021C32.5276 93.6021 32.6055 93.6021 32.6834 93.6021C33.0729 93.758 33.3067 93.9916 33.5404 94.0696C33.6962 94.2254 33.9299 94.3033 34.2415 94.3812C34.2415 94.4591 34.3194 94.4591 34.3973 94.4591C34.9426 94.537 35.4879 94.6928 36.0333 94.6928C36.4228 94.6928 36.6565 94.537 36.9681 94.3812C37.046 94.3812 37.1239 94.3812 37.2018 94.3812C37.2018 94.4591 37.2018 94.4591 37.2018 94.537C37.3576 94.8486 37.7472 94.9265 38.2146 95.0044C38.2146 95.0823 38.2146 95.0823 38.2146 95.1602C38.2146 95.2381 38.2146 95.2381 38.2925 95.2381C38.6041 95.3939 38.8378 95.5497 39.1494 95.6276C39.3053 95.7055 39.6948 95.5497 39.3832 95.3939C38.2146 94.9265 39.3832 95.0044 39.9285 94.9265C40.0843 94.8486 39.8506 94.6149 39.6169 94.6149Z" fill="black"/>
<path d="M37.124 90.7197C36.345 90.7197 35.5659 90.9534 34.7869 91.0313C34.0078 91.1092 33.2288 90.8755 32.5276 91.1092C32.4497 91.1092 32.4497 91.1871 32.5276 91.1871C32.6055 91.265 32.6056 91.3429 32.6056 91.4208C32.2161 91.4208 31.9823 91.4987 32.0602 91.8104C32.0602 91.8104 32.0602 91.8883 32.1381 91.8883C31.9823 91.8883 31.8265 91.8883 31.6707 91.8883C31.5149 91.8883 31.9044 92.122 31.9823 92.122C32.6835 92.122 33.4625 91.9662 34.1637 91.8883H34.2415C34.3194 91.8883 34.3195 91.8883 34.3195 91.8883C34.709 91.8104 35.0206 91.7325 35.4101 91.6546C36.0333 91.4988 37.0461 91.4208 37.5135 91.0313C37.5914 90.8755 37.2019 90.7197 37.124 90.7197Z" fill="black"/>
<path d="M37.8249 89.1617C37.3575 89.3175 36.8121 89.3954 36.3447 89.3954C36.2668 89.3954 36.2668 89.3954 36.1889 89.3954C36.0331 89.3954 35.7994 89.3954 35.6436 89.4733C35.254 89.4733 34.7866 89.4733 34.3971 89.3954C34.3192 89.3954 34.0076 89.3954 34.0076 89.5512C34.0076 89.6291 34.0855 89.707 34.0855 89.707C33.9297 89.707 33.8518 89.7849 33.696 89.8628C33.618 89.9407 33.6181 90.0186 33.6181 90.0186H33.5402C33.3844 89.9407 32.9948 90.1744 33.3064 90.2523C34.8645 90.5639 36.5005 89.8628 37.9807 89.3954C38.2923 89.3175 38.0586 89.0838 37.8249 89.1617Z" fill="black"/>
<path d="M14.9987 98.8997C14.4534 98.9776 13.8302 99.1334 13.207 99.3671C12.7395 99.445 12.2721 99.5229 11.8826 99.6008C11.2593 99.7566 10.5582 99.9124 10.0129 100.38C9.935 100.458 9.93498 100.614 10.0908 100.614C9.54546 100.925 9.00016 101.237 8.61064 101.704C8.37693 101.938 8.84435 102.172 9.00016 102.016C9.93501 101.237 11.0256 100.769 12.1942 100.302C12.6616 100.146 13.1291 99.9124 13.6744 99.6787C14.2197 99.6008 14.7651 99.5229 15.3104 99.2892C15.4662 99.1334 15.2325 98.8997 14.9987 98.8997Z" fill="black"/>
<path d="M14.921 91.6544C14.8431 91.6544 14.6872 91.6543 14.6093 91.7323C14.6093 91.7323 14.6094 91.7323 14.5315 91.7323C13.5966 92.2776 12.6617 92.9787 11.649 93.524C11.1037 93.6798 10.5584 93.8357 10.013 93.9136C9.93512 93.9136 9.54561 94.1473 9.77932 94.1473C9.93513 94.1473 10.0909 94.1473 10.2467 94.1473C10.1688 94.2252 10.0909 94.3031 10.0909 94.381C10.0909 94.5368 10.5584 94.381 10.5584 94.2252C10.5584 94.2252 10.7921 94.1473 11.0258 93.9915L10.9479 94.0694C10.7921 94.2252 11.1037 94.2252 11.1816 94.1473C11.3374 94.0694 11.4932 93.9915 11.649 93.9136C11.5711 93.9915 11.4932 94.0694 11.4932 94.1473C11.4153 94.3031 11.8827 94.1473 11.9606 94.0694C12.0385 93.9915 12.0385 93.9915 12.1164 93.9136C12.1944 93.9915 12.506 93.8357 12.506 93.8357C12.5839 93.7578 12.7397 93.6799 12.8176 93.602C12.7397 93.7578 12.6617 93.9136 12.6617 94.0694C12.6617 94.0694 12.6618 94.0694 12.7397 94.0694C13.2071 94.2252 13.9082 94.2252 14.4536 94.2252C14.6094 94.2252 14.9989 93.9915 14.6873 93.9915C14.4536 93.9915 14.064 94.0694 13.8303 93.9915C13.3629 93.8357 13.2071 93.8356 13.4408 93.3682C13.5187 93.2124 13.5966 93.0566 13.7524 92.9787C14.1419 92.745 14.6094 92.5113 14.921 92.1997C14.9989 92.1218 14.9989 92.1218 14.921 92.1218C14.9989 92.0439 15.0768 91.966 15.2326 91.8881C15.2326 91.8881 15.2326 91.8881 15.3105 91.8881C15.4663 91.5765 14.9989 91.5765 14.921 91.6544Z" fill="black"/>
<path d="M13.0511 93.68C13.0511 93.5242 12.9733 93.4462 12.9733 93.2904C12.9733 93.1346 12.5059 93.1346 12.5059 93.2904C12.5059 93.4462 12.5058 93.5242 12.4279 93.68C12.4279 93.7579 12.4279 93.7579 12.4279 93.8358L12.35 93.9137C12.2721 94.0695 12.7395 94.0695 12.8174 93.9916C12.8953 93.9137 12.9732 93.8358 13.0511 93.68C13.0511 93.7579 13.0511 93.7579 13.0511 93.68Z" fill="black"/>
<path d="M20.7641 93.6023C19.985 93.836 19.1281 94.0697 18.2711 94.2255C18.2711 94.1476 18.1933 94.1476 18.1933 94.1476C17.4142 94.1476 16.4014 93.9918 15.7003 94.3034C15.6224 94.3034 15.8561 94.693 15.934 94.7709C16.3235 94.8488 16.791 94.7708 17.2584 94.8487C17.1026 94.8487 16.9468 94.9266 16.791 94.9266C16.791 94.9266 16.791 95.0045 16.8689 95.0824C16.791 95.0824 16.6351 95.1604 16.5572 95.2383C16.4793 95.2383 16.7131 95.7057 16.791 95.7057C16.9468 95.7057 17.1805 95.6278 17.3363 95.6278C16.713 96.0173 16.0898 96.4068 15.5445 96.9522C15.4666 97.0301 15.7003 97.4196 15.7782 97.4196C16.3235 97.0301 17.0247 96.6405 17.57 96.1731C18.7386 95.472 19.985 94.8487 21.1536 94.3034C20.9978 93.9918 20.842 93.6023 20.7641 93.6023Z" fill="black"/>
<path d="M10.8701 101.548C10.7143 101.626 10.4806 101.704 10.3248 101.782H10.2469C10.4027 101.704 10.5585 101.626 10.7143 101.548C10.8701 101.47 10.6365 101.548 10.5586 101.548C10.2469 101.626 9.93531 101.782 9.62369 101.938C9.54579 101.938 9.46789 102.016 9.38999 102.016C9.7016 101.704 9.93528 101.315 10.3248 101.081C10.3248 101.081 10.2469 101.081 10.0911 101.081C10.169 101.003 10.2469 100.925 10.3248 100.847H10.2469C10.169 100.847 9.9353 100.925 9.85739 101.003C9.62368 101.237 9.31206 101.47 9.07835 101.782L9.00047 101.86C8.76675 102.016 8.53303 102.172 8.45513 102.483H8.61095C8.76675 102.483 8.84463 102.405 8.92253 102.327H9.00047C8.84466 102.405 8.68882 102.483 8.53301 102.639C8.53301 102.639 8.53304 102.639 8.61095 102.639C8.53304 102.717 8.4551 102.717 8.3772 102.795C8.3772 102.795 8.29929 102.873 8.3772 102.873C8.61091 102.873 8.76673 102.795 8.92253 102.717C8.76673 102.873 8.533 102.951 8.3772 103.106C8.06558 103.34 7.59819 103.574 7.44238 103.963C7.44238 103.963 7.83188 103.885 7.90979 103.808C8.29931 103.496 8.61095 103.184 9.00047 102.873C9.15628 102.795 9.31208 102.639 9.38999 102.561C9.6237 102.405 9.7795 102.249 10.0132 102.172C10.0911 102.094 10.3248 102.016 10.4027 101.938C10.5585 101.86 10.7922 101.782 10.8701 101.704C11.0259 101.47 10.8701 101.548 10.8701 101.548Z" fill="black"/>
<path d="M35.7993 94.6928C35.7214 94.6928 35.6435 94.6928 35.5656 94.6928C35.3318 94.6928 35.0981 94.6928 34.8644 94.7707C35.0202 94.6149 34.8644 94.3812 34.6307 94.4591C33.9296 94.6149 33.3842 95.0823 32.6831 95.2381C31.8261 95.4718 30.8913 95.5497 30.0344 95.7055C29.7228 95.7834 29.8785 96.095 30.1123 96.095H30.1901C31.3587 96.0171 32.6052 95.8614 33.8517 95.6276C34.397 95.5497 35.4877 95.4719 35.9551 95.1602C36.1109 94.9265 35.9551 94.6928 35.7993 94.6928Z" fill="black"/>
<path d="M38.9937 95.9392C38.6821 95.8613 38.3705 95.8613 38.0589 95.8613C37.9809 95.7833 37.9809 95.7834 37.903 95.7834C37.7472 95.7834 37.6693 95.7834 37.5135 95.7834C37.6693 95.7055 37.7472 95.7055 37.903 95.6275C38.2147 95.5496 37.9809 95.1601 37.6693 95.238C36.5787 95.6275 35.5659 96.1729 34.4752 96.4845C33.6183 96.7182 32.5276 96.7961 31.7486 97.1856C31.5149 97.3414 31.8265 97.5752 31.9823 97.4973C33.2288 97.4973 34.4752 97.1077 35.6438 96.874C36.8124 96.6403 37.903 96.4845 39.0716 96.2508C39.3053 96.2508 39.1495 95.9392 38.9937 95.9392ZM35.488 96.5624C35.7996 96.4066 36.1112 96.3287 36.4228 96.1729C36.3449 96.1729 36.345 96.2508 36.2671 96.3287C36.1892 96.4066 36.1891 96.4066 36.1891 96.4845C35.9554 96.4845 35.7217 96.4845 35.488 96.5624Z" fill="black"/>
<path d="M39.1493 95.9394C38.2923 95.7057 37.3575 96.0173 36.4226 96.0952C36.3447 96.0173 36.3447 96.0173 36.2668 96.0173C36.0331 96.0173 35.7994 96.0952 35.4878 96.0952C35.2541 96.0952 35.332 96.4847 35.5657 96.5626C35.5657 96.5626 35.5657 96.5626 35.6436 96.5626C35.7994 96.5626 35.9552 96.5626 36.111 96.5626C36.1889 96.6406 36.4226 96.7185 36.4226 96.5626C36.7342 96.5626 37.1238 96.4847 37.4354 96.4847C37.8249 96.4068 39.383 96.251 39.1493 96.9522C39.0714 97.1859 39.4609 97.4196 39.5388 97.1859C39.7725 96.6405 39.7725 96.0952 39.1493 95.9394Z" fill="black"/>
<path d="M40.6294 97.731C40.6294 97.6531 40.5515 97.6531 40.5515 97.5752C40.4736 97.4973 40.3956 97.4194 40.3177 97.4194C40.2398 97.4194 40.1619 97.4194 40.084 97.4194H40.0061C39.9282 97.4194 39.9282 97.4194 39.8503 97.3415C39.9282 97.2636 39.9282 97.2636 39.9282 97.1857C40.0061 97.1857 40.0061 97.1078 40.0061 97.0299V96.952C40.0061 96.8741 40.0061 96.8741 39.9282 96.8741C39.8503 96.7183 39.6945 96.5625 39.5387 96.4067C39.1492 96.0951 38.7597 96.173 38.2922 96.173C38.0585 96.173 38.0585 96.4066 38.2922 96.4846C38.3701 96.4846 38.3702 96.5625 38.4481 96.5625C38.526 96.6404 38.6818 96.5625 38.6818 96.5625C38.9155 96.5625 39.1492 96.5625 39.305 96.7183C39.2271 96.7183 39.2271 96.7183 39.1492 96.7183C38.7596 96.8741 38.448 97.1857 38.1364 97.4194C37.9027 97.4973 37.669 97.6531 37.4353 97.8089C37.2016 97.8868 37.0458 97.8868 36.812 97.9648C36.5783 98.0427 36.7342 98.2764 36.89 98.3543C36.9679 98.4322 37.0458 98.4322 37.1237 98.4322C37.2016 98.4322 37.2016 98.4322 37.2795 98.4322C37.7469 98.4322 38.2144 98.3543 38.6039 98.2764C39.1492 98.2764 39.8503 98.3543 40.3957 98.1206C40.4736 98.1206 40.4736 98.1206 40.5515 98.1206C40.6294 97.8869 40.6294 97.809 40.6294 97.731Z" fill="black"/>
<path d="M29.0994 86.7466C29.0215 86.6687 29.0215 86.6687 29.0994 86.7466C29.0215 86.6687 29.0215 86.6687 29.0994 86.7466C29.0994 86.6687 29.0215 86.5908 28.8657 86.5908C28.9436 86.5129 29.0215 86.5129 29.0215 86.435C29.0994 86.3571 28.8657 86.2013 28.7099 86.2013L28.7878 86.1234C28.8657 86.0454 28.4762 85.8896 28.4762 85.8896C28.4762 85.8896 28.4762 85.8896 28.3983 85.8896C28.3204 85.8896 28.3204 85.8896 28.3204 85.9675C27.9309 86.3571 27.3855 86.5908 26.996 86.8245C26.6844 86.9803 26.4507 87.1361 26.1391 87.2919C25.9054 87.3698 25.7495 87.3698 25.5158 87.5256C25.4379 87.6035 25.7495 87.7594 25.8275 87.7594C26.3728 87.8373 26.996 87.6035 27.5414 87.4477C27.853 87.3698 28.1646 87.214 28.5541 87.1361C28.7878 87.0582 29.0215 87.0582 29.1773 86.9803C29.1773 86.7466 29.0994 86.7466 29.0994 86.7466Z" fill="black"/>
<path d="M29.7228 89.3952C29.6449 89.3952 29.4891 89.3952 29.3333 89.3952C29.3333 89.3173 29.2554 89.2394 29.1775 89.1615C29.2554 89.0057 29.3333 88.8498 29.4112 88.694C29.4891 88.4603 29.0217 88.2266 28.9438 88.4603C28.788 89.0057 28.2426 89.551 27.7752 89.8626C27.3078 90.1742 26.7624 90.2521 26.295 90.5638C26.1392 90.7196 26.295 90.8754 26.4508 90.9533C27.0741 91.0312 27.6973 90.7196 28.3205 90.4859C28.788 90.3301 29.6449 90.0964 29.9565 89.7068C30.1123 89.551 29.8786 89.3952 29.7228 89.3952Z" fill="black"/>
<path d="M31.203 92.7452C31.203 92.6673 30.9693 92.5115 30.8914 92.5115H30.8135C30.7356 92.4336 30.6577 92.4336 30.6577 92.4336C30.5798 92.4336 30.4239 92.4336 30.346 92.4336C30.4239 92.3557 30.5018 92.2778 30.5797 92.2778C30.7355 92.2778 30.8914 92.1999 30.6577 92.0441C30.6577 92.0441 30.6576 92.044 30.5797 91.9661C30.5018 91.8882 30.346 91.8882 30.2681 91.9661C29.4891 92.5115 28.7879 92.8231 27.8531 93.0568C27.5415 93.1347 27.152 93.1347 26.9183 93.3684C26.7625 93.5242 27.152 93.68 27.2299 93.68C27.7752 93.6021 28.3205 93.5242 28.8659 93.4463C29.2554 93.3684 29.7228 93.2126 30.1123 93.0568C30.2681 93.0568 30.4239 93.0568 30.5797 92.9789C30.8134 93.1347 31.0472 93.1347 31.3588 93.1347C31.5925 93.1347 31.4367 92.8231 31.203 92.7452Z" fill="black"/>
<path d="M165.432 90.486C164.887 90.3302 164.342 90.3302 163.718 90.4081C163.563 90.4081 163.407 90.4081 163.329 90.4081C163.017 90.4081 160.524 90.0965 160.758 89.9407C160.992 89.707 160.524 89.5512 160.368 89.707C160.291 89.7849 160.291 89.7849 160.213 89.8628C160.135 89.9407 160.135 90.0186 160.213 90.0965C160.368 90.2523 160.446 90.3302 160.602 90.486C160.524 90.486 160.446 90.486 160.291 90.486C160.213 90.486 160.135 90.5639 160.135 90.5639C160.057 90.5639 160.057 90.5639 159.979 90.5639C159.823 90.5639 159.745 90.7197 159.745 90.7976C159.667 90.7976 159.667 90.7976 159.589 90.7976C159.512 90.7976 159.434 90.8756 159.434 90.9535C159.278 91.0314 159.122 91.0314 158.966 91.1093C158.732 91.2651 158.888 91.4988 159.122 91.4988C159.589 91.4209 160.291 91.4209 160.68 91.1872C160.758 91.1872 160.758 91.1093 160.758 91.1093C161.225 91.0314 161.615 91.0313 162.082 91.0313C162.472 91.0313 162.861 90.9535 163.329 90.8756C163.952 90.8756 164.653 90.8756 165.276 90.8756C165.588 90.8756 165.666 90.564 165.432 90.486Z" fill="black"/>
<path d="M165.043 87.993C163.796 88.0709 162.55 87.9151 161.303 87.6814C161.07 87.6814 160.836 87.8372 161.148 87.8372C161.927 87.993 162.783 88.0709 163.563 88.1489C163.407 88.1489 163.251 88.2267 163.095 88.2267C163.095 88.2267 163.095 88.2267 163.017 88.2267C163.017 88.1488 162.706 88.1489 162.628 88.1489H162.55C162.55 88.1489 162.472 88.0709 162.394 88.0709C162.238 88.0709 161.927 88.0709 161.693 88.0709H161.615C161.459 88.0709 161.381 88.1489 161.381 88.1489C161.303 88.1489 161.225 88.2267 161.148 88.3046C161.07 88.3825 161.225 88.3826 161.303 88.3826C160.836 88.4605 160.368 88.5383 160.135 88.85C160.135 88.9279 160.135 88.9279 160.213 88.9279C160.836 89.1616 161.537 88.85 162.082 88.6163C162.16 88.6163 162.082 88.5384 162.082 88.5384C162.16 88.5384 162.316 88.4604 162.394 88.4604C162.783 88.4604 163.173 88.3825 163.485 88.3046C163.952 88.2267 164.497 88.1489 164.965 88.1489C165.51 88.0709 165.199 87.993 165.043 87.993Z" fill="black"/>
<path d="M163.329 88.0709C162.939 87.915 162.55 87.915 162.16 87.915C162.082 87.915 162.004 87.9151 162.004 87.993H161.926C161.615 87.993 161.771 88.3046 162.004 88.3046H162.394C162.55 88.3046 162.706 88.3046 162.861 88.3046C162.939 88.3046 162.939 88.3046 162.939 88.3046C163.017 88.3046 163.095 88.3046 163.173 88.3825C163.251 88.3825 163.407 88.4604 163.485 88.3046C163.485 88.1488 163.407 88.0709 163.329 88.0709Z" fill="black"/>
<path d="M162.394 93.6022C161.848 93.6022 161.303 93.4464 160.758 93.3685C160.368 93.2127 160.056 93.0569 159.589 93.0569C159.511 93.0569 159.511 93.0569 159.511 93.0569C159.355 93.0569 159.277 92.979 159.122 92.979C159.122 92.8232 159.2 92.5895 159.355 92.3558C159.511 92.122 159.745 91.7325 159.979 91.6546C160.212 91.5767 160.056 91.1093 159.823 91.1872C159.277 91.343 158.654 92.1999 158.576 92.979C158.498 92.979 158.498 92.979 158.42 92.979C158.187 92.979 158.187 93.2906 158.343 93.4464C158.343 93.5243 158.343 93.6801 158.42 93.6801C158.42 93.6801 158.498 93.6801 158.498 93.758C158.031 93.8359 157.641 93.9138 157.174 94.0697C157.018 94.1476 157.018 94.3034 157.096 94.4592C156.784 94.5371 156.551 94.615 156.239 94.7708C156.005 94.8487 156.161 95.3161 156.395 95.2382C157.408 94.9266 158.576 94.615 159.745 94.4592C160.602 94.615 161.692 94.615 162.238 94.3034C162.316 94.3034 162.316 94.2255 162.316 94.2255C162.705 94.0697 162.627 93.6022 162.394 93.6022Z" fill="black"/>
<path d="M159.979 95.238C159.511 95.238 158.966 95.238 158.498 95.3159C158.343 95.3159 158.265 95.3159 158.109 95.3159C157.953 95.3159 156.863 95.0043 156.707 95.0822C156.863 94.8485 156.395 94.6148 156.239 94.8485L156.161 94.9264C156.161 95.0043 156.161 95.0043 156.161 95.0822C155.928 95.0822 155.772 95.0822 155.538 95.1602C155.382 95.1602 155.304 95.316 155.304 95.3939C154.915 95.4718 154.447 95.5497 154.136 95.5497C153.824 95.5497 153.902 96.0171 154.214 96.0171C155.071 95.9392 156.006 95.9392 156.863 95.8613C157.252 95.8613 157.642 95.7834 158.031 95.7834C158.732 95.8613 159.433 95.7833 159.979 95.7054H160.057C160.368 95.6275 160.212 95.238 159.979 95.238Z" fill="black"/>
<path d="M157.875 96.7183C157.252 96.4846 156.551 96.7183 155.928 96.7183C155.071 96.7183 154.214 96.7183 153.357 96.7962C152.967 96.7183 152.5 96.6404 152.11 96.4846C151.799 96.3288 151.721 96.7183 152.033 96.8741C152.033 96.8741 152.11 96.8741 152.11 96.952C152.033 96.8741 152.033 96.8741 151.955 96.8741C151.565 96.8741 151.098 96.8741 150.708 96.8741C150.63 96.8741 150.552 96.952 150.552 96.952C150.474 96.952 150.397 96.952 150.241 96.952C149.929 96.952 149.384 96.8741 149.15 97.0299C148.994 97.1857 149.15 97.4194 149.384 97.4194C149.773 97.4194 150.163 97.3416 150.63 97.3416C150.708 97.3416 150.708 97.3416 150.786 97.3416C151.643 97.3416 152.5 97.2636 153.357 97.2636C153.435 97.2636 153.513 97.2636 153.591 97.2636C153.98 97.3415 154.37 97.3416 154.759 97.3416C155.772 97.3416 157.096 97.4973 158.109 97.2636C158.265 97.1078 158.031 96.7962 157.875 96.7183Z" fill="black"/>
<path d="M164.185 89.0838C163.017 89.1617 161.459 89.4733 160.368 88.7722C160.056 88.6164 160.056 88.928 160.29 89.0838C161.459 89.8628 163.095 89.6291 164.419 89.4733C164.653 89.4733 164.419 89.0838 164.185 89.0838Z" fill="black"/>
<path d="M164.497 92.1219C163.173 92.1219 161.77 92.1998 160.446 91.9661V91.8882C160.368 91.8882 160.29 91.8882 160.212 91.8103C159.979 91.7324 159.745 91.7324 159.511 91.6545C159.433 91.6545 159.044 91.8882 159.2 91.9661C159.2 91.9661 159.2 91.9661 159.277 91.9661C159.277 91.9661 159.277 91.9662 159.277 92.0441C159.277 92.0441 159.355 92.0441 159.433 92.0441H159.511C161.069 92.5115 162.705 92.4336 164.341 92.3557C164.341 92.4336 164.731 92.1219 164.497 92.1219Z" fill="black"/>
<path d="M161.069 91.8882C160.446 91.8882 159.745 91.9661 159.122 91.9661C158.81 91.9661 158.888 92.3556 159.2 92.3556C159.823 92.3556 160.524 92.2777 161.147 92.2777C161.459 92.3556 161.381 91.8882 161.069 91.8882Z" fill="black"/>
<path d="M163.329 92.1998C162.004 92.1219 160.68 91.9661 159.355 91.8882C159.355 91.8882 159.589 92.1998 159.667 92.1998C160.991 92.2777 162.316 92.4335 163.64 92.5114C163.64 92.5114 163.484 92.1998 163.329 92.1998Z" fill="black"/>
<path d="M163.874 92.0441C163.173 92.0441 162.472 92.044 161.693 91.9661C161.069 91.8882 160.446 91.7324 159.823 91.7324C159.667 91.7324 159.355 92.0441 159.511 92.0441C160.134 92.0441 160.758 92.1999 161.381 92.2778C162.082 92.3557 162.783 92.3556 163.562 92.3556C163.64 92.3556 164.03 92.0441 163.874 92.0441Z" fill="black"/>
<path d="M30.8137 93.7579C30.7358 94.0695 29.9568 94.2253 29.7231 94.3032C29.4115 94.3811 29.0998 94.459 28.7882 94.5369C28.4766 94.6148 28.5545 94.7706 28.8661 94.7706C29.4115 94.6148 29.9568 94.5369 30.5021 94.3032C30.7358 94.2253 31.2032 94.0695 31.2812 93.7579C31.3591 93.5241 30.8916 93.602 30.8137 93.7579Z" fill="black"/>
<path d="M31.9821 93.9138C31.6705 93.9138 31.3588 93.9918 31.0472 93.9918C30.7356 93.9918 30.424 94.0696 30.0345 94.1475C29.7229 94.2254 30.1124 94.5371 30.2682 94.4592C30.5798 94.3813 30.8135 94.3033 31.1251 94.3033C31.3588 94.3033 31.6704 94.2255 31.9041 94.2255C32.2937 94.3034 32.2158 93.9138 31.9821 93.9138Z" fill="black"/>
<path d="M31.5146 93.9918C31.4367 93.9918 31.3587 93.9918 31.3587 93.9918C31.2808 93.9138 31.2809 93.9138 31.203 93.9138C31.0472 93.9138 30.8914 93.9918 30.8134 93.9918C30.8134 93.9918 30.8913 93.9917 30.8913 94.0696C30.6576 94.0696 30.4239 94.1475 30.1902 94.1475C29.9565 94.1475 29.6448 94.2254 29.4111 94.4592C29.4111 94.4592 29.8007 94.7708 29.8007 94.6929C29.9565 94.4591 30.346 94.4592 30.5797 94.3813C31.0471 94.3034 31.4367 94.3034 31.9041 94.2255C31.9041 94.2255 31.6704 93.9918 31.5146 93.9918Z" fill="black"/>
<path d="M174.157 92.9789C175.092 93.1347 176.105 93.2126 177.04 93.3684C177.196 93.3684 177.429 93.1347 177.507 93.1347C176.65 92.9789 175.715 92.901 174.859 92.7452C174.391 92.6673 173.846 92.4336 173.3 92.3557C172.755 92.122 172.132 91.8104 171.587 91.5767C171.509 91.5767 171.119 91.7325 171.119 91.8104C171.353 92.1999 171.82 92.4336 172.132 92.8232C172.444 93.2127 172.599 93.8359 172.989 94.1475C173.067 94.2254 173.456 93.9138 173.456 93.9917C173.145 93.758 172.989 93.3684 172.755 92.9789C173.067 93.0568 173.3 93.2127 173.534 93.2906C173.612 93.2906 174.002 93.1348 174.002 93.0569C173.924 92.979 173.846 92.901 173.69 92.901C173.924 92.9789 174.002 92.9789 174.157 92.9789Z" fill="black"/>
<path d="M182.96 92.5896C182.649 92.3559 182.337 92.278 181.948 92.1222C181.636 91.9664 181.324 91.8885 181.013 91.8885C180.857 91.8106 180.701 91.8106 180.545 91.7327C180.234 91.4989 179.844 91.421 179.455 91.1873C179.221 91.0315 179.299 91.3431 179.377 91.421L179.455 91.4989C179.766 91.7327 180.078 91.8885 180.39 92.0443C180.545 92.1222 180.779 92.278 180.935 92.5117C181.091 92.6675 181.169 92.7454 181.324 92.8233C181.558 92.9012 181.402 92.5896 181.246 92.5117C181.324 92.5896 181.48 92.5896 181.558 92.5896C181.792 92.6675 181.948 92.8233 182.103 92.9791C182.337 93.2128 182.337 92.9012 182.181 92.7454C182.181 92.7454 182.181 92.7454 182.103 92.7454C182.181 92.7454 182.259 92.7454 182.415 92.7454C182.493 92.8233 182.649 92.8233 182.727 92.9012C183.272 92.9791 183.038 92.6675 182.96 92.5896Z" fill="black"/>
<path d="M179.065 100.769C178.909 100.458 178.598 100.224 178.286 100.146C178.364 100.146 178.442 100.068 178.52 100.068C178.754 99.9903 178.832 99.6786 178.52 99.7565C177.975 99.9123 177.429 100.068 176.806 100.146C176.494 100.146 176.183 100.146 175.871 100.146C175.482 100.068 175.092 99.9903 174.625 99.9124C174.469 99.9124 174.079 100.146 174.313 100.224C174.703 100.38 175.092 100.458 175.482 100.458C175.949 100.536 176.494 100.691 176.962 100.769C177.507 100.847 178.208 101.159 178.832 101.081C178.91 101.003 179.143 100.847 179.065 100.769Z" fill="black"/>
<path d="M80.6722 76.3854C80.6722 76.3854 80.4385 75.9958 80.3606 75.9958C79.7373 75.84 79.0362 76.1517 78.413 76.3075C78.0234 76.3854 77.7118 76.4633 77.3223 76.4633C76.8548 76.4633 76.4654 76.4633 75.9979 76.5412C75.7642 76.5412 75.6084 76.5412 75.3747 76.5412C74.284 76.5412 73.1934 76.4633 72.1027 76.5412C71.7132 76.6191 70.3109 76.6191 70.0772 76.8528C70.0772 76.9307 70.1551 77.0086 70.3109 77.1644C70.0772 77.1644 69.9214 77.2423 69.6877 77.2423C68.0517 77.5539 66.3378 77.5539 64.7018 77.7876C62.91 78.0213 61.0403 78.4109 59.2485 78.7225C59.2485 78.7225 59.4822 79.112 59.5601 79.112C61.3519 78.8004 63.2216 78.4109 65.0134 78.1771C66.6494 77.9434 68.3633 77.9435 69.9993 77.6318C71.7911 77.2423 73.505 77.0865 75.3747 76.9307C75.6084 76.9307 75.7642 76.9307 75.9979 76.8528C76.6212 76.8528 77.2444 76.9307 77.8676 76.7749C77.9455 76.7749 78.0234 76.7749 78.1013 76.697C79.0362 76.8528 79.8932 76.697 80.6722 76.3854Z" fill="black"/>
<path d="M162.705 76.7747L162.628 76.6968C162.472 75.6062 161.303 75.0608 160.213 74.7492C160.135 74.6713 159.979 74.5934 159.901 74.5155C159.589 74.3597 159.2 74.2818 158.81 74.126C158.265 73.8923 157.642 73.6586 157.018 73.347C156.239 72.9574 155.382 72.7237 154.526 72.49C153.435 72.2563 152.344 71.711 151.254 71.6331C151.254 71.6331 151.02 71.633 151.176 71.7109C151.643 72.1005 152.422 72.1784 152.967 72.4121C154.058 72.8016 155.149 73.269 156.317 73.6585C156.863 73.8923 157.486 74.0481 158.031 74.2818C158.577 74.5155 159.2 74.7492 159.745 75.1387C160.68 75.6841 161.537 76.3073 162.472 76.8526C162.394 76.8526 162.783 76.9305 162.705 76.7747ZM155.85 73.1911C156.551 73.4249 157.33 73.7365 158.031 74.0481C157.875 74.0481 157.72 73.9702 157.642 73.9702C157.33 73.8144 157.018 73.7365 156.707 73.5807C156.317 73.4249 156.084 73.347 155.694 73.347C155.694 73.347 155.694 73.347 155.616 73.347C154.993 73.1132 154.448 72.8795 153.824 72.6458C154.525 72.8016 155.227 72.9574 155.85 73.1911ZM159.511 74.8271H159.589C159.745 74.905 159.901 74.9829 160.135 75.0608C160.524 75.2945 160.914 75.5282 161.303 75.8399C160.992 75.6061 160.602 75.4503 160.368 75.2166C160.29 75.2166 160.213 75.1387 160.135 75.1387C159.901 74.9829 159.745 74.905 159.511 74.8271Z" fill="black"/>
<path d="M40.7076 74.126C40.0064 74.126 39.3832 74.4376 38.76 74.6713C38.6041 74.7492 38.3705 74.8271 38.2147 74.905C37.6693 74.9829 37.0461 75.1387 36.5786 75.2945C35.3322 75.762 33.7741 75.9178 32.6834 76.541C31.6707 76.8526 30.6579 77.2421 29.8789 77.8654C29.8789 77.8654 30.2684 78.0991 30.3463 78.0212C31.0475 77.4759 31.9044 77.0863 32.8393 76.7747C33.6962 76.9305 34.5531 76.4631 35.4101 76.2294C36.8903 75.7619 38.2146 75.3724 39.6948 74.9829C39.6948 74.9829 39.539 74.905 39.3832 74.8271C40.0065 74.7492 40.6297 74.5934 41.175 74.2817C41.0971 74.2817 40.7076 74.126 40.7076 74.126Z" fill="black"/>
<path d="M47.9526 70.3091V69.8417L50.8351 69.3742V69.8417L49.9781 70.2312L52.0815 72.802L53.0943 69.7637L52.0036 69.6858V69.2184L54.5745 68.751V69.2184L53.8733 69.53L52.4711 73.3473L52.8606 75.7624H53.7955V76.2298L50.913 76.6972V76.2298L51.692 75.8402L51.3025 73.6589L48.6537 70.4649L47.9526 70.3091Z" fill="black"/>
<path d="M60.3395 75.4507C59.7163 75.5286 59.0931 75.4507 58.5478 75.217C58.0024 74.9833 57.535 74.5938 57.2234 74.0485C56.8339 73.5031 56.6781 72.8799 56.5223 72.1788C56.4444 71.4777 56.5222 70.7765 56.678 70.1533C56.9118 69.53 57.3013 69.0626 57.7687 68.6731C58.314 68.2836 58.9373 68.0498 59.7163 67.9719C60.4175 67.894 61.0407 67.972 61.586 68.2836C62.1314 68.5952 62.5988 68.9847 62.9104 69.53C63.222 70.0754 63.4557 70.6986 63.5336 71.3997C63.6116 72.1009 63.5336 72.7241 63.2999 73.3474C63.0662 73.9706 62.6767 74.438 62.2093 74.9054C61.7418 75.0612 61.1186 75.2949 60.3395 75.4507ZM59.5605 68.4393C58.0803 68.5952 57.535 69.6858 57.7687 71.6335C57.8466 72.2567 58.0024 72.802 58.2361 73.2694C58.4698 73.7368 58.7815 74.1264 59.171 74.438C59.5605 74.7496 60.0279 74.8275 60.5732 74.7496C61.3523 74.6717 61.8976 74.2822 62.1313 73.7369C62.365 73.1915 62.443 72.4904 62.3651 71.6335C62.2872 71.0881 62.1313 70.5428 61.8976 69.9974C61.6639 69.4521 61.3523 69.0626 60.9628 68.8289C60.5732 68.5173 60.1058 68.3614 59.5605 68.4393Z" fill="black"/>
<path d="M65.4031 68.0497L64.3125 67.894V67.4265L67.4287 67.1149V67.5823L66.4938 67.894L66.8054 71.4775C66.8833 72.2566 67.117 72.8798 67.5066 73.1914C67.8961 73.5031 68.4414 73.6588 69.0646 73.6588C69.6879 73.5809 70.0774 73.3473 70.389 72.9577C70.7006 72.5682 70.7785 72.0229 70.7006 71.2438L70.389 67.5044L69.2983 67.3486V66.8812L72.1029 66.6475V67.1149L71.1681 67.4265L71.4796 71.0101C71.5576 72.1008 71.4018 72.8798 71.0122 73.4251C70.6227 73.9705 69.9216 74.2821 68.9088 74.4379C68.0519 74.5158 67.3507 74.36 66.8054 74.0484C66.2601 73.6588 65.8706 72.9577 65.7927 71.8671L65.4031 68.0497Z" fill="black"/>
<path d="M76.777 73.6589L73.5829 73.8926V73.4252L74.5177 73.1136L74.2061 67.4266L73.1934 67.3487V66.8812C73.7387 66.7254 74.2061 66.6475 74.5956 66.5696C74.9851 66.4917 75.4526 66.4138 75.8421 66.4138C76.777 66.3359 77.4781 66.4917 78.0234 66.7255C78.5688 66.9592 78.8025 67.4266 78.8804 68.0498C78.8804 68.2835 78.8804 68.5951 78.7246 68.8288C78.6467 69.0625 78.413 69.3742 78.1792 69.6079C77.9455 69.8416 77.6339 69.9974 77.3223 70.1532L78.4908 71.5555C78.8025 71.945 79.0362 72.1787 79.192 72.3345C79.3478 72.4903 79.5036 72.6461 79.6594 72.724C79.8152 72.8019 80.049 72.9578 80.2827 72.9578L80.5164 73.0357L80.4384 73.4252C80.2047 73.5031 79.971 73.581 79.7373 73.581C79.2699 73.581 78.8804 73.5031 78.5688 73.1915C78.1792 72.9578 77.8676 72.5682 77.556 72.1008L76.5432 70.5427L75.5305 70.6207L75.6863 73.0357L76.777 73.1915V73.6589ZM75.2968 66.9592L75.4526 70.0753L76.6212 69.9974C76.9328 69.8416 77.1665 69.6858 77.4002 69.3742C77.6339 69.1405 77.7118 68.7509 77.7118 68.3614C77.7118 68.0498 77.6339 67.7382 77.4781 67.5045C77.3223 67.2708 77.1665 67.115 76.8549 66.9592C76.6212 66.8033 76.3096 66.8033 75.9979 66.8033C75.8421 66.8033 75.6863 66.8033 75.5305 66.8812C75.4526 66.9591 75.3747 66.9592 75.2968 66.9592Z" fill="black"/>
<path d="M83.2432 66.1021L89.7092 65.9463L89.5534 67.8939L89.008 67.816L88.7743 66.4916H86.9826L87.1384 72.5681L88.229 72.7239L88.1511 73.1914L85.035 73.2693V72.8018L86.0477 72.4902L85.8919 66.4916H84.178L83.8664 67.8939L83.321 67.816L83.2432 66.1021Z" fill="black"/>
<path d="M90.644 66.4137L90.7219 65.9463L96.4869 66.0242L96.2532 67.8939L95.7857 67.816L95.552 66.5695H92.8254V69.374H94.5393L94.773 68.6729L95.3183 68.595L95.0846 70.8542L94.6171 70.9321L94.4613 69.9194H92.9032V72.7239H95.7857L96.331 71.3996L96.7984 71.4775L96.6427 73.2693L90.7219 73.1914L90.7999 72.7239L91.8126 72.4902L91.8905 66.6474L90.644 66.4137Z" fill="black"/>
<path d="M97.1104 73.2693L97.1882 72.8018L97.9673 72.5681L100.227 69.7636L98.3568 66.7253L97.5778 66.4137L97.6557 65.9463L100.616 66.0242L100.538 66.4916L99.6033 66.7253L101.006 68.9066L102.642 66.8032L101.629 66.5695L101.707 66.1021L104.278 66.18L104.2 66.6474L103.421 66.8811L101.395 69.5299L103.265 72.7239L104.044 72.9577L103.966 73.4251L101.006 73.3472L101.083 72.9577L102.018 72.7239L100.538 70.3089L98.7463 72.646L99.6812 72.8797L99.6033 73.3472L97.1104 73.2693Z" fill="black"/>
<path d="M105.29 66.2578L111.756 66.6473L111.444 68.5949L110.899 68.4391L110.743 67.1148L108.952 67.0369L108.562 73.0355L109.653 73.2692L109.575 73.7366L106.459 73.5029L106.536 73.1134L107.549 72.8797L107.939 66.881L106.225 66.8032L105.835 68.2054L105.29 68.1275V66.2578Z" fill="black"/>
<path d="M115.028 67.4266L115.106 66.9592L118.222 67.2708L118.144 67.7383L117.132 67.8162L116.82 70.387L120.482 70.7765L120.715 68.2836L119.703 67.8941L119.78 67.4266L122.975 67.7383L122.819 68.2057L121.806 68.2836L121.183 74.2043L122.196 74.5159L122.118 74.9834L119.001 74.6717L119.079 74.2822L120.092 74.1264L120.404 71.3998L116.742 71.0103L116.431 73.7369L117.443 74.0485L117.288 74.5159L114.171 74.2043L114.249 73.8148L115.262 73.659L115.885 67.8162L115.028 67.4266Z" fill="black"/>
<path d="M123.987 68.4393L124.143 67.9719L129.908 68.8289L129.44 70.6207L128.973 70.4649L128.895 69.2184L126.168 68.8289L125.779 71.5555L127.415 71.7892L127.726 71.166H128.272L127.726 73.3473H127.259L127.181 72.3345L125.623 72.1008L125.234 74.9054L128.116 75.2949L128.895 74.0484L129.363 74.2043L128.895 75.996L123.052 75.1391L123.13 74.7496L124.143 74.5938L125 68.8289L123.987 68.4393Z" fill="black"/>
<path d="M132.946 76.6973L129.83 76.1519L129.986 75.7624L130.999 75.6845L132.011 70.0754L131.077 69.7638L131.232 69.2964C131.778 69.2964 132.245 69.2964 132.713 69.3743C133.102 69.3743 133.569 69.4522 133.959 69.5301C134.894 69.6859 135.595 69.9196 135.985 70.3091C136.452 70.6987 136.608 71.1661 136.53 71.7893C136.452 72.023 136.374 72.2567 136.218 72.4904C136.062 72.7242 135.829 72.9579 135.517 73.1137C135.205 73.2695 134.894 73.4253 134.504 73.4253L135.283 75.0613C135.517 75.4508 135.673 75.8403 135.751 75.9961C135.829 76.2298 135.984 76.3857 136.14 76.5415C136.296 76.6973 136.452 76.8531 136.686 76.931L136.841 77.0089L136.686 77.3984C136.452 77.3984 136.218 77.3984 135.985 77.3984C135.595 77.3205 135.205 77.0868 134.894 76.7752C134.582 76.4636 134.349 75.9961 134.193 75.4508L133.569 73.659L132.557 73.5032L132.167 75.8403L133.18 76.3078L132.946 76.6973ZM133.102 69.8417L132.557 72.88L133.725 73.1137C134.037 73.0358 134.349 72.9579 134.66 72.7241C134.894 72.4904 135.128 72.1788 135.128 71.8672C135.205 71.5556 135.205 71.244 135.05 71.0103C134.972 70.7766 134.816 70.5428 134.582 70.3091C134.349 70.1533 134.115 69.9975 133.725 69.9196C133.569 69.9196 133.414 69.8417 133.258 69.8417C133.18 69.8417 133.102 69.8417 133.102 69.8417Z" fill="black"/>
<path d="M138.711 70.8544L138.867 70.4648L144.554 71.6334L144.009 73.4252L143.541 73.2694V72.0229L140.892 71.4776L140.347 74.2042L141.983 74.5938L142.373 73.9705H142.918L142.217 76.1518H141.749V75.1391L140.191 74.8275L139.568 77.632L142.373 78.2553L143.23 77.0867L143.697 77.2425L143.152 78.9564L137.387 77.7099L137.543 77.3204L138.555 77.2425L139.802 71.4776L138.711 70.8544Z" fill="black"/>
<path d="M94.8508 56.9873C79.192 56.9873 66.4937 44.2888 66.4937 28.6301C66.4937 12.9714 79.192 0.272949 94.8508 0.272949C110.509 0.272949 123.208 12.9714 123.208 28.6301C123.208 44.2888 110.432 56.9873 94.8508 56.9873ZM94.8508 1.75315C80.049 1.75315 67.9738 13.8283 67.9738 28.6301C67.9738 43.4319 80.049 55.507 94.8508 55.507C109.653 55.507 121.728 43.4319 121.728 28.6301C121.728 13.8283 109.653 1.75315 94.8508 1.75315Z" fill="black"/>
<path d="M67.0391 29.487C66.5716 27.6952 65.1693 25.7476 62.8322 25.8255C60.4172 25.9034 58.3138 27.5394 59.0149 29.8765C59.6381 31.9799 61.8973 33.3043 64.0787 32.1357C64.1566 32.0578 64.2345 31.9799 64.3124 31.902C64.3124 31.8241 64.3903 31.8241 64.3903 31.7462C64.8577 30.8893 64.1566 29.7207 63.0659 29.3312C62.2869 29.0196 61.1962 28.8638 60.4172 29.1754C60.2614 28.5521 60.3393 27.7731 60.7288 27.3836C60.8846 27.2278 60.9625 27.1499 60.8846 26.9941C61.0404 26.9162 61.1183 26.9162 61.2741 26.8383C62.209 26.5266 63.2996 26.4487 64.2345 26.9161C66.26 28.0068 66.6495 30.7334 66.4158 32.6031C66.1042 35.0961 64.3124 37.2774 61.4299 37.6669C61.2741 37.6669 61.1183 37.6669 60.9625 37.7448H60.8846C59.3265 37.589 57.6905 37.1216 56.6778 36.0309C55.8208 35.0961 54.7302 33.6938 55.4313 32.6031C56.0545 31.5125 55.1197 31.9799 54.8081 32.2136C54.107 32.7589 53.9511 33.538 53.8732 34.317C53.0163 32.9927 52.0814 31.5125 50.3675 31.123C48.7316 30.7335 46.7839 30.7335 45.3817 31.7462C45.2258 31.902 45.148 32.1357 45.2259 32.2136C45.2259 32.3694 45.4596 32.4474 45.6933 32.4474C47.7188 32.4474 49.5106 33.3822 51.2245 34.317C53.0163 35.3298 54.6523 36.4984 56.522 37.3553C58.0801 38.1344 59.9498 38.6797 61.6637 38.3681C63.3775 38.0564 65.2472 37.0437 66.1821 35.6414C67.3507 33.8496 67.5844 31.5125 67.0391 29.487ZM63.2996 30.5776C63.2996 30.5776 63.3775 30.5776 63.2996 30.5776C63.3775 30.5776 63.3775 30.5776 63.2996 30.5776Z" fill="black"/>
<path d="M52.7047 41.3285C52.7047 41.3285 52.7047 41.3285 52.6268 41.4064C52.5489 41.4843 52.471 41.4843 52.3931 41.6401C52.1594 41.7959 51.9257 42.1854 51.692 42.6528C51.6141 42.8866 51.4582 43.1982 51.3803 43.5098C51.3024 43.8214 51.3025 44.2109 51.3025 44.5226C51.3804 44.9121 51.4582 45.3016 51.614 45.6132C51.7699 46.0027 52.0815 46.3143 52.3931 46.6259C53.0942 47.2492 54.0291 47.7166 55.0419 47.7166C55.5872 47.7166 56.1325 47.6387 56.5999 47.405C56.8336 47.3271 57.0674 47.1713 57.3011 47.0155C57.379 46.9376 57.5348 46.8597 57.6127 46.7818C57.6906 46.7039 57.8464 46.5481 57.9243 46.4702C58.7813 45.6132 59.3266 44.4446 59.3266 43.1982C59.3266 42.5749 59.2487 41.9517 59.0149 41.3285C58.937 41.1727 58.8591 41.0169 58.7812 40.8611C58.7033 40.7052 58.6254 40.5494 58.5475 40.3936C58.3917 40.082 58.158 39.8483 57.9243 39.6146C57.3011 38.9134 56.522 38.3681 55.743 38.0565C54.8861 37.7449 54.0291 37.5112 53.1721 37.5891C52.3152 37.5891 51.4583 37.8228 50.7571 38.1344C50.6013 38.2123 50.3676 38.2902 50.2118 38.3681C50.056 38.446 49.9002 38.6018 49.6664 38.6797C49.3548 38.9135 49.0432 39.1471 48.7316 39.3809C47.641 40.3936 46.8619 41.718 46.4724 42.8865C46.0829 44.0551 46.005 45.2237 46.0829 46.1585C46.2387 47.0155 46.5503 48.1062 47.2514 49.1968C47.9526 50.2875 48.8874 51.3781 50.2118 52.2351C51.5361 53.092 53.0942 53.7153 54.886 53.8711C56.6778 54.0269 58.5475 53.7932 60.2614 52.9362C60.4172 52.8583 60.573 52.7804 60.7288 52.7025C60.8847 52.6246 61.0405 52.5467 61.1963 52.4688C61.3521 52.3909 61.5079 52.313 61.6637 52.1572L61.8974 52.0013L62.1311 51.8455C62.6764 51.456 63.2218 50.9886 63.6892 50.5211C64.624 49.5863 65.3252 48.4957 65.7926 47.3271C66.26 46.1585 66.4938 44.99 66.6496 43.8993C66.8054 42.8086 66.8833 41.718 66.9612 40.7831C67.0391 38.8355 67.117 37.2775 67.117 36.1868C67.117 35.0961 67.1949 34.4729 67.1949 34.4729C67.1949 34.4729 67.2728 35.0961 67.2728 36.1868C67.3507 37.2775 67.4286 38.8355 67.5065 40.7831C67.5065 41.7959 67.5065 42.8087 67.4286 43.9772C67.3507 45.1458 67.117 46.3923 66.6496 47.6387C66.1822 48.8852 65.481 50.2096 64.4682 51.2223C64.0008 51.7676 63.3776 52.2351 62.7544 52.7025L62.5206 52.8583L62.2869 53.0141C62.1311 53.092 61.9753 53.2478 61.8195 53.3257C61.6637 53.4036 61.5079 53.5594 61.3521 53.6373C61.1963 53.7152 61.0405 53.7932 60.8068 53.8711C58.8592 54.8059 56.7558 55.1175 54.8081 54.8059C52.8605 54.5722 51.1466 53.7931 49.8223 52.7804C48.4979 51.7676 47.4851 50.5211 46.8619 49.3526C46.2387 48.184 45.927 47.0155 45.927 46.0806C45.7712 45.1458 45.7712 43.9772 46.0829 42.6528C46.3945 41.3285 47.0956 39.9262 48.2642 38.6797C48.5758 38.3681 48.8874 38.0565 49.2769 37.8228C49.4327 37.667 49.6664 37.5891 49.8223 37.4333C50.056 37.3553 50.2118 37.1996 50.4455 37.1217C51.3024 36.7321 52.2373 36.4205 53.2501 36.4205C54.2628 36.3426 55.2755 36.5763 56.2883 36.9658C57.3011 37.3554 58.158 37.9786 58.8592 38.8355C59.1708 39.1471 59.3266 39.4588 59.5603 39.7704C59.6382 39.9262 59.794 40.082 59.8719 40.3157C59.9498 40.4715 60.0277 40.7052 60.1056 40.8611C60.4172 41.6401 60.4952 42.4191 60.4173 43.1982C60.3394 43.9772 60.1835 44.6784 59.8719 45.3795C59.5603 46.0806 59.0928 46.626 58.6254 47.0934C58.4696 47.1713 58.3917 47.3271 58.2359 47.405C58.0801 47.4829 57.9243 47.6387 57.8464 47.7166C57.5348 47.8724 57.2232 48.0282 56.9116 48.184C56.2883 48.4177 55.5872 48.4957 54.964 48.4957C53.7175 48.4178 52.6268 47.8724 51.9257 47.0934C51.8478 47.0155 51.7699 46.8597 51.692 46.7818C51.6141 46.7039 51.5362 46.5481 51.4583 46.4702C51.3804 46.3923 51.3025 46.2364 51.3025 46.1585C51.2246 46.0806 51.2245 45.9248 51.1466 45.8469C50.9908 45.3795 50.9129 44.99 50.835 44.6004C50.835 43.7435 51.0687 43.1203 51.3803 42.6528C51.692 42.1854 52.0036 41.8738 52.2373 41.718C52.3152 41.6401 52.471 41.5622 52.471 41.5622C52.7047 41.3285 52.7047 41.3285 52.7047 41.3285Z" fill="black"/>
<path d="M41.5644 52.2351C41.5644 52.2351 41.6424 52.2351 41.7203 52.1572C41.8761 52.0793 42.0318 52.0793 42.2656 52.0014C42.4993 52.0014 42.8888 52.0014 43.2004 52.1572C43.3562 52.2351 43.5121 52.3909 43.6679 52.5467C43.8237 52.7025 43.9795 52.9362 44.0574 53.1699C44.2132 53.6374 44.2132 54.2606 43.9795 54.8059C43.7457 55.3512 43.2004 55.8187 42.6551 56.0524C42.0318 56.364 41.4086 56.4419 40.7075 56.4419C40.3959 56.4419 40.0064 56.4419 39.6168 56.364C39.2273 56.2861 38.9157 56.1303 38.5262 55.9745C38.0587 55.7408 37.6692 55.2734 37.4355 54.8838C37.2018 54.4164 37.046 53.949 37.046 53.4816C36.9681 52.5467 37.2018 51.6898 37.6692 50.9886C38.0588 50.2875 38.6041 49.8201 39.0715 49.4306C39.6168 49.1189 40.0842 48.8852 40.4738 48.7294C40.8633 48.5736 41.3307 48.3399 41.954 48.262C42.5772 48.1841 43.3563 48.262 44.0574 48.5736C44.7585 48.8852 45.3818 49.5084 46.005 50.1317C46.5503 50.7549 47.0956 51.4561 47.7189 52.1572C48.5758 53.17 49.5107 53.949 50.5234 54.4943C51.5362 55.0397 52.471 55.3513 53.328 55.4292C53.4059 55.4292 53.5617 55.4292 53.6396 55.5071C53.7175 55.5071 53.8733 55.5071 53.9512 55.5071C54.1849 55.5071 54.3407 55.585 54.4965 55.585C54.8081 55.585 55.1198 55.6629 55.4314 55.585C55.8988 55.585 56.2104 55.585 56.2104 55.585C56.2104 55.585 55.8988 55.6629 55.4314 55.7408C55.1977 55.8187 54.8861 55.8187 54.4965 55.8187C54.3407 55.8187 54.107 55.8187 53.9512 55.8187C53.8733 55.8187 53.7175 55.8187 53.6396 55.8187C53.5617 55.8187 53.4059 55.8187 53.328 55.8187C52.3931 55.7408 51.3025 55.585 50.2118 55.0397C49.6665 54.806 49.1212 54.4164 48.5758 54.0269C48.0305 53.6374 47.5631 53.092 47.0956 52.6246C46.4724 51.9235 45.9271 51.2223 45.4597 50.5212C45.2259 50.2096 44.9143 49.898 44.6806 49.6643C44.4469 49.4305 44.1353 49.1968 43.8236 49.041C43.2783 48.7294 42.5772 48.5736 42.0319 48.5736C41.4865 48.5736 40.9412 48.7294 40.5517 48.8073C40.1622 48.9631 39.7726 49.2748 39.3052 49.5864C38.8378 49.9759 38.4483 50.4433 38.1366 51.0665C37.825 51.6898 37.6692 52.4688 37.7471 53.1699C37.825 53.949 38.2145 54.6501 38.9157 55.0397C39.1494 55.1955 39.461 55.2733 39.6947 55.3513C40.0063 55.4292 40.2401 55.4292 40.5517 55.4292C41.1749 55.4292 41.7202 55.3512 42.1877 55.1954C42.6551 55.0396 43.1225 54.728 43.2784 54.3385C43.5121 53.949 43.5899 53.4816 43.4341 53.0921C43.3562 52.9363 43.2783 52.7025 43.2004 52.6246C43.1225 52.4688 42.9667 52.3909 42.8109 52.313C42.4993 52.1572 42.2656 52.0793 42.0319 52.0793C41.7981 52.0793 41.5644 52.0793 41.4865 52.1572C41.6423 52.2351 41.5644 52.2351 41.5644 52.2351Z" fill="black"/>
<path d="M41.0972 52.7803C41.0972 53.3256 41.5646 53.7152 42.032 53.7152C42.5774 53.7152 42.9669 53.2477 42.9669 52.7803C42.9669 52.235 42.4995 51.8455 42.032 51.8455C41.4867 51.8455 41.0972 52.235 41.0972 52.7803Z" fill="black"/>
<path d="M67.5842 49.1967C67.5842 49.1967 67.6621 49.1967 67.74 49.1188C67.8958 49.0409 68.0516 49.0409 68.2853 48.963C68.519 48.963 68.9086 48.963 69.2202 49.1188C69.376 49.1967 69.5318 49.3525 69.6876 49.5083C69.8434 49.6641 69.9992 49.8978 70.0771 50.1316C70.2329 50.599 70.2329 51.2222 69.9992 51.7676C69.7655 52.3129 69.2202 52.7803 68.597 53.014C67.9737 53.2477 67.3505 53.4035 66.6494 53.4035C66.3377 53.4035 65.9482 53.4036 65.5587 53.3257C65.1692 53.2477 64.8575 53.0919 64.5459 52.9361C64.0785 52.6245 63.689 52.235 63.4552 51.8455C63.2215 51.378 63.0657 50.9106 63.0657 50.4432C62.9878 49.5083 63.2994 48.6514 63.689 47.9502C64.0785 47.2491 64.6238 46.7817 65.1692 46.4701C65.7145 46.1585 66.1819 45.9247 66.5714 45.8468C66.9609 45.691 67.4284 45.4573 68.0516 45.3794C68.6749 45.3015 69.4539 45.3794 70.155 45.691C70.8562 46.0806 71.4794 46.6259 72.0247 47.327C72.57 47.9503 73.1154 48.7293 73.6607 49.3525C74.5177 50.3653 75.4525 51.2222 76.3874 51.7676C77.4001 52.3129 78.335 52.6245 79.1919 52.7803C79.2698 52.7803 79.4256 52.8582 79.5035 52.8582C79.5815 52.8582 79.7372 52.8582 79.8151 52.8582C80.0488 52.8582 80.2047 52.9361 80.3605 52.9361C80.6721 52.9361 80.9837 53.014 81.2953 53.014C81.7628 53.014 82.0744 53.014 82.0744 53.014C82.0744 53.014 81.7628 53.0919 81.2953 53.1698C81.0616 53.2477 80.75 53.2477 80.3605 53.2477C80.2047 53.2477 79.9709 53.2477 79.8151 53.2477C79.7372 53.2477 79.5815 53.2477 79.5035 53.2477C79.4256 53.2477 79.2698 53.2477 79.1919 53.2477C78.2571 53.1698 77.1664 53.014 76.0757 52.4687C75.5304 52.235 74.9851 51.8455 74.4398 51.4559C73.8944 51.0664 73.427 50.5211 73.0375 49.9758C72.4142 49.2746 71.9468 48.4956 71.4015 47.8724C71.1678 47.5607 70.8562 47.2491 70.6224 47.0154C70.3887 46.7038 70.0771 46.548 69.7655 46.3143C69.2202 45.9248 68.5969 45.8468 67.9737 45.8468C67.4284 45.8468 66.8831 46.0027 66.4935 46.0806C66.104 46.2364 65.7145 46.4701 65.247 46.8596C64.7796 47.2491 64.3901 47.7165 64.0785 48.3398C63.7669 48.963 63.611 49.6641 63.689 50.4432C63.7669 51.2222 64.1564 51.9234 64.8575 52.3129C65.0912 52.4687 65.4028 52.5466 65.6366 52.6245C65.9482 52.7024 66.1819 52.7024 66.4935 52.7024C67.1168 52.7024 67.6621 52.6245 68.2074 52.4687C68.6749 52.3129 69.1423 52.0013 69.376 51.6118C69.6097 51.2222 69.6876 50.7548 69.6097 50.4432C69.5318 50.2874 69.4539 50.0537 69.376 49.8978C69.2981 49.742 69.1423 49.6641 68.9865 49.5083C68.7528 49.3525 68.4411 49.2746 68.2074 49.2746C67.9737 49.2746 67.74 49.2746 67.6621 49.2746C67.6621 49.1967 67.5842 49.1967 67.5842 49.1967Z" fill="black"/>
<path d="M67.1167 49.6641C67.1167 50.2094 67.5062 50.599 68.0516 50.599C68.5969 50.599 68.9864 50.2094 68.9864 49.6641C68.9864 49.1188 68.5969 48.7292 68.0516 48.7292C67.5062 48.7292 67.1167 49.1967 67.1167 49.6641Z" fill="black"/>
<path d="M123.52 35.6414C124.455 37.0437 126.325 38.0564 128.039 38.3681C129.83 38.6797 131.622 38.1344 133.18 37.3553C135.05 36.4984 136.686 35.3298 138.478 34.317C140.114 33.3822 141.984 32.4474 144.009 32.4474C144.243 32.4474 144.476 32.3694 144.476 32.2136C144.554 32.0578 144.476 31.8241 144.321 31.7462C142.996 30.7335 140.971 30.7335 139.335 31.123C137.621 31.5904 136.686 32.9927 135.829 34.317C135.751 33.538 135.595 32.7589 134.894 32.2136C134.583 31.9799 133.648 31.5125 134.271 32.6031C134.972 33.6938 133.959 35.0961 133.024 36.0309C132.012 37.1216 130.298 37.589 128.818 37.7448C128.74 37.7448 128.74 37.7448 128.74 37.7448C128.584 37.7448 128.428 37.7448 128.272 37.6669C125.39 37.2774 123.598 35.0182 123.286 32.6031C123.053 30.6555 123.442 28.0068 125.468 26.9161C126.403 26.4487 127.493 26.5266 128.428 26.8383C128.584 26.9162 128.662 26.9162 128.818 26.9941C128.818 27.1499 128.818 27.2278 128.974 27.3836C129.363 27.7731 129.519 28.5521 129.285 29.1754C128.506 28.8638 127.415 29.0196 126.636 29.3312C125.546 29.7986 124.845 30.8893 125.312 31.7462C125.312 31.8241 125.39 31.902 125.39 31.902C125.39 31.9799 125.468 32.1357 125.624 32.1357C127.805 33.3043 130.064 31.9799 130.687 29.8765C131.389 27.5394 129.285 25.9034 126.87 25.8255C124.533 25.7476 123.209 27.6952 122.663 29.487C122.118 31.5125 122.352 33.8496 123.52 35.6414Z" fill="black"/>
<path d="M136.997 41.3285C136.997 41.3285 136.997 41.3285 137.075 41.4064C137.152 41.4843 137.23 41.4843 137.308 41.6401C137.542 41.7959 137.776 42.1854 138.009 42.6528C138.087 42.8866 138.243 43.1982 138.321 43.5098C138.399 43.8214 138.399 44.2109 138.399 44.5226C138.321 44.9121 138.243 45.3016 138.087 45.6132C137.931 46.0027 137.62 46.3143 137.308 46.6259C136.607 47.2492 135.672 47.7166 134.659 47.7166C134.114 47.7166 133.569 47.6387 133.101 47.405C132.868 47.3271 132.634 47.1713 132.4 47.0155C132.322 46.9376 132.167 46.8597 132.089 46.7818C132.011 46.7039 131.855 46.5481 131.777 46.4702C130.92 45.6132 130.375 44.4446 130.375 43.1982C130.375 42.5749 130.453 41.9517 130.686 41.3285C130.764 41.1727 130.842 41.0169 130.92 40.8611C130.998 40.7052 131.076 40.5494 131.154 40.3936C131.31 40.082 131.543 39.8483 131.777 39.6146C132.4 38.9134 133.179 38.3681 133.958 38.0565C134.815 37.7449 135.672 37.5112 136.529 37.5891C137.386 37.5891 138.243 37.8228 138.944 38.1344C139.1 38.2123 139.334 38.2902 139.49 38.3681C139.645 38.446 139.801 38.6018 140.035 38.6797C140.346 38.9135 140.658 39.1471 140.97 39.3809C142.06 40.3936 142.839 41.718 143.229 42.8865C143.618 44.0551 143.696 45.2237 143.618 46.1585C143.463 47.0155 143.151 48.1062 142.45 49.1968C141.749 50.2875 140.814 51.3781 139.49 52.2351C138.165 53.092 136.607 53.7153 134.815 53.8711C133.024 54.0269 131.154 53.7932 129.44 52.9362C129.284 52.8583 129.128 52.7804 128.973 52.7025C128.817 52.6246 128.661 52.5467 128.505 52.4688C128.349 52.3909 128.193 52.313 128.038 52.1572L127.804 52.0013L127.57 51.8455C127.025 51.456 126.48 50.9886 126.012 50.5211C125.077 49.5863 124.376 48.4957 123.909 47.3271C123.441 46.1585 123.208 44.99 123.052 43.8993C122.896 42.8086 122.818 41.718 122.74 40.7831C122.662 38.8355 122.584 37.2775 122.584 36.1868C122.584 35.0961 122.506 34.4729 122.506 34.4729C122.506 34.4729 122.429 35.0961 122.429 36.1868C122.351 37.2775 122.273 38.8355 122.195 40.7831C122.195 41.7959 122.195 42.8087 122.273 43.9772C122.351 45.1458 122.584 46.3923 123.052 47.6387C123.519 48.8852 124.22 50.2096 125.233 51.2223C125.7 51.7676 126.324 52.2351 126.947 52.7025L127.181 52.8583L127.414 53.0141C127.57 53.092 127.726 53.2478 127.882 53.3257C128.038 53.4036 128.193 53.5594 128.349 53.6373C128.505 53.7152 128.661 53.7932 128.895 53.8711C130.842 54.8059 132.946 55.1175 134.893 54.8059C136.841 54.5722 138.555 53.7931 139.879 52.7804C141.203 51.7676 142.216 50.5211 142.839 49.3526C143.463 48.184 143.774 47.0155 143.774 46.0806C143.93 45.1458 143.93 43.9772 143.618 42.6528C143.307 41.3285 142.606 39.9262 141.437 38.6797C141.126 38.3681 140.814 38.0565 140.424 37.8228C140.269 37.667 140.035 37.5891 139.879 37.4333C139.645 37.3553 139.49 37.1996 139.256 37.1217C138.399 36.7321 137.464 36.4205 136.451 36.4205C135.439 36.3426 134.426 36.5763 133.413 36.9658C132.4 37.3554 131.543 37.9786 130.842 38.8355C130.531 39.1471 130.375 39.4588 130.141 39.7704C130.063 39.9262 129.907 40.082 129.829 40.3157C129.752 40.4715 129.674 40.7052 129.596 40.8611C129.284 41.6401 129.206 42.4191 129.284 43.1982C129.362 43.9772 129.518 44.6784 129.829 45.3795C130.141 46.0806 130.608 46.626 131.076 47.0934C131.232 47.1713 131.31 47.3271 131.465 47.405C131.621 47.4829 131.777 47.6387 131.855 47.7166C132.167 47.8724 132.478 48.0282 132.79 48.184C133.413 48.4177 134.114 48.4957 134.737 48.4957C135.984 48.4178 137.075 47.8724 137.776 47.0934C137.854 47.0155 137.931 46.8597 138.009 46.7818C138.087 46.7039 138.165 46.5481 138.243 46.4702C138.321 46.3923 138.399 46.2364 138.399 46.1585C138.477 46.0806 138.477 45.9248 138.555 45.8469C138.711 45.3795 138.788 44.99 138.866 44.6004C138.866 43.7435 138.633 43.1203 138.321 42.6528C138.009 42.1854 137.698 41.8738 137.464 41.718C137.386 41.6401 137.23 41.5622 137.23 41.5622C136.997 41.3285 136.997 41.3285 136.997 41.3285Z" fill="black"/>
<path d="M148.137 52.2351C148.137 52.2351 148.059 52.2351 147.981 52.1572C147.825 52.0793 147.669 52.0793 147.436 52.0014C147.202 52.0014 146.812 52.0014 146.501 52.1572C146.345 52.2351 146.189 52.3909 146.033 52.5467C145.877 52.7025 145.722 52.9362 145.644 53.1699C145.488 53.6374 145.488 54.2606 145.722 54.8059C145.955 55.3512 146.501 55.8187 147.046 56.0524C147.669 56.364 148.292 56.4419 148.994 56.4419C149.305 56.4419 149.695 56.4419 150.084 56.364C150.474 56.2861 150.785 56.1303 151.175 55.9745C151.642 55.7408 152.032 55.2734 152.266 54.8838C152.499 54.4164 152.655 53.949 152.655 53.4816C152.733 52.5467 152.499 51.6898 152.032 50.9886C151.642 50.2875 151.097 49.8201 150.63 49.4306C150.084 49.1189 149.617 48.8852 149.227 48.7294C148.838 48.5736 148.37 48.3399 147.747 48.262C147.124 48.1841 146.345 48.262 145.644 48.5736C144.943 48.8852 144.319 49.5084 143.696 50.1317C143.151 50.7549 142.605 51.4561 141.982 52.1572C141.125 53.17 140.19 53.949 139.178 54.4943C138.165 55.0397 137.23 55.3513 136.373 55.4292C136.295 55.4292 136.139 55.4292 136.062 55.5071C135.984 55.5071 135.828 55.5071 135.75 55.5071C135.516 55.5071 135.36 55.585 135.205 55.585C134.893 55.585 134.581 55.6629 134.27 55.585C133.802 55.585 133.491 55.585 133.491 55.585C133.491 55.585 133.802 55.6629 134.27 55.7408C134.503 55.8187 134.815 55.8187 135.205 55.8187C135.36 55.8187 135.594 55.8187 135.75 55.8187C135.828 55.8187 135.984 55.8187 136.062 55.8187C136.139 55.8187 136.295 55.8187 136.373 55.8187C137.308 55.7408 138.399 55.585 139.489 55.0397C140.035 54.806 140.58 54.4164 141.125 54.0269C141.671 53.6374 142.138 53.092 142.606 52.6246C143.229 51.9235 143.774 51.2223 144.241 50.5212C144.475 50.2096 144.787 49.898 145.021 49.6643C145.254 49.4305 145.566 49.1968 145.877 49.041C146.423 48.7294 147.124 48.5736 147.669 48.5736C148.215 48.5736 148.76 48.7294 149.149 48.8073C149.539 48.9631 149.929 49.2748 150.396 49.5864C150.863 49.9759 151.253 50.4433 151.565 51.0665C151.876 51.6898 152.032 52.4688 151.954 53.1699C151.876 53.949 151.487 54.6501 150.785 55.0397C150.552 55.1955 150.24 55.2733 150.006 55.3513C149.695 55.4292 149.461 55.4292 149.149 55.4292C148.526 55.4292 147.981 55.3512 147.513 55.1954C147.046 55.0396 146.579 54.728 146.423 54.3385C146.189 53.949 146.111 53.4816 146.267 53.0921C146.345 52.9363 146.423 52.7025 146.501 52.6246C146.579 52.4688 146.734 52.3909 146.89 52.313C147.202 52.1572 147.436 52.0793 147.669 52.0793C147.903 52.0793 148.137 52.0793 148.215 52.1572C148.059 52.2351 148.137 52.2351 148.137 52.2351Z" fill="black"/>
<path d="M148.682 52.7803C148.682 53.3256 148.215 53.7152 147.747 53.7152C147.202 53.7152 146.812 53.2477 146.812 52.7803C146.812 52.235 147.28 51.8455 147.747 51.8455C148.293 51.8455 148.682 52.235 148.682 52.7803Z" fill="black"/>
<path d="M122.117 49.1967C122.117 49.1967 122.039 49.1967 121.961 49.1188C121.806 49.0409 121.65 49.0409 121.416 48.963C121.182 48.963 120.793 48.963 120.481 49.1188C120.325 49.1967 120.17 49.3525 120.014 49.5083C119.858 49.6641 119.702 49.8978 119.624 50.1316C119.468 50.599 119.468 51.2222 119.702 51.7676C119.936 52.3129 120.481 52.7803 121.104 53.014C121.728 53.2477 122.351 53.4035 123.052 53.4035C123.364 53.4035 123.753 53.4036 124.143 53.3257C124.532 53.2477 124.844 53.0919 125.155 52.9361C125.623 52.6245 126.012 52.235 126.246 51.8455C126.48 51.378 126.636 50.9106 126.636 50.4432C126.714 49.5083 126.402 48.6514 126.012 47.9502C125.623 47.2491 125.078 46.7817 124.532 46.4701C123.987 46.1585 123.519 45.9247 123.13 45.8468C122.74 45.691 122.273 45.4573 121.65 45.3794C121.026 45.3015 120.247 45.3794 119.546 45.691C118.845 46.0806 118.222 46.6259 117.677 47.327C117.131 47.9503 116.586 48.7293 116.041 49.3525C115.184 50.3653 114.249 51.2222 113.314 51.7676C112.301 52.3129 111.366 52.6245 110.509 52.7803C110.432 52.7803 110.276 52.8582 110.198 52.8582C110.12 52.8582 109.964 52.8582 109.886 52.8582C109.652 52.8582 109.497 52.9361 109.341 52.9361C109.029 52.9361 108.718 53.014 108.406 53.014C107.939 53.014 107.627 53.014 107.627 53.014C107.627 53.014 107.939 53.0919 108.406 53.1698C108.64 53.2477 108.951 53.2477 109.341 53.2477C109.497 53.2477 109.73 53.2477 109.886 53.2477C109.964 53.2477 110.12 53.2477 110.198 53.2477C110.276 53.2477 110.432 53.2477 110.509 53.2477C111.444 53.1698 112.535 53.014 113.626 52.4687C114.171 52.235 114.716 51.8455 115.262 51.4559C115.807 51.0664 116.274 50.5211 116.664 49.9758C117.287 49.2746 117.755 48.4956 118.3 47.8724C118.534 47.5607 118.845 47.2491 119.079 47.0154C119.313 46.7038 119.624 46.548 119.936 46.3143C120.481 45.9248 121.104 45.8468 121.728 45.8468C122.273 45.8468 122.818 46.0027 123.208 46.0806C123.597 46.2364 123.987 46.4701 124.454 46.8596C124.922 47.2491 125.311 47.7165 125.623 48.3398C125.934 48.963 126.09 49.6641 126.012 50.4432C125.934 51.2222 125.545 51.9234 124.844 52.3129C124.61 52.4687 124.298 52.5466 124.065 52.6245C123.753 52.7024 123.519 52.7024 123.208 52.7024C122.585 52.7024 122.039 52.6245 121.494 52.4687C121.026 52.3129 120.559 52.0013 120.325 51.6118C120.092 51.2222 120.014 50.7548 120.092 50.4432C120.17 50.2874 120.247 50.0537 120.325 49.8978C120.403 49.742 120.559 49.6641 120.715 49.5083C120.949 49.3525 121.26 49.2746 121.494 49.2746C121.728 49.2746 121.961 49.2746 122.039 49.2746C122.039 49.1967 122.117 49.1967 122.117 49.1967Z" fill="black"/>
<path d="M122.663 49.6641C122.663 50.2094 122.273 50.599 121.728 50.599C121.182 50.599 120.793 50.2094 120.793 49.6641C120.793 49.1188 121.182 48.7292 121.728 48.7292C122.273 48.7292 122.663 49.1967 122.663 49.6641Z" fill="black"/>
<path d="M94.8507 55.1174C80.2826 55.1174 68.3633 43.276 68.3633 28.63C68.3633 14.0619 80.2047 2.14258 94.8507 2.14258C109.497 2.14258 121.338 13.984 121.338 28.63C121.338 43.1981 109.419 55.1174 94.8507 55.1174ZM94.8507 2.60998C80.5163 2.60998 68.8307 14.2956 68.8307 28.63C68.8307 42.9644 80.5163 54.65 94.8507 54.65C109.185 54.65 120.871 42.9644 120.871 28.63C120.871 14.2956 109.185 2.60998 94.8507 2.60998Z" fill="black"/>
<path d="M104.978 38.4461C104.355 38.7577 103.576 38.9136 102.641 38.9136C101.395 38.9136 100.46 38.6799 99.759 38.1345C99.0578 37.5892 98.5904 36.7322 98.3566 35.4858L97.8113 32.3696C97.6555 31.3568 97.4218 30.4999 97.266 29.8766C97.0323 29.2534 96.7986 28.786 96.409 28.3965C96.0195 28.007 95.5521 27.8512 94.9289 27.8512H92.9033V35.0962C92.9033 35.8753 92.9813 36.4985 93.0592 36.8101C93.1371 37.1997 93.3708 37.4334 93.6824 37.5113C93.994 37.6671 94.5393 37.745 95.2405 37.745V38.3682C94.1498 38.2903 92.5138 38.2903 90.4883 38.2903C88.2291 38.2903 86.5931 38.2903 85.5024 38.3682V37.745C86.2036 37.745 86.671 37.6671 87.0605 37.5113C87.3721 37.3555 87.6059 37.1218 87.6838 36.8101C87.8396 36.4206 87.8396 35.8753 87.8396 35.0962V19.4375C87.8396 18.6585 87.7617 18.0352 87.6838 17.7236C87.528 17.3341 87.3721 17.1004 87.0605 17.0225C86.7489 16.8666 86.2036 16.7888 85.5024 16.7888V16.1655C86.5931 16.2434 88.1512 16.2434 90.3325 16.2434C91.1895 16.2434 92.1243 16.2434 93.1371 16.2434C94.1498 16.2434 94.8509 16.2434 95.2405 16.2434C98.1229 16.2434 100.304 16.7109 101.784 17.6457C103.265 18.5806 103.966 19.9828 103.966 21.6967C103.966 22.6316 103.732 23.4885 103.265 24.3455C102.797 25.2024 102.096 25.9035 101.005 26.5268C99.9147 27.15 98.5124 27.5396 96.7986 27.7733C98.045 27.8512 99.1357 28.0849 99.9147 28.3965C100.694 28.7081 101.395 29.1755 101.862 29.7209C102.33 30.2662 102.641 31.0452 102.797 31.9022L103.498 35.1742C103.654 36.0311 103.888 36.6543 104.122 36.966C104.355 37.2776 104.667 37.4334 105.056 37.4334C105.29 37.4334 105.524 37.3555 105.68 37.2775C105.835 37.1996 106.069 36.966 106.303 36.7323L106.77 37.1218C106.225 37.745 105.602 38.2124 104.978 38.4461ZM96.9544 26.5268C97.6555 26.0594 98.045 25.4361 98.3566 24.735C98.5904 23.9559 98.7462 23.099 98.7462 22.0083C98.7462 20.2945 98.4346 18.9701 97.8113 18.1131C97.1881 17.2562 96.1753 16.7888 94.8509 16.7888C94.3056 16.7888 93.8382 16.8666 93.6045 17.0225C93.3708 17.1783 93.1371 17.412 93.0592 17.8015C92.9813 18.191 92.9033 18.7364 92.9033 19.5154V27.3058H94.2277C95.3184 27.2279 96.2532 26.9942 96.9544 26.5268Z" fill="black"/>
</svg>
