<svg width="159" height="85" viewBox="0 0 159 85" fill="none" xmlns="http://www.w3.org/2000/svg">
<path d="M36.3713 34.7284C36.3713 34.7284 36.2934 34.7284 36.1376 34.7284C36.0597 34.7284 35.9818 34.7284 35.826 34.8063C35.7481 34.8063 35.5923 34.8842 35.4365 34.9621C35.2028 35.1179 34.969 35.5074 34.969 35.9749C34.969 36.2086 35.0469 36.4423 35.1248 36.676C35.2027 36.9097 35.3585 37.1434 35.5143 37.3772C35.6702 37.6109 35.9039 37.8446 36.2155 37.9225C36.5271 38.0783 36.9166 38.0783 37.3061 38.0004C37.6957 37.8446 38.0073 37.6109 38.241 37.3772L38.3189 37.2992L38.3968 37.2213C38.4747 37.1434 38.5526 37.0655 38.5526 36.9876C38.6305 36.8318 38.7863 36.676 38.8642 36.4423C38.9421 36.2865 39.02 36.0528 39.1759 35.897C39.2538 35.8191 39.2538 35.7412 39.3317 35.5853C39.4096 35.5074 39.4096 35.3516 39.4096 35.2737C39.5654 34.8842 39.6433 34.4168 39.6433 33.8715C39.6433 33.404 39.4875 32.8587 39.1759 32.3913C38.8642 31.9239 38.3968 31.6122 37.9294 31.3785C36.9167 30.9111 35.6701 30.8332 34.5795 31.3006C34.0342 31.5343 33.4888 31.8459 33.0214 32.2355C32.554 32.625 32.1645 33.1703 31.8528 33.7936C31.7749 33.9494 31.6971 34.1052 31.6971 34.261C31.6192 34.4168 31.6192 34.5726 31.5413 34.7284C31.4633 34.8842 31.4633 35.04 31.3854 35.1958C31.3854 35.3516 31.3075 35.5074 31.3075 35.6633C31.2296 35.9749 31.1517 36.2865 31.1517 36.5981C31.1517 36.7539 31.1517 36.9097 31.1517 37.0655C31.1517 37.2213 31.1517 37.3771 31.1517 37.5329C31.1517 37.6888 31.1517 37.8446 31.1517 38.0783C31.1517 38.2341 31.2296 38.3899 31.2296 38.6236C31.2296 38.7794 31.3075 38.9352 31.3854 39.1689L31.4633 39.4027C31.4633 39.4806 31.5413 39.5585 31.5413 39.6364L31.6191 39.8701C31.6191 39.948 31.6971 40.0259 31.6971 40.1038C31.775 40.2596 31.8529 40.4154 31.9308 40.5712C32.0087 40.727 32.1645 40.8828 32.2424 41.0386C32.3203 41.1944 32.4761 41.3503 32.554 41.4282C33.0214 41.9735 33.5667 42.4409 34.19 42.8304C34.8132 43.22 35.4365 43.5316 36.0597 43.8432C36.3713 43.999 36.7608 44.0769 37.0724 44.2327C37.384 44.3106 37.7736 44.4664 38.0852 44.5443C38.7863 44.7001 39.4875 44.8559 40.1886 45.0118C41.6688 45.2455 43.149 45.3234 44.6292 45.2455C45.0187 45.2455 45.4082 45.1676 45.7198 45.1676C46.1093 45.1676 46.4209 45.0897 46.8105 45.0897C47.5895 45.0118 48.2907 44.9339 49.0697 44.856C51.0952 44.6223 53.1207 44.3106 55.0683 43.8432C56.0811 43.6095 57.0159 43.2979 57.9508 42.9862C58.8856 42.5967 59.8205 42.2072 60.6774 41.584C61.0669 41.2724 61.5343 40.9607 61.846 40.4933C62.1576 40.1038 62.4692 39.5585 62.625 39.091C62.7808 38.5457 62.8588 38.0004 62.7809 37.4551C62.703 36.9097 62.5472 36.4423 62.3913 35.9749C62.1576 35.5074 61.9239 35.1179 61.6902 34.7284C61.3786 34.3389 61.0669 33.9494 60.6774 33.7156C60.2879 33.404 59.8984 33.1703 59.431 33.0145C58.9635 32.8587 58.574 32.7029 58.1066 32.625C57.2496 32.4692 56.3927 32.4692 55.5357 32.625C54.7567 32.7029 53.9777 32.8587 53.1986 33.0924C51.7184 33.4819 50.3941 34.0273 49.2255 34.6505C46.8105 35.8191 44.8629 36.9876 43.3048 37.9225C41.6688 38.7794 39.7212 39.948 37.462 41.3503C36.3713 42.0514 35.2027 42.8304 33.9563 43.6095C32.7098 44.3885 31.3854 45.1676 29.9052 45.9466C27.0228 47.4268 23.8287 48.7512 20.2451 49.4523C18.4533 49.7639 16.5836 49.9197 14.636 49.8418H14.2465H13.857C13.6233 49.8418 13.3895 49.8418 13.1558 49.7639C12.6884 49.7639 12.221 49.686 11.6757 49.6081C10.6629 49.5302 9.72806 49.2965 8.79321 49.0628C7.39093 48.7512 6.06656 48.2058 4.898 47.5047C3.72943 46.8036 2.79457 45.8687 2.24924 44.7781C1.93762 44.2327 1.78182 43.6095 1.62601 42.9862C1.54811 42.363 1.47022 41.7398 1.54813 41.1945C1.62603 40.5712 1.78185 40.0259 2.09347 39.4806C2.32718 38.9352 2.71669 38.4678 3.10621 38.0004C3.26202 37.7667 3.49572 37.533 3.72943 37.2992C3.80734 37.2213 3.96317 37.0655 4.04107 36.9876C4.11897 36.9097 4.27476 36.7539 4.35266 36.676C4.50847 36.5981 4.58639 36.5202 4.6643 36.3644C4.8201 36.2865 4.89801 36.2086 5.05382 36.1307C5.28753 35.9749 5.52124 35.8191 5.83286 35.6633C6.84561 35.04 7.93625 34.6505 9.02691 34.3389C11.1303 33.7936 13.3116 33.7935 15.1034 34.4168C15.9604 34.7284 16.7394 35.1958 17.3627 35.8191C17.9859 36.3644 18.3754 37.0655 18.5312 37.7667C18.687 38.4678 18.5312 39.169 18.2196 39.7143C17.908 40.2596 17.5185 40.727 17.129 41.1165C16.3499 41.8177 15.5709 42.2072 15.0255 42.4409C14.7918 42.5188 14.5581 42.5967 14.4023 42.6746C14.2465 42.7525 14.1686 42.7525 14.1686 42.7525C14.1686 42.7525 14.2465 42.7525 14.4023 42.6746C14.5581 42.6746 14.7918 42.5967 15.0255 42.5188C15.5709 42.363 16.3499 41.9735 17.2848 41.2724C17.7522 40.8828 18.1417 40.4933 18.5312 39.8701C18.9208 39.2468 19.1545 38.4678 18.9986 37.6109C18.9207 36.7539 18.4533 35.897 17.8301 35.2737C17.2068 34.5726 16.3499 33.9494 15.4151 33.5599C14.4802 33.1703 13.3896 32.9366 12.2989 32.8587C11.2082 32.7808 10.0397 32.8587 8.79321 33.1703C7.62465 33.404 6.45608 33.8715 5.28752 34.4947C4.9759 34.6505 4.74221 34.8063 4.43059 34.9621C4.27478 35.04 4.11897 35.1179 4.04107 35.1958C3.88526 35.2737 3.80736 35.4296 3.65155 35.5075C3.49574 35.5854 3.41784 35.7412 3.26203 35.8191C3.10622 35.897 3.02832 36.0528 2.87251 36.1307C2.63879 36.3644 2.40506 36.5981 2.17135 36.9097C1.70393 37.4551 1.31442 38.0004 0.924902 38.7015C0.613285 39.3247 0.379554 40.1038 0.223745 40.8049C0.0679367 41.584 0.145841 42.363 0.223745 43.0642C0.379554 43.8432 0.535381 44.5443 0.924902 45.2455C1.62604 46.6478 2.79458 47.8163 4.11896 48.6733C5.44333 49.5302 6.92349 50.0755 8.48157 50.3871C9.49433 50.6209 10.5071 50.8546 11.5977 50.9325C12.1431 51.0104 12.6105 51.0883 13.1558 51.0883C13.3895 51.0883 13.7012 51.0883 13.9349 51.1662H14.3244H14.7139C16.7394 51.2441 18.6871 51.0104 20.6347 50.6209C22.5044 50.2313 24.2961 49.686 26.01 48.9849C27.646 48.2837 29.2041 47.5047 30.6843 46.7257C32.0866 45.8687 33.411 45.0118 34.6574 44.2327C35.9039 43.3758 36.9945 42.5188 38.0852 41.8177C40.2665 40.2596 42.1362 39.0131 43.6943 38.0004C45.3303 37.1434 47.3558 36.0528 49.7708 35.04C51.0173 34.5726 52.2637 34.1052 53.666 33.7936C54.3672 33.6377 55.0683 33.4819 55.8474 33.404C56.5485 33.3261 57.3275 33.3261 58.1066 33.4819C58.8077 33.6378 59.5089 33.9494 60.0542 34.4168C60.3658 34.6505 60.5995 34.9621 60.7553 35.2737C60.989 35.5853 61.1449 35.9749 61.3007 36.2865C61.6123 36.9876 61.6902 37.7667 61.4564 38.3899C61.2227 39.0131 60.6774 39.6364 59.9762 40.1038C59.2751 40.5712 58.4961 40.9607 57.6392 41.2724C56.7822 41.584 55.8474 41.8177 54.9125 42.0514C53.0428 42.5188 51.0952 42.7525 49.0697 42.9862C48.3686 43.0641 47.5895 43.1421 46.8884 43.22C46.4989 43.22 46.1872 43.2979 45.7977 43.2979C45.4082 43.2979 45.0966 43.3758 44.707 43.3758C43.3048 43.4537 41.9025 43.3758 40.5781 43.1421C39.877 43.0642 39.2538 42.9083 38.5526 42.7525C38.241 42.6746 37.9294 42.5967 37.6178 42.5188C37.3062 42.4409 36.9945 42.2851 36.6829 42.2072C36.0597 41.9735 35.5143 41.7398 34.969 41.3503C34.4237 41.0387 33.9563 40.6491 33.5667 40.2596C33.4888 40.1817 33.3331 40.0259 33.2552 39.948C33.1772 39.8701 33.0993 39.7143 33.0214 39.6364C32.9435 39.4806 32.8656 39.4027 32.7877 39.2468C32.7877 39.1689 32.7098 39.091 32.7098 39.091L32.6319 38.9352C32.6319 38.8573 32.554 38.7794 32.554 38.7794L32.4761 38.5457C32.3982 38.3899 32.3982 38.312 32.3982 38.1562C32.3982 38.0004 32.3203 37.9225 32.3203 37.7667C32.3203 37.6109 32.3203 37.4551 32.3203 37.3772C32.3203 37.2213 32.3203 37.0655 32.3203 36.9876C32.3203 36.8318 32.3203 36.676 32.3203 36.5981C32.3203 36.2865 32.3982 36.0528 32.4761 35.7412C32.4761 35.5854 32.554 35.4295 32.554 35.3516C32.554 35.1958 32.6319 35.1179 32.6319 34.9621C32.7098 34.8063 32.7098 34.6505 32.7877 34.5726C32.8656 34.4168 32.8656 34.3389 32.9435 34.1831C33.333 33.2482 34.1121 32.5471 34.969 32.1576C35.826 31.768 36.8387 31.768 37.6178 32.0797C38.0073 32.2355 38.3189 32.4692 38.6305 32.7808C38.8642 33.0924 39.02 33.4819 39.02 33.8715C39.0979 34.6505 38.7863 35.4295 38.4747 36.1307C38.4747 36.2086 38.3968 36.2865 38.3189 36.3644C38.241 36.4423 38.241 36.5202 38.1631 36.5981C38.0852 36.676 38.0852 36.7539 38.0073 36.8318L37.9294 36.9097L37.8515 36.9876C37.6178 37.2213 37.3841 37.455 37.1504 37.6109C36.9167 37.7667 36.605 37.6888 36.3713 37.6109C36.1376 37.533 35.9039 37.3771 35.7481 37.1434C35.5922 36.9876 35.4364 36.7539 35.3585 36.5202C35.2806 36.2865 35.2028 36.0528 35.2028 35.897C35.2028 35.5075 35.2806 35.1179 35.5143 34.9621C35.5923 34.8842 35.7481 34.8063 35.826 34.8063C35.9039 34.8063 35.9818 34.7284 36.0597 34.7284C36.2934 34.7284 36.3713 34.7284 36.3713 34.7284Z" fill="black"/>
<path d="M36.1373 55.6847C36.1373 55.6847 36.2153 55.6847 36.3711 55.6847C36.449 55.6847 36.5269 55.6846 36.6827 55.6067C36.7606 55.6067 36.9164 55.5288 37.0722 55.4509C37.3059 55.2951 37.5396 54.9056 37.5396 54.4382C37.5396 54.2045 37.4617 53.9708 37.3838 53.737C37.3059 53.5033 37.1501 53.2696 36.9943 53.0359C36.8385 52.8022 36.6048 52.5685 36.2931 52.4906C35.9815 52.3348 35.592 52.3348 35.2025 52.4127C34.813 52.5685 34.5014 52.8022 34.2677 53.0359L34.1897 53.1138L34.1118 53.1917C34.0339 53.2696 33.956 53.3475 33.956 53.4254C33.8781 53.5812 33.7223 53.737 33.6444 53.9708C33.5665 54.1266 33.4886 54.3603 33.3328 54.5161C33.2549 54.594 33.2549 54.6719 33.177 54.8277C33.0991 54.9056 33.0991 55.0614 33.0991 55.1393C32.9433 55.5288 32.8654 55.9963 32.8654 56.5416C32.8654 57.009 33.0212 57.5544 33.3328 58.0218C33.6444 58.4892 34.1118 58.8008 34.5792 59.0345C35.592 59.5019 36.8385 59.5799 37.9292 59.1124C38.4745 58.8787 39.0198 58.5671 39.4872 58.1776C39.9547 57.7881 40.3442 57.2427 40.6558 56.6195C40.7337 56.4637 40.8116 56.3079 40.8116 56.1521C40.8895 55.9963 40.8895 55.8405 40.9674 55.6847C41.0453 55.5288 41.0453 55.373 41.1232 55.2172C41.1232 55.0614 41.2011 54.9056 41.2011 54.7498C41.279 54.4382 41.3569 54.1266 41.3569 53.815C41.3569 53.6591 41.3569 53.5033 41.3569 53.3475C41.3569 53.1917 41.3569 53.0359 41.3569 52.8801C41.3569 52.7243 41.3569 52.5685 41.3569 52.3348C41.3569 52.1789 41.279 52.0232 41.279 51.7894C41.279 51.6336 41.2011 51.4778 41.1232 51.2441L41.0453 51.0104C41.0453 50.9325 40.9674 50.8546 40.9674 50.7767L40.8895 50.543C40.8895 50.4651 40.8116 50.3872 40.8116 50.3093C40.7337 50.1535 40.6558 49.9976 40.5779 49.8418C40.5 49.686 40.3442 49.5302 40.2663 49.3744C40.1884 49.2186 40.0326 49.0628 39.9546 48.9849C39.4872 48.4396 38.9419 47.9721 38.3187 47.5826C37.6954 47.1931 37.0722 46.8815 36.449 46.5699C36.1373 46.414 35.7478 46.3361 35.4362 46.1803C35.1246 46.1024 34.7351 45.9466 34.4235 45.8687C33.7223 45.7129 33.0212 45.5571 32.32 45.4013C30.8399 45.1676 29.3597 45.0897 27.8795 45.1676C27.49 45.1676 27.1004 45.2455 26.7888 45.2455C26.3993 45.2455 26.0877 45.3234 25.6982 45.3234C24.9191 45.4013 24.218 45.4792 23.4389 45.5571C21.4134 45.7908 19.3879 46.1024 17.4403 46.5699C16.4276 46.8036 15.4927 47.1152 14.5579 47.4268C13.623 47.8163 12.6882 48.2058 11.8312 48.8291C11.4417 49.1407 10.9743 49.4523 10.6627 49.9197C10.3511 50.3093 10.0395 50.8546 9.88364 51.322C9.72784 51.8673 9.64992 52.4127 9.72783 52.958C9.80573 53.5033 9.96154 53.9708 10.1173 54.4382C10.3511 54.9056 10.5847 55.2951 10.8185 55.6847C11.1301 56.0742 11.4417 56.4637 11.8312 56.6974C12.2208 57.009 12.6103 57.2427 13.0777 57.3985C13.5451 57.5543 13.9347 57.7101 14.4021 57.7881C15.259 57.9439 16.116 57.9439 16.9729 57.7881C17.752 57.7101 18.531 57.5544 19.31 57.3206C20.7902 56.9311 22.1146 56.3858 23.2831 55.7626C25.6982 54.594 27.6458 53.4254 29.2039 52.4906C30.8399 51.6336 32.7875 50.4651 35.0467 49.0628C36.1374 48.3617 37.3059 47.5826 38.5524 46.8036C39.7989 46.0245 41.1232 45.2455 42.6034 44.4665C45.4859 42.9863 48.6799 41.6619 52.2635 40.9608C54.0553 40.6491 55.925 40.4933 57.8726 40.5712H58.2621H58.6517C58.8854 40.5712 59.1191 40.5712 59.3528 40.6491C59.8202 40.6491 60.2877 40.727 60.833 40.8049C61.8458 40.8828 62.7806 41.1166 63.7154 41.3503C65.1177 41.6619 66.4421 42.2072 67.6106 42.9084C68.7792 43.6095 69.7141 44.5444 70.2594 45.635C70.571 46.1803 70.7268 46.8036 70.8826 47.4268C70.9605 48.05 71.0385 48.6733 70.9606 49.2186C70.8827 49.8418 70.7268 50.3872 70.4152 50.9325C70.1815 51.4778 69.792 51.9452 69.4025 52.4127C69.2467 52.6464 69.0129 52.8801 68.7792 53.1138C68.7013 53.1917 68.5455 53.3475 68.4676 53.4254C68.3897 53.5033 68.2338 53.6591 68.1559 53.737C68.0001 53.815 67.9223 53.8929 67.8444 54.0487C67.6886 54.1266 67.6107 54.2045 67.4549 54.2824C67.2212 54.4382 66.9875 54.594 66.6758 54.7498C65.6631 55.373 64.5723 55.7626 63.4817 56.0742C61.3783 56.6195 59.197 56.6195 57.4052 55.9963C56.5483 55.6846 55.7692 55.2172 55.146 54.594C54.5227 54.0487 54.1332 53.3475 53.9774 52.6464C53.8216 51.9453 53.9774 51.2441 54.289 50.6988C54.6007 50.1535 54.9902 49.686 55.3797 49.2965C56.1587 48.5954 56.9378 48.2059 57.4831 47.9721C57.7168 47.8942 57.9505 47.8163 58.1063 47.7384C58.2621 47.6605 58.34 47.6605 58.34 47.6605C58.34 47.6605 58.2621 47.6605 58.1063 47.7384C57.9505 47.7384 57.7168 47.8163 57.4831 47.8942C56.9378 48.05 56.1587 48.4396 55.2239 49.1407C54.7564 49.5302 54.3669 49.9197 53.9774 50.543C53.5879 51.1662 53.3542 51.9452 53.51 52.8022C53.5879 53.6591 54.0553 54.5161 54.6786 55.1393C55.3018 55.8405 56.1587 56.4637 57.0936 56.8532C58.0284 57.2427 59.1191 57.4764 60.2097 57.5543C61.3004 57.6323 62.469 57.5544 63.7154 57.2427C64.884 57.009 66.0526 56.5416 67.2211 55.9184C67.5327 55.7625 67.7664 55.6067 68.0781 55.4509C68.2339 55.373 68.3897 55.2951 68.4676 55.2172C68.6234 55.1393 68.7013 54.9835 68.8571 54.9056C69.0129 54.8277 69.0908 54.6719 69.2466 54.594C69.4024 54.5161 69.4803 54.3603 69.6361 54.2824C69.8699 54.0487 70.1036 53.8149 70.3373 53.5033C70.8047 52.958 71.1942 52.4127 71.5837 51.7115C71.8954 51.0883 72.1291 50.3092 72.2849 49.6081C72.4407 48.8291 72.3628 48.05 72.2849 47.3489C72.1291 46.5699 71.9733 45.8687 71.5837 45.1676C70.8826 43.7653 69.7141 42.5968 68.3897 41.7398C67.0653 40.8829 65.5852 40.3375 64.0271 40.0259C63.0143 39.7922 62.0016 39.5585 60.9109 39.4806C60.3656 39.4027 59.8981 39.3248 59.3528 39.3248C59.1191 39.3248 58.8075 39.3248 58.5738 39.2469H58.1843H57.7947C55.7692 39.169 53.8216 39.4027 51.874 39.7922C50.0043 40.1817 48.2125 40.727 46.4986 41.4282C44.8626 42.1293 43.3046 42.9084 41.8244 43.6874C40.4221 44.5444 39.0977 45.4013 37.8512 46.1803C36.6048 47.0373 35.5141 47.8942 34.4235 48.5954C32.2422 50.1534 30.3724 51.3999 28.8144 52.4127C27.1784 53.2696 25.1529 54.3603 22.7378 55.373C21.4914 55.8405 20.2449 56.3079 18.8426 56.6195C18.1415 56.7753 17.4403 56.9311 16.6613 57.009C15.9601 57.0869 15.1811 57.0869 14.4021 56.9311C13.7009 56.7753 12.9998 56.4637 12.4545 55.9963C12.1429 55.7626 11.9091 55.4509 11.7533 55.1393C11.5196 54.8277 11.3638 54.4382 11.208 54.1266C10.8964 53.4254 10.8185 52.6464 11.0522 52.0231C11.2859 51.3999 11.8312 50.7767 12.5324 50.3093C13.2335 49.8418 14.0125 49.4523 14.8695 49.1407C15.7264 48.8291 16.6613 48.5954 17.5961 48.3617C19.4658 47.8942 21.4134 47.6605 23.4389 47.4268C24.1401 47.3489 24.9191 47.271 25.6203 47.1931C26.0098 47.1931 26.3214 47.1152 26.7109 47.1152C27.1005 47.1152 27.4121 47.0373 27.8016 47.0373C29.2039 46.9594 30.6062 47.0373 31.9305 47.271C32.6317 47.3489 33.2549 47.5047 33.956 47.6605C34.2676 47.7384 34.5793 47.8163 34.8909 47.8942C35.2025 47.9721 35.5141 48.1279 35.8257 48.2058C36.449 48.4396 36.9943 48.6733 37.5396 49.0628C38.085 49.3744 38.5524 49.7639 38.9419 50.1534C39.0198 50.2314 39.1756 50.3872 39.2535 50.4651C39.3314 50.543 39.4093 50.6988 39.4872 50.7767C39.5651 50.9325 39.643 51.0104 39.7209 51.1662C39.7209 51.2441 39.7988 51.322 39.7988 51.322L39.8768 51.4778C39.8768 51.5557 39.9546 51.6336 39.9546 51.6336L40.0325 51.8674C40.1104 52.0232 40.1105 52.1011 40.1105 52.2569C40.1105 52.4127 40.1884 52.4906 40.1884 52.6464C40.1884 52.8022 40.1884 52.958 40.1884 53.0359C40.1884 53.1917 40.1884 53.3475 40.1884 53.4254C40.1884 53.5812 40.1884 53.7371 40.1884 53.815C40.1884 54.1266 40.1104 54.3603 40.0325 54.6719C40.0325 54.8277 39.9546 54.9835 39.9546 55.0614C39.9546 55.2172 39.8768 55.2951 39.8768 55.4509C39.7989 55.6067 39.7989 55.7625 39.7209 55.8404C39.643 55.9963 39.643 56.0742 39.5651 56.23C39.1756 57.1648 38.3966 57.866 37.5396 58.2555C36.6827 58.645 35.6699 58.645 34.8909 58.3334C34.5014 58.1776 34.1897 57.9439 33.8781 57.6323C33.6444 57.3206 33.4886 56.9311 33.4886 56.5416C33.4107 55.7626 33.7223 54.9835 34.034 54.2824C34.034 54.2045 34.1118 54.1266 34.1897 54.0487C34.2676 53.9708 34.2676 53.8929 34.3455 53.815C34.4234 53.7371 34.4235 53.6591 34.5014 53.5812L34.5792 53.5033L34.6572 53.4254C34.8909 53.1917 35.1246 52.958 35.3583 52.8022C35.592 52.6464 35.9036 52.7243 36.1373 52.8022C36.371 52.8801 36.6048 53.0359 36.7606 53.2696C36.9164 53.4254 37.0722 53.6591 37.1501 53.8928C37.228 54.1266 37.3059 54.3603 37.3059 54.5161C37.3059 54.9056 37.228 55.2951 36.9943 55.4509C36.9164 55.5288 36.7606 55.6067 36.6827 55.6067C36.6048 55.6067 36.5269 55.6847 36.449 55.6847C36.2152 55.6847 36.1373 55.6847 36.1373 55.6847Z" fill="black"/>
<path d="M122.455 35.3517C122.455 35.3517 122.533 35.3517 122.689 35.3517C122.767 35.3517 122.845 35.3517 123.001 35.4296C123.078 35.4296 123.234 35.5075 123.39 35.5854C123.624 35.7412 123.857 36.1307 123.857 36.5982C123.857 36.8319 123.78 37.0656 123.702 37.2993C123.624 37.533 123.468 37.7667 123.312 38.0004C123.156 38.2341 122.923 38.4679 122.611 38.5458C122.299 38.7016 121.91 38.7016 121.52 38.6237C121.131 38.4679 120.819 38.2341 120.586 38.0004L120.508 37.9225L120.43 37.8446C120.352 37.7667 120.274 37.6888 120.274 37.6109C120.196 37.4551 120.04 37.2993 119.962 37.0656C119.884 36.9098 119.807 36.6761 119.651 36.5202C119.573 36.4423 119.573 36.3644 119.495 36.2086C119.417 36.1307 119.417 35.9749 119.417 35.897C119.261 35.5075 119.183 35.0401 119.183 34.4947C119.183 34.0273 119.339 33.482 119.651 33.0146C119.962 32.5471 120.43 32.2355 120.897 32.0018C121.91 31.5344 123.156 31.4565 124.247 31.9239C124.792 32.1576 125.338 32.4692 125.805 32.8587C126.272 33.2483 126.662 33.7936 126.974 34.4168C127.052 34.5726 127.13 34.7284 127.13 34.8843C127.207 35.0401 127.207 35.1959 127.285 35.3517C127.363 35.5075 127.363 35.6633 127.441 35.8191C127.441 35.9749 127.519 36.1307 127.519 36.2865C127.597 36.5982 127.675 36.9098 127.675 37.2214C127.675 37.3772 127.675 37.533 127.675 37.6888C127.675 37.8446 127.675 38.0004 127.675 38.1562C127.675 38.312 127.675 38.4678 127.675 38.7016C127.675 38.8574 127.597 39.0132 127.597 39.2469C127.597 39.4027 127.519 39.5585 127.441 39.7922L127.363 40.0259C127.363 40.1038 127.285 40.1817 127.285 40.2596L127.207 40.4934C127.207 40.5713 127.13 40.6492 127.13 40.7271C127.052 40.8829 126.974 41.0387 126.896 41.1945C126.818 41.3503 126.662 41.5061 126.584 41.6619C126.506 41.8177 126.35 41.9735 126.273 42.0514C125.805 42.5968 125.26 43.0642 124.637 43.4537C124.013 43.8432 123.39 44.1549 122.767 44.4665C122.455 44.6223 122.066 44.7002 121.754 44.856C121.442 44.9339 121.053 45.0897 120.741 45.1676C120.04 45.3234 119.339 45.4792 118.638 45.635C117.158 45.8688 115.678 45.9467 114.197 45.8688C113.808 45.8688 113.418 45.7908 113.107 45.7908C112.717 45.7908 112.406 45.7129 112.016 45.7129C111.237 45.635 110.536 45.5571 109.757 45.4792C107.731 45.2455 105.706 44.9339 103.758 44.4665C102.745 44.2328 101.811 43.9212 100.876 43.6095C99.9409 43.22 99.006 42.8305 98.1491 42.2072C97.7596 41.8956 97.2921 41.584 96.9805 41.1166C96.6689 40.7271 96.3573 40.1817 96.2015 39.7143C96.0457 39.169 95.9678 38.6237 96.0457 38.0783C96.1236 37.533 96.2794 37.0656 96.4352 36.5982C96.6689 36.1307 96.9027 35.7412 97.1364 35.3517C97.448 34.9622 97.7596 34.5726 98.1491 34.3389C98.5386 34.0273 98.9282 33.7936 99.3956 33.6378C99.863 33.482 100.253 33.3262 100.72 33.2483C101.577 33.0925 102.434 33.0925 103.291 33.2483C104.07 33.3262 104.849 33.482 105.628 33.7157C107.108 34.1052 108.432 34.6505 109.601 35.2738C112.016 36.4423 113.964 37.6109 115.522 38.5458C117.158 39.4027 119.105 40.5713 121.365 41.9735C122.455 42.6747 123.624 43.4537 124.87 44.2328C126.117 45.0118 127.441 45.7908 128.921 46.5699C131.804 48.0501 134.998 49.3744 138.581 50.0756C140.373 50.3872 142.243 50.543 144.191 50.4651H144.58H144.97C145.203 50.4651 145.437 50.4651 145.671 50.3872C146.138 50.3872 146.606 50.3093 147.151 50.2314C148.164 50.1535 149.099 49.9198 150.033 49.6861C151.436 49.3744 152.76 48.8291 153.929 48.128C155.097 47.4268 156.032 46.492 156.577 45.4013C156.889 44.856 157.045 44.2328 157.201 43.6095C157.278 42.9863 157.356 42.3631 157.278 41.8177C157.2 41.1945 157.045 40.6492 156.733 40.1038C156.499 39.5585 156.11 39.0911 155.72 38.6237C155.564 38.39 155.331 38.1562 155.097 37.9225C155.019 37.8446 154.863 37.6888 154.785 37.6109C154.708 37.533 154.552 37.3772 154.474 37.2993C154.318 37.2214 154.24 37.1435 154.162 36.9877C154.006 36.9098 153.929 36.8319 153.773 36.7539C153.539 36.5981 153.305 36.4424 152.994 36.2865C151.981 35.6633 150.89 35.2738 149.8 34.9622C147.696 34.4168 145.515 34.4168 143.723 35.0401C142.866 35.3517 142.087 35.8191 141.464 36.4423C140.841 36.9877 140.451 37.6888 140.295 38.3899C140.14 39.0911 140.295 39.7922 140.607 40.3375C140.918 40.8829 141.308 41.3503 141.698 41.7398C142.477 42.441 143.256 42.8305 143.801 43.0642C144.035 43.1421 144.268 43.22 144.424 43.2979C144.58 43.3758 144.658 43.3758 144.658 43.3758C144.658 43.3758 144.58 43.3758 144.424 43.2979C144.268 43.2979 144.035 43.22 143.801 43.1421C143.256 42.9863 142.477 42.5968 141.542 41.8956C141.074 41.5061 140.685 41.1166 140.295 40.4934C139.906 39.8701 139.672 39.0911 139.828 38.2341C139.906 37.3772 140.373 36.5203 140.996 35.897C141.62 35.1959 142.477 34.5726 143.411 34.1831C144.346 33.7936 145.437 33.5599 146.528 33.482C147.618 33.4041 148.787 33.482 150.033 33.7936C151.202 34.0273 152.37 34.4947 153.539 35.118C153.851 35.2738 154.084 35.4296 154.396 35.5854C154.552 35.6633 154.708 35.7412 154.785 35.8191C154.941 35.897 155.019 36.0528 155.175 36.1307C155.331 36.2086 155.409 36.3644 155.565 36.4423C155.72 36.5202 155.798 36.676 155.954 36.7539C156.188 36.9877 156.422 37.2214 156.655 37.533C157.123 38.0783 157.512 38.6237 157.902 39.3248C158.213 39.948 158.447 40.7271 158.603 41.4282C158.759 42.2072 158.681 42.9863 158.603 43.6874C158.447 44.4665 158.291 45.1676 157.902 45.8688C157.201 47.271 156.032 48.4396 154.708 49.2965C153.383 50.1535 151.903 50.6988 150.345 51.0104C149.332 51.2441 148.319 51.4778 147.229 51.5557C146.683 51.6337 146.216 51.7116 145.671 51.7116C145.437 51.7116 145.125 51.7116 144.892 51.7895H144.502H144.113C142.087 51.8674 140.139 51.6337 138.192 51.2441C136.322 50.8546 134.53 50.3093 132.816 49.6081C131.18 48.907 129.622 48.128 128.142 47.3489C126.74 46.492 125.416 45.635 124.169 44.856C122.923 43.9991 121.832 43.1421 120.741 42.441C118.56 40.8829 116.69 39.6364 115.132 38.6237C113.496 37.7667 111.471 36.676 109.056 35.6633C107.809 35.1959 106.563 34.7284 105.16 34.4168C104.459 34.261 103.758 34.1052 102.979 34.0273C102.278 33.9494 101.499 33.9494 100.72 34.1052C100.019 34.261 99.3177 34.5726 98.7724 35.0401C98.4607 35.2738 98.227 35.5854 98.0712 35.897C97.8375 36.2086 97.6817 36.5981 97.5259 36.9098C97.2143 37.6109 97.1363 38.39 97.37 39.0132C97.6038 39.6364 98.1491 40.2596 98.8502 40.7271C99.5514 41.1945 100.33 41.584 101.187 41.8956C102.044 42.2072 102.979 42.441 103.914 42.6747C105.784 43.1421 107.731 43.3758 109.757 43.6095C110.458 43.6874 111.237 43.7653 111.938 43.8432C112.328 43.8432 112.639 43.9211 113.029 43.9211C113.418 43.9211 113.73 43.9991 114.119 43.9991C115.522 44.077 116.924 43.999 118.248 43.7653C118.95 43.6874 119.573 43.5316 120.274 43.3758C120.586 43.2979 120.897 43.22 121.209 43.1421C121.52 43.0642 121.832 42.9084 122.144 42.8305C122.767 42.5968 123.312 42.3631 123.857 41.9735C124.403 41.6619 124.87 41.2724 125.26 40.8829C125.338 40.805 125.494 40.6492 125.571 40.5713C125.649 40.4934 125.727 40.3375 125.805 40.2596C125.883 40.1038 125.961 40.0259 126.039 39.8701C126.039 39.7922 126.117 39.7143 126.117 39.7143L126.195 39.5585C126.195 39.4806 126.273 39.4027 126.273 39.4027L126.35 39.169C126.428 39.0132 126.428 38.9353 126.428 38.7795C126.428 38.6237 126.506 38.5457 126.506 38.3899C126.506 38.2341 126.506 38.0783 126.506 38.0004C126.506 37.8446 126.506 37.6888 126.506 37.6109C126.506 37.4551 126.506 37.2993 126.506 37.2214C126.506 36.9098 126.428 36.676 126.35 36.3644C126.35 36.2086 126.273 36.0528 126.273 35.9749C126.273 35.8191 126.195 35.7412 126.195 35.5854C126.117 35.4296 126.117 35.2738 126.039 35.1959C125.961 35.0401 125.961 34.9622 125.883 34.8063C125.494 33.8715 124.714 33.1704 123.857 32.7809C123.001 32.3913 121.988 32.3913 121.209 32.7029C120.819 32.8588 120.508 33.0925 120.196 33.4041C119.962 33.7157 119.806 34.1052 119.806 34.4947C119.729 35.2738 120.04 36.0528 120.352 36.7539C120.352 36.8319 120.43 36.9098 120.508 36.9877C120.586 37.0656 120.586 37.1435 120.663 37.2214C120.741 37.2993 120.741 37.3772 120.819 37.4551L120.897 37.533L120.975 37.6109C121.209 37.8446 121.442 38.0783 121.676 38.2341C121.91 38.39 122.222 38.3121 122.455 38.2341C122.689 38.1562 122.923 38.0004 123.078 37.7667C123.234 37.6109 123.39 37.3772 123.468 37.1435C123.546 36.9098 123.624 36.6761 123.624 36.5202C123.624 36.1307 123.546 35.7412 123.312 35.5854C123.234 35.5075 123.078 35.4296 123.001 35.4296C122.923 35.4296 122.845 35.3517 122.767 35.3517C122.533 35.3517 122.455 35.3517 122.455 35.3517Z" fill="black"/>
<path d="M122.611 56.3079C122.611 56.3079 122.533 56.3079 122.377 56.3079C122.3 56.3079 122.222 56.3079 122.066 56.23C121.988 56.23 121.832 56.1521 121.676 56.0742C121.443 55.9184 121.209 55.5289 121.209 55.0615C121.209 54.8278 121.287 54.5941 121.365 54.3603C121.443 54.1266 121.598 53.8929 121.754 53.6592C121.91 53.4255 122.144 53.1918 122.455 53.1139C122.767 52.9581 123.156 52.9581 123.546 53.036C123.935 53.1918 124.247 53.4255 124.481 53.6592L124.559 53.7371L124.637 53.815C124.714 53.8929 124.792 53.9708 124.792 54.0487C124.87 54.2045 125.026 54.3604 125.104 54.5941C125.182 54.7499 125.26 54.9836 125.416 55.1394C125.493 55.2173 125.494 55.2952 125.571 55.451C125.649 55.5289 125.649 55.6847 125.649 55.7626C125.805 56.1521 125.883 56.6196 125.883 57.1649C125.883 57.6323 125.727 58.1776 125.416 58.6451C125.104 59.1125 124.637 59.4241 124.169 59.6578C123.156 60.1253 121.91 60.2031 120.819 59.7357C120.274 59.502 119.729 59.1904 119.261 58.8009C118.794 58.4114 118.404 57.866 118.093 57.2428C118.015 57.087 117.937 56.9312 117.937 56.7754C117.859 56.6196 117.859 56.4638 117.781 56.3079C117.703 56.1521 117.703 55.9963 117.625 55.8405C117.625 55.6847 117.547 55.5289 117.547 55.3731C117.469 55.0615 117.392 54.7499 117.392 54.4382C117.392 54.2824 117.392 54.1266 117.392 53.9708C117.392 53.815 117.392 53.6592 117.392 53.5034C117.392 53.3476 117.392 53.1918 117.392 52.9581C117.392 52.8023 117.469 52.6464 117.469 52.4127C117.469 52.2569 117.547 52.1011 117.625 51.8674L117.703 51.6337C117.703 51.5558 117.781 51.4779 117.781 51.4L117.859 51.1663C117.859 51.0884 117.937 51.0105 117.937 50.9326C118.015 50.7767 118.093 50.6209 118.171 50.4651C118.248 50.3093 118.404 50.1535 118.482 49.9977C118.56 49.8419 118.716 49.6861 118.794 49.6082C119.261 49.0628 119.807 48.5954 120.43 48.2059C121.053 47.8164 121.676 47.5048 122.299 47.1932C122.611 47.0374 123.001 46.9595 123.312 46.8036C123.624 46.7257 124.013 46.5699 124.325 46.492C125.026 46.3362 125.727 46.1804 126.428 46.0246C127.909 45.7909 129.389 45.713 130.869 45.7909C131.258 45.7909 131.648 45.8688 131.96 45.8688C132.349 45.8688 132.661 45.9467 133.05 45.9467C133.829 46.0246 134.53 46.1025 135.309 46.1804C137.335 46.4141 139.36 46.7257 141.308 47.1932C142.321 47.4269 143.256 47.7385 144.191 48.0501C145.125 48.4396 146.06 48.8291 146.917 49.4524C147.307 49.764 147.774 50.0756 148.086 50.543C148.397 50.9326 148.709 51.4779 148.865 51.9453C149.021 52.4906 149.099 53.036 149.021 53.5813C148.943 54.1266 148.787 54.594 148.631 55.0615C148.397 55.5289 148.164 55.9184 147.93 56.3079C147.618 56.6975 147.307 57.087 146.917 57.3207C146.528 57.6323 146.138 57.866 145.671 58.0218C145.203 58.1777 144.814 58.3335 144.346 58.4114C143.489 58.5672 142.632 58.5672 141.775 58.4114C140.996 58.3335 140.217 58.1776 139.438 57.9439C137.958 57.5544 136.634 57.0091 135.465 56.3859C133.05 55.2173 131.103 54.0487 129.545 53.1139C127.909 52.2569 125.961 51.0884 123.702 49.6861C122.611 48.9849 121.443 48.2059 120.196 47.4269C118.95 46.6478 117.625 45.8688 116.145 45.0897C113.263 43.6096 110.069 42.2852 106.485 41.5841C104.693 41.2724 102.823 41.1166 100.876 41.1945H100.486H100.097C99.863 41.1945 99.6294 41.1945 99.3957 41.2724C98.9282 41.2724 98.4608 41.3503 97.9155 41.4282C96.9027 41.5061 95.9678 41.7399 95.033 41.9736C93.6307 42.2852 92.3063 42.8305 91.1377 43.5317C89.9692 44.2328 89.0344 45.1676 88.4891 46.2583C88.1775 46.8036 88.0216 47.4269 87.8658 48.0501C87.7879 48.6733 87.71 49.2966 87.7879 49.8419C87.8658 50.4651 88.0216 51.0105 88.3332 51.5558C88.5669 52.1011 88.9565 52.5686 89.346 53.036C89.5018 53.2697 89.7355 53.5034 89.9692 53.7371C90.0471 53.815 90.2029 53.9708 90.2808 54.0487C90.3587 54.1266 90.5145 54.2824 90.5925 54.3603C90.7483 54.4382 90.8262 54.5161 90.9041 54.6719C91.0599 54.7499 91.1378 54.8278 91.2936 54.9057C91.5273 55.0615 91.761 55.2173 92.0727 55.3731C93.0854 55.9963 94.176 56.3858 95.2667 56.6975C97.3701 57.2428 99.5515 57.2428 101.343 56.6196C102.2 56.3079 102.979 55.8405 103.602 55.2173C104.226 54.672 104.615 53.9708 104.771 53.2697C104.927 52.5685 104.771 51.8674 104.459 51.3221C104.148 50.7767 103.758 50.3093 103.369 49.9198C102.59 49.2187 101.811 48.8291 101.265 48.5954C101.032 48.5175 100.798 48.4396 100.642 48.3617C100.486 48.2838 100.408 48.2838 100.408 48.2838C100.408 48.2838 100.486 48.2838 100.642 48.3617C100.798 48.3617 101.032 48.4396 101.265 48.5175C101.811 48.6733 102.59 49.0629 103.525 49.764C103.992 50.1535 104.381 50.543 104.771 51.1663C105.161 51.7895 105.394 52.5686 105.238 53.4255C105.161 54.2824 104.693 55.1394 104.07 55.7626C103.447 56.4638 102.59 57.087 101.655 57.4765C100.72 57.866 99.6293 58.0997 98.5386 58.1776C97.448 58.2555 96.2794 58.1776 95.033 57.866C93.8644 57.6323 92.6958 57.1649 91.5273 56.5417C91.2156 56.3859 90.982 56.23 90.6703 56.0742C90.5145 55.9963 90.3587 55.9184 90.2808 55.8405C90.125 55.7626 90.0471 55.6068 89.8913 55.5289C89.7355 55.451 89.6576 55.2952 89.5018 55.2173C89.346 55.1394 89.2681 54.9836 89.1123 54.9057C88.8785 54.672 88.6448 54.4383 88.4111 54.1266C87.9437 53.5813 87.5542 53.036 87.1646 52.3348C86.853 51.7116 86.6193 50.9326 86.4635 50.2314C86.3077 49.4524 86.3856 48.6733 86.4635 47.9722C86.6193 47.1932 86.7751 46.492 87.1646 45.7909C87.8658 44.3886 89.0343 43.22 90.3587 42.3631C91.6831 41.5061 93.1633 40.9608 94.7214 40.6492C95.7342 40.4155 96.7469 40.1818 97.8376 40.1039C98.3829 40.026 98.8503 39.9481 99.3957 39.9481C99.6294 39.9481 99.941 39.9481 100.175 39.8702H100.564H100.954C102.979 39.7922 104.927 40.026 106.874 40.4155C108.744 40.805 110.536 41.3503 112.25 42.0515C113.886 42.7526 115.444 43.5317 116.924 44.3107C118.326 45.1676 119.651 46.0246 120.897 46.8036C122.144 47.6606 123.234 48.5175 124.325 49.2187C126.506 50.7767 128.376 52.0232 129.934 53.036C131.57 53.8929 133.596 54.9836 136.011 55.9963C137.257 56.4638 138.504 56.9312 139.906 57.2428C140.607 57.3986 141.308 57.5544 142.087 57.6323C142.788 57.7102 143.567 57.7102 144.346 57.5544C145.047 57.3986 145.749 57.087 146.294 56.6196C146.606 56.3858 146.839 56.0742 146.995 55.7626C147.229 55.451 147.385 55.0615 147.54 54.7499C147.852 54.0487 147.93 53.2697 147.696 52.6465C147.463 52.0232 146.917 51.4 146.216 50.9326C145.515 50.4651 144.736 50.0756 143.879 49.764C143.022 49.4524 142.087 49.2187 141.152 48.985C139.283 48.5175 137.335 48.2838 135.309 48.0501C134.608 47.9722 133.829 47.8943 133.128 47.8164C132.739 47.8164 132.427 47.7385 132.037 47.7385C131.648 47.7385 131.336 47.6606 130.947 47.6606C129.545 47.5827 128.142 47.6606 126.818 47.8943C126.117 47.9722 125.494 48.128 124.792 48.2838C124.481 48.3617 124.169 48.4396 123.858 48.5175C123.546 48.5954 123.234 48.7512 122.923 48.8291C122.299 49.0628 121.754 49.2966 121.209 49.6861C120.664 49.9977 120.196 50.3872 119.807 50.7767C119.729 50.8546 119.573 51.0105 119.495 51.0884C119.417 51.1663 119.339 51.3221 119.261 51.4C119.183 51.5558 119.105 51.6337 119.027 51.7895C119.027 51.8674 118.95 51.9453 118.95 51.9453L118.872 52.1011C118.872 52.179 118.794 52.2569 118.794 52.2569L118.716 52.4906C118.638 52.6465 118.638 52.7244 118.638 52.8802C118.638 53.036 118.56 53.1139 118.56 53.2697C118.56 53.4255 118.56 53.5813 118.56 53.6592C118.56 53.815 118.56 53.9708 118.56 54.0487C118.56 54.2045 118.56 54.3603 118.56 54.4382C118.56 54.7499 118.638 54.9836 118.716 55.2952C118.716 55.451 118.794 55.6068 118.794 55.6847C118.794 55.8405 118.872 55.9184 118.872 56.0742C118.95 56.23 118.95 56.3859 119.027 56.4638C119.105 56.6196 119.105 56.6975 119.183 56.8533C119.573 57.7881 120.352 58.4893 121.209 58.8788C122.066 59.2683 123.078 59.2683 123.858 58.9567C124.247 58.8009 124.559 58.5672 124.87 58.2555C125.104 57.9439 125.26 57.5544 125.26 57.1649C125.338 56.3859 125.026 55.6068 124.715 54.9057C124.715 54.8278 124.637 54.7499 124.559 54.6719C124.481 54.594 124.481 54.5162 124.403 54.4382C124.325 54.3603 124.325 54.2824 124.247 54.2045L124.169 54.1266L124.091 54.0487C123.858 53.815 123.624 53.5813 123.39 53.4255C123.156 53.2697 122.845 53.3476 122.611 53.4255C122.377 53.5034 122.144 53.6592 121.988 53.8929C121.832 54.0487 121.676 54.2824 121.598 54.5162C121.52 54.7499 121.443 54.9836 121.443 55.1394C121.443 55.5289 121.52 55.9184 121.754 56.0742C121.832 56.1521 121.988 56.23 122.066 56.23C122.144 56.23 122.222 56.3079 122.299 56.3079C122.533 56.3079 122.611 56.3079 122.611 56.3079Z" fill="black"/>
<path d="M96.825 26.7821C97.2145 25.6914 98.461 26.003 99.0842 26.6263C99.3179 26.7821 99.7853 27.2495 99.7853 27.5611C99.7853 27.7169 99.8632 27.7948 99.9411 27.7948C100.019 28.1844 100.097 28.5739 100.175 28.8855C100.253 30.6773 100.72 32.547 101.655 34.0272C101.811 34.183 102.045 34.183 102.122 34.1051C101.499 32.6249 100.876 30.7552 100.954 29.1971C100.954 28.9634 101.032 28.8076 101.11 28.6518C101.265 27.4832 101.655 26.3147 102.122 25.1461C103.135 23.4322 104.304 21.6404 105.94 20.5498C106.018 20.5498 106.018 20.4718 106.096 20.4718C107.42 19.8486 108.9 19.9265 110.302 20.8614C111.159 21.4846 112.094 22.3416 112.562 23.2764C112.873 23.8217 113.107 24.9124 112.562 25.3798C112.328 25.6135 111.237 25.6135 110.926 25.4577C110.848 25.3798 110.692 25.4577 110.614 25.5356C109.835 26.1589 110.536 27.717 111.237 28.1065C112.406 28.8855 114.198 27.7949 114.899 26.86C115.678 25.8472 115.911 24.1333 115.522 22.8869C115.366 22.3416 114.977 21.7962 114.587 21.2509C114.198 20.4718 113.73 19.7707 113.107 19.1475C112.951 18.6801 113.185 17.9789 113.029 17.5115C112.795 17.0441 112.484 16.4987 112.016 16.1871C111.081 15.486 109.679 15.486 108.588 15.6418C108.511 15.5639 108.355 15.486 108.199 15.5639C108.588 15.2523 107.576 14.9406 107.342 14.9406C106.797 14.8627 106.173 15.0186 105.706 15.1744C105.083 15.4081 104.537 15.7976 104.148 16.265C104.07 16.265 104.07 16.1871 103.992 16.1871C102.979 16.1871 101.889 17.4336 101.265 18.1347C100.409 19.2254 99.9411 20.6276 99.6295 21.952C99.4737 22.5753 99.4737 23.1985 99.3958 23.7438C98.461 23.1206 97.2145 22.7311 96.2797 23.5101C95.3448 24.2891 95.1111 25.9251 95.968 26.86C96.4354 27.0937 96.747 27.0158 96.825 26.7821ZM112.717 19.3033C112.562 19.2254 112.328 19.1475 112.172 19.0696C110.069 18.2905 107.887 18.758 106.096 19.9265C105.55 20.1602 105.005 20.5498 104.46 21.0951C103.525 21.952 102.668 23.1985 101.967 24.6008C101.733 24.9124 101.577 25.3019 101.421 25.6914C101.421 24.8345 101.577 24.0554 101.733 23.2764C101.889 22.9648 102.045 22.5753 102.2 22.2637C102.278 22.2637 102.278 22.1857 102.278 22.1078C102.278 22.0299 102.278 22.0299 102.356 21.952C102.512 21.6404 102.746 21.4067 102.979 21.173C104.382 19.537 106.329 17.901 108.511 17.7452C110.069 17.5115 111.549 18.2126 112.717 19.3033ZM108.121 15.7976C106.719 16.1871 105.628 17.2778 104.537 18.2905C104.07 18.758 103.525 19.2254 103.057 19.6928C103.369 19.0696 103.68 18.4463 103.992 17.901C104.771 16.7325 106.563 14.7069 108.121 15.7976ZM100.331 24.3671C100.331 24.2112 100.331 24.0555 100.331 23.8217C100.409 22.4195 100.72 21.0172 101.265 19.7707C101.655 18.9138 102.824 17.0441 103.992 16.7325C103.68 17.122 103.447 17.4336 103.213 17.901C102.2 19.6928 101.343 21.4846 100.954 23.3543C100.642 24.2113 100.409 25.1461 100.331 26.1589C100.253 25.6135 100.253 25.0682 100.253 24.5229C100.331 24.5229 100.331 24.445 100.331 24.3671ZM97.3702 23.9775C98.2272 23.6659 99.0062 24.0554 99.6295 24.6787C99.6295 25.224 99.6295 25.8472 99.7074 26.3926C99.3178 26.003 98.7726 25.6135 98.383 25.5356C97.604 25.3019 96.9029 25.6135 96.4354 26.1589C96.1238 25.3019 96.5912 24.2112 97.3702 23.9775Z" fill="black"/>
<path d="M78.9069 52.4906C78.2837 52.4906 77.6604 52.3348 77.1151 51.9452C70.2595 47.5826 58.5739 39.948 57.4833 38.312C56.86 37.3771 56.7042 36.3644 56.7042 35.6633C56.7042 27.2496 56.3926 1.69702 56.3926 1.46331V0.840088H101.811V35.1179C101.811 35.1958 101.811 36.7539 100.72 38.0783C99.9411 39.0131 87.8659 47.1152 80.7766 51.9452C80.2313 52.2568 79.6081 52.4906 78.9069 52.4906ZM57.717 2.08654C57.7949 6.13756 58.0286 28.0286 58.0286 35.6633C58.0286 36.3644 58.1844 36.9876 58.5739 37.6109C59.1972 38.6236 66.7538 43.8432 77.8162 50.8546C78.5174 51.322 79.3743 51.2441 80.0755 50.8546C91.4495 43.22 99.162 37.8446 99.7073 37.2213C100.486 36.2865 100.486 35.1179 100.486 35.1179V2.16445H57.717V2.08654Z" fill="black"/>
<path d="M78.9851 50.1535C78.5177 50.1535 77.9724 49.9977 77.5829 49.764C72.4412 46.492 60.5218 38.7795 59.509 37.2214C58.9637 36.4423 58.8858 35.5854 58.8858 35.0401C58.8858 27.2496 58.5742 3.56675 58.5742 3.33304V3.17725H99.7856V34.4947C99.7856 34.5726 99.7855 35.897 98.8507 36.9877C98.0716 37.8446 85.7628 46.1804 80.4653 49.764C79.9979 49.9977 79.4525 50.1535 78.9851 50.1535ZM58.8858 3.48886C58.8858 5.59227 59.1974 27.6392 59.1974 35.0401C59.1974 35.5854 59.2754 36.2865 59.7428 37.0656C60.7555 38.5458 73.7655 46.9594 77.7386 49.5303C78.5177 49.9977 79.5305 49.9977 80.3095 49.5303C84.4384 46.8036 97.9159 37.6888 98.617 36.8319C99.4739 35.8191 99.4739 34.5726 99.4739 34.5726V3.56677H58.8858V3.48886Z" fill="black"/>
<path d="M62.3914 25.6136C63.2483 24.7567 63.0146 23.0428 62.0797 22.2638C61.1449 21.4847 59.8984 21.8742 58.9636 22.4975C58.9636 21.8742 58.8856 21.3289 58.7298 20.7057C58.4961 19.3813 57.9508 17.9011 57.0938 16.8884C56.4706 16.1872 55.38 14.9408 54.3672 14.9408C54.2893 14.9408 54.2114 14.9408 54.2114 15.0187C53.744 14.5512 53.2765 14.1617 52.6533 13.928C52.108 13.6943 51.5627 13.5385 51.0173 13.6943C50.7836 13.7722 49.7708 14.0838 50.1604 14.3175C50.0045 14.2396 49.8487 14.3175 49.7708 14.3954C48.6802 14.2396 47.2 14.3175 46.3431 14.9408C45.9536 15.2524 45.564 15.7198 45.3303 16.2651C45.1745 16.7326 45.4082 17.5116 45.2524 17.9011C44.6292 18.5244 44.1618 19.2255 43.7722 20.0045C43.3048 20.5499 42.9932 21.1731 42.8374 21.6405C42.4479 22.887 42.6816 24.6009 43.4606 25.6136C44.1617 26.5485 45.9536 27.6392 47.1221 26.8601C47.8233 26.3927 48.5244 24.9125 47.7453 24.2893C47.6674 24.2114 47.5895 24.2114 47.4337 24.2114C47.0442 24.3672 46.0314 24.3672 45.7977 24.1335C45.2524 23.666 45.4861 22.4975 45.7977 22.03C46.3431 21.0952 47.2 20.2382 48.057 19.615C49.4593 18.6802 50.9394 18.5244 52.2638 19.2255C52.3417 19.2255 52.3417 19.3034 52.4196 19.3034C54.0556 20.3941 55.3021 22.1859 56.2369 23.8997C56.7822 24.9904 57.1718 26.2369 57.2497 27.4054C57.3276 27.5612 57.4055 27.7171 57.4055 27.9508C57.4834 29.5089 56.9381 31.3785 56.2369 32.8587C56.3927 32.9366 56.6264 33.0146 56.7043 32.7808C57.7171 31.2228 58.1066 29.431 58.1845 27.6392C58.2624 27.2496 58.3403 26.8601 58.4182 26.5485C58.4961 26.5485 58.574 26.4706 58.574 26.3148C58.574 26.0032 59.0414 25.6137 59.2752 25.3799C59.8984 24.8346 61.1448 24.4451 61.5343 25.5357C61.9239 25.6915 62.1577 25.7695 62.3914 25.6136ZM50.1604 16.3431C52.3417 16.4989 54.2893 18.1348 55.6916 19.7708C55.9253 20.0045 56.0811 20.3162 56.3148 20.5499C56.3148 20.6278 56.3148 20.6278 56.3927 20.7057C56.3927 20.7836 56.4706 20.7836 56.4706 20.8615C56.6264 21.1731 56.7822 21.4847 56.938 21.8743C57.0938 22.6533 57.2497 23.4323 57.2497 24.2893C57.0939 23.8997 56.938 23.5881 56.7043 23.1986C56.0032 21.7963 55.1462 20.5499 54.2114 19.6929C53.6661 19.1476 53.1207 18.836 52.5754 18.5244C50.7836 17.4337 48.6802 16.9663 46.4989 17.6674C46.3431 17.7453 46.1094 17.8232 45.9536 17.9011C47.1221 16.9663 48.6023 16.2651 50.1604 16.3431ZM54.6788 16.6547C55.0684 17.2 55.3799 17.8232 55.6136 18.4464C55.1462 17.979 54.6009 17.5116 54.1335 17.0442C53.0428 16.0314 51.9521 14.9408 50.5499 14.5512C52.108 13.3827 53.8998 15.4861 54.6788 16.6547ZM58.3403 23.2765C58.3403 23.8218 58.3403 24.3672 58.2624 24.9125C58.1066 23.9777 57.9508 23.0428 57.6392 22.108C57.2497 20.2383 56.4706 18.4465 55.3799 16.6547C55.1462 16.2651 54.9125 15.8756 54.6009 15.4861C55.7695 15.7198 56.938 17.6674 57.3275 18.5244C57.9508 19.7708 58.1845 21.1731 58.2624 22.5754C58.2624 22.7312 58.2624 22.887 58.2624 23.1207C58.3403 23.1986 58.3403 23.1986 58.3403 23.2765ZM62.1576 24.8346C61.6902 24.2893 60.9891 23.9777 60.21 24.2114C59.8984 24.2893 59.3531 24.6788 58.8856 25.0683C58.9635 24.523 58.9636 23.8998 58.9636 23.3544C59.5868 22.7312 60.3659 22.3417 61.2228 22.6533C62.0798 22.9649 62.5471 24.0556 62.1576 24.8346Z" fill="black"/>
<path d="M96.2798 55.5287C96.2798 55.5287 96.2019 55.5287 96.0461 55.6066C95.8902 55.6845 95.6565 55.6845 95.4228 55.7624C95.1112 55.7624 94.7996 55.7624 94.4101 55.6066C94.2543 55.5287 94.0205 55.3729 93.8647 55.2171C93.7089 55.0613 93.5531 54.8276 93.4752 54.516C93.2415 53.9706 93.3194 53.3474 93.631 52.7242C93.9427 52.1009 94.488 51.6335 95.1891 51.3219C95.8903 51.0103 96.5913 50.9324 97.3704 50.9324C97.7599 50.9324 98.1494 50.9324 98.539 51.0882C98.9285 51.1661 99.318 51.3219 99.7075 51.5556C100.175 51.8672 100.642 52.3346 100.876 52.8021C101.11 53.2695 101.266 53.8148 101.344 54.3602C101.421 55.4508 101.11 56.3857 100.642 57.0868C100.175 57.8658 99.5518 58.4112 99.0065 58.8007C98.4611 59.1902 97.8378 59.4239 97.3704 59.5018C96.903 59.6576 96.3577 59.8914 95.6565 59.9693C94.9554 60.0472 94.0984 59.9693 93.3194 59.5797C92.5404 59.1902 91.8393 58.4891 91.216 57.7879C90.5928 57.0089 89.9695 56.2298 89.3463 55.4508C88.4115 54.2822 87.3987 53.3474 86.308 52.7242C85.2174 52.1009 84.1267 51.7893 83.114 51.5556C82.9582 51.5556 82.8803 51.4777 82.7245 51.4777C82.6466 51.4777 82.4907 51.4777 82.4128 51.3998C82.1791 51.3998 82.0233 51.3219 81.7895 51.3219C81.4 51.3219 81.0885 51.244 80.7768 51.244C80.2315 51.244 79.9199 51.244 79.9199 51.244C79.9199 51.244 80.2315 51.1661 80.7768 51.0882C81.0885 51.0103 81.4 51.0103 81.7895 51.0103C82.0233 51.0103 82.1791 51.0103 82.4128 51.0103C82.4907 51.0103 82.6465 51.0103 82.8023 51.0103C82.9581 51.0103 83.0361 51.0103 83.1919 51.0103C84.2046 51.0882 85.4511 51.3219 86.6975 51.9451C87.3208 52.2567 87.9441 52.6463 88.4894 53.1137C89.0347 53.5811 89.58 54.1264 90.1254 54.7497C90.8265 55.5287 91.3718 56.3857 91.9171 57.1647C92.2287 57.5542 92.4625 57.8658 92.7741 58.1775C93.0857 58.4891 93.3973 58.7228 93.7089 58.9565C94.3322 59.346 95.0333 59.5018 95.6565 59.5018C96.2798 59.5018 96.8251 59.346 97.2925 59.2681C97.682 59.1123 98.2274 58.8007 98.6948 58.4112C99.1622 58.0217 99.6296 57.4763 100.019 56.7752C100.331 56.0741 100.564 55.2171 100.487 54.4381C100.409 53.5811 100.019 52.8021 99.2401 52.3346C98.9285 52.1788 98.6948 52.023 98.3053 51.9451C97.9937 51.8672 97.682 51.7893 97.2925 51.7893C96.5914 51.7893 95.9681 51.7893 95.4228 52.023C94.8775 52.1788 94.41 52.5684 94.1763 52.9579C93.9426 53.3474 93.8648 53.8927 93.9427 54.2822C94.0206 54.516 94.0984 54.6718 94.1763 54.8276C94.3321 54.9834 94.41 55.1392 94.5659 55.2171C94.8775 55.4508 95.1891 55.5287 95.5008 55.5287C95.7345 55.5287 95.9681 55.5287 96.1239 55.5287C96.2018 55.5287 96.2798 55.5287 96.2798 55.5287Z" fill="black"/>
<path d="M61.3006 55.6068C61.3006 55.6068 61.3784 55.6068 61.5342 55.6847C61.69 55.6847 61.9238 55.7626 62.1575 55.6847C62.3912 55.6847 62.7807 55.6068 63.0923 55.3731C63.2481 55.2952 63.4039 55.1394 63.4818 54.9836C63.5597 54.8278 63.7156 54.5941 63.7156 54.4383C63.7935 54.0487 63.7155 53.5034 63.4818 53.1139C63.2481 52.7243 62.7807 52.3348 62.2354 52.179C61.69 51.9453 60.9889 51.9453 60.3656 51.9453C60.054 51.9453 59.7425 52.0232 59.3529 52.1011C59.0413 52.179 58.7297 52.3348 58.4181 52.4906C57.639 52.9581 57.2495 53.815 57.1716 54.5941C57.0937 55.451 57.2495 56.308 57.639 56.9312C57.9507 57.6323 58.496 58.1776 58.9634 58.5672C59.4309 58.9567 59.9761 59.2683 60.3656 59.4241C60.8331 59.5799 61.3785 59.6578 62.0017 59.6578C62.6249 59.6578 63.3261 59.502 63.9493 59.1125C64.2609 58.8788 64.5725 58.6451 64.8841 58.3335C65.1957 58.0218 65.4294 57.7102 65.7411 57.3207C66.2864 56.6196 66.9097 55.7626 67.5329 54.9057C68.0003 54.2824 68.5456 53.7371 69.1689 53.2697C69.7142 52.8023 70.3375 52.4127 70.9607 52.1011C72.2072 51.4779 73.4536 51.2442 74.4664 51.1663C74.6222 51.1663 74.7001 51.1663 74.8559 51.1663C75.0117 51.1663 75.0896 51.1663 75.2454 51.1663C75.4791 51.1663 75.7128 51.1663 75.8686 51.1663C76.2581 51.1663 76.6477 51.2442 76.8814 51.2442C77.4267 51.3221 77.7383 51.4 77.7383 51.4C77.7383 51.4 77.4267 51.4 76.8814 51.4C76.5698 51.4 76.2581 51.4779 75.8686 51.4779C75.6349 51.4779 75.4791 51.5558 75.2454 51.5558C75.1675 51.5558 75.0117 51.5558 74.9338 51.6337C74.8559 51.6337 74.7001 51.7116 74.5443 51.7116C73.6094 51.8674 72.4409 52.2569 71.3502 52.8802C70.2596 53.5034 69.2468 54.4383 68.3119 55.6068C67.6887 56.3859 67.0654 57.1649 66.4422 57.9439C65.819 58.6451 65.1179 59.3462 64.3388 59.7357C63.5598 60.1252 62.7028 60.2032 62.0017 60.1252C61.3006 60.0473 60.7552 59.8137 60.2878 59.6578C59.8203 59.502 59.275 59.2683 58.6518 58.9567C58.1065 58.5672 57.4832 58.0218 57.0158 57.2428C56.5484 56.4638 56.2368 55.5289 56.3147 54.5162C56.3147 53.9708 56.4705 53.4255 56.7821 52.9581C57.0158 52.4906 57.4832 52.0232 57.9506 51.7116C58.3402 51.4779 58.7297 51.3221 59.1192 51.2442C59.5087 51.1663 59.8982 51.0884 60.2878 51.0884C61.0668 51.0884 61.768 51.1663 62.4691 51.4779C63.1703 51.7895 63.7156 52.2569 64.0272 52.8802C64.3388 53.5034 64.3388 54.1266 64.183 54.672C64.1051 54.9057 63.9493 55.1394 63.7934 55.3731C63.6376 55.5289 63.404 55.6847 63.2482 55.7626C62.8586 55.9184 62.4691 55.9963 62.2354 55.9184C61.9237 55.9184 61.768 55.8405 61.6122 55.7626C61.3785 55.6068 61.3006 55.6068 61.3006 55.6068Z" fill="black"/>
<path d="M89.5797 31.6122C89.9692 31.9238 90.3587 32.1575 90.7482 32.1575V32.8586C89.346 32.7807 87.6321 32.7807 85.5287 32.7807C83.1916 32.7807 81.4777 32.7807 80.3091 32.8586V32.1575C81.1661 32.1575 81.7892 32.0017 82.1788 31.8459C82.5683 31.6901 82.7242 31.3784 82.7242 30.911C82.7242 30.5994 82.5683 30.0541 82.3346 29.275L80.3091 23.6659H72.8303L71.8955 26.0031C71.2722 27.639 70.9606 28.8855 70.9606 29.8204C70.9606 30.6773 71.1944 31.3006 71.7397 31.6122C72.2071 31.9238 72.9861 32.1575 73.9988 32.1575V32.8586C72.4407 32.7807 71.0385 32.7807 69.7141 32.7807C68.7013 32.7807 67.7666 32.7807 67.0654 32.8586V32.1575C68.234 32.0017 69.1688 30.7552 70.0257 28.5739L77.894 8.47461C78.2836 8.47461 78.6731 8.55252 79.0626 8.55252C79.53 8.55252 79.9195 8.55251 80.2312 8.47461L88.567 29.9762C88.8786 30.6773 89.1901 31.3006 89.5797 31.6122ZM76.5697 13.6942L72.9861 22.9648H79.9196L76.5697 13.6942Z" fill="black"/>
<path d="M25.0752 72.3561L25.1531 71.9665L26.0879 71.6549L28.9704 64.0203L29.6715 63.8645L32.3203 71.6549L33.1772 71.8886L33.0993 72.2781H30.061L30.139 71.8886L31.2296 71.577L30.3727 69.2399H27.5681L26.7112 71.6549L27.9576 71.8886L27.8797 72.2781H25.0752V72.3561ZM27.8797 68.8504H30.3727L29.2041 65.3447L27.8797 68.8504Z" fill="black"/>
<path d="M34.5796 72.3562L34.6575 71.9667L35.7482 71.733L36.2935 64.7216L35.047 64.4879L35.1249 64.0984H37.54L38.0074 65.3449L39.8771 70.5645L42.0584 65.1112L42.5258 64.0984H44.9409L44.863 64.4879L43.6944 64.7216L44.0839 71.8109L45.2525 71.9667L45.1746 72.3562H41.8247L41.9026 71.9667L42.9933 71.733L42.6038 65.1112L39.7992 71.9667L39.176 72.0446L36.683 65.267L36.2156 71.733L37.4621 71.8888L37.3842 72.2783H34.5796V72.3562Z" fill="black"/>
<path d="M46.577 64.5655L46.6549 64.176H52.9651L52.7314 66.2794L52.264 66.2015L52.0303 64.6435H48.6804V67.9933H50.7838L51.0175 67.1364L51.4849 67.0585L51.2512 69.6293L50.7838 69.7072L50.628 68.4608H48.6025V71.8885H52.1081L52.6535 70.2525L53.043 70.3305L52.8093 72.4339H46.3433L46.4211 72.0444L47.5118 71.8106V64.7992L46.577 64.5655Z" fill="black"/>
<path d="M54.6011 72.3562L54.679 71.9667L55.7696 71.733V64.7216L54.6011 64.4879L54.679 64.0984H58.0289L57.9509 64.4879L56.7824 64.7216V71.8888H59.9764L60.6776 70.097L61.0671 70.1749L60.8335 72.3562H54.6011Z" fill="black"/>
<path d="M62.3911 64.4879L62.469 64.0984H65.8188L65.7409 64.4879L64.5724 64.7216V71.8109L65.8188 71.9667L65.7409 72.3562H62.469L62.5469 71.9667L63.6376 71.733V64.7216L62.3911 64.4879Z" fill="black"/>
<path d="M67.1436 72.3561L67.2214 71.9665L68.1563 71.6549L71.0388 64.0203L71.7399 63.8645L74.3886 71.6549L75.2456 71.8886L75.1676 72.2781H72.1294L72.2073 71.8886L73.298 71.577L72.441 69.2399H69.6365L68.7795 71.6549L70.026 71.8886L69.9481 72.2781H67.1436V72.3561ZM69.9481 68.8504H72.441L71.2724 65.3447L69.9481 68.8504Z" fill="black"/>
<path d="M81.5558 72.5118C81.1662 72.5118 80.7767 72.4339 80.4651 72.2781C80.1535 72.1223 79.9197 71.8886 79.7639 71.577C79.6081 71.2654 79.5303 70.9538 79.5303 70.5642C79.5303 70.0189 79.686 69.5515 80.0756 69.084C80.3872 68.6166 80.9325 68.2271 81.5558 67.8376C81.3221 67.526 81.0883 67.2923 80.8546 66.9027C80.6988 66.5911 80.6209 66.2016 80.6209 65.89C80.6209 65.5784 80.6988 65.2667 80.8546 64.9551C81.0104 64.6435 81.2441 64.4098 81.5558 64.254C81.8674 64.0982 82.179 63.9424 82.4906 63.9424C83.0359 63.9424 83.5034 64.0982 83.815 64.4098C84.1266 64.7214 84.2824 65.1109 84.2824 65.6563C84.2824 66.0458 84.1266 66.3574 83.8929 66.7469C83.5813 67.0585 83.1918 67.4481 82.7243 67.7597V67.8376L84.3603 69.7073L85.6067 67.6818L84.594 67.4481L84.6719 67.0586H87.4765L87.3986 67.4481L86.3079 67.6818L84.8277 70.0968C85.2951 70.6421 85.7626 71.1096 86.1521 71.4212C86.5417 71.7328 86.8532 71.9665 87.1648 72.0444L87.3986 72.1223L87.3207 72.5118C87.1649 72.5898 87.087 72.5897 87.0091 72.5897C86.9312 72.5897 86.7753 72.5897 86.6195 72.5897C86.3079 72.5897 85.9963 72.5118 85.7626 72.2781C85.451 72.1223 85.2173 71.8886 84.9836 71.577L84.3603 70.8759C84.1266 71.1875 83.8929 71.4991 83.6591 71.7328C83.4254 71.9665 83.1138 72.1223 82.8022 72.2781C82.3348 72.4339 81.9453 72.5118 81.5558 72.5118ZM81.7115 68.2271C81.322 68.5387 81.0104 68.7724 80.7767 69.084C80.543 69.3957 80.4651 69.7073 80.4651 70.0968C80.4651 70.4084 80.543 70.6421 80.6209 70.9538C80.7767 71.1875 80.9325 71.4212 81.0884 71.577C81.3221 71.7328 81.5558 71.8107 81.8674 71.8107C82.2569 71.8107 82.5685 71.6549 82.8801 71.4212C83.1917 71.1875 83.4254 70.8759 83.6591 70.4863L81.7115 68.2271ZM82.2569 64.4098C82.0232 64.4098 81.8673 64.4877 81.7115 64.5656C81.5557 64.6435 81.3999 64.7993 81.322 64.9551C81.2441 65.1109 81.1662 65.3447 81.1662 65.5005C81.1662 65.8121 81.2442 66.1237 81.4779 66.4353C81.6337 66.7469 81.9452 67.0585 82.1789 67.3702C82.5685 67.1365 82.8022 66.9027 82.958 66.5911C83.1138 66.3574 83.1917 66.0458 83.1917 65.7342C83.1917 65.5005 83.1139 65.2667 83.036 65.033C82.9581 64.7993 82.8023 64.6435 82.6464 64.5656C82.7243 64.4877 82.4906 64.4098 82.2569 64.4098Z" fill="black"/>
<path d="M91.5276 74.5375L91.2939 74.0701C91.8393 73.6027 92.2288 73.0574 92.5404 72.5899C92.7741 72.1225 92.9299 71.5772 92.9299 70.954V64.7216L91.7614 64.4879L91.8392 64.0984H95.1892L95.1113 64.4879L94.0206 64.7216V69.9412C94.0206 70.7982 93.9427 71.4993 93.7868 72.0446C93.631 72.59 93.3973 72.9795 93.0857 73.369C92.6183 73.7585 92.1508 74.148 91.5276 74.5375Z" fill="black"/>
<path d="M96.3574 72.3561L96.4353 71.9665L97.3701 71.6549L100.253 64.0203L100.954 63.8645L103.602 71.6549L104.459 71.8886L104.381 72.2781H101.343L101.421 71.8886L102.512 71.577L101.655 69.2399H98.8503L97.9934 71.6549L99.2398 71.8886L99.162 72.2781H96.3574V72.3561ZM99.162 68.8504H101.655L100.486 65.3447L99.162 68.8504Z" fill="black"/>
<path d="M109.523 72.5897C108.822 72.5897 108.199 72.4339 107.654 72.1223C107.108 71.8107 106.641 71.3433 106.329 70.72C106.018 70.0968 105.862 69.3957 105.862 68.5387C105.862 67.8376 106.018 67.1364 106.329 66.4353C106.641 65.7342 107.108 65.1888 107.654 64.7214C108.277 64.254 108.978 64.0203 109.835 64.0203C110.848 64.0203 111.627 64.254 112.172 64.6435L111.938 66.9027L111.471 66.8248L111.237 65.2667C110.848 64.7993 110.302 64.5656 109.445 64.5656C108.978 64.5656 108.511 64.7214 108.121 65.033C107.732 65.3446 107.42 65.7342 107.186 66.2795C106.953 66.8248 106.875 67.4481 106.875 68.1492C106.875 68.9282 107.03 69.6294 107.264 70.1747C107.498 70.72 107.887 71.1875 108.355 71.4991C108.822 71.8107 109.368 71.9665 109.913 71.9665C110.38 71.9665 110.77 71.8886 111.159 71.6549C111.549 71.4212 111.938 71.1875 112.25 70.8758L112.406 71.2654C112.25 71.4991 112.016 71.7328 111.705 71.9665C111.393 72.2002 111.081 72.356 110.692 72.5118C110.38 72.5118 109.991 72.5897 109.523 72.5897Z" fill="black"/>
<path d="M117.47 72.5897C116.768 72.5897 116.145 72.4339 115.6 72.0444C115.055 71.6549 114.587 71.1096 114.276 70.4863C113.964 69.8631 113.808 69.084 113.808 68.305C113.808 67.4481 113.964 66.669 114.276 66.0458C114.587 65.4225 115.054 64.8772 115.678 64.4877C116.301 64.0982 117.002 63.9424 117.859 63.9424C118.638 63.9424 119.261 64.0982 119.807 64.4877C120.352 64.8772 120.742 65.4225 121.053 66.0458C121.365 66.669 121.521 67.4481 121.521 68.2271C121.521 69.0062 121.365 69.7073 121.053 70.3305C120.742 70.9537 120.274 71.4991 119.651 71.9665C119.106 72.356 118.327 72.5897 117.47 72.5897ZM117.625 64.4877C117.002 64.4877 116.457 64.6435 116.067 64.9551C115.678 65.2667 115.366 65.7342 115.21 66.2016C115.055 66.7469 114.977 67.2922 114.977 67.9155C114.977 68.6945 115.054 69.3957 115.288 70.0189C115.522 70.6421 115.834 71.1096 116.223 71.4991C116.691 71.8886 117.158 72.0444 117.781 72.0444C118.404 72.0444 118.95 71.8886 119.339 71.577C119.729 71.2654 120.04 70.7979 120.196 70.3305C120.352 69.7852 120.508 69.2399 120.508 68.6945C120.508 67.9155 120.43 67.2144 120.196 66.5911C119.962 65.9679 119.651 65.5005 119.183 65.1109C118.716 64.6435 118.249 64.4877 117.625 64.4877Z" fill="black"/>
<path d="M126.039 72.356H122.923L123.001 71.9665L124.091 71.7328V64.8772L122.923 64.7214L123.001 64.3319L123.39 64.254C123.936 64.1761 124.403 64.0982 124.87 64.0982C125.26 64.0203 125.727 64.0203 126.195 64.0203C126.818 64.0203 127.285 64.0982 127.753 64.254C128.142 64.4098 128.454 64.6435 128.688 64.9551C128.921 65.2667 128.999 65.5784 128.999 65.89C128.999 66.2795 128.921 66.669 128.688 66.9806C128.454 67.2923 128.142 67.6039 127.675 67.7597V67.8376C128.142 67.8376 128.454 67.9934 128.766 68.1492C129.077 68.305 129.311 68.6166 129.467 68.8503C129.623 69.162 129.7 69.4736 129.7 69.7073C129.7 70.1747 129.623 70.5642 129.389 70.9538C129.155 71.3433 128.766 71.6549 128.298 71.8886C127.597 72.2781 126.896 72.356 126.039 72.356ZM125.026 64.4877V67.8376H126.896C127.208 67.6818 127.441 67.4481 127.597 67.2143C127.753 66.9806 127.831 66.669 127.831 66.2795C127.831 65.7342 127.675 65.2667 127.285 64.9551C126.896 64.6435 126.351 64.4877 125.649 64.4877C125.416 64.4877 125.182 64.4877 125.026 64.4877ZM125.026 68.305V71.8886H126.584C127.052 71.8886 127.441 71.8107 127.675 71.6549C127.987 71.4991 128.22 71.2654 128.298 70.9538C128.454 70.72 128.532 70.4084 128.532 70.0968C128.532 69.7852 128.454 69.5515 128.298 69.2399C128.142 68.9282 127.987 68.7724 127.675 68.5387C127.363 68.3829 127.052 68.305 126.584 68.305H125.026Z" fill="black"/>
<path d="M16.8955 77.3419L32.0868 77.1861L47.2782 77.1082L77.7387 77.0303L108.199 77.1082L123.391 77.1861L138.582 77.3419L123.391 77.4977L108.199 77.5756L77.7387 77.6535L47.2782 77.5756L32.0868 77.4977L16.8955 77.3419Z" fill="black"/>
<path d="M28.5029 81.0042V80.8484H29.9831V81.0042L29.4378 81.0821L30.3726 82.796L31.3075 81.0821L30.7622 81.0042V80.8484H32.0866V81.0042L31.697 81.0821L30.6064 83.1076V84.432L31.1517 84.5099V84.7436H29.5936V84.5878L30.1389 84.432V83.1855L29.0483 81.0821L28.5029 81.0042Z" fill="black"/>
<path d="M34.4237 84.8208C34.1121 84.8208 33.8004 84.7429 33.4888 84.5092C33.2551 84.3534 33.0214 84.0418 32.8656 83.7302C32.7098 83.4185 32.6318 83.1069 32.6318 82.7174C32.6318 82.3279 32.7098 81.9383 32.8656 81.6267C33.0214 81.3151 33.2551 81.0814 33.5667 80.9256C33.8783 80.7698 34.1899 80.6919 34.5794 80.6919C34.969 80.6919 35.2806 80.7698 35.5143 80.9256C35.748 81.0814 35.9817 81.393 36.1375 81.7046C36.2933 82.0163 36.3713 82.3279 36.3713 82.7174C36.3713 83.1069 36.2933 83.4185 36.1375 83.7302C35.9817 84.0418 35.748 84.2755 35.4364 84.5092C35.2027 84.7429 34.8911 84.8208 34.4237 84.8208ZM34.5016 80.9256C34.1899 80.9256 33.9562 81.0035 33.8004 81.1593C33.6446 81.3151 33.4888 81.5488 33.4109 81.7825C33.333 82.0163 33.2551 82.3279 33.2551 82.5616C33.2551 82.9511 33.333 83.2627 33.4109 83.5743C33.4888 83.886 33.6446 84.1197 33.8783 84.2755C34.112 84.4313 34.3458 84.5092 34.6574 84.5092C34.969 84.5092 35.2027 84.4313 35.3585 84.2755C35.5143 84.1197 35.6701 83.886 35.748 83.6522C35.8259 83.4185 35.9038 83.1069 35.9038 82.8732C35.9038 82.4837 35.8259 82.1721 35.748 81.8605C35.6701 81.5488 35.5143 81.3151 35.2806 81.1593C35.0469 81.0814 34.8132 80.9256 34.5016 80.9256Z" fill="black"/>
<path d="M37.6176 81.0814L37.0723 81.0035V80.8477H38.6303V81.0035L38.085 81.0814V83.1848C38.085 83.6522 38.1629 84.0417 38.3966 84.1976C38.6304 84.4313 38.8641 84.5092 39.2536 84.5092C39.5652 84.5092 39.8768 84.4313 40.0326 84.1976C40.1884 83.9638 40.3443 83.6522 40.3443 83.2627V81.0814L39.7989 81.0035V80.8477H41.2012V81.0035L40.6559 81.0814V83.1848C40.6559 83.7301 40.5001 84.1975 40.2664 84.4313C40.0327 84.7429 39.6431 84.8208 39.0978 84.8208C38.085 84.8208 37.6176 84.2754 37.6176 83.2627V81.0814Z" fill="black"/>
<path d="M43.3826 84.7429H41.7466V84.5871L42.2919 84.4313V81.1593L41.7466 81.0814V80.9256C42.0582 80.8477 42.2919 80.8477 42.5256 80.8477C42.7593 80.8477 42.993 80.8477 43.1488 80.8477C43.6163 80.8477 43.9279 80.9256 44.1616 81.0814C44.3954 81.2372 44.5512 81.4709 44.5512 81.7825C44.5512 82.0162 44.4732 82.172 44.3174 82.4057C44.1616 82.5615 43.9279 82.7953 43.6163 82.8732L44.2395 83.7301C44.3953 83.9638 44.4732 84.1196 44.629 84.1976C44.707 84.2755 44.7848 84.3534 44.8628 84.4313C44.9407 84.5092 45.0185 84.5092 45.0965 84.5871L45.2523 84.665V84.8208C45.1744 84.8208 45.0965 84.8208 45.0965 84.8987C45.0185 84.8987 45.0186 84.8987 44.9407 84.8987C44.707 84.8987 44.5512 84.8208 44.3953 84.665C44.2395 84.5091 44.0837 84.2754 43.9279 84.0417L43.3826 83.029H42.7593V84.5092L43.3826 84.5871V84.7429ZM42.7593 81.0035V82.7953H43.4605C43.6163 82.7174 43.85 82.6395 43.9279 82.4836C44.0837 82.3278 44.1616 82.172 44.1616 81.9383C44.1616 81.7825 44.0837 81.6267 44.0058 81.4709C43.9279 81.3151 43.85 81.2372 43.6942 81.1593C43.5384 81.0814 43.3826 81.0814 43.1488 81.0814C43.0709 81.0814 42.993 81.0814 42.9151 81.0814C42.8372 81.0035 42.8372 81.0035 42.7593 81.0035Z" fill="black"/>
<path d="M47.356 80.7698H50.7838L50.7058 81.8605H50.4721L50.3942 81.0814H49.3036V84.5092L49.8489 84.5871V84.8208H48.2908V84.665L48.8362 84.5092V81.0814H47.8234L47.6676 81.9383H47.4338L47.356 80.7698Z" fill="black"/>
<path d="M51.3286 81.0035V80.8477H54.3669L54.289 81.8604H54.0553L53.9774 81.0814H52.4193V82.7174H53.432L53.5879 82.3278H53.8216L53.7437 83.5743H53.51L53.432 82.9511H52.4972V84.5871H54.2111L54.4448 83.808H54.6785L54.6006 84.8208H51.5624V84.665L52.1077 84.5092V81.1593L51.3286 81.0035Z" fill="black"/>
<path d="M55.146 84.7428V84.587L55.5355 84.5091L56.782 82.8731L55.6134 81.1592L55.146 81.0814V80.9255H56.6262V81.0814L56.1587 81.2371L57.0936 82.5615L58.1063 81.2371L57.561 81.1592V81.0034H58.8075V81.1592L58.418 81.2371L57.2494 82.8731L58.418 84.6649L58.8854 84.7428V84.8987H57.4052V84.7428L57.9505 84.587L56.9378 83.1068L55.8472 84.587L56.3924 84.6649V84.8987H55.146V84.7428Z" fill="black"/>
<path d="M59.5869 80.7698H63.0147L62.9368 81.8605H62.703L62.6251 81.0814H61.5345V84.5092L62.0799 84.5871V84.8208H60.5218V84.665L61.0671 84.5092V81.0814H60.0544L59.8985 81.9383H59.6648L59.5869 80.7698Z" fill="black"/>
<path d="M66.6759 84.8208C66.3642 84.8208 66.0526 84.7429 65.8188 84.5871C65.5851 84.4313 65.3515 84.1976 65.1957 83.8859C65.0399 83.5743 64.9619 83.2627 64.9619 82.7953C64.9619 82.4837 65.0399 82.0942 65.1957 81.7825C65.3515 81.4709 65.5851 81.1593 65.8188 81.0035C66.1305 80.7698 66.4421 80.6919 66.9095 80.6919C67.3769 80.6919 67.7665 80.7698 68.0002 81.0035L67.9223 82.0942H67.6886L67.6107 81.3151C67.4549 81.0814 67.1433 81.0035 66.7537 81.0035C66.52 81.0035 66.2863 81.0814 66.1305 81.2372C65.9747 81.393 65.8189 81.5488 65.6631 81.8605C65.5852 82.0942 65.5073 82.4058 65.5073 82.7953C65.5073 83.1848 65.5852 83.4964 65.6631 83.7302C65.8189 83.9639 65.9746 84.1976 66.2084 84.3534C66.4421 84.5092 66.6758 84.5871 66.9874 84.5871C67.2211 84.5871 67.377 84.5092 67.6107 84.4313C67.8444 84.3534 68.0002 84.1976 68.156 84.0418L68.2339 84.1976C68.156 84.2755 68.0002 84.4313 67.9223 84.5092C67.7665 84.5871 67.6107 84.7429 67.4549 84.7429C67.0654 84.8208 66.9096 84.8208 66.6759 84.8208Z" fill="black"/>
<path d="M68.7017 84.7429V84.5871L69.1691 84.4313L70.5714 80.7698L70.8829 80.6919L72.1295 84.4313L72.519 84.5092V84.7429H71.0388V84.5871L71.5841 84.4313L71.1946 83.3406H69.8702L69.4807 84.5092L70.1039 84.5871V84.8208H68.7017V84.7429ZM70.026 83.029H71.1946L70.6493 81.393L70.026 83.029Z" fill="black"/>
<path d="M73.22 81.0035V80.8477H74.2328L76.3361 84.0417V81.0814L75.713 81.0035V80.8477H77.1152V81.0035L76.5699 81.0814V84.7429L76.2583 84.8208L73.999 81.393V84.4313L74.5444 84.5092V84.7429H73.1421V84.5871L73.6875 84.4313V81.0814L73.22 81.0035Z" fill="black"/>
<path d="M80.6989 84.7429H79.2188V84.5871L79.764 84.4313V81.1593L79.2188 81.0814V80.9256H79.3745C79.6082 80.8477 79.842 80.8477 80.0757 80.8477C80.2315 80.8477 80.4652 80.8477 80.6989 80.8477C81.0106 80.8477 81.2442 80.9256 81.4 81.0035C81.6337 81.0814 81.7117 81.2372 81.8675 81.3151C81.9454 81.4709 82.0233 81.6267 82.0233 81.7825C82.0233 81.9383 81.9454 82.172 81.8675 82.3278C81.7896 82.4836 81.5558 82.6394 81.4 82.7174C81.6337 82.7174 81.7896 82.7953 81.9454 82.8732C82.1012 82.9511 82.1791 83.1069 82.257 83.1848C82.3349 83.3406 82.3349 83.4964 82.3349 83.5743C82.3349 83.808 82.257 83.9638 82.1791 84.1976C82.1011 84.3534 81.8675 84.5091 81.6338 84.665C81.478 84.665 81.1664 84.7429 80.6989 84.7429ZM80.2314 81.0035V82.5616H81.1664C81.3222 82.4837 81.4001 82.4058 81.478 82.2499C81.5559 82.0941 81.6338 81.9383 81.6338 81.7825C81.6338 81.5488 81.5558 81.3151 81.4 81.1593C81.2442 81.0035 80.9326 80.9256 80.621 80.9256C80.4652 81.0035 80.3094 81.0035 80.2314 81.0035ZM80.2314 82.7953V84.5092H80.9326C81.1663 84.5092 81.3222 84.4313 81.478 84.3533C81.6338 84.2754 81.7116 84.1975 81.7895 84.0417C81.8674 83.8859 81.8675 83.808 81.8675 83.6522C81.8675 83.4964 81.8674 83.3406 81.7895 83.2627C81.7116 83.1069 81.6338 83.029 81.478 82.9511C81.3222 82.8732 81.1663 82.7953 80.9326 82.7953H80.2314Z" fill="black"/>
<path d="M83.0361 81.0035V80.8477H86.0743L85.9964 81.8604H85.7628L85.6848 81.0814H84.1267V82.7174H85.1395L85.2953 82.3278H85.529L85.4511 83.5743H85.2174L85.1395 82.9511H84.2047V84.5871H85.9186L86.1523 83.808H86.386L86.3081 84.8208H83.2698V84.665L83.8152 84.5092V81.1593L83.0361 81.0035Z" fill="black"/>
<path d="M89.8916 84.7429H88.1777V84.5871L88.723 84.4313V81.1593L88.1777 81.0814V80.9256H88.3335C88.5672 80.8477 88.8009 80.8477 89.0347 80.8477C89.1905 80.8477 89.4242 80.8477 89.6579 80.8477C90.1254 80.8477 90.5148 80.9256 90.7485 81.0814C91.0601 81.2372 91.216 81.5488 91.216 81.9383C91.216 82.172 91.1381 82.4058 90.9823 82.6395C90.8265 82.8732 90.6707 82.9511 90.437 83.1069C90.2033 83.1848 89.9695 83.2627 89.7358 83.2627C89.6579 83.2627 89.58 83.2627 89.5021 83.2627L89.4242 83.029H89.58C89.9695 83.029 90.2033 82.9511 90.437 82.7174C90.5928 82.5615 90.6706 82.3278 90.6706 82.0162C90.6706 81.8604 90.5928 81.6267 90.5149 81.4709C90.437 81.3151 90.2811 81.1593 90.1253 81.0814C89.9695 81.0035 89.7358 80.9256 89.5021 80.9256C89.4242 80.9256 89.3463 80.9256 89.3463 80.9256C89.2684 80.9256 89.1904 80.9256 89.1904 80.9256V84.3533L89.9695 84.4313L89.8916 84.7429Z" fill="black"/>
<path d="M91.7612 84.7429V84.5871L92.3065 84.4313V81.0814L91.7612 80.9256V80.7698H93.3193V80.9256L92.774 81.0035V84.4313H94.3321L94.6436 83.5743H94.8774L94.7995 84.5871H91.7612V84.7429Z" fill="black"/>
<path d="M95.5005 84.7429V84.5871L95.9679 84.4313L97.3701 80.7698L97.6817 80.6919L98.9282 84.4313L99.3177 84.5092V84.7429H97.8376V84.5871L98.3829 84.4313L97.9934 83.3406H96.6691L96.2795 84.5092L96.9027 84.5871V84.8208H95.5005V84.7429ZM96.8248 83.029H97.9934L97.4481 81.393L96.8248 83.029Z" fill="black"/>
<path d="M101.811 84.8208C101.499 84.8208 101.187 84.7429 100.954 84.5871C100.72 84.4313 100.486 84.1976 100.33 83.8859C100.175 83.5743 100.097 83.2627 100.097 82.7953C100.097 82.4837 100.175 82.0942 100.33 81.7825C100.486 81.4709 100.72 81.1593 100.954 81.0035C101.265 80.7698 101.577 80.6919 102.044 80.6919C102.512 80.6919 102.901 80.7698 103.135 81.0035L103.057 82.0942H102.823L102.745 81.3151C102.59 81.0814 102.278 81.0035 101.889 81.0035C101.655 81.0035 101.421 81.0814 101.265 81.2372C101.109 81.393 100.954 81.5488 100.798 81.8605C100.72 82.0942 100.642 82.4058 100.642 82.7953C100.642 83.1848 100.72 83.4964 100.798 83.7302C100.954 83.9639 101.11 84.1976 101.343 84.3534C101.577 84.5092 101.811 84.5871 102.122 84.5871C102.356 84.5871 102.512 84.5092 102.745 84.4313C102.979 84.3534 103.135 84.1976 103.291 84.0418L103.369 84.1976C103.291 84.2755 103.135 84.4313 103.057 84.5092C102.901 84.5871 102.745 84.7429 102.59 84.7429C102.2 84.8208 102.044 84.8208 101.811 84.8208Z" fill="black"/>
<path d="M103.836 81.0035V80.8477H106.875L106.797 81.8604H106.563L106.485 81.0814H104.927V82.7174H105.94L106.096 82.3278H106.329L106.251 83.5743H106.018L105.94 82.9511H105.005V84.5871H106.719L106.953 83.808H107.186L107.108 84.8208H104.07V84.665L104.615 84.5092V81.1593L103.836 81.0035Z" fill="black"/>
<path d="M109.134 84.7429H107.654V84.5871L108.199 84.4313V81.1593L107.654 81.0814V80.9256C107.965 80.8477 108.277 80.8477 108.511 80.7698C108.744 80.7698 108.978 80.7698 109.212 80.7698C109.757 80.7698 110.147 80.8477 110.536 81.0035C110.848 81.1593 111.082 81.393 111.237 81.7046C111.393 82.0163 111.471 82.3279 111.471 82.6395C111.471 83.029 111.393 83.3406 111.237 83.6522C111.082 83.9639 110.77 84.1976 110.458 84.4313C110.069 84.665 109.601 84.7429 109.134 84.7429ZM108.667 81.0035V84.5092H109.212C109.601 84.5092 109.913 84.4313 110.147 84.2755C110.38 84.1197 110.614 83.9639 110.77 83.6522C110.926 83.4185 111.004 83.1069 111.004 82.7953C111.004 82.4058 110.926 82.0942 110.77 81.8605C110.614 81.5488 110.458 81.393 110.147 81.2372C109.913 81.0814 109.524 81.0035 109.134 81.0035C108.9 81.0035 108.744 81.0035 108.667 81.0035Z" fill="black"/>
<path d="M113.418 81.0035V80.8477H114.977V81.0035L114.431 81.0814V82.6395H116.535V81.0814L115.989 81.0035V80.8477H117.547V81.0035L117.002 81.0814V84.4313L117.547 84.5092V84.7429H115.989V84.5871L116.535 84.4313V82.8732H114.431V84.4313L115.054 84.5092V84.7429H113.496V84.5871L114.042 84.4313V81.0814L113.418 81.0035Z" fill="black"/>
<path d="M118.327 81.0035V80.8477H121.365L121.287 81.8604H121.053L120.975 81.0814H119.417V82.7174H120.43L120.586 82.3278H120.82L120.742 83.5743H120.508L120.43 82.9511H119.495V84.5871H121.209L121.443 83.808H121.677L121.599 84.8208H118.56V84.665L119.106 84.5092V81.1593L118.327 81.0035Z" fill="black"/>
<path d="M123.702 84.7429H122.066V84.5871L122.611 84.4313V81.1593L122.066 81.0814V80.9256C122.378 80.8477 122.611 80.8477 122.845 80.8477C123.079 80.8477 123.312 80.8477 123.468 80.8477C123.936 80.8477 124.247 80.9256 124.481 81.0814C124.715 81.2372 124.87 81.4709 124.87 81.7825C124.87 82.0162 124.793 82.172 124.637 82.4057C124.481 82.5615 124.247 82.7953 123.936 82.8732L124.559 83.7301C124.715 83.9638 124.793 84.1196 124.948 84.1976C125.026 84.2755 125.104 84.3534 125.182 84.4313C125.26 84.5092 125.338 84.5092 125.416 84.5871L125.572 84.665V84.8208C125.494 84.8208 125.416 84.8208 125.416 84.8987C125.338 84.8987 125.338 84.8987 125.26 84.8987C125.026 84.8987 124.87 84.8208 124.715 84.665C124.559 84.5091 124.403 84.2754 124.247 84.0417L123.702 83.029H123.079V84.5092L123.702 84.5871V84.7429ZM123.079 81.0035V82.7953H123.78C123.936 82.7174 124.169 82.6395 124.247 82.4836C124.403 82.3278 124.481 82.172 124.481 81.9383C124.481 81.7825 124.403 81.6267 124.325 81.4709C124.247 81.3151 124.169 81.2372 124.014 81.1593C123.858 81.0814 123.702 81.0814 123.468 81.0814C123.39 81.0814 123.312 81.0814 123.234 81.0814C123.157 81.0035 123.157 81.0035 123.079 81.0035Z" fill="black"/>
<path d="M126.273 81.0035V80.8477H129.311L129.233 81.8604H129L128.922 81.0814H127.364V82.7174H128.376L128.532 82.3278H128.766L128.688 83.5743H128.454L128.376 82.9511H127.442V84.5871H129.155L129.389 83.808H129.623L129.545 84.8208H126.507V84.665L127.052 84.5092V81.1593L126.273 81.0035Z" fill="black"/>
</svg>
