<svg width="226" height="130" viewBox="0 0 226 130" fill="none" xmlns="http://www.w3.org/2000/svg">
<g opacity="0.5">
<rect x="224" width="2" height="2" fill="#444444"/>
<rect x="192" y="32" width="2" height="2" fill="#444444"/>
<rect x="224" y="32" width="2" height="2" fill="#444444"/>
<rect x="160" y="64" width="2" height="2" fill="#444444"/>
<rect x="192" y="64" width="2" height="2" fill="#444444"/>
<rect x="224" y="64" width="2" height="2" fill="#444444"/>
<rect x="128" y="96" width="2" height="2" fill="#444444"/>
<rect x="160" y="96" width="2" height="2" fill="#444444"/>
<rect x="192" y="96" width="2" height="2" fill="#444444"/>
<rect x="224" y="96" width="2" height="2" fill="#444444"/>
<rect y="128" width="2" height="2" fill="#444444"/>
<rect x="32" y="128" width="2" height="2" fill="#444444"/>
<rect x="64" y="128" width="2" height="2" fill="#444444"/>
<rect x="96" y="128" width="2" height="2" fill="#444444"/>
<rect x="128" y="128" width="2" height="2" fill="#444444"/>
<rect x="160" y="128" width="2" height="2" fill="#444444"/>
<rect x="192" y="128" width="2" height="2" fill="#444444"/>
<rect x="224" y="128" width="2" height="2" fill="#444444"/>
</g>
</svg>
